M48
;Layer_Color=6321
;FILE_FORMAT=2:5
INCH,LZ
;TYPE=PLATED
T1F00S00C0.01000
T2F00S00C0.01200
T3F00S00C0.02800
T4F00S00C0.03500
T5F00S00C0.03543
T6F00S00C0.03937
T9F00S00C0.04000
T10F00S00C0.04331
T11F00S00C0.05118
%
T01
X0175Y01942
Y0197633
Y0201067
Y02045
X01785
Y0201067
Y0197633
Y01942
X0182
Y0197633
Y0201067
Y02045
T02
X01051Y01437
X01676Y01251
X0213856Y0115856
X02235Y01323
X02282Y01295
X02243Y01422
X01981Y01506
X02904Y01243
X03026Y01289
X03245Y01105
X0326004Y0155496
X03026Y01577
X0308661Y0173361
X03087Y01806
X0264224Y01763
X02531Y0177
X02477Y01749
X0238Y018102
X02378Y01848
X02435Y02036
X02198
X02082Y01969
X02097Y01631
X02115Y0158
X02198Y01607
X02267Y01631
X023325Y01594
X0276007Y0162993
X02728Y01998
X02774Y02053
X02655Y01937
X02619Y02193
X02551Y0222
X02619Y02373
X02409Y02369
X02475Y02496
X02766Y02448
X02904Y02895
X02619Y02981
X02475Y03003
X02075Y02953
X0193Y02811
X01875Y02784
X01839Y02866
X01638Y03038
X02276Y02646
X01705Y0163
X0154556Y0349356
X0149985Y0374315
X01435Y0387992
X0135Y03849
X01301Y03849
X0123622Y04035
X01263Y04105
X01234Y04224
X01184Y04287
X01143Y04259
X0113779Y04035
X01435Y04013
X0154556Y0413444
X01375Y04188
X0150563Y0451563
X01522Y04658
X01414Y04678
X01375Y04679
X0125591Y03464
X01573Y03428
X01599Y03399
X0175Y03425
X01979Y03464
X02075Y03575
X02111Y03819
X02108Y03971
X02009Y03982
X01979Y03953
X01916Y03975
X01979Y04076
X02037
X021535Y040875
X0221Y04121
X0227Y04117
X02368Y0421256
X02405Y04355
X02435Y04335
X02465Y0430709
X02493Y04268
X0255Y04235
Y0445
Y04491
X02376Y04443
X02379Y04404
X02149Y04276
X02037Y04335
X02009Y04372
X0198425Y0440475
X01884Y04408
X0189Y04443
X01893Y04482
X02009Y04485
X02037Y04559
X01948Y04608
Y04648
X01772Y04622
X01776Y04561
X01777Y04524
X0177686Y0436614
X01777Y04326
X017874Y04292
Y04255
X018337
X0188
X0192Y04277
X01949Y04314
X01832Y04408
X01623Y04425
X01568Y04426
X01599Y04286
X01636Y04259
X01638Y04224
X01688Y04112
X01735
X01785
X01832
X01868
X01753Y03955
X01754Y03905
X01908Y03811
Y03717
X01844Y03715
X02008Y03881
X0233156Y0397756
X02485Y0386685
X02379Y036
X02539Y03516
X02591Y03385
X02435
X0239571Y0319571
X02435Y03155
X0261Y03209
X0227Y0324
X0268343Y0366757
X0291315Y0386685
X0308661Y0386461
X0299Y04025
X03003Y04622
X02777
X02802Y04542
X0219Y04683
X01573Y04059
X0172844Y0475244
X0173056Y0480756
X01815Y04845
X0179Y0495
X0196457Y04899
Y0485
X02038
Y05014
X0199Y04984
X02216Y04924
Y04864
X02225Y04711
X02149Y04692
X0237Y04711
X02555Y047815
Y04825
X02465Y0495
X02435Y04985
X02405Y0501
X0254Y05131
X02773Y0509
X02816Y0501
X02802Y04945
X02828Y0492
X02777Y04883
X0286444Y04841
X0292027
X02985Y04846
X0299705Y0470905
X0310356Y04744
X0297146Y05082
X0292027
X01857Y04717
X01263Y04692
X0123063Y04727
X01184Y04866
X0127Y04907
X01413Y04906
X0127Y0506
X01143Y0499071
T03
X02042Y01485
X02941Y01559
X0325261Y0138393
X03155Y0176
X02941Y01811
X0252975Y01935
X02377Y02198
X0233012Y0255512
X02526Y02455
X02771Y0238744
X0252559Y0295959
X0170505Y0294094
X01697Y02168
X0176Y02169
X01761Y02114
X01825
Y02168
X01633
X0162Y0185
Y01785
X0169
Y0185
X0176
Y01785
X0183
Y0185
X02034Y01853
X02097
X0216
Y01788
X02097
X02034
X0155Y01785
Y0185
X0148Y01785
X0141
X0134
X013Y01914
Y019685
Y02023
X01234
Y019685
Y01914
X01488Y02021
X01415Y02185
Y0225
X0135
Y02185
X01488Y02285
X017874Y032176
T04
X0217126Y0344094
Y0354094
Y0364094
T05
X0175787Y0225
X0185787
Y0235
X0175787
Y0245
X0185787
Y0255
X0175787
Y0265
X0185787
X0262Y04035
X0272
Y04135
X0262
Y04235
X0272
Y04335
X0262
Y04435
X0272
Y04535
X0262
Y04635
X0272
X0315Y04815
Y04915
Y05015
X0272Y04935
Y04835
Y04735
X0262
Y04835
Y04935
X0249Y05075
X0239
X0229
X0219
X0209
X0199
X0189
X0179
T06
X0207283Y021811
X0217126
X0226968
Y0285039
X0217126
X0207283
X0288976Y0304724
X0308661
X0145275
X0125591
Y0361811
X0135433
X0145275
X0288976
X0298819
X0308661
T09
X01323Y01177
X01676Y01325
Y01476
X01991Y01101
X02324Y0153
X0265Y01427
Y01286
X0315551Y0189567
X0305709
X03028Y02316
X02601Y02111
X02662Y03061
X01383Y01629
X01173Y01662
X01318Y04349
X01728Y03805
Y03664
X0175Y0332
X02203Y03785
X02194Y03945
X03204Y04161
X032Y04262
Y04364
Y04466
Y04568
Y0467
X01529Y0477
X01525Y0487
Y0497
Y0507
T10
X0149213Y0117717
Y0151181
X0186614
Y0117717
X02477
Y0151181
X0285039
Y0117717
Y0162993
X02477
X0186614
X0149213
T11
X0322441Y0261417
Y0281102
X0273228
Y0261417
X0161024
Y0281102
X0111811
Y0261417
M30
