M48
;Layer_Color=6321
;FILE_FORMAT=4:4
METRIC,LZ
;TYPE=PLATED
T1F00S00C0.2540
T2F00S00C0.3048
T4F00S00C0.7112
T5F00S00C0.8890
T6F00S00C0.9000
T7F00S00C1.0000
T8F00S00C1.0160
T9F00S00C1.1001
T10F00S00C1.1999
T11F00S00C2.3000
T12F00S00C2.4412
T13F00S00C3.0000
;TYPE=NON_PLATED
T14F00S00C0.8890
T15F00S00C1.0000
T16F00S00C2.3622
%
T01
X004445Y00493268
X0046228
Y0051943
X004445
T02
X00372415Y00301295
X00475793
X00596392Y00276098
X00614054Y0035218
X00617728Y00376682
X00635254Y00386296
X00642874Y00393954
X00596392
X00695836Y00363852
X00701802Y0034036
X00704088Y00293624
X00724272Y00310778
X00704694Y00461108
X0067523
X00647954Y00473964
X00617728Y00465328
X00588772
X00599186Y00416306
X00628904Y0040386
X00642874Y00430022
X0066421Y0050292
X00675513Y00521335
X00674506Y0053809
X00675259Y00564769
X0065786Y00586486
X00635254Y00597154
X00628904Y00591058
X00635254Y00612902
X00632714Y0065786
X0062103Y00743712
X00622436Y00783726
X00712978Y00753618
X00703462Y00598306
X00686172Y0059905
X00733552Y00586486
X00715137Y00564769
X00704694Y00502314
X00737362Y00475234
X00762356Y00491846
X00788416Y004699
Y0051435
X0078575Y0055775
Y0060275
X0076454Y00613664
X00588772Y00538226
X00560578Y00496824
X00538226Y0050165
X00496824Y00597154
X00489204Y00591058
X00508Y007239
X00464566Y00781304
X00470154Y00790194
X00443484Y00781304
X00475793Y00423672
X00372415Y00427025
X00272796Y00743712
X0038542Y00798424
X0039624Y00931418
X0037687Y00975802
X00354417Y00977813
X00331963Y00977377
X00330708Y0102743
Y01043178
X00352552Y01046734
X00359664Y0105029
X00370078Y01028954
X00346456Y01018032
X00352552Y01089914
X00359664Y01115822
X00370078Y0112522
X00370958Y01136532
X0037687Y01104646
X00328794Y01109472
X00311794Y01109726
X0033147Y01134364
X00323416Y01176856
X0028194Y01173988
Y01132078
X00286056Y01066598
X00279048Y01060098
X00286056Y01043178
X00271018Y01000134
X00290068Y00931418
X00362306Y01185824
X00388484Y0118579
X00389518Y0116879
X0041275Y01153414
X00412496Y01137412
X0041275Y0112141
X00405638Y01110742
X0045466
X00462534Y01104646
X00449834Y01092708
X00462788Y01076452
X00457708Y01052068
X00489204Y01041772
X00495046Y01023112
X0050927Y01048004
X0049784Y0106426
X0050927Y01088898
X00516582Y01085034
X00524002Y01081532
X00530606Y01086612
X0053721Y01098042
X00543814Y010922
X00552958Y01091184
X00558546Y01130046
X00567182Y01141154
X00584132Y01124204
X00584708Y01110488
X00606806Y01101598
X00639826Y01110488
X0064643Y01137412
X00632714Y01166114
X00617728Y01163828
X00600964Y01159002
X00666108Y01176154
X00709168Y01164336
X00708152Y0113284
X00689102Y01124204
Y01090168
X0069635Y0108292
X0069215Y01074674
X00692268Y0106592
X00667004Y01053338
X00647954Y01048004
X0064643Y01068832
X00658504Y01079872
Y01031494
X00675386Y01024772
X00681972Y01002538
X00692268Y01011682
X00717296Y01013206
X00733298Y01012952
X00756158Y01018032
Y00986028
X00766963Y00975751
X00744916Y00975802
X0068199Y00973836
X00691896Y00962152
X0070358Y00931926
X00632714Y00949198
Y00962152
X00667004Y00986028
X00562864Y00989838
X00552958Y01002538
X00543814Y00996188
X00530606Y00964184
X00502158Y00976122
X00562356Y00950468
X00551502Y00889323
X00516636Y00898144
X00477774
X00417391Y00889323
X00405638Y0098425
X00417391Y01006416
X00443738Y01018032
X00491582Y01098642
X00480314Y01114298
X00493268Y011303
X0050546
X00537464Y0112903
X00493014Y01186942
X00456826Y01176154
X00456946Y01165606
X00456692Y01153414
X0056896Y01055624
X0058674Y0105791
X00580136Y01014984
X00639826Y00903732
X0062611Y0087884
X00623062Y00811276
X00675386Y00800726
X00686172Y00807974
X00734Y00821436
X0076454Y0087884
X0074715Y01041772
X0073533Y01091946
X00719328Y01078484
X00780406Y01090304
X00792988Y01128522
Y0115062
X0078969Y0116434
X00780406Y01144524
X0053721Y00821436
X00477774Y00798424
X00807974Y0093091
X00780542Y011938
X00785876Y01213612
X0078969Y0122834
X00738632Y0122047
X0072859Y01210446
Y011938
X00689238Y01228262
X00672238Y01228762
X00660264Y01210446
X0064262Y01201674
X0064135Y01219454
X00609482Y01233052
X00616458Y0124079
X00565912Y0123952
X00556582Y01239334
X0054825Y01246558
X00538808
X005134Y0124475
X00496582Y01242072
X00483734Y01232272
X00466734Y01233288
X004626Y0126775
X00488Y01274072
X0054825Y0126775
X00556582Y01274072
X00575564Y0126
Y01228598
X00526982Y01196154
X00509016Y01196086
X00500888Y0119126
X00456826Y0119634
X00436254Y01218574
X00421894Y01256792
X00660264Y01272264
X0069376Y0125576
X0069Y0130275
X007065
X00381254Y01294638
X00396494Y01263904
X00371856Y01241298
X00376682Y01203706
X0032911Y01194382
T04
X0041148Y0045339
X0042926
Y004699
X0044704
Y0045339
X0046482
Y004699
X00518414Y00469646
Y0045212
X00536194
Y00469646
X0046355Y00536956
Y00550926
X0044704
X00447294Y00536956
X00431038Y00550926
X00414782
Y00722118
X00432562Y00778002
X00585812Y00576414
X00377444Y0058039
X0035941Y005715
X00337566
Y0054864
X0035941
X00377444Y00512572
X0037592Y004699
Y0045339
X0035814
X0034036
X003937
X00277622Y00455168
X00271272Y00499872
X0028321Y00551688
X00282702Y00572262
X00432562Y00953008
X00431546Y0100584
T05
X00551502Y00935482
Y00960882
Y00986282
T06
X00443992Y00575056
Y00600456
Y00625856
Y00651256
Y00676656
X00469392
Y00651256
Y00625856
Y00600456
Y00575056
X004626Y0128905
X00488
X005134
X005388
X005642
X005896
X00615
X006404
T07
X00734Y00664996
X00779
Y00729996
X00734
Y00774
X00784
X00369
X00364Y00729996
X00319
Y00774
Y00664996
X00364
X00369Y00919
X00344
X00319
X00734
X00759
X00784
T08
X0081153Y00412496
Y00448818
X00753618Y00542036
X00742188Y00611378
Y00637032
X00668782Y0064516
X00671068Y00781812
X00613918Y00481838
X00559562Y00452374
X0038862Y0112141
X00272542Y01119378
X0066167Y00941832
Y00903732
X00795782Y01018032
Y01045464
X00829056Y01108964
Y01134618
X00634492Y01255776
X0030861Y0122682
X00310134Y0119888
T09
X0032258Y00271295
Y00301295
Y00386296
X0042418
Y00301295
Y00271295
X0052578
Y00301295
Y00386296
X0078042
Y00301295
Y00271295
T10
X00526501Y00622799
X00551502
X00576501
Y00782483
X00551502
X00526501
T11
X00771906Y00425196
X00348996Y00616712
X007982Y012682
X003048
T12
X00505Y006978
X00598002
X00287Y00844
X00401
X00505Y00857485
X00598002
X00702Y00844
X00816
T13
X0032258Y00336296
X0042418
X0052578
X0078042
T14
X00380746Y01247902
X00370586Y01298702
X00390906
T15
X008228Y0056025
Y0060025
T16
X00406146Y01247902
Y01279652
X00355346
Y01247902
M30
