M48
;Layer_Color=6321
;FILE_FORMAT=4:4
METRIC,LZ
;TYPE=PLATED
T1F00S00C0.2540
T2F00S00C0.3048
T3F00S00C0.7112
T4F00S00C0.8890
T5F00S00C0.9000
T6F00S00C1.0000
T8F00S00C1.0160
T9F00S00C1.1001
T10F00S00C1.1999
T11F00S00C2.4412
;TYPE=NON_PLATED
T12F00S00C0.8890
T13F00S00C2.3622
%
T01
X004445Y00493268
Y00501988
Y00510709
Y0051943
X0045339
Y00510709
Y00501988
Y00493268
X0046228
Y00501988
Y00510709
Y0051943
T02
X00344424Y00371602
X0045974Y00299212
X0058207Y00278892
Y00362556
X00601218Y00371602
X00643382Y00375412
X0068072Y00372872
X00705612Y00371602
X00719888Y00335736
X00726596Y00322736
X00673862Y0030988
X00624722Y00327778
X00752117Y00271295
X00840232Y00283718
Y00514096
X00772532Y00479806
X00752094Y00482337
X00743458Y00492096
X0074Y00509426
X00733044Y00526698
X0074Y00546198
X00743458Y00593344
X00760104Y00578476
X0072644Y00622799
X00719888Y00630174
X00696468Y00637286
X00679196Y00600456
X00679098Y00543208
X00678532Y00492096
X00665532Y00491946
X0065278Y00489966
X00703072Y00482337
X0071081Y00467224
X00696468Y00432054
X00743458Y00445516
X00772532Y00401574
X00601218Y00409702
X00606552Y00422656
Y00438912
X00624722Y00445516
X00620776Y0057404
X0061976Y00637286
X00629666Y00630174
X00665532Y00757376
X00664718Y0076581
X00679196
X00789686Y00729234
X00471678
X0046482Y00790194
X00560578Y00530352
X00538226Y0050165
X0045974Y0041021
X00403352Y00402082
Y00422656
X0038542Y00798424
X00388112Y00813054
X0037687Y00975802
X00354417Y00977813
X00331963Y00977377
X00314452Y00977138
Y01013714
X00335332Y01006348
X00367792Y0099441
X0037687Y01020252
X00369942Y01043568
X00369824Y01053338
X0037846Y01065276
X00378578Y01089524
X00369824Y0110744
X00323723
X00290576Y01083818
Y01038352
X0026748Y00972584
X00270764Y01156716
X00419354Y01155446
X00420116Y01132078
X00419608Y01112774
X0042213Y0107872
X0045163Y01078756
X0046482Y01083056
Y01072896
X0046355Y01110742
X00465582Y01134872
X00474472Y01129538
X0047637Y01153534
X00469392Y01168534
X00443992Y01178052
X0050546Y01157986
X0050419Y01128522
X00495418Y0109435
X00539496Y01088136
X0054737Y01086866
X0055753
X00563854Y0112296
X00580656Y01128534
X00587274Y01143534
X00571246Y0116205
X00572262Y01171194
X00573532Y01178814
X00572702Y01188534
X00585216Y01187958
X0062103Y01180592
X00620014Y0115824
X00619506Y0115062
X0061976Y01140968
X00617728Y01102614
Y01082294
X00611886Y01036828
X0059563Y01037082
X00579374Y01043178
X00564896Y0104267
X0056388Y01028192
X00587274Y01020318
X0055753Y00998982
X00511048Y01006856
X0051816Y01014222
X00493776Y01020318
X00535178Y01041146
X00528066Y00970026
X00551502Y00889323
X00571246Y00889254
X00611886Y00938022
X00643382Y00938022
X00629666Y00956564
X00628396Y00981964
X00699008Y00987806
X00681972Y01014222
X00705494Y01024772
X00747894Y01024772
X0074715Y01041772
X00776224Y01049782
X00780406Y01090304
X0073533Y01087374
X00720716Y0108292
X00686934Y01060704
X00664718Y01055506
X00672084Y0104267
X0068707Y0110871
X00695062Y01123306
X0069723Y01135888
X00673862Y0114427
Y0115824
X0069723Y01180592
X00705866Y01173534
X00780542Y0114427
X00792988Y0115062
Y01128522
X00653406Y0111506
X00636406
X00681972Y00943338
X00744916Y00975802
X00766963Y00975751
X00734Y00889254
X00703072Y00813308
X00477774Y00798424
X00417391Y00889323
X00401574Y0098679
X00405638Y01013714
X00399354Y01020252
X00417391Y01006416
X00432562Y0099441
X00405638Y01058926
X00399288Y010668
X00830816Y00972838
X00794114Y01286654
X00727456Y01272032
X00719074Y01264666
X00712072Y01271414
X0072898Y01245616
X00756412Y01217676
X0070485Y01209294
X00694182Y01215136
X00712072Y01194164
X00656082Y01198626
X00661806Y01232544
X00665226Y01248664
X00640198Y01231002
X00623198Y01230512
X00592836Y0126619
X00568706Y0127
X00546227Y01262253
X00539877Y01199769
X00528854Y01195832
X005207Y01199388
X00512191Y01199769
X00484632Y01222502
X0047637Y01230884
X00479416Y01240672
X00428752Y01208786
X00404622Y01213866
X0043346Y01279516
X00358902Y0124333
X00350774Y01226918
X00342646Y012319
X003302Y01236472
X0033528Y01220418
X00351126Y01207418
X00323723Y01195324
X00270764Y01208786
X0027051Y0122555
X00269748Y01242822
X0029464Y01271778
T03
X0041148Y0045339
X0042926
Y004699
X0044704
Y0045339
X0046482
Y004699
X00518414Y00469646
Y0045212
X00536194
Y00469646
X0046355Y00536956
Y00550926
X0044704
X00447294Y00536956
X00431038Y00550926
X00414782Y00551688
X00414784Y007018
X00432562Y00778002
X00585812Y00576414
X00777104Y00587248
X00709168Y00443738
X003937Y0045339
X0037592
Y004699
X0035814Y0045339
X0034036
X00277622Y00455168
X00271272Y00499872
X0028321Y00551688
X00282702Y00572262
X00337566Y005715
X0035941
Y00545846
X00337566
X00377444Y00512572
Y0058039
X00360296Y01133218
X00286512
X00440016Y01005928
X00432562Y00953008
X0052832Y0125095
X00321056Y01246378
X00311556Y0129987
T04
X00551502Y00935482
Y00960882
Y00986282
T05
X00443992Y00575056
X00469392
Y00600456
X00443992
Y00625856
X00469392
Y00651256
X00443992
Y00676656
X00469392
X0072898Y01167384
X0075438
X0077978
X0063246Y0128905
X0060706
X0058166
X0055626
X0053086
X0050546
X0048006
X0045466
T06
X00734Y00774
X00784
X00369
X00319
Y00919
X00344
X00369
X00734
X00759
X00784
T08
X00289814Y002794
X00375158
X00477012
X00612394Y00310642
X00704596Y00288798
X00659892Y00385318
X00795528Y00600456
X00822452
X00791464Y00445516
Y00414782
X00559562Y00452374
X00375666Y0042418
X00297688
X00275082Y01060196
X00381Y01122934
X00400558Y01086104
X00493776Y0104648
X00804672Y01041908
Y01093216
X00818896Y01143254
Y01177544
Y01214374
Y01250696
Y01287018
X00660908Y0129286
Y0126746
X00426466Y0123825
X0040132
X0037973Y0128143
X00347472
T09
X0032258Y00271295
Y00301295
Y00386296
X0042418
Y00301295
Y00271295
X0052578
Y00301295
Y00386296
X0078042
Y00301295
Y00271295
T10
X00526501Y00622799
X00551502
X00576501
Y00782483
X00551502
X00526501
T11
X00505Y006978
X00598002
Y00857485
X00505
T12
X00428244Y0116205
X00438404Y0121285
X00418084
T13
X00402844Y0116205
X00453644
Y011938
X00402844
M30
