G04*
G04 #@! TF.GenerationSoftware,Altium Limited,CircuitStudio,1.5.1 (13)*
G04*
G04 Layer_Physical_Order=3*
G04 Layer_Color=3407718*
%FSLAX44Y44*%
%MOMM*%
G71*
G01*
G75*
%ADD39C,0.5080*%
%ADD43C,2.0320*%
%ADD62C,1.2700*%
%ADD63C,1.0160*%
G04:AMPARAMS|DCode=64|XSize=2.54mm|YSize=2.54mm|CornerRadius=0mm|HoleSize=0mm|Usage=FLASHONLY|Rotation=0.000|XOffset=0mm|YOffset=0mm|HoleType=Round|Shape=Relief|Width=0.254mm|Gap=0.254mm|Entries=4|*
%AMTHD64*
7,0,0,2.5400,2.0320,0.2540,45*
%
%ADD64THD64*%
%ADD65C,3.3160*%
%ADD68C,2.0160*%
%ADD69C,3.4572*%
G04:AMPARAMS|DCode=70|XSize=2.424mm|YSize=2.424mm|CornerRadius=0mm|HoleSize=0mm|Usage=FLASHONLY|Rotation=0.000|XOffset=0mm|YOffset=0mm|HoleType=Round|Shape=Relief|Width=0.254mm|Gap=0.254mm|Entries=4|*
%AMTHD70*
7,0,0,2.4240,1.9160,0.2540,45*
%
%ADD70THD70*%
%ADD71C,1.9160*%
%ADD72C,1.9050*%
%ADD73C,3.3782*%
%ADD75C,2.2159*%
%ADD77C,2.1161*%
%ADD79C,4.0160*%
%ADD80C,1.3208*%
%ADD81C,1.7272*%
%ADD82O,2.2160X1.5160*%
D39*
X416814Y1247140D02*
Y1287780D01*
X344932Y1248156D02*
Y1288796D01*
X416560D01*
X344932Y1247902D02*
X416560D01*
X405892Y527304D02*
Y561594D01*
X473710Y527304D02*
Y561594D01*
X405892D02*
X473710D01*
X405892Y527304D02*
X473710D01*
X364744Y481076D02*
X480060D01*
X326136Y444246D02*
Y462788D01*
Y444246D02*
X480060D01*
Y444500D02*
Y481076D01*
X364744Y462788D02*
Y481076D01*
X326136Y462788D02*
X364744D01*
D43*
X308610Y1226820D02*
D03*
X310134Y1198880D02*
D03*
X671068Y781812D02*
D03*
X661670Y903732D02*
D03*
X742188Y637032D02*
D03*
X613918Y481838D02*
D03*
X661670Y941832D02*
D03*
X742188Y611378D02*
D03*
X811530Y448818D02*
D03*
Y412496D02*
D03*
X753618Y542036D02*
D03*
X829056Y1134618D02*
D03*
Y1108964D02*
D03*
X795782Y1045464D02*
D03*
Y1018032D02*
D03*
X634492Y1255776D02*
D03*
X388620Y1121410D02*
D03*
X272542Y1119378D02*
D03*
X668782Y645160D02*
D03*
D62*
X444500Y493268D02*
D03*
Y519430D02*
D03*
X462280D02*
D03*
Y493268D02*
D03*
D63*
X254000Y254000D02*
Y1319000D01*
X849000D01*
Y254000D02*
Y1319000D01*
X254000Y254000D02*
X849000D01*
D64*
X559562Y452374D02*
D03*
D65*
X771906Y425196D02*
D03*
X348996Y616712D02*
D03*
X798200Y1268200D02*
D03*
X304800D02*
D03*
D68*
X319000Y729996D02*
D03*
Y664996D02*
D03*
X364000Y729996D02*
D03*
Y664996D02*
D03*
X779000D02*
D03*
Y729996D02*
D03*
X734000Y664996D02*
D03*
Y729996D02*
D03*
X369000Y919000D02*
D03*
X344000D02*
D03*
X319000D02*
D03*
X369000Y774000D02*
D03*
X319000D02*
D03*
X734000D02*
D03*
X784000D02*
D03*
X734000Y919000D02*
D03*
X759000D02*
D03*
X784000D02*
D03*
X822800Y560250D02*
D03*
Y600250D02*
D03*
D69*
X287000Y844000D02*
D03*
X401000D02*
D03*
X816000D02*
D03*
X702000D02*
D03*
X598002Y857485D02*
D03*
X505000D02*
D03*
Y697800D02*
D03*
X598002D02*
D03*
D70*
X615000Y1289050D02*
D03*
D71*
X640400D02*
D03*
X589600D02*
D03*
X564200D02*
D03*
X538800D02*
D03*
X513400D02*
D03*
X488000D02*
D03*
X462600D02*
D03*
X443992Y575056D02*
D03*
X469392D02*
D03*
X443992Y600456D02*
D03*
X469392D02*
D03*
X443992Y625856D02*
D03*
X469392D02*
D03*
X443992Y651256D02*
D03*
X469392D02*
D03*
X443992Y676656D02*
D03*
X469392D02*
D03*
D72*
X380746Y1247902D02*
D03*
X390906Y1298702D02*
D03*
X370586D02*
D03*
X551502Y986282D02*
D03*
Y935482D02*
D03*
Y960882D02*
D03*
D73*
X355346Y1247902D02*
D03*
X406146D02*
D03*
Y1279652D02*
D03*
X355346D02*
D03*
D75*
X576501Y782483D02*
D03*
X551502D02*
D03*
X526501D02*
D03*
Y622799D02*
D03*
X551502D02*
D03*
X576501D02*
D03*
D77*
X525780Y386296D02*
D03*
Y301295D02*
D03*
Y271295D02*
D03*
X424180D02*
D03*
Y301295D02*
D03*
Y386296D02*
D03*
X322580D02*
D03*
Y301295D02*
D03*
Y271295D02*
D03*
X780420D02*
D03*
Y301295D02*
D03*
Y386296D02*
D03*
D79*
X525780Y336296D02*
D03*
X424180D02*
D03*
X322580D02*
D03*
X780420D02*
D03*
D80*
X372415Y427025D02*
D03*
X560578Y496824D02*
D03*
X756158Y1018032D02*
D03*
Y986028D02*
D03*
X667004D02*
D03*
Y1053338D02*
D03*
X692150Y1074674D02*
D03*
X639826Y903732D02*
D03*
X632714Y657860D02*
D03*
X691896Y962152D02*
D03*
X584708Y1110488D02*
D03*
X599186Y416306D02*
D03*
X639826Y1110488D02*
D03*
X646430Y1137412D02*
D03*
Y1068832D02*
D03*
X658504Y1031494D02*
D03*
X584132Y1124204D02*
D03*
X567182Y1141154D02*
D03*
X666108Y1176154D02*
D03*
X728590Y1193800D02*
D03*
Y1210446D02*
D03*
X660264D02*
D03*
X370958Y1136532D02*
D03*
X331470Y1134364D02*
D03*
X370078Y1125220D02*
D03*
X509270Y1088898D02*
D03*
X376682Y1203706D02*
D03*
X500888Y1191260D02*
D03*
X493014Y1186942D02*
D03*
X466734Y1233288D02*
D03*
X421894Y1256792D02*
D03*
X575564Y1228598D02*
D03*
X362306Y1185824D02*
D03*
X456826Y1196340D02*
D03*
X456946Y1165606D02*
D03*
X456826Y1176154D02*
D03*
X658504Y1079872D02*
D03*
X738632Y1220470D02*
D03*
X780542Y1193800D02*
D03*
X389518Y1168790D02*
D03*
X734000Y821436D02*
D03*
X537210D02*
D03*
Y1098042D02*
D03*
X635254Y612902D02*
D03*
X290068Y931418D02*
D03*
X396240D02*
D03*
X703580Y931926D02*
D03*
X807974Y930910D02*
D03*
X381254Y1294638D02*
D03*
X417391Y1006416D02*
D03*
Y889323D02*
D03*
X551502D02*
D03*
X681972Y1002538D02*
D03*
X396494Y1263904D02*
D03*
X376870Y975802D02*
D03*
X792988Y1128522D02*
D03*
X780406Y1090304D02*
D03*
X385420Y798424D02*
D03*
X477774D02*
D03*
X538226Y501650D02*
D03*
X792988Y1150620D02*
D03*
X704088Y293624D02*
D03*
X701802Y340360D02*
D03*
X695836Y363852D02*
D03*
X724272Y310778D02*
D03*
X596392Y276098D02*
D03*
X372415Y301295D02*
D03*
X475793D02*
D03*
Y423672D02*
D03*
X614054Y352180D02*
D03*
X588772Y465328D02*
D03*
Y538226D02*
D03*
X596392Y393954D02*
D03*
X642874D02*
D03*
X617728Y465328D02*
D03*
X628904Y403860D02*
D03*
X617728Y376682D02*
D03*
X635254Y386296D02*
D03*
X642874Y430022D02*
D03*
X712978Y753618D02*
D03*
X675230Y461108D02*
D03*
X405638Y984250D02*
D03*
X330708Y1043178D02*
D03*
Y1027430D02*
D03*
X311794Y1109726D02*
D03*
X286056Y1066598D02*
D03*
Y1043178D02*
D03*
X279048Y1060098D02*
D03*
X271018Y1000134D02*
D03*
X272796Y743712D02*
D03*
X621030D02*
D03*
X281940Y1173988D02*
D03*
X323416Y1176856D02*
D03*
X628904Y591058D02*
D03*
X489204D02*
D03*
X457708Y1052068D02*
D03*
X562864Y989838D02*
D03*
X635254Y597154D02*
D03*
X496824D02*
D03*
X464566Y781304D02*
D03*
X443484D02*
D03*
X443738Y1018032D02*
D03*
X346456D02*
D03*
X359664Y1115822D02*
D03*
Y1050290D02*
D03*
X352552Y1089914D02*
D03*
Y1046734D02*
D03*
X556582Y1239334D02*
D03*
X565912Y1239520D02*
D03*
X780406Y1144524D02*
D03*
X496582Y1242072D02*
D03*
X412750Y1153414D02*
D03*
X412496Y1137412D02*
D03*
X456692Y1153414D02*
D03*
X622436Y783726D02*
D03*
X675386Y800726D02*
D03*
X641350Y1219454D02*
D03*
X642620Y1201674D02*
D03*
X586740Y1057910D02*
D03*
X568960Y1055624D02*
D03*
X516582Y1085034D02*
D03*
X530606Y1086612D02*
D03*
Y964184D02*
D03*
X524002Y1081532D02*
D03*
X508000Y723900D02*
D03*
X477774Y898144D02*
D03*
X516636D02*
D03*
X509016Y1196086D02*
D03*
X454660Y1110742D02*
D03*
X405638D02*
D03*
X462534Y1104646D02*
D03*
X647954Y473964D02*
D03*
X580136Y1014984D02*
D03*
X509270Y1048004D02*
D03*
X647954D02*
D03*
X376870Y1104646D02*
D03*
X449834Y1092708D02*
D03*
X470154Y790194D02*
D03*
X462788Y1076452D02*
D03*
X708152Y1132840D02*
D03*
X689102Y1124204D02*
D03*
Y1090168D02*
D03*
X537464Y1129030D02*
D03*
X704694Y502314D02*
D03*
Y461108D02*
D03*
X664210Y502920D02*
D03*
X674506Y538090D02*
D03*
X675259Y564769D02*
D03*
X715137D02*
D03*
X558546Y1130046D02*
D03*
X526982Y1196154D02*
D03*
X552958Y1091184D02*
D03*
X543814Y1092200D02*
D03*
Y996188D02*
D03*
X552958Y1002538D02*
D03*
X562356Y950468D02*
D03*
X502158Y976122D02*
D03*
X632714Y949198D02*
D03*
X686172Y599050D02*
D03*
X703462Y598306D02*
D03*
X632714Y1166114D02*
D03*
X686172Y807974D02*
D03*
X623062Y811276D02*
D03*
X632714Y962152D02*
D03*
X681990Y973836D02*
D03*
X709168Y1164336D02*
D03*
X617728Y1163828D02*
D03*
X600964Y1159002D02*
D03*
X762356Y491846D02*
D03*
X788416Y469900D02*
D03*
X737362Y475234D02*
D03*
X764540Y613664D02*
D03*
X616458Y1240790D02*
D03*
X764540Y878840D02*
D03*
X626110D02*
D03*
X717296Y1013206D02*
D03*
X733298Y1012952D02*
D03*
X692268Y1065920D02*
D03*
X696350Y1082920D02*
D03*
X735330Y1091946D02*
D03*
X719328Y1078484D02*
D03*
X491582Y1098642D02*
D03*
X692268Y1011682D02*
D03*
X675386Y1024772D02*
D03*
X489204Y1041772D02*
D03*
X480314Y1114298D02*
D03*
X497840Y1064260D02*
D03*
X370078Y1028954D02*
D03*
X495046Y1023112D02*
D03*
X493268Y1130300D02*
D03*
X785876Y1213612D02*
D03*
X789690Y1228340D02*
D03*
Y1164340D02*
D03*
X556582Y1274072D02*
D03*
X488000D02*
D03*
X538808Y1246558D02*
D03*
X513400Y1244750D02*
D03*
X462600Y1267750D02*
D03*
X548250Y1246558D02*
D03*
Y1267750D02*
D03*
X575564Y1260000D02*
D03*
X672238Y1228762D02*
D03*
X689238Y1228262D02*
D03*
X690000Y1302750D02*
D03*
X706500D02*
D03*
X660264Y1272264D02*
D03*
X693760Y1255760D02*
D03*
X785750Y557750D02*
D03*
D81*
X431546Y1005840D02*
D03*
X585812Y576414D02*
D03*
X432562Y778002D02*
D03*
Y953008D02*
D03*
X337566Y571500D02*
D03*
X359410D02*
D03*
Y548640D02*
D03*
X337566D02*
D03*
X377444Y512572D02*
D03*
Y580390D02*
D03*
X414782Y722118D02*
D03*
D82*
X828040Y1163340D02*
D03*
Y1229340D02*
D03*
M02*
