G04*
G04 #@! TF.GenerationSoftware,Altium Limited,CircuitStudio,1.5.1 (13)*
G04*
G04 Layer_Color=15065295*
%FSLAX44Y44*%
%MOMM*%
G71*
G01*
G75*
%ADD40C,0.2540*%
%ADD84C,0.2000*%
%ADD85C,0.2500*%
%ADD86C,0.6000*%
%ADD87C,0.1000*%
%ADD88C,0.4000*%
%ADD89C,0.0500*%
%ADD90C,0.1524*%
%ADD91C,0.1270*%
%ADD92C,0.0500*%
%ADD93C,0.1999*%
%ADD94C,0.1702*%
%ADD95C,0.1700*%
%ADD96C,0.1700*%
%ADD97C,0.0762*%
D40*
X480780Y396296D02*
X570780D01*
X480780Y291296D02*
Y396296D01*
X480780Y291296D02*
X570780D01*
Y396296D01*
X469180Y291296D02*
Y396296D01*
X379180Y291296D02*
X469180D01*
X379180D02*
Y396296D01*
X469180D01*
X277580D02*
X367580D01*
X277580Y291296D02*
Y396296D01*
X277580Y291296D02*
X367580D01*
Y396296D01*
X825420Y291296D02*
Y396296D01*
X735420Y291296D02*
X825420D01*
X735420D02*
Y396296D01*
X825420D01*
D84*
X794040Y1176340D02*
G03*
X794040Y1176340I-1000J0D01*
G01*
X450535Y531540D02*
G03*
X456885Y531540I3175J0D01*
G01*
X378500Y649996D02*
Y744996D01*
X304500Y649996D02*
X378500D01*
X304500D02*
Y744996D01*
X378500D01*
X719500D02*
X793500D01*
X719500Y649996D02*
Y744996D01*
Y649996D02*
X793500D01*
Y744996D01*
X367806Y1176132D02*
Y1185132D01*
X359806Y1176132D02*
X367806D01*
X337806D02*
Y1185132D01*
Y1176132D02*
X345806D01*
X308000Y792350D02*
X380000D01*
Y900650D01*
X308000D02*
X380000D01*
X308000Y792350D02*
Y900650D01*
X723000Y792350D02*
Y900650D01*
X795000D01*
Y792350D02*
Y900650D01*
X723000Y792350D02*
X795000D01*
X449900Y1301750D02*
X653100D01*
X449900Y1276350D02*
Y1301750D01*
Y1276350D02*
X653100D01*
Y1301750D01*
X719830Y1094358D02*
X750830D01*
X719830Y1078358D02*
X750830D01*
Y1094358D01*
X719830Y1078358D02*
Y1094358D01*
X486582Y1126154D02*
Y1211154D01*
X571582Y1126154D02*
Y1211154D01*
X486582D02*
X571582D01*
X486582Y1126154D02*
X571582D01*
X538802Y974852D02*
X565073Y974735D01*
X565472Y924052D02*
Y997712D01*
X538802Y924052D02*
X565472D01*
X538802D02*
Y997712D01*
X565472D01*
X690226Y330852D02*
Y348852D01*
X640226Y330852D02*
Y348852D01*
X690226D01*
X640226Y330852D02*
X690226D01*
X525562Y566986D02*
Y576361D01*
X537937Y588736D01*
X525562Y533111D02*
X537937Y520736D01*
X525562Y533111D02*
Y542486D01*
X537937Y588736D02*
X593562D01*
Y566986D02*
Y588736D01*
Y520736D02*
Y542486D01*
X537937Y520736D02*
X593562D01*
X424724Y945678D02*
Y1001303D01*
Y945678D02*
X446474D01*
X470974D02*
X492724D01*
Y1001303D01*
X437099Y1013678D02*
X446474D01*
X424724Y1001303D02*
X437099Y1013678D01*
X480349D02*
X492724Y1001303D01*
X470974Y1013678D02*
X480349D01*
X469410Y480740D02*
Y531540D01*
X456885D02*
X469410D01*
X437960D02*
X450535D01*
X437960Y480740D02*
X469410D01*
X437960D02*
Y531540D01*
D85*
X324666Y1137438D02*
G03*
X324666Y1137438I-1250J0D01*
G01*
X372056Y1198632D02*
G03*
X372056Y1198632I-1250J0D01*
G01*
X303182Y1087348D02*
G03*
X303182Y1087348I-1250J0D01*
G01*
X753580Y1106858D02*
G03*
X753580Y1106858I-1250J0D01*
G01*
X474832Y1213154D02*
G03*
X474832Y1213154I-1250J0D01*
G01*
X638926Y315852D02*
G03*
X638926Y315852I-1250J0D01*
G01*
D86*
X499582Y1201154D02*
G03*
X499582Y1201154I-3000J0D01*
G01*
D87*
X413090Y1162544D02*
G03*
X413590Y1162044I0J-500D01*
G01*
X773540Y572796D02*
Y607796D01*
X755540D02*
X773540D01*
X755540Y572796D02*
Y607796D01*
Y572796D02*
X773540D01*
X698750Y1299000D02*
X733750D01*
X698750Y1281000D02*
Y1299000D01*
Y1281000D02*
X733750D01*
Y1299000D01*
X779416Y935088D02*
Y970088D01*
Y935088D02*
X797416D01*
Y970088D01*
X779416D02*
X797416D01*
X568378Y987438D02*
X590878D01*
Y941438D02*
Y987438D01*
X568378Y941438D02*
X590878D01*
X568378D02*
Y987438D01*
X595556Y1050404D02*
X618056D01*
X595556D02*
Y1096404D01*
X618056D01*
Y1050404D02*
Y1096404D01*
X735916Y935088D02*
Y970088D01*
Y935088D02*
X753916D01*
Y970088D01*
X735916D02*
X753916D01*
X713869Y935088D02*
Y970088D01*
Y935088D02*
X731869D01*
Y970088D01*
X713869D02*
X731869D01*
X325602Y542688D02*
Y560688D01*
X290602Y542688D02*
X325602D01*
X290602D02*
Y560688D01*
X325602D01*
Y563262D02*
Y581262D01*
X290602Y563262D02*
X325602D01*
X290602D02*
Y581262D01*
X325602D01*
X322963Y969834D02*
X340963D01*
Y934834D02*
Y969834D01*
X322963Y934834D02*
X340963D01*
X322963D02*
Y969834D01*
X345417Y934834D02*
X363417D01*
X345417D02*
Y969834D01*
X363417D01*
Y934834D02*
Y969834D01*
X757963Y935088D02*
X775963D01*
X757963D02*
Y970088D01*
X775963D01*
Y935088D02*
Y970088D01*
X300509Y969834D02*
X318509D01*
Y934834D02*
Y969834D01*
X300509Y934834D02*
X318509D01*
X300509D02*
Y969834D01*
X367870D02*
X385870D01*
Y934834D02*
Y969834D01*
X367870Y934834D02*
X385870D01*
X367870D02*
Y969834D01*
X495190Y510820D02*
X513190D01*
X495190D02*
Y545820D01*
X513190D01*
Y510820D02*
Y545820D01*
X407490Y543674D02*
Y589674D01*
X384990D02*
X407490D01*
X384990Y543674D02*
Y589674D01*
Y543674D02*
X407490D01*
X411554Y472554D02*
Y518554D01*
X389054D02*
X411554D01*
X389054Y472554D02*
Y518554D01*
Y472554D02*
X411554D01*
X779416Y475006D02*
Y510006D01*
Y475006D02*
X797416D01*
Y510006D01*
X779416D02*
X797416D01*
X589140Y303456D02*
Y325956D01*
X635140D01*
Y303456D02*
Y325956D01*
X589140Y303456D02*
X635140D01*
X601752Y1192674D02*
X636752D01*
Y1210674D01*
X601752D02*
X636752D01*
X601752Y1192674D02*
Y1210674D01*
X559960Y1061238D02*
Y1096238D01*
Y1061238D02*
X577960D01*
Y1096238D01*
X559960D02*
X577960D01*
X669570Y1155336D02*
X704570D01*
Y1173336D01*
X669570D02*
X704570D01*
X669570Y1155336D02*
Y1173336D01*
D88*
X650226Y338852D02*
G03*
X650226Y338852I-2000J0D01*
G01*
D89*
X748106Y489669D02*
G03*
X748106Y494419I0J2375D01*
G01*
X671576Y1175124D02*
X704596D01*
Y1190124D01*
X671576D02*
X704596D01*
X671576Y1175124D02*
Y1190124D01*
Y1190872D02*
X704596D01*
Y1205872D01*
X671576D02*
X704596D01*
X671576Y1190872D02*
Y1205872D01*
X744982Y1227970D02*
X778002D01*
X744982Y1212970D02*
Y1227970D01*
Y1212970D02*
X778002D01*
Y1227970D01*
X698518Y1232512D02*
X731538D01*
Y1247512D01*
X698518D02*
X731538D01*
X698518Y1232512D02*
Y1247512D01*
Y1279262D02*
X731538D01*
X698518Y1264262D02*
Y1279262D01*
Y1264262D02*
X731538D01*
Y1279262D01*
X664228Y1232512D02*
X697248D01*
Y1247512D01*
X664228D02*
X697248D01*
X664228Y1232512D02*
Y1247512D01*
X697500Y1264240D02*
Y1297260D01*
X682500D02*
X697500D01*
X682500Y1264240D02*
Y1297260D01*
Y1264240D02*
X697500D01*
X581272Y459604D02*
X596272D01*
Y426584D02*
Y459604D01*
X581272Y426584D02*
X596272D01*
X581272D02*
Y459604D01*
X610482D02*
X625482D01*
Y426584D02*
Y459604D01*
X610482Y426584D02*
X625482D01*
X610482D02*
Y459604D01*
X351656Y1128522D02*
X366656D01*
X351656D02*
Y1161542D01*
X366656D01*
Y1128522D02*
Y1161542D01*
X335654Y1128522D02*
X350654D01*
X335654D02*
Y1161542D01*
X350654D01*
Y1128522D02*
Y1161542D01*
X274440Y1137158D02*
X289440D01*
X274440D02*
Y1170178D01*
X289440D01*
Y1137158D02*
Y1170178D01*
X291592Y1004182D02*
Y1019182D01*
X324612D01*
Y1004182D02*
Y1019182D01*
X291592Y1004182D02*
X324612D01*
Y1019930D02*
Y1034930D01*
X291592Y1019930D02*
X324612D01*
X291592D02*
Y1034930D01*
X324612D01*
X291592Y1035678D02*
Y1050678D01*
X324612D01*
Y1035678D02*
Y1050678D01*
X291592Y1035678D02*
X324612D01*
X274948Y1071372D02*
X289948D01*
X274948D02*
Y1104392D01*
X289948D01*
Y1071372D02*
Y1104392D01*
X275456Y1004062D02*
X290456D01*
X275456D02*
Y1037082D01*
X290456D01*
Y1004062D02*
Y1037082D01*
X352418Y1053846D02*
X367418D01*
X352418D02*
Y1086866D01*
X367418D01*
Y1053846D02*
Y1086866D01*
X336416Y1053846D02*
X351416D01*
X336416D02*
Y1086866D01*
X351416D01*
Y1053846D02*
Y1086866D01*
X336804Y1090034D02*
Y1105034D01*
X303784Y1090034D02*
X336804D01*
X303784D02*
Y1105034D01*
X336804D01*
X627754Y652780D02*
X642754D01*
Y619760D02*
Y652780D01*
X627754Y619760D02*
X642754D01*
X627754D02*
Y652780D01*
X628516Y808736D02*
X643516D01*
Y775716D02*
Y808736D01*
X628516Y775716D02*
X643516D01*
X628516D02*
Y808736D01*
X282568Y970084D02*
X297568D01*
Y937064D02*
Y970084D01*
X282568Y937064D02*
X297568D01*
X282568D02*
Y970084D01*
X800474Y970280D02*
X815474D01*
Y937260D02*
Y970280D01*
X800474Y937260D02*
X815474D01*
X800474D02*
Y970280D01*
X696080D02*
X711080D01*
Y937260D02*
Y970280D01*
X696080Y937260D02*
X711080D01*
X696080D02*
Y970280D01*
X388740Y970084D02*
X403740D01*
Y937064D02*
Y970084D01*
X388740Y937064D02*
X403740D01*
X388740D02*
Y970084D01*
X650494Y1098924D02*
Y1113924D01*
X683514D01*
Y1098924D02*
Y1113924D01*
X650494Y1098924D02*
X683514D01*
X771772Y1136650D02*
X786772D01*
Y1103630D02*
Y1136650D01*
X771772Y1103630D02*
X786772D01*
X771772D02*
Y1136650D01*
X650494Y1061332D02*
Y1076332D01*
X683514D01*
Y1061332D02*
Y1076332D01*
X650494Y1061332D02*
X683514D01*
X788416Y1070476D02*
Y1085476D01*
X755396Y1070476D02*
X788416D01*
X755396D02*
Y1085476D01*
X788416D01*
X755008Y1136650D02*
X770008D01*
Y1103630D02*
Y1136650D01*
X755008Y1103630D02*
X770008D01*
X755008D02*
Y1136650D01*
X695452Y578986D02*
Y593986D01*
X728472D01*
Y578986D02*
Y593986D01*
X695452Y578986D02*
X728472D01*
X694182Y578986D02*
Y593986D01*
X661162Y578986D02*
X694182D01*
X661162D02*
Y593986D01*
X694182D01*
X520566Y960628D02*
X535566D01*
Y927608D02*
Y960628D01*
X520566Y927608D02*
X535566D01*
X520566D02*
Y960628D01*
X731538Y1248260D02*
Y1263260D01*
X698518Y1248260D02*
X731538D01*
X698518D02*
Y1263260D01*
X731538D01*
X442080Y1210564D02*
X457080D01*
X442080D02*
Y1243584D01*
X457080D01*
Y1210564D02*
Y1243584D01*
X451612Y1129912D02*
Y1144912D01*
X418592Y1129912D02*
X451612D01*
X418592D02*
Y1144912D01*
X451612D01*
X451358Y1145914D02*
Y1160914D01*
X418338Y1145914D02*
X451358D01*
X418338D02*
Y1160914D01*
X451358D01*
X487426Y1085208D02*
Y1100208D01*
X454406Y1085208D02*
X487426D01*
X454406D02*
Y1100208D01*
X487426D01*
X579240Y1096264D02*
X594240D01*
Y1063244D02*
Y1096264D01*
X579240Y1063244D02*
X594240D01*
X579240D02*
Y1096264D01*
X601472Y1211954D02*
Y1226954D01*
X634492D01*
Y1211954D02*
Y1226954D01*
X601472Y1211954D02*
X634492D01*
X491744Y1236338D02*
Y1251338D01*
X458724Y1236338D02*
X491744D01*
X458724D02*
Y1251338D01*
X491744D01*
X650494Y1082668D02*
Y1097668D01*
X683514D01*
Y1082668D02*
Y1097668D01*
X650494Y1082668D02*
X683514D01*
X377190Y535312D02*
X410210D01*
X377190Y520312D02*
Y535312D01*
Y520312D02*
X410210D01*
Y535312D01*
X288544Y462668D02*
X321564D01*
X288544Y447668D02*
Y462668D01*
Y447668D02*
X321564D01*
Y462668D01*
X495300Y494150D02*
X528320D01*
Y509150D01*
X495300D02*
X528320D01*
X495300Y494150D02*
Y509150D01*
X490100Y528320D02*
Y561340D01*
X475100D02*
X490100D01*
X475100Y528320D02*
Y561340D01*
Y528320D02*
X490100D01*
X495300Y478402D02*
X528320D01*
Y493402D01*
X495300D02*
X528320D01*
X495300Y478402D02*
Y493402D01*
X477266Y462400D02*
X510286D01*
Y477400D01*
X477266D02*
X510286D01*
X477266Y462400D02*
Y477400D01*
X725798Y1049782D02*
X740798D01*
Y1016762D02*
Y1049782D01*
X725798Y1016762D02*
X740798D01*
X725798D02*
Y1049782D01*
X394836Y1193800D02*
X409836D01*
Y1160780D02*
Y1193800D01*
X394836Y1160780D02*
X409836D01*
X394836D02*
Y1193800D01*
X750316Y1119752D02*
Y1134752D01*
X717296Y1119752D02*
X750316D01*
X717296D02*
Y1134752D01*
X750316D01*
X700652Y1131316D02*
X715652D01*
Y1098296D02*
Y1131316D01*
X700652Y1098296D02*
X715652D01*
X700652D02*
Y1131316D01*
X699636Y1090930D02*
X714636D01*
Y1057910D02*
Y1090930D01*
X699636Y1057910D02*
X714636D01*
X699636D02*
Y1090930D01*
X709796Y1016762D02*
X724796D01*
X709796D02*
Y1049782D01*
X724796D01*
Y1016762D02*
Y1049782D01*
X472440Y1068952D02*
Y1083952D01*
X505460D01*
Y1068952D02*
Y1083952D01*
X472440Y1068952D02*
X505460D01*
X729862Y513080D02*
X744862D01*
Y480060D02*
Y513080D01*
X729862Y480060D02*
X744862D01*
X729862D02*
Y513080D01*
X680720Y379088D02*
Y394088D01*
X647700Y379088D02*
X680720D01*
X647700D02*
Y394088D01*
X680720D01*
X602488Y327272D02*
Y342272D01*
X635508D01*
Y327272D02*
Y342272D01*
X602488Y327272D02*
X635508D01*
X682498Y379088D02*
Y394088D01*
X715518D01*
Y379088D02*
Y394088D01*
X682498Y379088D02*
X715518D01*
X654050Y285108D02*
Y300108D01*
X621030Y285108D02*
X654050D01*
X621030D02*
Y300108D01*
X654050D01*
X664972Y268852D02*
Y283852D01*
X697992D01*
Y268852D02*
Y283852D01*
X664972Y268852D02*
X697992D01*
X664718Y286124D02*
Y301124D01*
X697738D01*
Y286124D02*
Y301124D01*
X664718Y286124D02*
X697738D01*
X664718Y395344D02*
Y410344D01*
X697738D01*
Y395344D02*
Y410344D01*
X664718Y395344D02*
X697738D01*
X621030Y268598D02*
Y283598D01*
X654050D01*
Y268598D02*
Y283598D01*
X621030Y268598D02*
X654050D01*
X640454Y468884D02*
X655454D01*
Y435864D02*
Y468884D01*
X640454Y435864D02*
X655454D01*
X640454D02*
Y468884D01*
X656456D02*
X671456D01*
Y435864D02*
Y468884D01*
X656456Y435864D02*
X671456D01*
X656456D02*
Y468884D01*
X589026Y1004182D02*
Y1019182D01*
X622046D01*
Y1004182D02*
Y1019182D01*
X589026Y1004182D02*
X622046D01*
X694048Y1016762D02*
X709048D01*
X694048D02*
Y1049782D01*
X709048D01*
Y1016762D02*
Y1049782D01*
X605402Y941188D02*
X620402D01*
X605402D02*
Y974208D01*
X620402D01*
Y941188D02*
Y974208D01*
X621404Y344170D02*
Y377190D01*
Y344170D02*
X636404D01*
Y377190D01*
X621404D02*
X636404D01*
X709302Y302768D02*
Y335788D01*
X694302D02*
X709302D01*
X694302Y302768D02*
Y335788D01*
Y302768D02*
X709302D01*
X418846Y1128910D02*
X451866D01*
X418846Y1113910D02*
Y1128910D01*
Y1113910D02*
X451866D01*
Y1128910D01*
X654932Y513080D02*
X669932D01*
X654932D02*
Y546100D01*
X669932D01*
Y513080D02*
Y546100D01*
X699516Y495420D02*
Y510420D01*
X666496Y495420D02*
X699516D01*
X666496D02*
Y510420D01*
X699516D01*
X748106Y485794D02*
X776606D01*
Y498294D01*
X748106D02*
X776606D01*
X748106Y494419D02*
Y498294D01*
Y485794D02*
Y489669D01*
D90*
X678180Y526288D02*
X679707D01*
X678180D02*
Y559816D01*
X710180D02*
X711708D01*
Y526288D02*
Y559816D01*
X710180Y526288D02*
X711708D01*
X678180Y559816D02*
X679707D01*
D91*
X429100Y579744D02*
Y626244D01*
X409100Y579744D02*
X429100D01*
X409100D02*
Y626244D01*
X429100D01*
X409100Y595744D02*
X429100D01*
X425102Y730618D02*
X445102D01*
X425102Y761118D02*
X445102D01*
X425102Y714618D02*
Y761118D01*
Y714618D02*
X445102D01*
Y761118D01*
X842540Y1158340D02*
Y1234340D01*
X813040Y1158340D02*
X817040D01*
X813040Y1234340D02*
X817040D01*
X839040Y1158340D02*
X842040D01*
X839040Y1234340D02*
X842040D01*
D92*
X279517Y533872D02*
X357515D01*
Y465871D02*
Y533872D01*
X279517Y465871D02*
Y533872D01*
Y465871D02*
X357515D01*
D93*
X605001Y877483D02*
Y905984D01*
X498001Y877483D02*
Y905984D01*
Y794483D02*
Y837483D01*
X605003Y794483D02*
Y837483D01*
X498002Y905983D02*
X605003D01*
X498002Y794483D02*
X605003D01*
X498002Y634799D02*
X605003D01*
X498002Y746299D02*
X605003D01*
Y634799D02*
Y677799D01*
X498001Y634799D02*
Y677799D01*
Y717799D02*
Y746299D01*
X605001Y717799D02*
Y746299D01*
D94*
X268224Y1204211D02*
X274826D01*
X271525D01*
Y1194308D01*
X278127D02*
Y1204211D01*
X283078D01*
X284729Y1202560D01*
Y1199259D01*
X283078Y1197609D01*
X278127D01*
X288029Y1195958D02*
X289680Y1194308D01*
X292981D01*
X294631Y1195958D01*
Y1202560D01*
X292981Y1204211D01*
X289680D01*
X288029Y1202560D01*
Y1200910D01*
X289680Y1199259D01*
X294631D01*
X270002Y1231643D02*
X276604D01*
X273303D01*
Y1221740D01*
X279905D02*
Y1231643D01*
X284856D01*
X286507Y1229992D01*
Y1226691D01*
X284856Y1225041D01*
X279905D01*
X289807Y1221740D02*
X293108D01*
X291458D01*
Y1231643D01*
X289807Y1229992D01*
X649478Y926589D02*
X656080D01*
X652779D01*
Y916686D01*
X659381D02*
Y926589D01*
X664332D01*
X665983Y924938D01*
Y921637D01*
X664332Y919987D01*
X659381D01*
X669284Y926589D02*
X675885D01*
Y924938D01*
X669284Y918336D01*
Y916686D01*
X598170Y504949D02*
X604772D01*
X601471D01*
Y495046D01*
X608073D02*
Y504949D01*
X613024D01*
X614674Y503298D01*
Y499997D01*
X613024Y498347D01*
X608073D01*
X617976Y495046D02*
X621276D01*
X619626D01*
Y504949D01*
X617976Y503298D01*
X626228Y496696D02*
X627878Y495046D01*
X631179D01*
X632830Y496696D01*
Y503298D01*
X631179Y504949D01*
X627878D01*
X626228Y503298D01*
Y501648D01*
X627878Y499997D01*
X632830D01*
X693674Y641855D02*
X700276D01*
X696975D01*
Y631952D01*
X703577D02*
Y641855D01*
X708528D01*
X710179Y640204D01*
Y636903D01*
X708528Y635253D01*
X703577D01*
X713480Y631952D02*
X716780D01*
X715130D01*
Y641855D01*
X713480Y640204D01*
X721732Y641855D02*
X728334D01*
Y640204D01*
X721732Y633602D01*
Y631952D01*
X648970Y964943D02*
X655572D01*
X652271D01*
Y955040D01*
X658873D02*
Y964943D01*
X663824D01*
X665474Y963292D01*
Y959991D01*
X663824Y958341D01*
X658873D01*
X675377Y964943D02*
X672076Y963292D01*
X668775Y959991D01*
Y956690D01*
X670426Y955040D01*
X673727D01*
X675377Y956690D01*
Y958341D01*
X673727Y959991D01*
X668775D01*
X693928Y623313D02*
X700530D01*
X697229D01*
Y613410D01*
X703831D02*
Y623313D01*
X708782D01*
X710433Y621662D01*
Y618361D01*
X708782Y616711D01*
X703831D01*
X713734Y613410D02*
X717034D01*
X715384D01*
Y623313D01*
X713734Y621662D01*
X728588Y623313D02*
X725287Y621662D01*
X721986Y618361D01*
Y615060D01*
X723636Y613410D01*
X726937D01*
X728588Y615060D01*
Y616711D01*
X726937Y618361D01*
X721986D01*
X759206Y452120D02*
Y462023D01*
X762507Y458722D01*
X765808Y462023D01*
Y452120D01*
X769109Y462023D02*
Y452120D01*
Y457071D01*
X775711D01*
Y462023D01*
Y452120D01*
X783963D02*
Y462023D01*
X779012Y457071D01*
X785613D01*
X295148Y613664D02*
Y623567D01*
X298449Y620266D01*
X301750Y623567D01*
Y613664D01*
X305051Y623567D02*
Y613664D01*
Y618615D01*
X311653D01*
Y623567D01*
Y613664D01*
X314953Y621916D02*
X316604Y623567D01*
X319905D01*
X321555Y621916D01*
Y620266D01*
X319905Y618615D01*
X318254D01*
X319905D01*
X321555Y616965D01*
Y615314D01*
X319905Y613664D01*
X316604D01*
X314953Y615314D01*
X783590Y1294892D02*
Y1304795D01*
X786891Y1301494D01*
X790192Y1304795D01*
Y1294892D01*
X793493Y1304795D02*
Y1294892D01*
Y1299843D01*
X800095D01*
Y1304795D01*
Y1294892D01*
X809997D02*
X803395D01*
X809997Y1301494D01*
Y1303144D01*
X808347Y1304795D01*
X805046D01*
X803395Y1303144D01*
X291846Y1293854D02*
Y1303757D01*
X295147Y1300456D01*
X298448Y1303757D01*
Y1293854D01*
X301749Y1303757D02*
Y1293854D01*
Y1298805D01*
X308351D01*
Y1303757D01*
Y1293854D01*
X311651D02*
X314952D01*
X313302D01*
Y1303757D01*
X311651Y1302106D01*
X752094Y570992D02*
X742191D01*
Y575943D01*
X743841Y577594D01*
X747142D01*
X748793Y575943D01*
Y570992D01*
Y574293D02*
X752094Y577594D01*
Y585846D02*
X742191D01*
X747142Y580895D01*
Y587496D01*
X742191Y597399D02*
X743841Y594098D01*
X747142Y590798D01*
X750443D01*
X752094Y592448D01*
Y595749D01*
X750443Y597399D01*
X748793D01*
X747142Y595749D01*
Y590798D01*
X665000Y1249250D02*
Y1259153D01*
X669951D01*
X671602Y1257502D01*
Y1254201D01*
X669951Y1252551D01*
X665000D01*
X668301D02*
X671602Y1249250D01*
X679854D02*
Y1259153D01*
X674903Y1254201D01*
X681505D01*
X691407Y1259153D02*
X684806D01*
Y1254201D01*
X688106Y1255852D01*
X689757D01*
X691407Y1254201D01*
Y1250900D01*
X689757Y1249250D01*
X686456D01*
X684806Y1250900D01*
X702250Y1220250D02*
Y1230153D01*
X707201D01*
X708852Y1228502D01*
Y1225201D01*
X707201Y1223551D01*
X702250D01*
X705551D02*
X708852Y1220250D01*
X717104D02*
Y1230153D01*
X712153Y1225201D01*
X718755D01*
X727007Y1220250D02*
Y1230153D01*
X722056Y1225201D01*
X728657D01*
X751586Y1229614D02*
Y1239517D01*
X756537D01*
X758188Y1237866D01*
Y1234565D01*
X756537Y1232915D01*
X751586D01*
X754887D02*
X758188Y1229614D01*
X766440D02*
Y1239517D01*
X761489Y1234565D01*
X768091D01*
X771392Y1237866D02*
X773042Y1239517D01*
X776343D01*
X777993Y1237866D01*
Y1236216D01*
X776343Y1234565D01*
X774692D01*
X776343D01*
X777993Y1232915D01*
Y1231264D01*
X776343Y1229614D01*
X773042D01*
X771392Y1231264D01*
X706120Y1193038D02*
Y1202941D01*
X711071D01*
X712722Y1201290D01*
Y1197989D01*
X711071Y1196339D01*
X706120D01*
X709421D02*
X712722Y1193038D01*
X720974D02*
Y1202941D01*
X716023Y1197989D01*
X722625D01*
X732527Y1193038D02*
X725926D01*
X732527Y1199640D01*
Y1201290D01*
X730877Y1202941D01*
X727576D01*
X725926Y1201290D01*
X706374Y1176782D02*
Y1186685D01*
X711325D01*
X712976Y1185034D01*
Y1181733D01*
X711325Y1180083D01*
X706374D01*
X709675D02*
X712976Y1176782D01*
X721228D02*
Y1186685D01*
X716277Y1181733D01*
X722878D01*
X726180Y1176782D02*
X729480D01*
X727830D01*
Y1186685D01*
X726180Y1185034D01*
X737000Y1276403D02*
Y1266500D01*
X743602D01*
X746903Y1274752D02*
X748553Y1276403D01*
X751854D01*
X753504Y1274752D01*
Y1273102D01*
X751854Y1271451D01*
X750204D01*
X751854D01*
X753504Y1269801D01*
Y1268150D01*
X751854Y1266500D01*
X748553D01*
X746903Y1268150D01*
X825498Y1255519D02*
X822197D01*
X823847D01*
Y1247266D01*
X822197Y1245616D01*
X820546D01*
X818896Y1247266D01*
X835400Y1255519D02*
X828799D01*
Y1250567D01*
X832100Y1252218D01*
X833750D01*
X835400Y1250567D01*
Y1247266D01*
X833750Y1245616D01*
X830449D01*
X828799Y1247266D01*
X761238Y1173477D02*
Y1163574D01*
X766189D01*
X767840Y1165224D01*
Y1171826D01*
X766189Y1173477D01*
X761238D01*
X777742D02*
X771141D01*
Y1168525D01*
X774442Y1170176D01*
X776092D01*
X777742Y1168525D01*
Y1165224D01*
X776092Y1163574D01*
X772791D01*
X771141Y1165224D01*
X670997Y1271352D02*
X669347Y1269701D01*
Y1266400D01*
X670997Y1264750D01*
X677599D01*
X679250Y1266400D01*
Y1269701D01*
X677599Y1271352D01*
X679250Y1279604D02*
X669347D01*
X674298Y1274653D01*
Y1281254D01*
X670997Y1284556D02*
X669347Y1286206D01*
Y1289507D01*
X670997Y1291157D01*
X672648D01*
X674298Y1289507D01*
Y1287856D01*
Y1289507D01*
X675949Y1291157D01*
X677599D01*
X679250Y1289507D01*
Y1286206D01*
X677599Y1284556D01*
X291592Y1184907D02*
Y1176654D01*
X293242Y1175004D01*
X296543D01*
X298194Y1176654D01*
Y1184907D01*
X301495Y1175004D02*
X304796D01*
X303145D01*
Y1184907D01*
X301495Y1183256D01*
X309747D02*
X311397Y1184907D01*
X314698D01*
X316349Y1183256D01*
Y1176654D01*
X314698Y1175004D01*
X311397D01*
X309747Y1176654D01*
Y1183256D01*
X291849Y1092962D02*
X300101D01*
X301752Y1094612D01*
Y1097913D01*
X300101Y1099564D01*
X291849D01*
X300101Y1102865D02*
X301752Y1104515D01*
Y1107816D01*
X300101Y1109466D01*
X293500D01*
X291849Y1107816D01*
Y1104515D01*
X293500Y1102865D01*
X295150D01*
X296800Y1104515D01*
Y1109466D01*
X369570Y1107945D02*
X376172D01*
X372871D01*
Y1098042D01*
X379473D02*
Y1107945D01*
X384424D01*
X386074Y1106294D01*
Y1102993D01*
X384424Y1101343D01*
X379473D01*
X389375Y1098042D02*
X392676D01*
X391026D01*
Y1107945D01*
X389375Y1106294D01*
X397628D02*
X399278Y1107945D01*
X402579D01*
X404230Y1106294D01*
Y1099692D01*
X402579Y1098042D01*
X399278D01*
X397628Y1099692D01*
Y1106294D01*
X653796Y668525D02*
X660398D01*
X657097D01*
Y658622D01*
X663699D02*
Y668525D01*
X668650D01*
X670301Y666874D01*
Y663573D01*
X668650Y661923D01*
X663699D01*
X673602Y658622D02*
X676902D01*
X675252D01*
Y668525D01*
X673602Y666874D01*
X681854Y658622D02*
X685155D01*
X683504D01*
Y668525D01*
X681854Y666874D01*
X657860Y767331D02*
X664462D01*
X661161D01*
Y757428D01*
X667763D02*
Y767331D01*
X672714D01*
X674364Y765680D01*
Y762379D01*
X672714Y760729D01*
X667763D01*
X677665Y765680D02*
X679316Y767331D01*
X682617D01*
X684267Y765680D01*
Y764030D01*
X682617Y762379D01*
X684267Y760729D01*
Y759078D01*
X682617Y757428D01*
X679316D01*
X677665Y759078D01*
Y760729D01*
X679316Y762379D01*
X677665Y764030D01*
Y765680D01*
X679316Y762379D02*
X682617D01*
X290576Y1131313D02*
X297178D01*
X293877D01*
Y1121410D01*
X300479D02*
Y1131313D01*
X305430D01*
X307080Y1129662D01*
Y1126361D01*
X305430Y1124711D01*
X300479D01*
X316983Y1131313D02*
X310382D01*
Y1126361D01*
X313682Y1128012D01*
X315333D01*
X316983Y1126361D01*
Y1123060D01*
X315333Y1121410D01*
X312032D01*
X310382Y1123060D01*
X726886Y756282D02*
X725235Y757933D01*
X721934D01*
X720284Y756282D01*
Y754632D01*
X721934Y752981D01*
X725235D01*
X726886Y751331D01*
Y749680D01*
X725235Y748030D01*
X721934D01*
X720284Y749680D01*
X736789Y748030D02*
X730187D01*
X736789Y754632D01*
Y756282D01*
X735138Y757933D01*
X731837D01*
X730187Y756282D01*
X310640Y756536D02*
X308989Y758187D01*
X305688D01*
X304038Y756536D01*
Y754886D01*
X305688Y753235D01*
X308989D01*
X310640Y751585D01*
Y749934D01*
X308989Y748284D01*
X305688D01*
X304038Y749934D01*
X313941Y748284D02*
X317242D01*
X315591D01*
Y758187D01*
X313941Y756536D01*
X392430Y1133856D02*
X382527D01*
Y1138807D01*
X384178Y1140458D01*
X387478D01*
X389129Y1138807D01*
Y1133856D01*
Y1137157D02*
X392430Y1140458D01*
Y1148710D02*
X382527D01*
X387478Y1143759D01*
Y1150360D01*
X384178Y1153661D02*
X382527Y1155312D01*
Y1158613D01*
X384178Y1160263D01*
X390779D01*
X392430Y1158613D01*
Y1155312D01*
X390779Y1153661D01*
X384178D01*
X379222Y1133856D02*
X369319D01*
Y1138807D01*
X370970Y1140458D01*
X374271D01*
X375921Y1138807D01*
Y1133856D01*
Y1137157D02*
X379222Y1140458D01*
X370970Y1143759D02*
X369319Y1145409D01*
Y1148710D01*
X370970Y1150360D01*
X372620D01*
X374271Y1148710D01*
Y1147060D01*
Y1148710D01*
X375921Y1150360D01*
X377571D01*
X379222Y1148710D01*
Y1145409D01*
X377571Y1143759D01*
Y1153661D02*
X379222Y1155312D01*
Y1158613D01*
X377571Y1160263D01*
X370970D01*
X369319Y1158613D01*
Y1155312D01*
X370970Y1153661D01*
X372620D01*
X374271Y1155312D01*
Y1160263D01*
X637032Y427482D02*
X627129D01*
Y432433D01*
X628779Y434084D01*
X632080D01*
X633731Y432433D01*
Y427482D01*
Y430783D02*
X637032Y434084D01*
X628779Y437385D02*
X627129Y439035D01*
Y442336D01*
X628779Y443987D01*
X630430D01*
X632080Y442336D01*
Y440686D01*
Y442336D01*
X633731Y443987D01*
X635381D01*
X637032Y442336D01*
Y439035D01*
X635381Y437385D01*
X627129Y453889D02*
X628779Y450588D01*
X632080Y447287D01*
X635381D01*
X637032Y448938D01*
Y452239D01*
X635381Y453889D01*
X633731D01*
X632080Y452239D01*
Y447287D01*
X364744Y1089152D02*
X354841D01*
Y1094103D01*
X356492Y1095754D01*
X359793D01*
X361443Y1094103D01*
Y1089152D01*
Y1092453D02*
X364744Y1095754D01*
X356492Y1099055D02*
X354841Y1100705D01*
Y1104006D01*
X356492Y1105657D01*
X358142D01*
X359793Y1104006D01*
Y1102356D01*
Y1104006D01*
X361443Y1105657D01*
X363093D01*
X364744Y1104006D01*
Y1100705D01*
X363093Y1099055D01*
X354841Y1115559D02*
Y1108958D01*
X359793D01*
X358142Y1112258D01*
Y1113909D01*
X359793Y1115559D01*
X363093D01*
X364744Y1113909D01*
Y1110608D01*
X363093Y1108958D01*
X349250Y1089406D02*
X339347D01*
Y1094357D01*
X340998Y1096008D01*
X344299D01*
X345949Y1094357D01*
Y1089406D01*
Y1092707D02*
X349250Y1096008D01*
X340998Y1099309D02*
X339347Y1100959D01*
Y1104260D01*
X340998Y1105910D01*
X342648D01*
X344299Y1104260D01*
Y1102610D01*
Y1104260D01*
X345949Y1105910D01*
X347599D01*
X349250Y1104260D01*
Y1100959D01*
X347599Y1099309D01*
X349250Y1114163D02*
X339347D01*
X344299Y1109212D01*
Y1115813D01*
X608076Y427482D02*
X598173D01*
Y432433D01*
X599823Y434084D01*
X603125D01*
X604775Y432433D01*
Y427482D01*
Y430783D02*
X608076Y434084D01*
X599823Y437385D02*
X598173Y439035D01*
Y442336D01*
X599823Y443987D01*
X601474D01*
X603125Y442336D01*
Y440686D01*
Y442336D01*
X604775Y443987D01*
X606425D01*
X608076Y442336D01*
Y439035D01*
X606425Y437385D01*
X599823Y447287D02*
X598173Y448938D01*
Y452239D01*
X599823Y453889D01*
X601474D01*
X603125Y452239D01*
Y450588D01*
Y452239D01*
X604775Y453889D01*
X606425D01*
X608076Y452239D01*
Y448938D01*
X606425Y447287D01*
X273304Y1005332D02*
X263401D01*
Y1010283D01*
X265051Y1011934D01*
X268353D01*
X270003Y1010283D01*
Y1005332D01*
Y1008633D02*
X273304Y1011934D01*
X265051Y1015235D02*
X263401Y1016885D01*
Y1020186D01*
X265051Y1021836D01*
X266702D01*
X268353Y1020186D01*
Y1018536D01*
Y1020186D01*
X270003Y1021836D01*
X271653D01*
X273304Y1020186D01*
Y1016885D01*
X271653Y1015235D01*
X273304Y1031739D02*
Y1025137D01*
X266702Y1031739D01*
X265051D01*
X263401Y1030089D01*
Y1026788D01*
X265051Y1025137D01*
X272542Y1071880D02*
X262639D01*
Y1076831D01*
X264289Y1078482D01*
X267591D01*
X269241Y1076831D01*
Y1071880D01*
Y1075181D02*
X272542Y1078482D01*
X264289Y1081783D02*
X262639Y1083433D01*
Y1086734D01*
X264289Y1088384D01*
X265940D01*
X267591Y1086734D01*
Y1085084D01*
Y1086734D01*
X269241Y1088384D01*
X270891D01*
X272542Y1086734D01*
Y1083433D01*
X270891Y1081783D01*
X272542Y1091685D02*
Y1094986D01*
Y1093336D01*
X262639D01*
X264289Y1091685D01*
X328676Y1022604D02*
Y1032507D01*
X333627D01*
X335278Y1030856D01*
Y1027555D01*
X333627Y1025905D01*
X328676D01*
X331977D02*
X335278Y1022604D01*
X338578Y1030856D02*
X340229Y1032507D01*
X343530D01*
X345180Y1030856D01*
Y1029206D01*
X343530Y1027555D01*
X341880D01*
X343530D01*
X345180Y1025905D01*
Y1024255D01*
X343530Y1022604D01*
X340229D01*
X338578Y1024255D01*
X348481Y1030856D02*
X350132Y1032507D01*
X353433D01*
X355083Y1030856D01*
Y1024255D01*
X353433Y1022604D01*
X350132D01*
X348481Y1024255D01*
Y1030856D01*
X328676Y1007364D02*
Y1017267D01*
X333627D01*
X335278Y1015616D01*
Y1012315D01*
X333627Y1010665D01*
X328676D01*
X331977D02*
X335278Y1007364D01*
X345181D02*
X338579D01*
X345181Y1013966D01*
Y1015616D01*
X343530Y1017267D01*
X340229D01*
X338579Y1015616D01*
X348481Y1009014D02*
X350132Y1007364D01*
X353433D01*
X355083Y1009014D01*
Y1015616D01*
X353433Y1017267D01*
X350132D01*
X348481Y1015616D01*
Y1013966D01*
X350132Y1012315D01*
X355083D01*
X336296Y1214879D02*
Y1204976D01*
X341247D01*
X342898Y1206626D01*
Y1213228D01*
X341247Y1214879D01*
X336296D01*
X351150Y1204976D02*
Y1214879D01*
X346199Y1209927D01*
X352800D01*
X646814Y627886D02*
X645163Y626235D01*
Y622934D01*
X646814Y621284D01*
X653415D01*
X655066Y622934D01*
Y626235D01*
X653415Y627886D01*
X655066Y636138D02*
X645163D01*
X650115Y631187D01*
Y637789D01*
X655066Y647691D02*
Y641089D01*
X648464Y647691D01*
X646814D01*
X645163Y646041D01*
Y642740D01*
X646814Y641089D01*
X264035Y1144268D02*
X262385Y1142617D01*
Y1139316D01*
X264035Y1137666D01*
X270637D01*
X272288Y1139316D01*
Y1142617D01*
X270637Y1144268D01*
X272288Y1152520D02*
X262385D01*
X267337Y1147569D01*
Y1154171D01*
X272288Y1157471D02*
Y1160772D01*
Y1159122D01*
X262385D01*
X264035Y1157471D01*
X647321Y782318D02*
X645671Y780667D01*
Y777366D01*
X647321Y775716D01*
X653923D01*
X655574Y777366D01*
Y780667D01*
X653923Y782318D01*
X655574Y790570D02*
X645671D01*
X650622Y785619D01*
Y792221D01*
X647321Y795521D02*
X645671Y797172D01*
Y800473D01*
X647321Y802123D01*
X653923D01*
X655574Y800473D01*
Y797172D01*
X653923Y795521D01*
X647321D01*
X315466Y1115438D02*
X313815Y1117089D01*
X310514D01*
X308864Y1115438D01*
Y1108836D01*
X310514Y1107186D01*
X313815D01*
X315466Y1108836D01*
X318767Y1115438D02*
X320417Y1117089D01*
X323718D01*
X325368Y1115438D01*
Y1113788D01*
X323718Y1112137D01*
X322068D01*
X323718D01*
X325368Y1110487D01*
Y1108836D01*
X323718Y1107186D01*
X320417D01*
X318767Y1108836D01*
X328670D02*
X330320Y1107186D01*
X333621D01*
X335271Y1108836D01*
Y1115438D01*
X333621Y1117089D01*
X330320D01*
X328670Y1115438D01*
Y1113788D01*
X330320Y1112137D01*
X335271D01*
X334770Y1047366D02*
X333119Y1049017D01*
X329818D01*
X328168Y1047366D01*
Y1040764D01*
X329818Y1039114D01*
X333119D01*
X334770Y1040764D01*
X338071Y1047366D02*
X339721Y1049017D01*
X343022D01*
X344673Y1047366D01*
Y1045716D01*
X343022Y1044065D01*
X341372D01*
X343022D01*
X344673Y1042415D01*
Y1040764D01*
X343022Y1039114D01*
X339721D01*
X338071Y1040764D01*
X347974Y1047366D02*
X349624Y1049017D01*
X352925D01*
X354575Y1047366D01*
Y1045716D01*
X352925Y1044065D01*
X354575Y1042415D01*
Y1040764D01*
X352925Y1039114D01*
X349624D01*
X347974Y1040764D01*
Y1042415D01*
X349624Y1044065D01*
X347974Y1045716D01*
Y1047366D01*
X349624Y1044065D02*
X352925D01*
X742664Y1292918D02*
X741013Y1294569D01*
X737712D01*
X736062Y1292918D01*
Y1286316D01*
X737712Y1284666D01*
X741013D01*
X742664Y1286316D01*
X750916Y1284666D02*
Y1294569D01*
X745965Y1289617D01*
X752567D01*
X762469Y1294569D02*
X755867D01*
Y1289617D01*
X759168Y1291268D01*
X760819D01*
X762469Y1289617D01*
Y1286316D01*
X760819Y1284666D01*
X757518D01*
X755867Y1286316D01*
X743352Y1259502D02*
X741701Y1261153D01*
X738400D01*
X736750Y1259502D01*
Y1252900D01*
X738400Y1251250D01*
X741701D01*
X743352Y1252900D01*
X751604Y1251250D02*
Y1261153D01*
X746653Y1256201D01*
X753255D01*
X761507Y1251250D02*
Y1261153D01*
X756555Y1256201D01*
X763157D01*
X582168Y1264663D02*
X588770D01*
X585469D01*
Y1254760D01*
X592071D02*
Y1264663D01*
X597022D01*
X598672Y1263012D01*
Y1259711D01*
X597022Y1258061D01*
X592071D01*
X608575Y1254760D02*
X601973D01*
X608575Y1261362D01*
Y1263012D01*
X606925Y1264663D01*
X603624D01*
X601973Y1263012D01*
X611876D02*
X613527Y1264663D01*
X616828D01*
X618478Y1263012D01*
Y1256410D01*
X616828Y1254760D01*
X613527D01*
X611876Y1256410D01*
Y1263012D01*
X792589Y642223D02*
X790938Y643874D01*
X787637D01*
X785987Y642223D01*
Y640573D01*
X787637Y638922D01*
X790938D01*
X792589Y637272D01*
Y635621D01*
X790938Y633971D01*
X787637D01*
X785987Y635621D01*
X795890Y642223D02*
X797540Y643874D01*
X800841D01*
X802492Y642223D01*
Y640573D01*
X800841Y638922D01*
X799191D01*
X800841D01*
X802492Y637272D01*
Y635621D01*
X800841Y633971D01*
X797540D01*
X795890Y635621D01*
D95*
X798485Y778764D02*
X806816D01*
X808482Y780430D01*
Y783762D01*
X806816Y785428D01*
X798485D01*
X808482Y795425D02*
Y788761D01*
X801817Y795425D01*
X800151D01*
X798485Y793759D01*
Y790427D01*
X800151Y788761D01*
X810148Y798757D02*
Y805422D01*
X798485Y815419D02*
Y808754D01*
X808482D01*
Y815419D01*
X803484Y808754D02*
Y812086D01*
X798485Y818751D02*
X800151D01*
X803484Y822083D01*
X800151Y825415D01*
X798485D01*
X803484Y822083D02*
X808482D01*
X293279Y776732D02*
X301610D01*
X303276Y778398D01*
Y781730D01*
X301610Y783396D01*
X293279D01*
X303276Y793393D02*
Y786729D01*
X296611Y793393D01*
X294945D01*
X293279Y791727D01*
Y788395D01*
X294945Y786729D01*
X304942Y796725D02*
Y803390D01*
X293279Y813387D02*
Y806722D01*
X303276D01*
Y813387D01*
X298277Y806722D02*
Y810054D01*
X293279Y816719D02*
X303276Y823383D01*
X293279D02*
X303276Y816719D01*
X477774Y766064D02*
Y776061D01*
X482772D01*
X484439Y774395D01*
Y771062D01*
X482772Y769396D01*
X477774D01*
X481106D02*
X484439Y766064D01*
X487771Y774395D02*
X489437Y776061D01*
X492769D01*
X494435Y774395D01*
Y772729D01*
X492769Y771062D01*
X491103D01*
X492769D01*
X494435Y769396D01*
Y767730D01*
X492769Y766064D01*
X489437D01*
X487771Y767730D01*
X497767Y774395D02*
X499434Y776061D01*
X502766D01*
X504432Y774395D01*
Y772729D01*
X502766Y771062D01*
X504432Y769396D01*
Y767730D01*
X502766Y766064D01*
X499434D01*
X497767Y767730D01*
Y769396D01*
X499434Y771062D01*
X497767Y772729D01*
Y774395D01*
X499434Y771062D02*
X502766D01*
X477774Y925830D02*
Y935827D01*
X482772D01*
X484439Y934161D01*
Y930828D01*
X482772Y929162D01*
X477774D01*
X481106D02*
X484439Y925830D01*
X487771Y934161D02*
X489437Y935827D01*
X492769D01*
X494435Y934161D01*
Y932495D01*
X492769Y930828D01*
X491103D01*
X492769D01*
X494435Y929162D01*
Y927496D01*
X492769Y925830D01*
X489437D01*
X487771Y927496D01*
X497767Y935827D02*
X504432D01*
Y934161D01*
X497767Y927496D01*
Y925830D01*
X753872Y523331D02*
Y515000D01*
X755538Y513334D01*
X758870D01*
X760536Y515000D01*
Y523331D01*
X763869Y521665D02*
X765535Y523331D01*
X768867D01*
X770533Y521665D01*
Y519998D01*
X768867Y518332D01*
X767201D01*
X768867D01*
X770533Y516666D01*
Y515000D01*
X768867Y513334D01*
X765535D01*
X763869Y515000D01*
X803453Y980500D02*
X801787Y978834D01*
Y975502D01*
X803453Y973836D01*
X810118D01*
X811784Y975502D01*
Y978834D01*
X810118Y980500D01*
X801787Y990497D02*
X803453Y987165D01*
X806786Y983833D01*
X810118D01*
X811784Y985499D01*
Y988831D01*
X810118Y990497D01*
X808452D01*
X806786Y988831D01*
Y983833D01*
X801787Y993829D02*
X803453D01*
X806786Y997162D01*
X803453Y1000494D01*
X801787D01*
X806786Y997162D02*
X811784D01*
X396808Y985527D02*
X395142Y987193D01*
X391810D01*
X390144Y985527D01*
Y978862D01*
X391810Y977196D01*
X395142D01*
X396808Y978862D01*
X406805Y987193D02*
X403473Y985527D01*
X400141Y982194D01*
Y978862D01*
X401807Y977196D01*
X405139D01*
X406805Y978862D01*
Y980528D01*
X405139Y982194D01*
X400141D01*
X410137Y987193D02*
X416802Y977196D01*
Y987193D02*
X410137Y977196D01*
X699821Y980500D02*
X698155Y978834D01*
Y975502D01*
X699821Y973836D01*
X706486D01*
X708152Y975502D01*
Y978834D01*
X706486Y980500D01*
X698155Y990497D02*
Y983833D01*
X703154D01*
X701487Y987165D01*
Y988831D01*
X703154Y990497D01*
X706486D01*
X708152Y988831D01*
Y985499D01*
X706486Y983833D01*
X698155Y993829D02*
X699821D01*
X703154Y997162D01*
X699821Y1000494D01*
X698155D01*
X703154Y997162D02*
X708152D01*
X286817Y981263D02*
X285151Y979596D01*
Y976264D01*
X286817Y974598D01*
X293482D01*
X295148Y976264D01*
Y979596D01*
X293482Y981263D01*
X285151Y991259D02*
Y984595D01*
X290149D01*
X288483Y987927D01*
Y989593D01*
X290149Y991259D01*
X293482D01*
X295148Y989593D01*
Y986261D01*
X293482Y984595D01*
X285151Y994592D02*
X295148Y1001256D01*
X285151D02*
X295148Y994592D01*
X792480Y973836D02*
X782483D01*
Y978834D01*
X784149Y980500D01*
X787482D01*
X789148Y978834D01*
Y973836D01*
Y977168D02*
X792480Y980500D01*
X790814Y983833D02*
X792480Y985499D01*
Y988831D01*
X790814Y990497D01*
X784149D01*
X782483Y988831D01*
Y985499D01*
X784149Y983833D01*
X785815D01*
X787482Y985499D01*
Y990497D01*
X782483Y993829D02*
X784149D01*
X787482Y997162D01*
X784149Y1000494D01*
X782483D01*
X787482Y997162D02*
X792480D01*
X415798Y1205575D02*
Y1197244D01*
X417464Y1195578D01*
X420796D01*
X422462Y1197244D01*
Y1205575D01*
X425795Y1203908D02*
X427461Y1205575D01*
X430793D01*
X432459Y1203908D01*
Y1202242D01*
X430793Y1200576D01*
X432459Y1198910D01*
Y1197244D01*
X430793Y1195578D01*
X427461D01*
X425795Y1197244D01*
Y1198910D01*
X427461Y1200576D01*
X425795Y1202242D01*
Y1203908D01*
X427461Y1200576D02*
X430793D01*
X578358Y1249771D02*
Y1241440D01*
X580024Y1239774D01*
X583356D01*
X585022Y1241440D01*
Y1249771D01*
X595019D02*
X588355D01*
Y1244772D01*
X591687Y1246438D01*
X593353D01*
X595019Y1244772D01*
Y1241440D01*
X593353Y1239774D01*
X590021D01*
X588355Y1241440D01*
X695706Y376265D02*
Y367934D01*
X697372Y366268D01*
X700704D01*
X702370Y367934D01*
Y376265D01*
X705703Y366268D02*
X709035D01*
X707369D01*
Y376265D01*
X705703Y374599D01*
X803148Y1080099D02*
X809812D01*
X806480D01*
Y1070102D01*
X813145D02*
Y1080099D01*
X818143D01*
X819809Y1078432D01*
Y1075100D01*
X818143Y1073434D01*
X813145D01*
X823141Y1070102D02*
X826474D01*
X824808D01*
Y1080099D01*
X823141Y1078432D01*
X838137Y1080099D02*
X831472D01*
Y1075100D01*
X834804Y1076766D01*
X836470D01*
X838137Y1075100D01*
Y1071768D01*
X836470Y1070102D01*
X833138D01*
X831472Y1071768D01*
X807720Y1022187D02*
X814384D01*
X811052D01*
Y1012190D01*
X817717D02*
Y1022187D01*
X822715D01*
X824381Y1020520D01*
Y1017188D01*
X822715Y1015522D01*
X817717D01*
X827713Y1012190D02*
X831046D01*
X829380D01*
Y1022187D01*
X827713Y1020520D01*
X841042Y1012190D02*
Y1022187D01*
X836044Y1017188D01*
X842709D01*
X807720Y1051143D02*
X814384D01*
X811052D01*
Y1041146D01*
X817717D02*
Y1051143D01*
X822715D01*
X824381Y1049476D01*
Y1046144D01*
X822715Y1044478D01*
X817717D01*
X827713Y1041146D02*
X831046D01*
X829380D01*
Y1051143D01*
X827713Y1049476D01*
X836044D02*
X837710Y1051143D01*
X841042D01*
X842709Y1049476D01*
Y1047810D01*
X841042Y1046144D01*
X839376D01*
X841042D01*
X842709Y1044478D01*
Y1042812D01*
X841042Y1041146D01*
X837710D01*
X836044Y1042812D01*
X803148Y1095593D02*
X809812D01*
X806480D01*
Y1085596D01*
X813145D02*
Y1095593D01*
X818143D01*
X819809Y1093926D01*
Y1090594D01*
X818143Y1088928D01*
X813145D01*
X823141Y1085596D02*
X826474D01*
X824808D01*
Y1095593D01*
X823141Y1093926D01*
X838137Y1085596D02*
X831472D01*
X838137Y1092260D01*
Y1093926D01*
X836470Y1095593D01*
X833138D01*
X831472Y1093926D01*
X796290Y471769D02*
X802954D01*
X799622D01*
Y461772D01*
X806287D02*
Y471769D01*
X811285D01*
X812951Y470103D01*
Y466770D01*
X811285Y465104D01*
X806287D01*
X816283Y461772D02*
X819616D01*
X817950D01*
Y471769D01*
X816283Y470103D01*
X824614D02*
X826280Y471769D01*
X829612D01*
X831279Y470103D01*
Y468436D01*
X829612Y466770D01*
X831279Y465104D01*
Y463438D01*
X829612Y461772D01*
X826280D01*
X824614Y463438D01*
Y465104D01*
X826280Y466770D01*
X824614Y468436D01*
Y470103D01*
X826280Y466770D02*
X829612D01*
X740664Y564987D02*
X747328D01*
X743996D01*
Y554990D01*
X750661D02*
Y564987D01*
X755659D01*
X757325Y563321D01*
Y559988D01*
X755659Y558322D01*
X750661D01*
X767322Y554990D02*
X760657D01*
X767322Y561654D01*
Y563321D01*
X765656Y564987D01*
X762324D01*
X760657Y563321D01*
X799846Y435447D02*
X806510D01*
X803178D01*
Y425450D01*
X809843D02*
Y435447D01*
X814841D01*
X816507Y433781D01*
Y430448D01*
X814841Y428782D01*
X809843D01*
X824838Y425450D02*
Y435447D01*
X819839Y430448D01*
X826504D01*
X603250Y942086D02*
X593253D01*
Y947084D01*
X594919Y948750D01*
X598251D01*
X599918Y947084D01*
Y942086D01*
Y945418D02*
X603250Y948750D01*
Y958747D02*
Y952083D01*
X596585Y958747D01*
X594919D01*
X593253Y957081D01*
Y953749D01*
X594919Y952083D01*
Y962079D02*
X593253Y963745D01*
Y967078D01*
X594919Y968744D01*
X596585D01*
X598251Y967078D01*
X599918Y968744D01*
X601584D01*
X603250Y967078D01*
Y963745D01*
X601584Y962079D01*
X599918D01*
X598251Y963745D01*
X596585Y962079D01*
X594919D01*
X598251Y963745D02*
Y967078D01*
X707136Y1159002D02*
Y1168999D01*
X712134D01*
X713800Y1167333D01*
Y1164000D01*
X712134Y1162334D01*
X707136D01*
X710468D02*
X713800Y1159002D01*
X723797D02*
X717133D01*
X723797Y1165666D01*
Y1167333D01*
X722131Y1168999D01*
X718799D01*
X717133Y1167333D01*
X727129Y1168999D02*
X733794D01*
Y1167333D01*
X727129Y1160668D01*
Y1159002D01*
X518668Y928116D02*
X508671D01*
Y933114D01*
X510337Y934780D01*
X513670D01*
X515336Y933114D01*
Y928116D01*
Y931448D02*
X518668Y934780D01*
Y944777D02*
Y938113D01*
X512003Y944777D01*
X510337D01*
X508671Y943111D01*
Y939779D01*
X510337Y938113D01*
X508671Y954774D02*
X510337Y951442D01*
X513670Y948109D01*
X517002D01*
X518668Y949775D01*
Y953108D01*
X517002Y954774D01*
X515336D01*
X513670Y953108D01*
Y948109D01*
X813562Y1106170D02*
X803565D01*
Y1111168D01*
X805231Y1112834D01*
X808564D01*
X810230Y1111168D01*
Y1106170D01*
Y1109502D02*
X813562Y1112834D01*
Y1122831D02*
Y1116167D01*
X806897Y1122831D01*
X805231D01*
X803565Y1121165D01*
Y1117833D01*
X805231Y1116167D01*
X803565Y1132828D02*
Y1126163D01*
X808564D01*
X806897Y1129496D01*
Y1131162D01*
X808564Y1132828D01*
X811896D01*
X813562Y1131162D01*
Y1127830D01*
X811896Y1126163D01*
X655320Y1049274D02*
Y1059271D01*
X660318D01*
X661984Y1057605D01*
Y1054272D01*
X660318Y1052606D01*
X655320D01*
X658652D02*
X661984Y1049274D01*
X671981D02*
X665317D01*
X671981Y1055938D01*
Y1057605D01*
X670315Y1059271D01*
X666983D01*
X665317Y1057605D01*
X680312Y1049274D02*
Y1059271D01*
X675313Y1054272D01*
X681978D01*
X756412Y1058164D02*
Y1068161D01*
X761410D01*
X763076Y1066495D01*
Y1063162D01*
X761410Y1061496D01*
X756412D01*
X759744D02*
X763076Y1058164D01*
X773073D02*
X766409D01*
X773073Y1064828D01*
Y1066495D01*
X771407Y1068161D01*
X768075D01*
X766409Y1066495D01*
X776405D02*
X778072Y1068161D01*
X781404D01*
X783070Y1066495D01*
Y1064828D01*
X781404Y1063162D01*
X779738D01*
X781404D01*
X783070Y1061496D01*
Y1059830D01*
X781404Y1058164D01*
X778072D01*
X776405Y1059830D01*
X800100Y1106170D02*
X790103D01*
Y1111168D01*
X791769Y1112834D01*
X795101D01*
X796768Y1111168D01*
Y1106170D01*
Y1109502D02*
X800100Y1112834D01*
Y1122831D02*
Y1116167D01*
X793435Y1122831D01*
X791769D01*
X790103Y1121165D01*
Y1117833D01*
X791769Y1116167D01*
X800100Y1132828D02*
Y1126163D01*
X793435Y1132828D01*
X791769D01*
X790103Y1131162D01*
Y1127830D01*
X791769Y1126163D01*
X683260Y436626D02*
X673263D01*
Y441624D01*
X674929Y443290D01*
X678261D01*
X679928Y441624D01*
Y436626D01*
Y439958D02*
X683260Y443290D01*
Y453287D02*
Y446623D01*
X676595Y453287D01*
X674929D01*
X673263Y451621D01*
Y448289D01*
X674929Y446623D01*
X683260Y456619D02*
Y459952D01*
Y458285D01*
X673263D01*
X674929Y456619D01*
X696468Y436626D02*
X686471D01*
Y441624D01*
X688137Y443290D01*
X691469D01*
X693136Y441624D01*
Y436626D01*
Y439958D02*
X696468Y443290D01*
Y453287D02*
Y446623D01*
X689803Y453287D01*
X688137D01*
X686471Y451621D01*
Y448289D01*
X688137Y446623D01*
Y456619D02*
X686471Y458285D01*
Y461618D01*
X688137Y463284D01*
X694802D01*
X696468Y461618D01*
Y458285D01*
X694802Y456619D01*
X688137D01*
X633476Y941696D02*
X623479D01*
Y946694D01*
X625145Y948360D01*
X628478D01*
X630144Y946694D01*
Y941696D01*
Y945028D02*
X633476Y948360D01*
Y951693D02*
Y955025D01*
Y953359D01*
X623479D01*
X625145Y951693D01*
X631810Y960023D02*
X633476Y961689D01*
Y965022D01*
X631810Y966688D01*
X625145D01*
X623479Y965022D01*
Y961689D01*
X625145Y960023D01*
X626811D01*
X628478Y961689D01*
Y966688D01*
X691388Y1019556D02*
X681391D01*
Y1024554D01*
X683057Y1026220D01*
X686389D01*
X688056Y1024554D01*
Y1019556D01*
Y1022888D02*
X691388Y1026220D01*
Y1029553D02*
Y1032885D01*
Y1031219D01*
X681391D01*
X683057Y1029553D01*
Y1037883D02*
X681391Y1039549D01*
Y1042882D01*
X683057Y1044548D01*
X684723D01*
X686389Y1042882D01*
X688056Y1044548D01*
X689722D01*
X691388Y1042882D01*
Y1039549D01*
X689722Y1037883D01*
X688056D01*
X686389Y1039549D01*
X684723Y1037883D01*
X683057D01*
X686389Y1039549D02*
Y1042882D01*
X661670Y596646D02*
Y606643D01*
X666668D01*
X668334Y604977D01*
Y601644D01*
X666668Y599978D01*
X661670D01*
X665002D02*
X668334Y596646D01*
X671667D02*
X674999D01*
X673333D01*
Y606643D01*
X671667Y604977D01*
X679997Y606643D02*
X686662D01*
Y604977D01*
X679997Y598312D01*
Y596646D01*
X702818D02*
Y606643D01*
X707816D01*
X709482Y604977D01*
Y601644D01*
X707816Y599978D01*
X702818D01*
X706150D02*
X709482Y596646D01*
X712815D02*
X716147D01*
X714481D01*
Y606643D01*
X712815Y604977D01*
X727810Y606643D02*
X724477Y604977D01*
X721145Y601644D01*
Y598312D01*
X722811Y596646D01*
X726144D01*
X727810Y598312D01*
Y599978D01*
X726144Y601644D01*
X721145D01*
X590042Y991616D02*
Y1001613D01*
X595040D01*
X596706Y999947D01*
Y996614D01*
X595040Y994948D01*
X590042D01*
X593374D02*
X596706Y991616D01*
X600039D02*
X603371D01*
X601705D01*
Y1001613D01*
X600039Y999947D01*
X615034Y1001613D02*
X608369D01*
Y996614D01*
X611702Y998280D01*
X613368D01*
X615034Y996614D01*
Y993282D01*
X613368Y991616D01*
X610035D01*
X608369Y993282D01*
X623570Y1101090D02*
Y1111087D01*
X628568D01*
X630234Y1109420D01*
Y1106088D01*
X628568Y1104422D01*
X623570D01*
X626902D02*
X630234Y1101090D01*
X633567D02*
X636899D01*
X635233D01*
Y1111087D01*
X633567Y1109420D01*
X646896Y1101090D02*
Y1111087D01*
X641897Y1106088D01*
X648562D01*
X672846Y413258D02*
Y423255D01*
X677844D01*
X679510Y421589D01*
Y418256D01*
X677844Y416590D01*
X672846D01*
X676178D02*
X679510Y413258D01*
X689507Y423255D02*
X682843D01*
Y418256D01*
X686175Y419922D01*
X687841D01*
X689507Y418256D01*
Y414924D01*
X687841Y413258D01*
X684509D01*
X682843Y414924D01*
X700278Y270002D02*
Y279999D01*
X705276D01*
X706942Y278333D01*
Y275000D01*
X705276Y273334D01*
X700278D01*
X703610D02*
X706942Y270002D01*
X715273D02*
Y279999D01*
X710275Y275000D01*
X716939D01*
X601472Y270002D02*
Y279999D01*
X606470D01*
X608136Y278333D01*
Y275000D01*
X606470Y273334D01*
X601472D01*
X604804D02*
X608136Y270002D01*
X611469Y278333D02*
X613135Y279999D01*
X616467D01*
X618133Y278333D01*
Y276666D01*
X616467Y275000D01*
X614801D01*
X616467D01*
X618133Y273334D01*
Y271668D01*
X616467Y270002D01*
X613135D01*
X611469Y271668D01*
X583438Y329946D02*
Y339943D01*
X588436D01*
X590102Y338276D01*
Y334944D01*
X588436Y333278D01*
X583438D01*
X586770D02*
X590102Y329946D01*
X600099D02*
X593435D01*
X600099Y336610D01*
Y338276D01*
X598433Y339943D01*
X595101D01*
X593435Y338276D01*
X701548Y396748D02*
Y406745D01*
X706546D01*
X708212Y405079D01*
Y401746D01*
X706546Y400080D01*
X701548D01*
X704880D02*
X708212Y396748D01*
X711545D02*
X714877D01*
X713211D01*
Y406745D01*
X711545Y405079D01*
X566674Y1010249D02*
Y1000252D01*
X571672D01*
X573338Y1001918D01*
Y1008583D01*
X571672Y1010249D01*
X566674D01*
X576671Y1008583D02*
X578337Y1010249D01*
X581669D01*
X583335Y1008583D01*
Y1006916D01*
X581669Y1005250D01*
X580003D01*
X581669D01*
X583335Y1003584D01*
Y1001918D01*
X581669Y1000252D01*
X578337D01*
X576671Y1001918D01*
X426018Y1097228D02*
X424352Y1098895D01*
X421020D01*
X419354Y1097228D01*
Y1090564D01*
X421020Y1088898D01*
X424352D01*
X426018Y1090564D01*
X429351Y1097228D02*
X431017Y1098895D01*
X434349D01*
X436015Y1097228D01*
Y1095562D01*
X434349Y1093896D01*
X432683D01*
X434349D01*
X436015Y1092230D01*
Y1090564D01*
X434349Y1088898D01*
X431017D01*
X429351Y1090564D01*
X439347Y1098895D02*
X446012D01*
Y1097228D01*
X439347Y1090564D01*
Y1088898D01*
X426272Y1109675D02*
X424606Y1111341D01*
X421274D01*
X419608Y1109675D01*
Y1103010D01*
X421274Y1101344D01*
X424606D01*
X426272Y1103010D01*
X429605Y1109675D02*
X431271Y1111341D01*
X434603D01*
X436269Y1109675D01*
Y1108008D01*
X434603Y1106342D01*
X432937D01*
X434603D01*
X436269Y1104676D01*
Y1103010D01*
X434603Y1101344D01*
X431271D01*
X429605Y1103010D01*
X446266Y1111341D02*
X442934Y1109675D01*
X439601Y1106342D01*
Y1103010D01*
X441268Y1101344D01*
X444600D01*
X446266Y1103010D01*
Y1104676D01*
X444600Y1106342D01*
X439601D01*
X431851Y1221292D02*
X430185Y1219626D01*
Y1216294D01*
X431851Y1214628D01*
X438516D01*
X440182Y1216294D01*
Y1219626D01*
X438516Y1221292D01*
X431851Y1224625D02*
X430185Y1226291D01*
Y1229623D01*
X431851Y1231289D01*
X433517D01*
X435183Y1229623D01*
Y1227957D01*
Y1229623D01*
X436850Y1231289D01*
X438516D01*
X440182Y1229623D01*
Y1226291D01*
X438516Y1224625D01*
X430185Y1241286D02*
Y1234621D01*
X435183D01*
X433517Y1237954D01*
Y1239620D01*
X435183Y1241286D01*
X438516D01*
X440182Y1239620D01*
Y1236288D01*
X438516Y1234621D01*
X468414Y1261581D02*
X466748Y1263247D01*
X463416D01*
X461750Y1261581D01*
Y1254916D01*
X463416Y1253250D01*
X466748D01*
X468414Y1254916D01*
X471747Y1261581D02*
X473413Y1263247D01*
X476745D01*
X478411Y1261581D01*
Y1259914D01*
X476745Y1258248D01*
X475079D01*
X476745D01*
X478411Y1256582D01*
Y1254916D01*
X476745Y1253250D01*
X473413D01*
X471747Y1254916D01*
X486742Y1253250D02*
Y1263247D01*
X481743Y1258248D01*
X488408D01*
X644966Y1222197D02*
X643300Y1223863D01*
X639968D01*
X638302Y1222197D01*
Y1215532D01*
X639968Y1213866D01*
X643300D01*
X644966Y1215532D01*
X648299Y1222197D02*
X649965Y1223863D01*
X653297D01*
X654963Y1222197D01*
Y1220530D01*
X653297Y1218864D01*
X651631D01*
X653297D01*
X654963Y1217198D01*
Y1215532D01*
X653297Y1213866D01*
X649965D01*
X648299Y1215532D01*
X658295Y1222197D02*
X659961Y1223863D01*
X663294D01*
X664960Y1222197D01*
Y1220530D01*
X663294Y1218864D01*
X661628D01*
X663294D01*
X664960Y1217198D01*
Y1215532D01*
X663294Y1213866D01*
X659961D01*
X658295Y1215532D01*
X585013Y1039936D02*
X583347Y1038270D01*
Y1034938D01*
X585013Y1033272D01*
X591678D01*
X593344Y1034938D01*
Y1038270D01*
X591678Y1039936D01*
X585013Y1043269D02*
X583347Y1044935D01*
Y1048267D01*
X585013Y1049933D01*
X586679D01*
X588345Y1048267D01*
Y1046601D01*
Y1048267D01*
X590012Y1049933D01*
X591678D01*
X593344Y1048267D01*
Y1044935D01*
X591678Y1043269D01*
X593344Y1059930D02*
Y1053265D01*
X586679Y1059930D01*
X585013D01*
X583347Y1058264D01*
Y1054931D01*
X585013Y1053265D01*
X497138Y1095197D02*
X495472Y1096863D01*
X492140D01*
X490474Y1095197D01*
Y1088532D01*
X492140Y1086866D01*
X495472D01*
X497138Y1088532D01*
X500471Y1095197D02*
X502137Y1096863D01*
X505469D01*
X507135Y1095197D01*
Y1093530D01*
X505469Y1091864D01*
X503803D01*
X505469D01*
X507135Y1090198D01*
Y1088532D01*
X505469Y1086866D01*
X502137D01*
X500471Y1088532D01*
X510467Y1086866D02*
X513800D01*
X512133D01*
Y1096863D01*
X510467Y1095197D01*
X602285Y1028252D02*
X600619Y1026586D01*
Y1023254D01*
X602285Y1021588D01*
X608950D01*
X610616Y1023254D01*
Y1026586D01*
X608950Y1028252D01*
X602285Y1031585D02*
X600619Y1033251D01*
Y1036583D01*
X602285Y1038249D01*
X603951D01*
X605617Y1036583D01*
Y1034917D01*
Y1036583D01*
X607284Y1038249D01*
X608950D01*
X610616Y1036583D01*
Y1033251D01*
X608950Y1031585D01*
X602285Y1041581D02*
X600619Y1043248D01*
Y1046580D01*
X602285Y1048246D01*
X608950D01*
X610616Y1046580D01*
Y1043248D01*
X608950Y1041581D01*
X602285D01*
X565455Y1039174D02*
X563789Y1037508D01*
Y1034176D01*
X565455Y1032510D01*
X572120D01*
X573786Y1034176D01*
Y1037508D01*
X572120Y1039174D01*
X573786Y1049171D02*
Y1042507D01*
X567121Y1049171D01*
X565455D01*
X563789Y1047505D01*
Y1044173D01*
X565455Y1042507D01*
X572120Y1052503D02*
X573786Y1054169D01*
Y1057502D01*
X572120Y1059168D01*
X565455D01*
X563789Y1057502D01*
Y1054169D01*
X565455Y1052503D01*
X567121D01*
X568787Y1054169D01*
Y1059168D01*
X645982Y1205433D02*
X644316Y1207099D01*
X640984D01*
X639318Y1205433D01*
Y1198768D01*
X640984Y1197102D01*
X644316D01*
X645982Y1198768D01*
X655979Y1197102D02*
X649315D01*
X655979Y1203766D01*
Y1205433D01*
X654313Y1207099D01*
X650981D01*
X649315Y1205433D01*
X659311D02*
X660977Y1207099D01*
X664310D01*
X665976Y1205433D01*
Y1203766D01*
X664310Y1202100D01*
X665976Y1200434D01*
Y1198768D01*
X664310Y1197102D01*
X660977D01*
X659311Y1198768D01*
Y1200434D01*
X660977Y1202100D01*
X659311Y1203766D01*
Y1205433D01*
X660977Y1202100D02*
X664310D01*
X398323Y1202496D02*
X396657Y1200830D01*
Y1197498D01*
X398323Y1195832D01*
X404988D01*
X406654Y1197498D01*
Y1200830D01*
X404988Y1202496D01*
X406654Y1212493D02*
Y1205829D01*
X399989Y1212493D01*
X398323D01*
X396657Y1210827D01*
Y1207495D01*
X398323Y1205829D01*
X396657Y1215825D02*
Y1222490D01*
X398323D01*
X404988Y1215825D01*
X406654D01*
X759003Y1024696D02*
X757337Y1023030D01*
Y1019698D01*
X759003Y1018032D01*
X765668D01*
X767334Y1019698D01*
Y1023030D01*
X765668Y1024696D01*
X767334Y1034693D02*
Y1028029D01*
X760669Y1034693D01*
X759003D01*
X757337Y1033027D01*
Y1029695D01*
X759003Y1028029D01*
X757337Y1044690D02*
X759003Y1041358D01*
X762336Y1038025D01*
X765668D01*
X767334Y1039691D01*
Y1043024D01*
X765668Y1044690D01*
X764002D01*
X762336Y1043024D01*
Y1038025D01*
X515426Y1079703D02*
X513760Y1081369D01*
X510428D01*
X508762Y1079703D01*
Y1073038D01*
X510428Y1071372D01*
X513760D01*
X515426Y1073038D01*
X525423Y1071372D02*
X518759D01*
X525423Y1078036D01*
Y1079703D01*
X523757Y1081369D01*
X520425D01*
X518759Y1079703D01*
X528755D02*
X530421Y1081369D01*
X533754D01*
X535420Y1079703D01*
Y1078036D01*
X533754Y1076370D01*
X532088D01*
X533754D01*
X535420Y1074704D01*
Y1073038D01*
X533754Y1071372D01*
X530421D01*
X528755Y1073038D01*
X745541Y1024696D02*
X743875Y1023030D01*
Y1019698D01*
X745541Y1018032D01*
X752206D01*
X753872Y1019698D01*
Y1023030D01*
X752206Y1024696D01*
X753872Y1034693D02*
Y1028029D01*
X747207Y1034693D01*
X745541D01*
X743875Y1033027D01*
Y1029695D01*
X745541Y1028029D01*
X753872Y1044690D02*
Y1038025D01*
X747207Y1044690D01*
X745541D01*
X743875Y1043024D01*
Y1039691D01*
X745541Y1038025D01*
X688391Y1067114D02*
X686725Y1065448D01*
Y1062116D01*
X688391Y1060450D01*
X695056D01*
X696722Y1062116D01*
Y1065448D01*
X695056Y1067114D01*
X696722Y1077111D02*
Y1070447D01*
X690057Y1077111D01*
X688391D01*
X686725Y1075445D01*
Y1072113D01*
X688391Y1070447D01*
X696722Y1080443D02*
Y1083776D01*
Y1082110D01*
X686725D01*
X688391Y1080443D01*
X690677Y1107500D02*
X689011Y1105834D01*
Y1102502D01*
X690677Y1100836D01*
X697342D01*
X699008Y1102502D01*
Y1105834D01*
X697342Y1107500D01*
X699008Y1117497D02*
Y1110833D01*
X692343Y1117497D01*
X690677D01*
X689011Y1115831D01*
Y1112499D01*
X690677Y1110833D01*
Y1120829D02*
X689011Y1122495D01*
Y1125828D01*
X690677Y1127494D01*
X697342D01*
X699008Y1125828D01*
Y1122495D01*
X697342Y1120829D01*
X690677D01*
X725230Y1144726D02*
X723564Y1146393D01*
X720232D01*
X718566Y1144726D01*
Y1138062D01*
X720232Y1136396D01*
X723564D01*
X725230Y1138062D01*
X728563Y1136396D02*
X731895D01*
X730229D01*
Y1146393D01*
X728563Y1144726D01*
X736893Y1138062D02*
X738559Y1136396D01*
X741892D01*
X743558Y1138062D01*
Y1144726D01*
X741892Y1146393D01*
X738559D01*
X736893Y1144726D01*
Y1143060D01*
X738559Y1141394D01*
X743558D01*
X802437Y482406D02*
X800771Y480740D01*
Y477408D01*
X802437Y475742D01*
X809102D01*
X810768Y477408D01*
Y480740D01*
X809102Y482406D01*
X810768Y485739D02*
Y489071D01*
Y487405D01*
X800771D01*
X802437Y485739D01*
Y494069D02*
X800771Y495735D01*
Y499068D01*
X802437Y500734D01*
X809102D01*
X810768Y499068D01*
Y495735D01*
X809102Y494069D01*
X802437D01*
X718871Y488756D02*
X717205Y487090D01*
Y483758D01*
X718871Y482092D01*
X725536D01*
X727202Y483758D01*
Y487090D01*
X725536Y488756D01*
X717205Y492089D02*
Y498753D01*
X718871D01*
X725536Y492089D01*
X727202D01*
X706180Y295096D02*
X704514Y296763D01*
X701182D01*
X699516Y295096D01*
Y288432D01*
X701182Y286766D01*
X704514D01*
X706180Y288432D01*
X714511Y286766D02*
Y296763D01*
X709513Y291764D01*
X716177D01*
X576885Y312480D02*
X575219Y310814D01*
Y307482D01*
X576885Y305816D01*
X583550D01*
X585216Y307482D01*
Y310814D01*
X583550Y312480D01*
X576885Y315813D02*
X575219Y317479D01*
Y320811D01*
X576885Y322477D01*
X578551D01*
X580218Y320811D01*
Y319145D01*
Y320811D01*
X581884Y322477D01*
X583550D01*
X585216Y320811D01*
Y317479D01*
X583550Y315813D01*
X651316Y405840D02*
X649650Y407507D01*
X646318D01*
X644652Y405840D01*
Y399176D01*
X646318Y397510D01*
X649650D01*
X651316Y399176D01*
X661313Y397510D02*
X654649D01*
X661313Y404174D01*
Y405840D01*
X659647Y407507D01*
X656315D01*
X654649Y405840D01*
X609406Y295604D02*
X607740Y297271D01*
X604408D01*
X602742Y295604D01*
Y288940D01*
X604408Y287274D01*
X607740D01*
X609406Y288940D01*
X612739Y287274D02*
X616071D01*
X614405D01*
Y297271D01*
X612739Y295604D01*
X741994Y411571D02*
X738662D01*
X740328D01*
Y403240D01*
X738662Y401574D01*
X736996D01*
X735330Y403240D01*
X745327Y401574D02*
X748659D01*
X746993D01*
Y411571D01*
X745327Y409905D01*
X283778Y411317D02*
X280446D01*
X282112D01*
Y402986D01*
X280446Y401320D01*
X278780D01*
X277114Y402986D01*
X293775Y401320D02*
X287111D01*
X293775Y407984D01*
Y409650D01*
X292109Y411317D01*
X288777D01*
X287111Y409650D01*
X385378Y412079D02*
X382046D01*
X383712D01*
Y403748D01*
X382046Y402082D01*
X380380D01*
X378714Y403748D01*
X388711Y410412D02*
X390377Y412079D01*
X393709D01*
X395375Y410412D01*
Y408746D01*
X393709Y407080D01*
X392043D01*
X393709D01*
X395375Y405414D01*
Y403748D01*
X393709Y402082D01*
X390377D01*
X388711Y403748D01*
X485708Y410809D02*
X482376D01*
X484042D01*
Y402478D01*
X482376Y400812D01*
X480710D01*
X479044Y402478D01*
X494039Y400812D02*
Y410809D01*
X489041Y405810D01*
X495705D01*
X610413Y352612D02*
X608747Y350946D01*
Y347614D01*
X610413Y345948D01*
X617078D01*
X618744Y347614D01*
Y350946D01*
X617078Y352612D01*
X608747Y362609D02*
Y355945D01*
X613745D01*
X612079Y359277D01*
Y360943D01*
X613745Y362609D01*
X617078D01*
X618744Y360943D01*
Y357611D01*
X617078Y355945D01*
X618744Y370940D02*
X608747D01*
X613745Y365941D01*
Y372606D01*
X713029Y310702D02*
X711363Y309036D01*
Y305704D01*
X713029Y304038D01*
X719694D01*
X721360Y305704D01*
Y309036D01*
X719694Y310702D01*
X711363Y320699D02*
Y314035D01*
X716361D01*
X714695Y317367D01*
Y319033D01*
X716361Y320699D01*
X719694D01*
X721360Y319033D01*
Y315701D01*
X719694Y314035D01*
X711363Y330696D02*
Y324031D01*
X716361D01*
X714695Y327364D01*
Y329030D01*
X716361Y330696D01*
X719694D01*
X721360Y329030D01*
Y325698D01*
X719694Y324031D01*
X419354Y1085179D02*
Y1075182D01*
X426018D01*
X436015D02*
X429351D01*
X436015Y1081846D01*
Y1083512D01*
X434349Y1085179D01*
X431017D01*
X429351Y1083512D01*
X715518Y535269D02*
Y526938D01*
X717184Y525272D01*
X720516D01*
X722182Y526938D01*
Y535269D01*
X732179D02*
X728847Y533602D01*
X725515Y530270D01*
Y526938D01*
X727181Y525272D01*
X730513D01*
X732179Y526938D01*
Y528604D01*
X730513Y530270D01*
X725515D01*
X643941Y520252D02*
X642275Y518586D01*
Y515254D01*
X643941Y513588D01*
X650606D01*
X652272Y515254D01*
Y518586D01*
X650606Y520252D01*
X652272Y530249D02*
Y523585D01*
X645607Y530249D01*
X643941D01*
X642275Y528583D01*
Y525251D01*
X643941Y523585D01*
X642275Y540246D02*
Y533581D01*
X647273D01*
X645607Y536914D01*
Y538580D01*
X647273Y540246D01*
X650606D01*
X652272Y538580D01*
Y535247D01*
X650606Y533581D01*
X676462Y491438D02*
X674796Y493105D01*
X671464D01*
X669798Y491438D01*
Y484774D01*
X671464Y483108D01*
X674796D01*
X676462Y484774D01*
X686459Y483108D02*
X679795D01*
X686459Y489772D01*
Y491438D01*
X684793Y493105D01*
X681461D01*
X679795Y491438D01*
X694790Y483108D02*
Y493105D01*
X689791Y488106D01*
X696456D01*
D96*
X749046Y980694D02*
X739049D01*
Y985692D01*
X740715Y987358D01*
X744047D01*
X745714Y985692D01*
Y980694D01*
Y984026D02*
X749046Y987358D01*
X739049Y997355D02*
X740715Y994023D01*
X744047Y990691D01*
X747380D01*
X749046Y992357D01*
Y995689D01*
X747380Y997355D01*
X745714D01*
X744047Y995689D01*
Y990691D01*
X739049Y1000687D02*
X740715D01*
X744047Y1004020D01*
X740715Y1007352D01*
X739049D01*
X744047Y1004020D02*
X749046D01*
X726679Y973836D02*
X716682D01*
Y978834D01*
X718348Y980500D01*
X721681D01*
X723347Y978834D01*
Y973836D01*
Y977168D02*
X726679Y980500D01*
X718348Y983833D02*
X716682Y985499D01*
Y988831D01*
X718348Y990497D01*
X720015D01*
X721681Y988831D01*
X723347Y990497D01*
X725013D01*
X726679Y988831D01*
Y985499D01*
X725013Y983833D01*
X723347D01*
X721681Y985499D01*
X720015Y983833D01*
X718348D01*
X721681Y985499D02*
Y988831D01*
X716682Y993829D02*
X718348D01*
X721681Y997162D01*
X718348Y1000494D01*
X716682D01*
X721681Y997162D02*
X726679D01*
X623570Y1085342D02*
Y1095339D01*
X628568D01*
X630234Y1093672D01*
Y1090340D01*
X628568Y1088674D01*
X623570D01*
X626902D02*
X630234Y1085342D01*
X633567D02*
X636899D01*
X635233D01*
Y1095339D01*
X633567Y1093672D01*
X641897D02*
X643563Y1095339D01*
X646896D01*
X648562Y1093672D01*
Y1092006D01*
X646896Y1090340D01*
X645229D01*
X646896D01*
X648562Y1088674D01*
Y1087008D01*
X646896Y1085342D01*
X643563D01*
X641897Y1087008D01*
X597713Y527872D02*
X596047Y526206D01*
Y522874D01*
X597713Y521208D01*
X604378D01*
X606044Y522874D01*
Y526206D01*
X604378Y527872D01*
X597713Y531205D02*
X596047Y532871D01*
Y536203D01*
X597713Y537869D01*
X599379D01*
X601045Y536203D01*
X602712Y537869D01*
X604378D01*
X606044Y536203D01*
Y532871D01*
X604378Y531205D01*
X602712D01*
X601045Y532871D01*
X599379Y531205D01*
X597713D01*
X601045Y532871D02*
Y536203D01*
X432368Y940003D02*
X430702Y941669D01*
X427370D01*
X425704Y940003D01*
Y933338D01*
X427370Y931672D01*
X430702D01*
X432368Y933338D01*
X435701D02*
X437367Y931672D01*
X440699D01*
X442365Y933338D01*
Y940003D01*
X440699Y941669D01*
X437367D01*
X435701Y940003D01*
Y938336D01*
X437367Y936670D01*
X442365D01*
X426974Y710275D02*
Y700278D01*
X431972D01*
X433638Y701944D01*
Y708608D01*
X431972Y710275D01*
X426974D01*
X443635Y700278D02*
X436971D01*
X443635Y706942D01*
Y708608D01*
X441969Y710275D01*
X438637D01*
X436971Y708608D01*
X392227Y600516D02*
X390561Y598850D01*
Y595518D01*
X392227Y593852D01*
X398892D01*
X400558Y595518D01*
Y598850D01*
X398892Y600516D01*
X400558Y603849D02*
Y607181D01*
Y605515D01*
X390561D01*
X392227Y603849D01*
X400558Y618844D02*
Y612179D01*
X393893Y618844D01*
X392227D01*
X390561Y617178D01*
Y613845D01*
X392227Y612179D01*
X377713Y481898D02*
X376047Y480232D01*
Y476900D01*
X377713Y475234D01*
X384378D01*
X386044Y476900D01*
Y480232D01*
X384378Y481898D01*
X386044Y485231D02*
Y488563D01*
Y486897D01*
X376047D01*
X377713Y485231D01*
Y493561D02*
X376047Y495227D01*
Y498560D01*
X377713Y500226D01*
X379379D01*
X381045Y498560D01*
Y496894D01*
Y498560D01*
X382712Y500226D01*
X384378D01*
X386044Y498560D01*
Y495227D01*
X384378Y493561D01*
X298764Y444449D02*
X297098Y446115D01*
X293766D01*
X292100Y444449D01*
Y437784D01*
X293766Y436118D01*
X297098D01*
X298764Y437784D01*
X302097Y436118D02*
X305429D01*
X303763D01*
Y446115D01*
X302097Y444449D01*
X315426Y436118D02*
Y446115D01*
X310427Y441116D01*
X317092D01*
X301558Y593801D02*
X299892Y595467D01*
X296560D01*
X294894Y593801D01*
Y587136D01*
X296560Y585470D01*
X299892D01*
X301558Y587136D01*
X304891Y585470D02*
X308223D01*
X306557D01*
Y595467D01*
X304891Y593801D01*
X319886Y595467D02*
X313221D01*
Y590468D01*
X316553Y592134D01*
X318220D01*
X319886Y590468D01*
Y587136D01*
X318220Y585470D01*
X314887D01*
X313221Y587136D01*
X301558Y607517D02*
X299892Y609183D01*
X296560D01*
X294894Y607517D01*
Y600852D01*
X296560Y599186D01*
X299892D01*
X301558Y600852D01*
X304891Y599186D02*
X308223D01*
X306557D01*
Y609183D01*
X304891Y607517D01*
X319886Y609183D02*
X316553Y607517D01*
X313221Y604184D01*
Y600852D01*
X314887Y599186D01*
X318220D01*
X319886Y600852D01*
Y602518D01*
X318220Y604184D01*
X313221D01*
X541406Y505345D02*
X539740Y507011D01*
X536408D01*
X534742Y505345D01*
Y498680D01*
X536408Y497014D01*
X539740D01*
X541406Y498680D01*
X544739Y497014D02*
X548071D01*
X546405D01*
Y507011D01*
X544739Y505345D01*
X553069Y507011D02*
X559734D01*
Y505345D01*
X553069Y498680D01*
Y497014D01*
X481635Y571306D02*
X479969Y569640D01*
Y566308D01*
X481635Y564642D01*
X488300D01*
X489966Y566308D01*
Y569640D01*
X488300Y571306D01*
X489966Y574639D02*
Y577971D01*
Y576305D01*
X479969D01*
X481635Y574639D01*
Y582969D02*
X479969Y584635D01*
Y587968D01*
X481635Y589634D01*
X483301D01*
X484967Y587968D01*
X486634Y589634D01*
X488300D01*
X489966Y587968D01*
Y584635D01*
X488300Y582969D01*
X486634D01*
X484967Y584635D01*
X483301Y582969D01*
X481635D01*
X484967Y584635D02*
Y587968D01*
X413766Y639409D02*
Y629412D01*
X418764D01*
X420430Y631078D01*
Y637743D01*
X418764Y639409D01*
X413766D01*
X423763Y629412D02*
X427095D01*
X425429D01*
Y639409D01*
X423763Y637743D01*
X263906Y534253D02*
Y524256D01*
X270570D01*
X273903D02*
X277235D01*
X275569D01*
Y534253D01*
X273903Y532587D01*
X451424Y1305052D02*
Y1315049D01*
X456422D01*
X458088Y1313383D01*
Y1310050D01*
X456422Y1308384D01*
X451424D01*
X468085Y1305052D02*
X461421D01*
X468085Y1311716D01*
Y1313383D01*
X466419Y1315049D01*
X463087D01*
X461421Y1313383D01*
X338836Y974344D02*
X328839D01*
Y979342D01*
X330505Y981008D01*
X333838D01*
X335504Y979342D01*
Y974344D01*
Y977676D02*
X338836Y981008D01*
X328839Y991005D02*
X330505Y987673D01*
X333838Y984341D01*
X337170D01*
X338836Y986007D01*
Y989339D01*
X337170Y991005D01*
X335504D01*
X333838Y989339D01*
Y984341D01*
X328839Y994337D02*
X338836Y1001002D01*
X328839D02*
X338836Y994337D01*
X360934Y974598D02*
X350937D01*
Y979596D01*
X352603Y981262D01*
X355936D01*
X357602Y979596D01*
Y974598D01*
Y977930D02*
X360934Y981262D01*
X350937Y984595D02*
Y991259D01*
X352603D01*
X359268Y984595D01*
X360934D01*
X350937Y994591D02*
X360934Y1001256D01*
X350937D02*
X360934Y994591D01*
X771906Y980694D02*
X761909D01*
Y985692D01*
X763575Y987358D01*
X766908D01*
X768574Y985692D01*
Y980694D01*
Y984026D02*
X771906Y987358D01*
X761909Y990691D02*
Y997355D01*
X763575D01*
X770240Y990691D01*
X771906D01*
X761909Y1000687D02*
X763575D01*
X766908Y1004020D01*
X763575Y1007352D01*
X761909D01*
X766908Y1004020D02*
X771906D01*
X311404Y974598D02*
X301407D01*
Y979596D01*
X303073Y981262D01*
X306406D01*
X308072Y979596D01*
Y974598D01*
Y977930D02*
X311404Y981262D01*
X303073Y984595D02*
X301407Y986261D01*
Y989593D01*
X303073Y991259D01*
X304739D01*
X306406Y989593D01*
X308072Y991259D01*
X309738D01*
X311404Y989593D01*
Y986261D01*
X309738Y984595D01*
X308072D01*
X306406Y986261D01*
X304739Y984595D01*
X303073D01*
X306406Y986261D02*
Y989593D01*
X301407Y994591D02*
X311404Y1001256D01*
X301407D02*
X311404Y994591D01*
X383032Y973074D02*
X373035D01*
Y978072D01*
X374701Y979738D01*
X378033D01*
X379700Y978072D01*
Y973074D01*
Y976406D02*
X383032Y979738D01*
X381366Y983071D02*
X383032Y984737D01*
Y988069D01*
X381366Y989735D01*
X374701D01*
X373035Y988069D01*
Y984737D01*
X374701Y983071D01*
X376367D01*
X378033Y984737D01*
Y989735D01*
X373035Y993067D02*
X383032Y999732D01*
X373035D02*
X383032Y993067D01*
X509016Y549402D02*
X499019D01*
Y554400D01*
X500685Y556066D01*
X504017D01*
X505684Y554400D01*
Y549402D01*
Y552734D02*
X509016Y556066D01*
Y559399D02*
Y562731D01*
Y561065D01*
X499019D01*
X500685Y559399D01*
Y567729D02*
X499019Y569395D01*
Y572728D01*
X500685Y574394D01*
X507350D01*
X509016Y572728D01*
Y569395D01*
X507350Y567729D01*
X500685D01*
X535504Y480518D02*
Y490515D01*
X540502D01*
X542168Y488848D01*
Y485516D01*
X540502Y483850D01*
X535504D01*
X538836D02*
X542168Y480518D01*
X545501D02*
X548833D01*
X547167D01*
Y490515D01*
X545501Y488848D01*
X553831Y480518D02*
X557164D01*
X555497D01*
Y490515D01*
X553831Y488848D01*
X480822Y450342D02*
Y460339D01*
X485820D01*
X487486Y458672D01*
Y455340D01*
X485820Y453674D01*
X480822D01*
X484154D02*
X487486Y450342D01*
X490819D02*
X494151D01*
X492485D01*
Y460339D01*
X490819Y458672D01*
X505814Y450342D02*
X499149D01*
X505814Y457006D01*
Y458672D01*
X504148Y460339D01*
X500815D01*
X499149Y458672D01*
X548640Y475579D02*
X555304D01*
X551972D01*
Y465582D01*
X558637D02*
Y475579D01*
X563635D01*
X565301Y473913D01*
Y470580D01*
X563635Y468914D01*
X558637D01*
X568633Y473913D02*
X570300Y475579D01*
X573632D01*
X575298Y473913D01*
Y472246D01*
X573632Y470580D01*
X571966D01*
X573632D01*
X575298Y468914D01*
Y467248D01*
X573632Y465582D01*
X570300D01*
X568633Y467248D01*
X419608Y542889D02*
Y534558D01*
X421274Y532892D01*
X424606D01*
X426272Y534558D01*
Y542889D01*
X434603Y532892D02*
Y542889D01*
X429605Y537890D01*
X436269D01*
X756412Y1099149D02*
Y1090818D01*
X758078Y1089152D01*
X761410D01*
X763076Y1090818D01*
Y1099149D01*
X766409D02*
X773073D01*
Y1097483D01*
X766409Y1090818D01*
Y1089152D01*
X365049Y528634D02*
X363383Y526968D01*
Y523636D01*
X365049Y521970D01*
X371714D01*
X373380Y523636D01*
Y526968D01*
X371714Y528634D01*
X373380Y531967D02*
Y535299D01*
Y533633D01*
X363383D01*
X365049Y531967D01*
X373380Y540297D02*
Y543629D01*
Y541963D01*
X363383D01*
X365049Y540297D01*
D97*
X671566Y515620D02*
X680030Y524084D01*
Y515620D02*
X671566Y524084D01*
X675798Y515620D02*
Y524084D01*
X680030Y519852D02*
X671566D01*
M02*
