G04*
G04 #@! TF.GenerationSoftware,Altium Limited,CircuitStudio,1.5.1 (13)*
G04*
G04 Layer_Color=13948096*
%FSLAX44Y44*%
%MOMM*%
G71*
G01*
G75*
%ADD70C,0.2000*%
%ADD79C,0.1700*%
%ADD80C,0.1700*%
%ADD119C,0.2032*%
D70*
X792480Y1154684D02*
Y1180084D01*
X716280D02*
X792480D01*
X716280Y1154684D02*
Y1180084D01*
Y1154684D02*
X792480D01*
X388874Y1219200D02*
X467614D01*
Y1148080D02*
Y1219200D01*
X388874Y1148080D02*
Y1219200D01*
Y1148080D02*
X467614D01*
X431292Y689356D02*
X482092D01*
X431292Y562356D02*
X482092D01*
Y689356D01*
X431292Y562356D02*
Y689356D01*
D79*
X803148Y623915D02*
X796483D01*
X799816D01*
Y613918D01*
X793151D02*
Y623915D01*
X788153D01*
X786487Y622248D01*
Y618916D01*
X788153Y617250D01*
X793151D01*
X776490Y613918D02*
X783154D01*
X776490Y620582D01*
Y622248D01*
X778156Y623915D01*
X781488D01*
X783154Y622248D01*
X768159Y613918D02*
Y623915D01*
X773158Y618916D01*
X766493D01*
X394716Y410047D02*
X388051D01*
X391384D01*
Y400050D01*
X384719D02*
Y410047D01*
X379721D01*
X378055Y408381D01*
Y405048D01*
X379721Y403382D01*
X384719D01*
X368058Y400050D02*
X374722D01*
X368058Y406714D01*
Y408381D01*
X369724Y410047D01*
X373056D01*
X374722Y408381D01*
X364726D02*
X363060Y410047D01*
X359727D01*
X358061Y408381D01*
Y401716D01*
X359727Y400050D01*
X363060D01*
X364726Y401716D01*
Y408381D01*
X533654Y1052921D02*
X526989D01*
X530322D01*
Y1042924D01*
X523657D02*
Y1052921D01*
X518659D01*
X516993Y1051255D01*
Y1047922D01*
X518659Y1046256D01*
X523657D01*
X513660Y1044590D02*
X511994Y1042924D01*
X508662D01*
X506996Y1044590D01*
Y1051255D01*
X508662Y1052921D01*
X511994D01*
X513660Y1051255D01*
Y1049588D01*
X511994Y1047922D01*
X506996D01*
X466852Y1224534D02*
Y1234531D01*
X461853D01*
X460187Y1232865D01*
Y1229532D01*
X461853Y1227866D01*
X466852D01*
X456855Y1232865D02*
X455189Y1234531D01*
X451857D01*
X450191Y1232865D01*
Y1231198D01*
X451857Y1229532D01*
X453523D01*
X451857D01*
X450191Y1227866D01*
Y1226200D01*
X451857Y1224534D01*
X455189D01*
X456855Y1226200D01*
X834644Y569813D02*
Y559816D01*
X829645D01*
X827979Y561482D01*
Y568147D01*
X829645Y569813D01*
X834644D01*
X819649Y559816D02*
X822981D01*
X824647Y561482D01*
Y564814D01*
X822981Y566480D01*
X819649D01*
X817983Y564814D01*
Y563148D01*
X824647D01*
X814650Y559816D02*
X809652D01*
X807986Y561482D01*
X809652Y563148D01*
X812984D01*
X814650Y564814D01*
X812984Y566480D01*
X807986D01*
X804654Y559816D02*
X801321D01*
X802988D01*
Y566480D01*
X804654D01*
X792991Y556484D02*
X791325D01*
X789659Y558150D01*
Y566480D01*
X794657D01*
X796323Y564814D01*
Y561482D01*
X794657Y559816D01*
X789659D01*
X786326D02*
Y566480D01*
X781328D01*
X779662Y564814D01*
Y559816D01*
X771331D02*
X774663D01*
X776329Y561482D01*
Y564814D01*
X774663Y566480D01*
X771331D01*
X769665Y564814D01*
Y563148D01*
X776329D01*
X766333Y566480D02*
Y559816D01*
Y563148D01*
X764667Y564814D01*
X763000Y566480D01*
X761334D01*
X756336D02*
X754670D01*
Y564814D01*
X756336D01*
Y566480D01*
Y561482D02*
X754670D01*
Y559816D01*
X756336D01*
Y561482D01*
X738009Y569813D02*
Y559816D01*
X733010D01*
X731344Y561482D01*
Y563148D01*
X733010Y564814D01*
X738009D01*
X733010D01*
X731344Y566480D01*
Y568147D01*
X733010Y569813D01*
X738009D01*
X723014Y559816D02*
X726346D01*
X728012Y561482D01*
Y564814D01*
X726346Y566480D01*
X723014D01*
X721347Y564814D01*
Y563148D01*
X728012D01*
X718015Y559816D02*
Y566480D01*
X713017D01*
X711351Y564814D01*
Y559816D01*
X698022D02*
Y569813D01*
X693023D01*
X691357Y568147D01*
Y564814D01*
X693023Y563148D01*
X698022D01*
X686359Y566480D02*
X683027D01*
X681360Y564814D01*
Y559816D01*
X686359D01*
X688025Y561482D01*
X686359Y563148D01*
X681360D01*
X678028Y559816D02*
X674696D01*
X676362D01*
Y566480D01*
X678028D01*
X669697Y559816D02*
Y569813D01*
Y563148D02*
X664699Y566480D01*
X669697Y563148D02*
X664699Y559816D01*
X834644Y549351D02*
X832978Y551017D01*
X829645D01*
X827979Y549351D01*
Y542686D01*
X829645Y541020D01*
X832978D01*
X834644Y542686D01*
Y549351D01*
X824647D02*
X822981Y551017D01*
X819649D01*
X817983Y549351D01*
Y542686D01*
X819649Y541020D01*
X822981D01*
X824647Y542686D01*
Y549351D01*
X814650Y541020D02*
X811318D01*
X812984D01*
Y551017D01*
X814650Y549351D01*
X806320Y546018D02*
X799655D01*
X796323Y549351D02*
X794657Y551017D01*
X791325D01*
X789659Y549351D01*
Y542686D01*
X791325Y541020D01*
X794657D01*
X796323Y542686D01*
Y549351D01*
X786326D02*
X784660Y551017D01*
X781328D01*
X779662Y549351D01*
Y542686D01*
X781328Y541020D01*
X784660D01*
X786326Y542686D01*
Y549351D01*
X776329Y541020D02*
X772997D01*
X774663D01*
Y551017D01*
X776329Y549351D01*
X767999Y546018D02*
X761334D01*
X758002Y551017D02*
Y544352D01*
X754670Y541020D01*
X751338Y544352D01*
Y551017D01*
X741341Y541020D02*
X748005D01*
X741341Y547684D01*
Y549351D01*
X743007Y551017D01*
X746339D01*
X748005Y549351D01*
X738009Y541020D02*
Y542686D01*
X736342D01*
Y541020D01*
X738009D01*
X729678Y549351D02*
X728012Y551017D01*
X724680D01*
X723014Y549351D01*
Y542686D01*
X724680Y541020D01*
X728012D01*
X729678Y542686D01*
Y549351D01*
X828487Y531316D02*
X830154Y532983D01*
X833486D01*
X835152Y531316D01*
Y529650D01*
X833486Y527984D01*
X830154D01*
X828487Y526318D01*
Y524652D01*
X830154Y522986D01*
X833486D01*
X835152Y524652D01*
X820157Y522986D02*
X823489D01*
X825155Y524652D01*
Y527984D01*
X823489Y529650D01*
X820157D01*
X818491Y527984D01*
Y526318D01*
X825155D01*
X815158Y529650D02*
Y522986D01*
Y526318D01*
X813492Y527984D01*
X811826Y529650D01*
X810160D01*
X805162Y522986D02*
X801829D01*
X803495D01*
Y529650D01*
X805162D01*
X795165D02*
X791833D01*
X790166Y527984D01*
Y522986D01*
X795165D01*
X796831Y524652D01*
X795165Y526318D01*
X790166D01*
X786834Y522986D02*
X783502D01*
X785168D01*
Y532983D01*
X786834D01*
X776837Y522986D02*
Y532983D01*
X773505D02*
Y522986D01*
X778504Y529650D02*
X773505D01*
X771839D01*
X778504Y526318D02*
X771839D01*
X768507Y529650D02*
X766841D01*
Y527984D01*
X768507D01*
Y529650D01*
Y524652D02*
X766841D01*
Y522986D01*
X768507D01*
Y524652D01*
D80*
X843026Y624677D02*
X836361D01*
X839694D01*
Y614680D01*
X833029D02*
Y624677D01*
X828031D01*
X826365Y623010D01*
Y619678D01*
X828031Y618012D01*
X833029D01*
X816368Y614680D02*
X823032D01*
X816368Y621344D01*
Y623010D01*
X818034Y624677D01*
X821366D01*
X823032Y623010D01*
X813036Y614680D02*
X809703D01*
X811369D01*
Y624677D01*
X813036Y623010D01*
X498602Y302605D02*
X491937D01*
X495270D01*
Y292608D01*
X488605D02*
Y302605D01*
X483607D01*
X481941Y300938D01*
Y297606D01*
X483607Y295940D01*
X488605D01*
X471944Y292608D02*
X478608D01*
X471944Y299272D01*
Y300938D01*
X473610Y302605D01*
X476942D01*
X478608Y300938D01*
X461947Y302605D02*
X468611D01*
Y297606D01*
X465279Y299272D01*
X463613D01*
X461947Y297606D01*
Y294274D01*
X463613Y292608D01*
X466945D01*
X468611Y294274D01*
X426974Y679704D02*
Y689701D01*
X421976D01*
X420309Y688035D01*
Y684702D01*
X421976Y683036D01*
X426974D01*
X416977Y679704D02*
X413645D01*
X415311D01*
Y689701D01*
X416977Y688035D01*
X791718Y1184910D02*
Y1194907D01*
X786720D01*
X785053Y1193241D01*
Y1189908D01*
X786720Y1188242D01*
X791718D01*
X776723Y1184910D02*
Y1194907D01*
X781721Y1189908D01*
X775057D01*
X305054Y304383D02*
X298389D01*
X301722D01*
Y294386D01*
X295057D02*
Y304383D01*
X290059D01*
X288393Y302717D01*
Y299384D01*
X290059Y297718D01*
X295057D01*
X285060Y294386D02*
X281728D01*
X283394D01*
Y304383D01*
X285060Y302717D01*
X271731Y294386D02*
Y304383D01*
X276730Y299384D01*
X270065D01*
X391160Y304129D02*
X384495D01*
X387828D01*
Y294132D01*
X381163D02*
Y304129D01*
X376165D01*
X374499Y302463D01*
Y299130D01*
X376165Y297464D01*
X381163D01*
X371166Y294132D02*
X367834D01*
X369500D01*
Y304129D01*
X371166Y302463D01*
X356171Y304129D02*
X362836D01*
Y299130D01*
X359503Y300796D01*
X357837D01*
X356171Y299130D01*
Y295798D01*
X357837Y294132D01*
X361170D01*
X362836Y295798D01*
X312928Y411063D02*
X306263D01*
X309596D01*
Y401066D01*
X302931D02*
Y411063D01*
X297933D01*
X296267Y409397D01*
Y406064D01*
X297933Y404398D01*
X302931D01*
X292934Y401066D02*
X289602D01*
X291268D01*
Y411063D01*
X292934Y409397D01*
X284604Y402732D02*
X282938Y401066D01*
X279605D01*
X277939Y402732D01*
Y409397D01*
X279605Y411063D01*
X282938D01*
X284604Y409397D01*
Y407730D01*
X282938Y406064D01*
X277939D01*
D119*
X464312Y558120D02*
Y549656D01*
X472776Y558120D01*
X474892D01*
X477008Y556004D01*
Y551772D01*
X474892Y549656D01*
X438912Y554736D02*
Y558968D01*
Y556852D01*
X451608D01*
X449492Y554736D01*
X441028Y691896D02*
X438912Y694012D01*
Y698244D01*
X441028Y700360D01*
X449492D01*
X451608Y698244D01*
Y694012D01*
X449492Y691896D01*
X447376D01*
X445260Y694012D01*
Y700360D01*
X464312Y691896D02*
Y696128D01*
Y694012D01*
X477008D01*
X474892Y691896D01*
Y702476D02*
X477008Y704592D01*
Y708824D01*
X474892Y710940D01*
X466428D01*
X464312Y708824D01*
Y704592D01*
X466428Y702476D01*
X474892D01*
M02*
