G04*
G04 #@! TF.GenerationSoftware,Altium Limited,CircuitStudio,1.5.1 (13)*
G04*
G04 Layer_Physical_Order=2*
G04 Layer_Color=16763955*
%FSLAX44Y44*%
%MOMM*%
G71*
G01*
G75*
%ADD46C,2.0320*%
%ADD57C,1.0160*%
%ADD58C,3.4572*%
%ADD59C,2.2159*%
%ADD60C,2.1161*%
%ADD61C,1.9160*%
%ADD62C,1.9050*%
%ADD63C,3.3782*%
%ADD64O,2.0160X3.2160*%
%ADD65C,2.0160*%
%ADD66C,1.7272*%
%ADD67C,1.3208*%
D46*
X791464Y445516D02*
D03*
X400558Y1086104D02*
D03*
X381000Y1122934D02*
D03*
X493776Y1046480D02*
D03*
X375666Y424180D02*
D03*
X659892Y385318D02*
D03*
X795528Y600456D02*
D03*
X660908Y1292860D02*
D03*
X426466Y1238250D02*
D03*
X401320D02*
D03*
X818896Y1250696D02*
D03*
X660908Y1267460D02*
D03*
X818896Y1214374D02*
D03*
Y1287018D02*
D03*
X791464Y414782D02*
D03*
X822452Y600456D02*
D03*
X477012Y279400D02*
D03*
X297688Y424180D02*
D03*
X375158Y279400D02*
D03*
X289814D02*
D03*
X559562Y452374D02*
D03*
X347472Y1281430D02*
D03*
X275082Y1060196D02*
D03*
X612394Y310642D02*
D03*
X818896Y1177544D02*
D03*
Y1143254D02*
D03*
X804672Y1093216D02*
D03*
Y1041908D02*
D03*
X704596Y288798D02*
D03*
D57*
X254000Y254000D02*
Y1319000D01*
X849000D01*
Y254000D02*
Y1319000D01*
X254000Y254000D02*
X849000D01*
D58*
X598002Y857485D02*
D03*
X505000D02*
D03*
X598002Y697800D02*
D03*
X505000D02*
D03*
D59*
X576501Y782483D02*
D03*
X551502D02*
D03*
X576501Y622799D02*
D03*
X551502D02*
D03*
D60*
X322580Y271295D02*
D03*
Y301295D02*
D03*
Y386296D02*
D03*
X525780Y271295D02*
D03*
Y301295D02*
D03*
Y386296D02*
D03*
X424180Y271295D02*
D03*
Y301295D02*
D03*
Y386296D02*
D03*
X780420Y271295D02*
D03*
Y301295D02*
D03*
D61*
X728980Y1167384D02*
D03*
X754380D02*
D03*
X607060Y1289050D02*
D03*
X581660D02*
D03*
X556260D02*
D03*
X530860D02*
D03*
X505460D02*
D03*
X480060D02*
D03*
X454660D02*
D03*
X443992Y575056D02*
D03*
X469392D02*
D03*
X443992Y676656D02*
D03*
X469392D02*
D03*
D62*
X428244Y1162050D02*
D03*
X438404Y1212850D02*
D03*
X418084D02*
D03*
X551502Y986282D02*
D03*
Y935482D02*
D03*
D63*
X402844Y1162050D02*
D03*
X453644D02*
D03*
Y1193800D02*
D03*
X402844D02*
D03*
D64*
X287000Y844000D02*
D03*
X401000D02*
D03*
X702000D02*
D03*
X816000D02*
D03*
X790601Y683260D02*
D03*
X385420D02*
D03*
D65*
X319000Y774000D02*
D03*
Y919000D02*
D03*
X369000D02*
D03*
X734000Y774000D02*
D03*
Y919000D02*
D03*
X784000D02*
D03*
D66*
X277622Y455168D02*
D03*
X286512Y1133218D02*
D03*
X321056Y1246378D02*
D03*
X777104Y587248D02*
D03*
X709168Y443738D02*
D03*
X283210Y551688D02*
D03*
X282702Y572262D02*
D03*
X271272Y499872D02*
D03*
X432562Y778002D02*
D03*
Y953008D02*
D03*
X518414Y469646D02*
D03*
X536194Y452120D02*
D03*
X518414D02*
D03*
X536194Y469646D02*
D03*
X377444Y512572D02*
D03*
Y580390D02*
D03*
X414784Y701800D02*
D03*
D67*
X419354Y1155446D02*
D03*
X290576Y1038352D02*
D03*
Y1083818D02*
D03*
X369824Y1107440D02*
D03*
X367792Y994410D02*
D03*
X432562D02*
D03*
X378460Y1065276D02*
D03*
X369824Y1053338D02*
D03*
X628396Y981964D02*
D03*
X619760Y1140968D02*
D03*
X623198Y1230512D02*
D03*
X744916Y975802D02*
D03*
X766963Y975751D02*
D03*
X705612Y371602D02*
D03*
X495418Y1094350D02*
D03*
X694182Y1215136D02*
D03*
X479416Y1240672D02*
D03*
X433460Y1279516D02*
D03*
X294640Y1271778D02*
D03*
X354417Y977813D02*
D03*
X331963Y977377D02*
D03*
X752094Y482337D02*
D03*
X703072D02*
D03*
X697230Y1135888D02*
D03*
Y1180592D02*
D03*
X673862Y1158240D02*
D03*
X743458Y445516D02*
D03*
X840232Y283718D02*
D03*
Y514096D02*
D03*
X743458Y492096D02*
D03*
X703072Y813308D02*
D03*
X388112Y813054D02*
D03*
X323723Y1107440D02*
D03*
X335332Y1006348D02*
D03*
X417391Y1006416D02*
D03*
Y889323D02*
D03*
X551502D02*
D03*
X679196Y600456D02*
D03*
Y765810D02*
D03*
X664718D02*
D03*
Y1055506D02*
D03*
X643382Y938022D02*
D03*
Y375412D02*
D03*
X611886Y938022D02*
D03*
Y1036828D02*
D03*
X619760Y637286D02*
D03*
X696468D02*
D03*
Y432054D02*
D03*
X595630Y1037082D02*
D03*
X672084Y1042670D02*
D03*
X678532Y492096D02*
D03*
X493776Y1020318D02*
D03*
X681972Y1014222D02*
D03*
Y943338D02*
D03*
X518160Y1014222D02*
D03*
X629666Y630174D02*
D03*
Y956564D02*
D03*
X719888Y630174D02*
D03*
X734000Y889254D02*
D03*
X571246D02*
D03*
X726440Y622799D02*
D03*
X772532Y401574D02*
D03*
X601218Y409702D02*
D03*
Y371602D02*
D03*
X582070Y278892D02*
D03*
Y362556D02*
D03*
X606552Y438912D02*
D03*
Y422656D02*
D03*
X403352D02*
D03*
Y402082D02*
D03*
X624722Y327778D02*
D03*
Y445516D02*
D03*
X459740Y299212D02*
D03*
Y410210D02*
D03*
X344424Y371602D02*
D03*
X474472Y1129538D02*
D03*
X465582Y1134872D02*
D03*
X463550Y1110742D02*
D03*
X528066Y970026D02*
D03*
X557530Y998982D02*
D03*
X547370Y1086866D02*
D03*
X557530D02*
D03*
X560578Y530352D02*
D03*
X665532Y757376D02*
D03*
Y491946D02*
D03*
X740000Y509426D02*
D03*
Y546198D02*
D03*
X476370Y1230884D02*
D03*
X469392Y1168534D02*
D03*
X476370Y1153534D02*
D03*
X686934Y1060704D02*
D03*
X443992Y1178052D02*
D03*
X705866Y1173534D02*
D03*
X712072Y1194164D02*
D03*
X728980Y1245616D02*
D03*
X719074Y1264666D02*
D03*
X712072Y1271414D02*
D03*
X794114Y1286654D02*
D03*
X546227Y1262253D02*
D03*
X568706Y1270000D02*
D03*
X587274Y1143534D02*
D03*
X405638Y1058926D02*
D03*
Y1013714D02*
D03*
X314452D02*
D03*
Y977138D02*
D03*
X399288Y1066800D02*
D03*
X376870Y975802D02*
D03*
Y1020252D02*
D03*
X399354D02*
D03*
X464820Y1072896D02*
D03*
Y790194D02*
D03*
X587274Y1020318D02*
D03*
X572702Y1188534D02*
D03*
X573532Y1178814D02*
D03*
X572262Y1171194D02*
D03*
X571246Y1162050D02*
D03*
X792988Y1128522D02*
D03*
X719888Y335736D02*
D03*
X726596Y322736D02*
D03*
X780406Y1090304D02*
D03*
X780542Y1144270D02*
D03*
X585216Y1187958D02*
D03*
X592836Y1266190D02*
D03*
X619506Y1150620D02*
D03*
X620014Y1158240D02*
D03*
X621030Y1180592D02*
D03*
X673862Y1144270D02*
D03*
X776224Y1049782D02*
D03*
X471678Y729234D02*
D03*
X789686D02*
D03*
X385420Y798424D02*
D03*
X477774D02*
D03*
X752117Y271295D02*
D03*
X335280Y1220418D02*
D03*
X323723Y1195324D02*
D03*
X342646Y1231900D02*
D03*
X330200Y1236472D02*
D03*
X665226Y1248664D02*
D03*
X687070Y1108710D02*
D03*
X636406Y1115060D02*
D03*
X747150Y1041772D02*
D03*
X772532Y479806D02*
D03*
X792988Y1150620D02*
D03*
X511048Y1006856D02*
D03*
X451630Y1078756D02*
D03*
X535178Y1041146D02*
D03*
X539877Y1199769D02*
D03*
X528854Y1195832D02*
D03*
X512191Y1199769D02*
D03*
X520700Y1199388D02*
D03*
X617728Y1082294D02*
D03*
Y1102614D02*
D03*
X505460Y1157986D02*
D03*
X404622Y1213866D02*
D03*
X484632Y1222502D02*
D03*
M02*
