G04*
G04 #@! TF.GenerationSoftware,Altium Limited,CircuitStudio,1.5.1 (13)*
G04*
G04 Layer_Color=2752767*
%FSLAX44Y44*%
%MOMM*%
G71*
G01*
G75*
%ADD34C,0.2540*%
%ADD76C,0.1270*%
%ADD121C,0.1693*%
%ADD122C,0.1016*%
D34*
X254000Y254000D02*
Y1319000D01*
X254254Y254000D02*
X254762D01*
X254000D02*
X849000D01*
Y1319000D01*
X254000D02*
X849000D01*
D76*
X592922Y852405D02*
Y862565D01*
X603082D01*
Y852405D01*
X592922D01*
X499920D02*
Y862565D01*
X510080D01*
Y852405D01*
X499920D01*
X592922Y692720D02*
Y702880D01*
X603082D01*
Y692720D01*
X592922D01*
X499920D02*
Y702880D01*
X510080D01*
Y692720D01*
X499920D01*
X322580Y266215D02*
X317500Y276375D01*
X327660D01*
X322580Y266215D01*
Y296215D02*
X317500Y306375D01*
X327660D01*
X322580Y296215D01*
Y381216D02*
X317500Y391376D01*
X327660D01*
X322580Y381216D01*
X525780Y266215D02*
X520700Y276375D01*
X530860D01*
X525780Y266215D01*
Y296215D02*
X520700Y306375D01*
X530860D01*
X525780Y296215D01*
Y381216D02*
X520700Y391376D01*
X530860D01*
X525780Y381216D01*
X424180Y266215D02*
X419100Y276375D01*
X429260D01*
X424180Y266215D01*
Y296215D02*
X419100Y306375D01*
X429260D01*
X424180Y296215D01*
Y381216D02*
X419100Y391376D01*
X429260D01*
X424180Y381216D01*
X728980Y1162304D02*
X731520Y1164844D01*
X734060D01*
X731520Y1167384D01*
X734060Y1169924D01*
X731520D01*
X728980Y1172464D01*
X726440Y1169924D01*
X723900D01*
X726440Y1167384D01*
X723900Y1164844D01*
X726440D01*
X728980Y1162304D01*
X754380D02*
X756920Y1164844D01*
X759460D01*
X756920Y1167384D01*
X759460Y1169924D01*
X756920D01*
X754380Y1172464D01*
X751840Y1169924D01*
X749300D01*
X751840Y1167384D01*
X749300Y1164844D01*
X751840D01*
X754380Y1162304D01*
X779780D02*
X782320Y1164844D01*
X784860D01*
X782320Y1167384D01*
X784860Y1169924D01*
X782320D01*
X779780Y1172464D01*
X777240Y1169924D01*
X774700D01*
X777240Y1167384D01*
X774700Y1164844D01*
X777240D01*
X779780Y1162304D01*
X786384Y440436D02*
X788924Y445516D01*
X786384Y450596D01*
X791464Y448056D01*
X796544Y450596D01*
X794004Y445516D01*
X796544Y440436D01*
X791464Y442976D01*
X786384Y440436D01*
X395478Y1081024D02*
X398018Y1086104D01*
X395478Y1091184D01*
X400558Y1088644D01*
X405638Y1091184D01*
X403098Y1086104D01*
X405638Y1081024D01*
X400558Y1083564D01*
X395478Y1081024D01*
X375920Y1117854D02*
X378460Y1122934D01*
X375920Y1128014D01*
X381000Y1125474D01*
X386080Y1128014D01*
X383540Y1122934D01*
X386080Y1117854D01*
X381000Y1120394D01*
X375920Y1117854D01*
X488696Y1041400D02*
X491236Y1046480D01*
X488696Y1051560D01*
X493776Y1049020D01*
X498856Y1051560D01*
X496316Y1046480D01*
X498856Y1041400D01*
X493776Y1043940D01*
X488696Y1041400D01*
X370586Y419100D02*
X373126Y424180D01*
X370586Y429260D01*
X375666Y426720D01*
X380746Y429260D01*
X378206Y424180D01*
X380746Y419100D01*
X375666Y421640D01*
X370586Y419100D01*
X654812Y380238D02*
X657352Y385318D01*
X654812Y390398D01*
X659892Y387858D01*
X664972Y390398D01*
X662432Y385318D01*
X664972Y380238D01*
X659892Y382778D01*
X654812Y380238D01*
X790448Y595376D02*
X792988Y600456D01*
X790448Y605536D01*
X795528Y602996D01*
X800608Y605536D01*
X798068Y600456D01*
X800608Y595376D01*
X795528Y597916D01*
X790448Y595376D01*
X655828Y1287780D02*
X658368Y1292860D01*
X655828Y1297940D01*
X660908Y1295400D01*
X665988Y1297940D01*
X663448Y1292860D01*
X665988Y1287780D01*
X660908Y1290320D01*
X655828Y1287780D01*
X421386Y1233170D02*
X423926Y1238250D01*
X421386Y1243330D01*
X426466Y1240790D01*
X431546Y1243330D01*
X429006Y1238250D01*
X431546Y1233170D01*
X426466Y1235710D01*
X421386Y1233170D01*
X396240D02*
X398780Y1238250D01*
X396240Y1243330D01*
X401320Y1240790D01*
X406400Y1243330D01*
X403860Y1238250D01*
X406400Y1233170D01*
X401320Y1235710D01*
X396240Y1233170D01*
X813816Y1245616D02*
X816356Y1250696D01*
X813816Y1255776D01*
X818896Y1253236D01*
X823976Y1255776D01*
X821436Y1250696D01*
X823976Y1245616D01*
X818896Y1248156D01*
X813816Y1245616D01*
X655828Y1262380D02*
X658368Y1267460D01*
X655828Y1272540D01*
X660908Y1270000D01*
X665988Y1272540D01*
X663448Y1267460D01*
X665988Y1262380D01*
X660908Y1264920D01*
X655828Y1262380D01*
X813816Y1209294D02*
X816356Y1214374D01*
X813816Y1219454D01*
X818896Y1216914D01*
X823976Y1219454D01*
X821436Y1214374D01*
X823976Y1209294D01*
X818896Y1211834D01*
X813816Y1209294D01*
Y1281938D02*
X816356Y1287018D01*
X813816Y1292098D01*
X818896Y1289558D01*
X823976Y1292098D01*
X821436Y1287018D01*
X823976Y1281938D01*
X818896Y1284478D01*
X813816Y1281938D01*
X425704Y1159510D02*
Y1156970D01*
X430784D01*
Y1159510D01*
X433324D01*
Y1164590D01*
X430784D01*
Y1167130D01*
X425704D01*
Y1164590D01*
X423164D01*
Y1159510D01*
X425704D01*
X435864Y1210310D02*
Y1207770D01*
X440944D01*
Y1210310D01*
X443484D01*
Y1215390D01*
X440944D01*
Y1217930D01*
X435864D01*
Y1215390D01*
X433324D01*
Y1210310D01*
X435864D01*
X415544D02*
Y1207770D01*
X420624D01*
Y1210310D01*
X423164D01*
Y1215390D01*
X420624D01*
Y1217930D01*
X415544D01*
Y1215390D01*
X413004D01*
Y1210310D01*
X415544D01*
X397764Y1156970D02*
X400304D01*
X402844Y1159510D01*
X405384Y1156970D01*
X407924D01*
Y1159510D01*
X405384Y1162050D01*
X407924Y1164590D01*
Y1167130D01*
X405384D01*
X402844Y1164590D01*
X400304Y1167130D01*
X397764D01*
Y1164590D01*
X400304Y1162050D01*
X397764Y1159510D01*
Y1156970D01*
X448564D02*
X451104D01*
X453644Y1159510D01*
X456184Y1156970D01*
X458724D01*
Y1159510D01*
X456184Y1162050D01*
X458724Y1164590D01*
Y1167130D01*
X456184D01*
X453644Y1164590D01*
X451104Y1167130D01*
X448564D01*
Y1164590D01*
X451104Y1162050D01*
X448564Y1159510D01*
Y1156970D01*
Y1188720D02*
X451104D01*
X453644Y1191260D01*
X456184Y1188720D01*
X458724D01*
Y1191260D01*
X456184Y1193800D01*
X458724Y1196340D01*
Y1198880D01*
X456184D01*
X453644Y1196340D01*
X451104Y1198880D01*
X448564D01*
Y1196340D01*
X451104Y1193800D01*
X448564Y1191260D01*
Y1188720D01*
X397764D02*
X400304D01*
X402844Y1191260D01*
X405384Y1188720D01*
X407924D01*
Y1191260D01*
X405384Y1193800D01*
X407924Y1196340D01*
Y1198880D01*
X405384D01*
X402844Y1196340D01*
X400304Y1198880D01*
X397764D01*
Y1196340D01*
X400304Y1193800D01*
X397764Y1191260D01*
Y1188720D01*
X786384Y409702D02*
X788924Y414782D01*
X786384Y419862D01*
X791464Y417322D01*
X796544Y419862D01*
X794004Y414782D01*
X796544Y409702D01*
X791464Y412242D01*
X786384Y409702D01*
X817372Y595376D02*
X819912Y600456D01*
X817372Y605536D01*
X822452Y602996D01*
X827532Y605536D01*
X824992Y600456D01*
X827532Y595376D01*
X822452Y597916D01*
X817372Y595376D01*
X471932Y274320D02*
X474472Y279400D01*
X471932Y284480D01*
X477012Y281940D01*
X482092Y284480D01*
X479552Y279400D01*
X482092Y274320D01*
X477012Y276860D01*
X471932Y274320D01*
X281920Y844000D02*
X287000Y849080D01*
X292080Y844000D01*
X287000Y838920D01*
X281920Y844000D01*
X395920D02*
X401000Y849080D01*
X406080Y844000D01*
X401000Y838920D01*
X395920Y844000D01*
X313920Y768920D02*
Y779080D01*
X324080D01*
Y768920D01*
X313920D01*
X315952Y770952D02*
Y777048D01*
X322048D01*
Y770952D01*
X315952D01*
X363920Y768920D02*
Y779080D01*
X374080D01*
Y768920D01*
X363920D01*
X365952Y770952D02*
Y777048D01*
X372048D01*
Y770952D01*
X365952D01*
X313920Y913920D02*
Y924080D01*
X324080D01*
Y913920D01*
X313920D01*
X315952Y915952D02*
Y922048D01*
X322048D01*
Y915952D01*
X315952D01*
X338920Y913920D02*
Y924080D01*
X349080D01*
Y913920D01*
X338920D01*
X340952Y915952D02*
Y922048D01*
X347048D01*
Y915952D01*
X340952D01*
X363920Y913920D02*
Y924080D01*
X374080D01*
Y913920D01*
X363920D01*
X365952Y915952D02*
Y922048D01*
X372048D01*
Y915952D01*
X365952D01*
X292608Y419100D02*
X295148Y424180D01*
X292608Y429260D01*
X297688Y426720D01*
X302768Y429260D01*
X300228Y424180D01*
X302768Y419100D01*
X297688Y421640D01*
X292608Y419100D01*
X370078Y274320D02*
X372618Y279400D01*
X370078Y284480D01*
X375158Y281940D01*
X380238Y284480D01*
X377698Y279400D01*
X380238Y274320D01*
X375158Y276860D01*
X370078Y274320D01*
X284734D02*
X287274Y279400D01*
X284734Y284480D01*
X289814Y281940D01*
X294894Y284480D01*
X292354Y279400D01*
X294894Y274320D01*
X289814Y276860D01*
X284734Y274320D01*
X554482Y447294D02*
X557022Y452374D01*
X554482Y457454D01*
X559562Y454914D01*
X564642Y457454D01*
X562102Y452374D01*
X564642Y447294D01*
X559562Y449834D01*
X554482Y447294D01*
X696920Y844000D02*
X702000Y849080D01*
X707080Y844000D01*
X702000Y838920D01*
X696920Y844000D01*
X810920D02*
X816000Y849080D01*
X821080Y844000D01*
X816000Y838920D01*
X810920Y844000D01*
X728920Y768920D02*
Y779080D01*
X739080D01*
Y768920D01*
X728920D01*
X730952Y770952D02*
Y777048D01*
X737048D01*
Y770952D01*
X730952D01*
X778920Y768920D02*
Y779080D01*
X789080D01*
Y768920D01*
X778920D01*
X780952Y770952D02*
Y777048D01*
X787048D01*
Y770952D01*
X780952D01*
X728920Y913920D02*
Y924080D01*
X739080D01*
Y913920D01*
X728920D01*
X730952Y915952D02*
Y922048D01*
X737048D01*
Y915952D01*
X730952D01*
X753920Y913920D02*
Y924080D01*
X764080D01*
Y913920D01*
X753920D01*
X755952Y915952D02*
Y922048D01*
X762048D01*
Y915952D01*
X755952D01*
X778920Y913920D02*
Y924080D01*
X789080D01*
Y913920D01*
X778920D01*
X780952Y915952D02*
Y922048D01*
X787048D01*
Y915952D01*
X780952D01*
X632460Y1283970D02*
X635000Y1286510D01*
X637540D01*
X635000Y1289050D01*
X637540Y1291590D01*
X635000D01*
X632460Y1294130D01*
X629920Y1291590D01*
X627380D01*
X629920Y1289050D01*
X627380Y1286510D01*
X629920D01*
X632460Y1283970D01*
X607060D02*
X609600Y1286510D01*
X612140D01*
X609600Y1289050D01*
X612140Y1291590D01*
X609600D01*
X607060Y1294130D01*
X604520Y1291590D01*
X601980D01*
X604520Y1289050D01*
X601980Y1286510D01*
X604520D01*
X607060Y1283970D01*
X581660D02*
X584200Y1286510D01*
X586740D01*
X584200Y1289050D01*
X586740Y1291590D01*
X584200D01*
X581660Y1294130D01*
X579120Y1291590D01*
X576580D01*
X579120Y1289050D01*
X576580Y1286510D01*
X579120D01*
X581660Y1283970D01*
X556260D02*
X558800Y1286510D01*
X561340D01*
X558800Y1289050D01*
X561340Y1291590D01*
X558800D01*
X556260Y1294130D01*
X553720Y1291590D01*
X551180D01*
X553720Y1289050D01*
X551180Y1286510D01*
X553720D01*
X556260Y1283970D01*
X530860D02*
X533400Y1286510D01*
X535940D01*
X533400Y1289050D01*
X535940Y1291590D01*
X533400D01*
X530860Y1294130D01*
X528320Y1291590D01*
X525780D01*
X528320Y1289050D01*
X525780Y1286510D01*
X528320D01*
X530860Y1283970D01*
X505460D02*
X508000Y1286510D01*
X510540D01*
X508000Y1289050D01*
X510540Y1291590D01*
X508000D01*
X505460Y1294130D01*
X502920Y1291590D01*
X500380D01*
X502920Y1289050D01*
X500380Y1286510D01*
X502920D01*
X505460Y1283970D01*
X480060D02*
X482600Y1286510D01*
X485140D01*
X482600Y1289050D01*
X485140Y1291590D01*
X482600D01*
X480060Y1294130D01*
X477520Y1291590D01*
X474980D01*
X477520Y1289050D01*
X474980Y1286510D01*
X477520D01*
X480060Y1283970D01*
X454660D02*
X457200Y1286510D01*
X459740D01*
X457200Y1289050D01*
X459740Y1291590D01*
X457200D01*
X454660Y1294130D01*
X452120Y1291590D01*
X449580D01*
X452120Y1289050D01*
X449580Y1286510D01*
X452120D01*
X454660Y1283970D01*
X443992Y569976D02*
X446532Y572516D01*
X449072D01*
X446532Y575056D01*
X449072Y577596D01*
X446532D01*
X443992Y580136D01*
X441452Y577596D01*
X438912D01*
X441452Y575056D01*
X438912Y572516D01*
X441452D01*
X443992Y569976D01*
X469392D02*
X471932Y572516D01*
X474472D01*
X471932Y575056D01*
X474472Y577596D01*
X471932D01*
X469392Y580136D01*
X466852Y577596D01*
X464312D01*
X466852Y575056D01*
X464312Y572516D01*
X466852D01*
X469392Y569976D01*
X443992Y595376D02*
X446532Y597916D01*
X449072D01*
X446532Y600456D01*
X449072Y602996D01*
X446532D01*
X443992Y605536D01*
X441452Y602996D01*
X438912D01*
X441452Y600456D01*
X438912Y597916D01*
X441452D01*
X443992Y595376D01*
X469392D02*
X471932Y597916D01*
X474472D01*
X471932Y600456D01*
X474472Y602996D01*
X471932D01*
X469392Y605536D01*
X466852Y602996D01*
X464312D01*
X466852Y600456D01*
X464312Y597916D01*
X466852D01*
X469392Y595376D01*
X443992Y620776D02*
X446532Y623316D01*
X449072D01*
X446532Y625856D01*
X449072Y628396D01*
X446532D01*
X443992Y630936D01*
X441452Y628396D01*
X438912D01*
X441452Y625856D01*
X438912Y623316D01*
X441452D01*
X443992Y620776D01*
X469392D02*
X471932Y623316D01*
X474472D01*
X471932Y625856D01*
X474472Y628396D01*
X471932D01*
X469392Y630936D01*
X466852Y628396D01*
X464312D01*
X466852Y625856D01*
X464312Y623316D01*
X466852D01*
X469392Y620776D01*
X443992Y646176D02*
X446532Y648716D01*
X449072D01*
X446532Y651256D01*
X449072Y653796D01*
X446532D01*
X443992Y656336D01*
X441452Y653796D01*
X438912D01*
X441452Y651256D01*
X438912Y648716D01*
X441452D01*
X443992Y646176D01*
X469392D02*
X471932Y648716D01*
X474472D01*
X471932Y651256D01*
X474472Y653796D01*
X471932D01*
X469392Y656336D01*
X466852Y653796D01*
X464312D01*
X466852Y651256D01*
X464312Y648716D01*
X466852D01*
X469392Y646176D01*
X443992Y671576D02*
X446532Y674116D01*
X449072D01*
X446532Y676656D01*
X449072Y679196D01*
X446532D01*
X443992Y681736D01*
X441452Y679196D01*
X438912D01*
X441452Y676656D01*
X438912Y674116D01*
X441452D01*
X443992Y671576D01*
X469392D02*
X471932Y674116D01*
X474472D01*
X471932Y676656D01*
X474472Y679196D01*
X471932D01*
X469392Y681736D01*
X466852Y679196D01*
X464312D01*
X466852Y676656D01*
X464312Y674116D01*
X466852D01*
X469392Y671576D01*
X712521Y683260D02*
X717601Y688340D01*
X722681Y683260D01*
X717601Y678180D01*
X712521Y683260D01*
X785521D02*
X790601Y688340D01*
X795681Y683260D01*
X790601Y678180D01*
X785521Y683260D01*
X307340D02*
X312420Y688340D01*
X317500Y683260D01*
X312420Y678180D01*
X307340Y683260D01*
X380340D02*
X385420Y688340D01*
X390500Y683260D01*
X385420Y678180D01*
X380340Y683260D01*
X342392Y1276350D02*
X344932Y1281430D01*
X342392Y1286510D01*
X347472Y1283970D01*
X352552Y1286510D01*
X350012Y1281430D01*
X352552Y1276350D01*
X347472Y1278890D01*
X342392Y1276350D01*
X270002Y1055116D02*
X272542Y1060196D01*
X270002Y1065276D01*
X275082Y1062736D01*
X280162Y1065276D01*
X277622Y1060196D01*
X280162Y1055116D01*
X275082Y1057656D01*
X270002Y1055116D01*
X374650Y1276350D02*
X377190Y1281430D01*
X374650Y1286510D01*
X379730Y1283970D01*
X384810Y1286510D01*
X382270Y1281430D01*
X384810Y1276350D01*
X379730Y1278890D01*
X374650Y1276350D01*
X780420Y266215D02*
X775340Y276375D01*
X785500D01*
X780420Y266215D01*
Y296215D02*
X775340Y306375D01*
X785500D01*
X780420Y296215D01*
Y381216D02*
X775340Y391376D01*
X785500D01*
X780420Y381216D01*
X607314Y305562D02*
X609854Y310642D01*
X607314Y315722D01*
X612394Y313182D01*
X617474Y315722D01*
X614934Y310642D01*
X617474Y305562D01*
X612394Y308102D01*
X607314Y305562D01*
X813816Y1172464D02*
X816356Y1177544D01*
X813816Y1182624D01*
X818896Y1180084D01*
X823976Y1182624D01*
X821436Y1177544D01*
X823976Y1172464D01*
X818896Y1175004D01*
X813816Y1172464D01*
Y1138174D02*
X816356Y1143254D01*
X813816Y1148334D01*
X818896Y1145794D01*
X823976Y1148334D01*
X821436Y1143254D01*
X823976Y1138174D01*
X818896Y1140714D01*
X813816Y1138174D01*
X799592Y1088136D02*
X802132Y1093216D01*
X799592Y1098296D01*
X804672Y1095756D01*
X809752Y1098296D01*
X807212Y1093216D01*
X809752Y1088136D01*
X804672Y1090676D01*
X799592Y1088136D01*
Y1036828D02*
X802132Y1041908D01*
X799592Y1046988D01*
X804672Y1044448D01*
X809752Y1046988D01*
X807212Y1041908D01*
X809752Y1036828D01*
X804672Y1039368D01*
X799592Y1036828D01*
X699516Y283718D02*
X702056Y288798D01*
X699516Y293878D01*
X704596Y291338D01*
X709676Y293878D01*
X707136Y288798D01*
X709676Y283718D01*
X704596Y286258D01*
X699516Y283718D01*
X277622Y450088D02*
X272542Y460248D01*
X282702D01*
X277622Y450088D01*
Y452120D02*
X274574Y458216D01*
X280670D01*
X277622Y452120D01*
X428752Y1203706D02*
X431292Y1206246D01*
X433832D01*
X431292Y1208786D01*
X433832Y1211326D01*
X431292D01*
X428752Y1213866D01*
X426212Y1211326D01*
X423672D01*
X426212Y1208786D01*
X423672Y1206246D01*
X426212D01*
X428752Y1203706D01*
Y1205738D02*
X430276Y1207262D01*
X431800D01*
X430276Y1208786D01*
X431800Y1210310D01*
X430276D01*
X428752Y1211834D01*
X427228Y1210310D01*
X425704D01*
X427228Y1208786D01*
X425704Y1207262D01*
X427228D01*
X428752Y1205738D01*
X419354Y1150366D02*
X421894Y1152906D01*
X424434D01*
X421894Y1155446D01*
X424434Y1157986D01*
X421894D01*
X419354Y1160526D01*
X416814Y1157986D01*
X414274D01*
X416814Y1155446D01*
X414274Y1152906D01*
X416814D01*
X419354Y1150366D01*
Y1152398D02*
X420878Y1153922D01*
X422402D01*
X420878Y1155446D01*
X422402Y1156970D01*
X420878D01*
X419354Y1158494D01*
X417830Y1156970D01*
X416306D01*
X417830Y1155446D01*
X416306Y1153922D01*
X417830D01*
X419354Y1152398D01*
X290576Y1033272D02*
X293116Y1035812D01*
X295656D01*
X293116Y1038352D01*
X295656Y1040892D01*
X293116D01*
X290576Y1043432D01*
X288036Y1040892D01*
X285496D01*
X288036Y1038352D01*
X285496Y1035812D01*
X288036D01*
X290576Y1033272D01*
Y1035304D02*
X292100Y1036828D01*
X293624D01*
X292100Y1038352D01*
X293624Y1039876D01*
X292100D01*
X290576Y1041400D01*
X289052Y1039876D01*
X287528D01*
X289052Y1038352D01*
X287528Y1036828D01*
X289052D01*
X290576Y1035304D01*
Y1078738D02*
X293116Y1081278D01*
X295656D01*
X293116Y1083818D01*
X295656Y1086358D01*
X293116D01*
X290576Y1088898D01*
X288036Y1086358D01*
X285496D01*
X288036Y1083818D01*
X285496Y1081278D01*
X288036D01*
X290576Y1078738D01*
Y1080770D02*
X292100Y1082294D01*
X293624D01*
X292100Y1083818D01*
X293624Y1085342D01*
X292100D01*
X290576Y1086866D01*
X289052Y1085342D01*
X287528D01*
X289052Y1083818D01*
X287528Y1082294D01*
X289052D01*
X290576Y1080770D01*
X286512Y1128138D02*
X281432Y1138298D01*
X291592D01*
X286512Y1128138D01*
Y1130170D02*
X283464Y1136266D01*
X289560D01*
X286512Y1130170D01*
X360296Y1128138D02*
X355216Y1138298D01*
X365376D01*
X360296Y1128138D01*
Y1130170D02*
X357248Y1136266D01*
X363344D01*
X360296Y1130170D01*
X369824Y1102360D02*
X372364Y1104900D01*
X374904D01*
X372364Y1107440D01*
X374904Y1109980D01*
X372364D01*
X369824Y1112520D01*
X367284Y1109980D01*
X364744D01*
X367284Y1107440D01*
X364744Y1104900D01*
X367284D01*
X369824Y1102360D01*
Y1104392D02*
X371348Y1105916D01*
X372872D01*
X371348Y1107440D01*
X372872Y1108964D01*
X371348D01*
X369824Y1110488D01*
X368300Y1108964D01*
X366776D01*
X368300Y1107440D01*
X366776Y1105916D01*
X368300D01*
X369824Y1104392D01*
X367792Y989330D02*
X370332Y991870D01*
X372872D01*
X370332Y994410D01*
X372872Y996950D01*
X370332D01*
X367792Y999490D01*
X365252Y996950D01*
X362712D01*
X365252Y994410D01*
X362712Y991870D01*
X365252D01*
X367792Y989330D01*
Y991362D02*
X369316Y992886D01*
X370840D01*
X369316Y994410D01*
X370840Y995934D01*
X369316D01*
X367792Y997458D01*
X366268Y995934D01*
X364744D01*
X366268Y994410D01*
X364744Y992886D01*
X366268D01*
X367792Y991362D01*
X432562Y989330D02*
X435102Y991870D01*
X437642D01*
X435102Y994410D01*
X437642Y996950D01*
X435102D01*
X432562Y999490D01*
X430022Y996950D01*
X427482D01*
X430022Y994410D01*
X427482Y991870D01*
X430022D01*
X432562Y989330D01*
Y991362D02*
X434086Y992886D01*
X435610D01*
X434086Y994410D01*
X435610Y995934D01*
X434086D01*
X432562Y997458D01*
X431038Y995934D01*
X429514D01*
X431038Y994410D01*
X429514Y992886D01*
X431038D01*
X432562Y991362D01*
X378460Y1060196D02*
X381000Y1062736D01*
X383540D01*
X381000Y1065276D01*
X383540Y1067816D01*
X381000D01*
X378460Y1070356D01*
X375920Y1067816D01*
X373380D01*
X375920Y1065276D01*
X373380Y1062736D01*
X375920D01*
X378460Y1060196D01*
Y1062228D02*
X379984Y1063752D01*
X381508D01*
X379984Y1065276D01*
X381508Y1066800D01*
X379984D01*
X378460Y1068324D01*
X376936Y1066800D01*
X375412D01*
X376936Y1065276D01*
X375412Y1063752D01*
X376936D01*
X378460Y1062228D01*
X369824Y1048258D02*
X372364Y1050798D01*
X374904D01*
X372364Y1053338D01*
X374904Y1055878D01*
X372364D01*
X369824Y1058418D01*
X367284Y1055878D01*
X364744D01*
X367284Y1053338D01*
X364744Y1050798D01*
X367284D01*
X369824Y1048258D01*
Y1050290D02*
X371348Y1051814D01*
X372872D01*
X371348Y1053338D01*
X372872Y1054862D01*
X371348D01*
X369824Y1056386D01*
X368300Y1054862D01*
X366776D01*
X368300Y1053338D01*
X366776Y1051814D01*
X368300D01*
X369824Y1050290D01*
X369942Y1038488D02*
X372482Y1041028D01*
X375022D01*
X372482Y1043568D01*
X375022Y1046108D01*
X372482D01*
X369942Y1048648D01*
X367402Y1046108D01*
X364862D01*
X367402Y1043568D01*
X364862Y1041028D01*
X367402D01*
X369942Y1038488D01*
Y1040520D02*
X371466Y1042044D01*
X372990D01*
X371466Y1043568D01*
X372990Y1045092D01*
X371466D01*
X369942Y1046616D01*
X368418Y1045092D01*
X366894D01*
X368418Y1043568D01*
X366894Y1042044D01*
X368418D01*
X369942Y1040520D01*
X378578Y1084444D02*
X381118Y1086984D01*
X383658D01*
X381118Y1089524D01*
X383658Y1092064D01*
X381118D01*
X378578Y1094604D01*
X376038Y1092064D01*
X373498D01*
X376038Y1089524D01*
X373498Y1086984D01*
X376038D01*
X378578Y1084444D01*
Y1086476D02*
X380102Y1088000D01*
X381626D01*
X380102Y1089524D01*
X381626Y1091048D01*
X380102D01*
X378578Y1092572D01*
X377054Y1091048D01*
X375530D01*
X377054Y1089524D01*
X375530Y1088000D01*
X377054D01*
X378578Y1086476D01*
X695062Y1118226D02*
X697602Y1120766D01*
X700142D01*
X697602Y1123306D01*
X700142Y1125846D01*
X697602D01*
X695062Y1128386D01*
X692522Y1125846D01*
X689982D01*
X692522Y1123306D01*
X689982Y1120766D01*
X692522D01*
X695062Y1118226D01*
Y1120258D02*
X696586Y1121782D01*
X698110D01*
X696586Y1123306D01*
X698110Y1124830D01*
X696586D01*
X695062Y1126354D01*
X693538Y1124830D01*
X692014D01*
X693538Y1123306D01*
X692014Y1121782D01*
X693538D01*
X695062Y1120258D01*
X720716Y1077840D02*
X723256Y1080380D01*
X725796D01*
X723256Y1082920D01*
X725796Y1085460D01*
X723256D01*
X720716Y1088000D01*
X718176Y1085460D01*
X715636D01*
X718176Y1082920D01*
X715636Y1080380D01*
X718176D01*
X720716Y1077840D01*
Y1079872D02*
X722240Y1081396D01*
X723764D01*
X722240Y1082920D01*
X723764Y1084444D01*
X722240D01*
X720716Y1085968D01*
X719192Y1084444D01*
X717668D01*
X719192Y1082920D01*
X717668Y1081396D01*
X719192D01*
X720716Y1079872D01*
X735330Y1082294D02*
X737870Y1084834D01*
X740410D01*
X737870Y1087374D01*
X740410Y1089914D01*
X737870D01*
X735330Y1092454D01*
X732790Y1089914D01*
X730250D01*
X732790Y1087374D01*
X730250Y1084834D01*
X732790D01*
X735330Y1082294D01*
Y1084326D02*
X736854Y1085850D01*
X738378D01*
X736854Y1087374D01*
X738378Y1088898D01*
X736854D01*
X735330Y1090422D01*
X733806Y1088898D01*
X732282D01*
X733806Y1087374D01*
X732282Y1085850D01*
X733806D01*
X735330Y1084326D01*
X628396Y976884D02*
X630936Y979424D01*
X633476D01*
X630936Y981964D01*
X633476Y984504D01*
X630936D01*
X628396Y987044D01*
X625856Y984504D01*
X623316D01*
X625856Y981964D01*
X623316Y979424D01*
X625856D01*
X628396Y976884D01*
Y978916D02*
X629920Y980440D01*
X631444D01*
X629920Y981964D01*
X631444Y983488D01*
X629920D01*
X628396Y985012D01*
X626872Y983488D01*
X625348D01*
X626872Y981964D01*
X625348Y980440D01*
X626872D01*
X628396Y978916D01*
X619760Y1135888D02*
X622300Y1138428D01*
X624840D01*
X622300Y1140968D01*
X624840Y1143508D01*
X622300D01*
X619760Y1146048D01*
X617220Y1143508D01*
X614680D01*
X617220Y1140968D01*
X614680Y1138428D01*
X617220D01*
X619760Y1135888D01*
Y1137920D02*
X621284Y1139444D01*
X622808D01*
X621284Y1140968D01*
X622808Y1142492D01*
X621284D01*
X619760Y1144016D01*
X618236Y1142492D01*
X616712D01*
X618236Y1140968D01*
X616712Y1139444D01*
X618236D01*
X619760Y1137920D01*
X623198Y1225432D02*
X625738Y1227972D01*
X628278D01*
X625738Y1230512D01*
X628278Y1233052D01*
X625738D01*
X623198Y1235592D01*
X620658Y1233052D01*
X618118D01*
X620658Y1230512D01*
X618118Y1227972D01*
X620658D01*
X623198Y1225432D01*
Y1227464D02*
X624722Y1228988D01*
X626246D01*
X624722Y1230512D01*
X626246Y1232036D01*
X624722D01*
X623198Y1233560D01*
X621674Y1232036D01*
X620150D01*
X621674Y1230512D01*
X620150Y1228988D01*
X621674D01*
X623198Y1227464D01*
X744916Y970722D02*
X747456Y973262D01*
X749996D01*
X747456Y975802D01*
X749996Y978342D01*
X747456D01*
X744916Y980882D01*
X742376Y978342D01*
X739836D01*
X742376Y975802D01*
X739836Y973262D01*
X742376D01*
X744916Y970722D01*
Y972754D02*
X746440Y974278D01*
X747964D01*
X746440Y975802D01*
X747964Y977326D01*
X746440D01*
X744916Y978850D01*
X743392Y977326D01*
X741868D01*
X743392Y975802D01*
X741868Y974278D01*
X743392D01*
X744916Y972754D01*
X766963Y970671D02*
X769503Y973211D01*
X772043D01*
X769503Y975751D01*
X772043Y978291D01*
X769503D01*
X766963Y980831D01*
X764423Y978291D01*
X761883D01*
X764423Y975751D01*
X761883Y973211D01*
X764423D01*
X766963Y970671D01*
Y972703D02*
X768487Y974227D01*
X770011D01*
X768487Y975751D01*
X770011Y977275D01*
X768487D01*
X766963Y978799D01*
X765439Y977275D01*
X763915D01*
X765439Y975751D01*
X763915Y974227D01*
X765439D01*
X766963Y972703D01*
X830816Y967758D02*
X833356Y970298D01*
X835896D01*
X833356Y972838D01*
X835896Y975378D01*
X833356D01*
X830816Y977918D01*
X828276Y975378D01*
X825736D01*
X828276Y972838D01*
X825736Y970298D01*
X828276D01*
X830816Y967758D01*
Y969790D02*
X832340Y971314D01*
X833864D01*
X832340Y972838D01*
X833864Y974362D01*
X832340D01*
X830816Y975886D01*
X829292Y974362D01*
X827768D01*
X829292Y972838D01*
X827768Y971314D01*
X829292D01*
X830816Y969790D01*
X699008Y982726D02*
X701548Y985266D01*
X704088D01*
X701548Y987806D01*
X704088Y990346D01*
X701548D01*
X699008Y992886D01*
X696468Y990346D01*
X693928D01*
X696468Y987806D01*
X693928Y985266D01*
X696468D01*
X699008Y982726D01*
Y984758D02*
X700532Y986282D01*
X702056D01*
X700532Y987806D01*
X702056Y989330D01*
X700532D01*
X699008Y990854D01*
X697484Y989330D01*
X695960D01*
X697484Y987806D01*
X695960Y986282D01*
X697484D01*
X699008Y984758D01*
X705494Y1019692D02*
X708034Y1022232D01*
X710574D01*
X708034Y1024772D01*
X710574Y1027312D01*
X708034D01*
X705494Y1029852D01*
X702954Y1027312D01*
X700414D01*
X702954Y1024772D01*
X700414Y1022232D01*
X702954D01*
X705494Y1019692D01*
Y1021724D02*
X707018Y1023248D01*
X708542D01*
X707018Y1024772D01*
X708542Y1026296D01*
X707018D01*
X705494Y1027820D01*
X703970Y1026296D01*
X702446D01*
X703970Y1024772D01*
X702446Y1023248D01*
X703970D01*
X705494Y1021724D01*
X747894Y1019692D02*
X750434Y1022232D01*
X752974D01*
X750434Y1024772D01*
X752974Y1027312D01*
X750434D01*
X747894Y1029852D01*
X745354Y1027312D01*
X742814D01*
X745354Y1024772D01*
X742814Y1022232D01*
X745354D01*
X747894Y1019692D01*
Y1021724D02*
X749418Y1023248D01*
X750942D01*
X749418Y1024772D01*
X750942Y1026296D01*
X749418D01*
X747894Y1027820D01*
X746370Y1026296D01*
X744846D01*
X746370Y1024772D01*
X744846Y1023248D01*
X746370D01*
X747894Y1021724D01*
X270764Y1203706D02*
X273304Y1206246D01*
X275844D01*
X273304Y1208786D01*
X275844Y1211326D01*
X273304D01*
X270764Y1213866D01*
X268224Y1211326D01*
X265684D01*
X268224Y1208786D01*
X265684Y1206246D01*
X268224D01*
X270764Y1203706D01*
Y1205738D02*
X272288Y1207262D01*
X273812D01*
X272288Y1208786D01*
X273812Y1210310D01*
X272288D01*
X270764Y1211834D01*
X269240Y1210310D01*
X267716D01*
X269240Y1208786D01*
X267716Y1207262D01*
X269240D01*
X270764Y1205738D01*
Y1151636D02*
X273304Y1154176D01*
X275844D01*
X273304Y1156716D01*
X275844Y1159256D01*
X273304D01*
X270764Y1161796D01*
X268224Y1159256D01*
X265684D01*
X268224Y1156716D01*
X265684Y1154176D01*
X268224D01*
X270764Y1151636D01*
Y1153668D02*
X272288Y1155192D01*
X273812D01*
X272288Y1156716D01*
X273812Y1158240D01*
X272288D01*
X270764Y1159764D01*
X269240Y1158240D01*
X267716D01*
X269240Y1156716D01*
X267716Y1155192D01*
X269240D01*
X270764Y1153668D01*
X710810Y462144D02*
X713350Y464684D01*
X715890D01*
X713350Y467224D01*
X715890Y469764D01*
X713350D01*
X710810Y472304D01*
X708270Y469764D01*
X705730D01*
X708270Y467224D01*
X705730Y464684D01*
X708270D01*
X710810Y462144D01*
Y464176D02*
X712334Y465700D01*
X713858D01*
X712334Y467224D01*
X713858Y468748D01*
X712334D01*
X710810Y470272D01*
X709286Y468748D01*
X707762D01*
X709286Y467224D01*
X707762Y465700D01*
X709286D01*
X710810Y464176D01*
X705612Y366522D02*
X708152Y369062D01*
X710692D01*
X708152Y371602D01*
X710692Y374142D01*
X708152D01*
X705612Y376682D01*
X703072Y374142D01*
X700532D01*
X703072Y371602D01*
X700532Y369062D01*
X703072D01*
X705612Y366522D01*
Y368554D02*
X707136Y370078D01*
X708660D01*
X707136Y371602D01*
X708660Y373126D01*
X707136D01*
X705612Y374650D01*
X704088Y373126D01*
X702564D01*
X704088Y371602D01*
X702564Y370078D01*
X704088D01*
X705612Y368554D01*
X680720Y367792D02*
X683260Y370332D01*
X685800D01*
X683260Y372872D01*
X685800Y375412D01*
X683260D01*
X680720Y377952D01*
X678180Y375412D01*
X675640D01*
X678180Y372872D01*
X675640Y370332D01*
X678180D01*
X680720Y367792D01*
Y369824D02*
X682244Y371348D01*
X683768D01*
X682244Y372872D01*
X683768Y374396D01*
X682244D01*
X680720Y375920D01*
X679196Y374396D01*
X677672D01*
X679196Y372872D01*
X677672Y371348D01*
X679196D01*
X680720Y369824D01*
X563854Y1117880D02*
X566394Y1120420D01*
X568934D01*
X566394Y1122960D01*
X568934Y1125500D01*
X566394D01*
X563854Y1128040D01*
X561314Y1125500D01*
X558774D01*
X561314Y1122960D01*
X558774Y1120420D01*
X561314D01*
X563854Y1117880D01*
Y1119912D02*
X565378Y1121436D01*
X566902D01*
X565378Y1122960D01*
X566902Y1124484D01*
X565378D01*
X563854Y1126008D01*
X562330Y1124484D01*
X560806D01*
X562330Y1122960D01*
X560806Y1121436D01*
X562330D01*
X563854Y1119912D01*
X495418Y1089270D02*
X497958Y1091810D01*
X500498D01*
X497958Y1094350D01*
X500498Y1096890D01*
X497958D01*
X495418Y1099430D01*
X492878Y1096890D01*
X490338D01*
X492878Y1094350D01*
X490338Y1091810D01*
X492878D01*
X495418Y1089270D01*
Y1091302D02*
X496942Y1092826D01*
X498466D01*
X496942Y1094350D01*
X498466Y1095874D01*
X496942D01*
X495418Y1097398D01*
X493894Y1095874D01*
X492370D01*
X493894Y1094350D01*
X492370Y1092826D01*
X493894D01*
X495418Y1091302D01*
X464820Y1077976D02*
X467360Y1080516D01*
X469900D01*
X467360Y1083056D01*
X469900Y1085596D01*
X467360D01*
X464820Y1088136D01*
X462280Y1085596D01*
X459740D01*
X462280Y1083056D01*
X459740Y1080516D01*
X462280D01*
X464820Y1077976D01*
Y1080008D02*
X466344Y1081532D01*
X467868D01*
X466344Y1083056D01*
X467868Y1084580D01*
X466344D01*
X464820Y1086104D01*
X463296Y1084580D01*
X461772D01*
X463296Y1083056D01*
X461772Y1081532D01*
X463296D01*
X464820Y1080008D01*
X656082Y1193546D02*
X658622Y1196086D01*
X661162D01*
X658622Y1198626D01*
X661162Y1201166D01*
X658622D01*
X656082Y1203706D01*
X653542Y1201166D01*
X651002D01*
X653542Y1198626D01*
X651002Y1196086D01*
X653542D01*
X656082Y1193546D01*
Y1195578D02*
X657606Y1197102D01*
X659130D01*
X657606Y1198626D01*
X659130Y1200150D01*
X657606D01*
X656082Y1201674D01*
X654558Y1200150D01*
X653034D01*
X654558Y1198626D01*
X653034Y1197102D01*
X654558D01*
X656082Y1195578D01*
X661806Y1227464D02*
X664346Y1230004D01*
X666886D01*
X664346Y1232544D01*
X666886Y1235084D01*
X664346D01*
X661806Y1237624D01*
X659266Y1235084D01*
X656726D01*
X659266Y1232544D01*
X656726Y1230004D01*
X659266D01*
X661806Y1227464D01*
Y1229496D02*
X663330Y1231020D01*
X664854D01*
X663330Y1232544D01*
X664854Y1234068D01*
X663330D01*
X661806Y1235592D01*
X660282Y1234068D01*
X658758D01*
X660282Y1232544D01*
X658758Y1231020D01*
X660282D01*
X661806Y1229496D01*
X694182Y1210056D02*
X696722Y1212596D01*
X699262D01*
X696722Y1215136D01*
X699262Y1217676D01*
X696722D01*
X694182Y1220216D01*
X691642Y1217676D01*
X689102D01*
X691642Y1215136D01*
X689102Y1212596D01*
X691642D01*
X694182Y1210056D01*
Y1212088D02*
X695706Y1213612D01*
X697230D01*
X695706Y1215136D01*
X697230Y1216660D01*
X695706D01*
X694182Y1218184D01*
X692658Y1216660D01*
X691134D01*
X692658Y1215136D01*
X691134Y1213612D01*
X692658D01*
X694182Y1212088D01*
X704850Y1204214D02*
X707390Y1206754D01*
X709930D01*
X707390Y1209294D01*
X709930Y1211834D01*
X707390D01*
X704850Y1214374D01*
X702310Y1211834D01*
X699770D01*
X702310Y1209294D01*
X699770Y1206754D01*
X702310D01*
X704850Y1204214D01*
Y1206246D02*
X706374Y1207770D01*
X707898D01*
X706374Y1209294D01*
X707898Y1210818D01*
X706374D01*
X704850Y1212342D01*
X703326Y1210818D01*
X701802D01*
X703326Y1209294D01*
X701802Y1207770D01*
X703326D01*
X704850Y1206246D01*
X756412Y1212596D02*
X758952Y1215136D01*
X761492D01*
X758952Y1217676D01*
X761492Y1220216D01*
X758952D01*
X756412Y1222756D01*
X753872Y1220216D01*
X751332D01*
X753872Y1217676D01*
X751332Y1215136D01*
X753872D01*
X756412Y1212596D01*
Y1214628D02*
X757936Y1216152D01*
X759460D01*
X757936Y1217676D01*
X759460Y1219200D01*
X757936D01*
X756412Y1220724D01*
X754888Y1219200D01*
X753364D01*
X754888Y1217676D01*
X753364Y1216152D01*
X754888D01*
X756412Y1214628D01*
X727456Y1266952D02*
X729996Y1269492D01*
X732536D01*
X729996Y1272032D01*
X732536Y1274572D01*
X729996D01*
X727456Y1277112D01*
X724916Y1274572D01*
X722376D01*
X724916Y1272032D01*
X722376Y1269492D01*
X724916D01*
X727456Y1266952D01*
Y1268984D02*
X728980Y1270508D01*
X730504D01*
X728980Y1272032D01*
X730504Y1273556D01*
X728980D01*
X727456Y1275080D01*
X725932Y1273556D01*
X724408D01*
X725932Y1272032D01*
X724408Y1270508D01*
X725932D01*
X727456Y1268984D01*
X479416Y1235592D02*
X481956Y1238132D01*
X484496D01*
X481956Y1240672D01*
X484496Y1243212D01*
X481956D01*
X479416Y1245752D01*
X476876Y1243212D01*
X474336D01*
X476876Y1240672D01*
X474336Y1238132D01*
X476876D01*
X479416Y1235592D01*
Y1237624D02*
X480940Y1239148D01*
X482464D01*
X480940Y1240672D01*
X482464Y1242196D01*
X480940D01*
X479416Y1243720D01*
X477892Y1242196D01*
X476368D01*
X477892Y1240672D01*
X476368Y1239148D01*
X477892D01*
X479416Y1237624D01*
X528320Y1245870D02*
X523240Y1256030D01*
X533400D01*
X528320Y1245870D01*
Y1247902D02*
X525272Y1253998D01*
X531368D01*
X528320Y1247902D01*
X433460Y1274436D02*
X436000Y1276976D01*
X438540D01*
X436000Y1279516D01*
X438540Y1282056D01*
X436000D01*
X433460Y1284596D01*
X430920Y1282056D01*
X428380D01*
X430920Y1279516D01*
X428380Y1276976D01*
X430920D01*
X433460Y1274436D01*
Y1276468D02*
X434984Y1277992D01*
X436508D01*
X434984Y1279516D01*
X436508Y1281040D01*
X434984D01*
X433460Y1282564D01*
X431936Y1281040D01*
X430412D01*
X431936Y1279516D01*
X430412Y1277992D01*
X431936D01*
X433460Y1276468D01*
X321056Y1241298D02*
X315976Y1251458D01*
X326136D01*
X321056Y1241298D01*
Y1243330D02*
X318008Y1249426D01*
X324104D01*
X321056Y1243330D01*
X294640Y1266698D02*
X297180Y1269238D01*
X299720D01*
X297180Y1271778D01*
X299720Y1274318D01*
X297180D01*
X294640Y1276858D01*
X292100Y1274318D01*
X289560D01*
X292100Y1271778D01*
X289560Y1269238D01*
X292100D01*
X294640Y1266698D01*
Y1268730D02*
X296164Y1270254D01*
X297688D01*
X296164Y1271778D01*
X297688Y1273302D01*
X296164D01*
X294640Y1274826D01*
X293116Y1273302D01*
X291592D01*
X293116Y1271778D01*
X291592Y1270254D01*
X293116D01*
X294640Y1268730D01*
X311556Y1294790D02*
X306476Y1304950D01*
X316636D01*
X311556Y1294790D01*
Y1296822D02*
X308508Y1302918D01*
X314604D01*
X311556Y1296822D01*
X270510Y1220470D02*
X273050Y1223010D01*
X275590D01*
X273050Y1225550D01*
X275590Y1228090D01*
X273050D01*
X270510Y1230630D01*
X267970Y1228090D01*
X265430D01*
X267970Y1225550D01*
X265430Y1223010D01*
X267970D01*
X270510Y1220470D01*
Y1222502D02*
X272034Y1224026D01*
X273558D01*
X272034Y1225550D01*
X273558Y1227074D01*
X272034D01*
X270510Y1228598D01*
X268986Y1227074D01*
X267462D01*
X268986Y1225550D01*
X267462Y1224026D01*
X268986D01*
X270510Y1222502D01*
X269748Y1237742D02*
X272288Y1240282D01*
X274828D01*
X272288Y1242822D01*
X274828Y1245362D01*
X272288D01*
X269748Y1247902D01*
X267208Y1245362D01*
X264668D01*
X267208Y1242822D01*
X264668Y1240282D01*
X267208D01*
X269748Y1237742D01*
Y1239774D02*
X271272Y1241298D01*
X272796D01*
X271272Y1242822D01*
X272796Y1244346D01*
X271272D01*
X269748Y1245870D01*
X268224Y1244346D01*
X266700D01*
X268224Y1242822D01*
X266700Y1241298D01*
X268224D01*
X269748Y1239774D01*
X358902Y1238250D02*
X361442Y1240790D01*
X363982D01*
X361442Y1243330D01*
X363982Y1245870D01*
X361442D01*
X358902Y1248410D01*
X356362Y1245870D01*
X353822D01*
X356362Y1243330D01*
X353822Y1240790D01*
X356362D01*
X358902Y1238250D01*
Y1240282D02*
X360426Y1241806D01*
X361950D01*
X360426Y1243330D01*
X361950Y1244854D01*
X360426D01*
X358902Y1246378D01*
X357378Y1244854D01*
X355854D01*
X357378Y1243330D01*
X355854Y1241806D01*
X357378D01*
X358902Y1240282D01*
X419608Y1107694D02*
X422148Y1110234D01*
X424688D01*
X422148Y1112774D01*
X424688Y1115314D01*
X422148D01*
X419608Y1117854D01*
X417068Y1115314D01*
X414528D01*
X417068Y1112774D01*
X414528Y1110234D01*
X417068D01*
X419608Y1107694D01*
Y1109726D02*
X421132Y1111250D01*
X422656D01*
X421132Y1112774D01*
X422656Y1114298D01*
X421132D01*
X419608Y1115822D01*
X418084Y1114298D01*
X416560D01*
X418084Y1112774D01*
X416560Y1111250D01*
X418084D01*
X419608Y1109726D01*
X420116Y1126998D02*
X422656Y1129538D01*
X425196D01*
X422656Y1132078D01*
X425196Y1134618D01*
X422656D01*
X420116Y1137158D01*
X417576Y1134618D01*
X415036D01*
X417576Y1132078D01*
X415036Y1129538D01*
X417576D01*
X420116Y1126998D01*
Y1129030D02*
X421640Y1130554D01*
X423164D01*
X421640Y1132078D01*
X423164Y1133602D01*
X421640D01*
X420116Y1135126D01*
X418592Y1133602D01*
X417068D01*
X418592Y1132078D01*
X417068Y1130554D01*
X418592D01*
X420116Y1129030D01*
X422130Y1073640D02*
X424670Y1076180D01*
X427210D01*
X424670Y1078720D01*
X427210Y1081260D01*
X424670D01*
X422130Y1083800D01*
X419590Y1081260D01*
X417050D01*
X419590Y1078720D01*
X417050Y1076180D01*
X419590D01*
X422130Y1073640D01*
Y1075672D02*
X423654Y1077196D01*
X425178D01*
X423654Y1078720D01*
X425178Y1080244D01*
X423654D01*
X422130Y1081768D01*
X420606Y1080244D01*
X419082D01*
X420606Y1078720D01*
X419082Y1077196D01*
X420606D01*
X422130Y1075672D01*
X440016Y1000848D02*
X434936Y1011008D01*
X445096D01*
X440016Y1000848D01*
Y1002880D02*
X436968Y1008976D01*
X443064D01*
X440016Y1002880D01*
X401574Y981710D02*
X404114Y984250D01*
X406654D01*
X404114Y986790D01*
X406654Y989330D01*
X404114D01*
X401574Y991870D01*
X399034Y989330D01*
X396494D01*
X399034Y986790D01*
X396494Y984250D01*
X399034D01*
X401574Y981710D01*
Y983742D02*
X403098Y985266D01*
X404622D01*
X403098Y986790D01*
X404622Y988314D01*
X403098D01*
X401574Y989838D01*
X400050Y988314D01*
X398526D01*
X400050Y986790D01*
X398526Y985266D01*
X400050D01*
X401574Y983742D01*
X354417Y972733D02*
X356957Y975273D01*
X359497D01*
X356957Y977813D01*
X359497Y980353D01*
X356957D01*
X354417Y982893D01*
X351877Y980353D01*
X349337D01*
X351877Y977813D01*
X349337Y975273D01*
X351877D01*
X354417Y972733D01*
Y974765D02*
X355941Y976289D01*
X357465D01*
X355941Y977813D01*
X357465Y979337D01*
X355941D01*
X354417Y980861D01*
X352893Y979337D01*
X351369D01*
X352893Y977813D01*
X351369Y976289D01*
X352893D01*
X354417Y974765D01*
X331963Y972297D02*
X334503Y974837D01*
X337043D01*
X334503Y977377D01*
X337043Y979917D01*
X334503D01*
X331963Y982457D01*
X329423Y979917D01*
X326883D01*
X329423Y977377D01*
X326883Y974837D01*
X329423D01*
X331963Y972297D01*
Y974329D02*
X333487Y975853D01*
X335011D01*
X333487Y977377D01*
X335011Y978901D01*
X333487D01*
X331963Y980425D01*
X330439Y978901D01*
X328915D01*
X330439Y977377D01*
X328915Y975853D01*
X330439D01*
X331963Y974329D01*
X267480Y967504D02*
X270020Y970044D01*
X272560D01*
X270020Y972584D01*
X272560Y975124D01*
X270020D01*
X267480Y977664D01*
X264940Y975124D01*
X262400D01*
X264940Y972584D01*
X262400Y970044D01*
X264940D01*
X267480Y967504D01*
Y969536D02*
X269004Y971060D01*
X270528D01*
X269004Y972584D01*
X270528Y974108D01*
X269004D01*
X267480Y975632D01*
X265956Y974108D01*
X264432D01*
X265956Y972584D01*
X264432Y971060D01*
X265956D01*
X267480Y969536D01*
X585812Y571334D02*
X580732Y581494D01*
X590892D01*
X585812Y571334D01*
Y573366D02*
X582764Y579462D01*
X588860D01*
X585812Y573366D01*
X743458Y588264D02*
X745998Y590804D01*
X748538D01*
X745998Y593344D01*
X748538Y595884D01*
X745998D01*
X743458Y598424D01*
X740918Y595884D01*
X738378D01*
X740918Y593344D01*
X738378Y590804D01*
X740918D01*
X743458Y588264D01*
Y590296D02*
X744982Y591820D01*
X746506D01*
X744982Y593344D01*
X746506Y594868D01*
X744982D01*
X743458Y596392D01*
X741934Y594868D01*
X740410D01*
X741934Y593344D01*
X740410Y591820D01*
X741934D01*
X743458Y590296D01*
X777104Y582168D02*
X772024Y592328D01*
X782184D01*
X777104Y582168D01*
Y584200D02*
X774056Y590296D01*
X780152D01*
X777104Y584200D01*
X709168Y438658D02*
X704088Y448818D01*
X714248D01*
X709168Y438658D01*
Y440690D02*
X706120Y446786D01*
X712216D01*
X709168Y440690D01*
X752094Y477257D02*
X754634Y479797D01*
X757174D01*
X754634Y482337D01*
X757174Y484877D01*
X754634D01*
X752094Y487417D01*
X749554Y484877D01*
X747014D01*
X749554Y482337D01*
X747014Y479797D01*
X749554D01*
X752094Y477257D01*
Y479289D02*
X753618Y480813D01*
X755142D01*
X753618Y482337D01*
X755142Y483861D01*
X753618D01*
X752094Y485385D01*
X750570Y483861D01*
X749046D01*
X750570Y482337D01*
X749046Y480813D01*
X750570D01*
X752094Y479289D01*
X703072Y477257D02*
X705612Y479797D01*
X708152D01*
X705612Y482337D01*
X708152Y484877D01*
X705612D01*
X703072Y487417D01*
X700532Y484877D01*
X697992D01*
X700532Y482337D01*
X697992Y479797D01*
X700532D01*
X703072Y477257D01*
Y479289D02*
X704596Y480813D01*
X706120D01*
X704596Y482337D01*
X706120Y483861D01*
X704596D01*
X703072Y485385D01*
X701548Y483861D01*
X700024D01*
X701548Y482337D01*
X700024Y480813D01*
X701548D01*
X703072Y479289D01*
X733044Y521618D02*
X735584Y524158D01*
X738124D01*
X735584Y526698D01*
X738124Y529238D01*
X735584D01*
X733044Y531778D01*
X730504Y529238D01*
X727964D01*
X730504Y526698D01*
X727964Y524158D01*
X730504D01*
X733044Y521618D01*
Y523650D02*
X734568Y525174D01*
X736092D01*
X734568Y526698D01*
X736092Y528222D01*
X734568D01*
X733044Y529746D01*
X731520Y528222D01*
X729996D01*
X731520Y526698D01*
X729996Y525174D01*
X731520D01*
X733044Y523650D01*
X679098Y538128D02*
X681638Y540668D01*
X684178D01*
X681638Y543208D01*
X684178Y545748D01*
X681638D01*
X679098Y548288D01*
X676558Y545748D01*
X674018D01*
X676558Y543208D01*
X674018Y540668D01*
X676558D01*
X679098Y538128D01*
Y540160D02*
X680622Y541684D01*
X682146D01*
X680622Y543208D01*
X682146Y544732D01*
X680622D01*
X679098Y546256D01*
X677574Y544732D01*
X676050D01*
X677574Y543208D01*
X676050Y541684D01*
X677574D01*
X679098Y540160D01*
X620776Y568960D02*
X623316Y571500D01*
X625856D01*
X623316Y574040D01*
X625856Y576580D01*
X623316D01*
X620776Y579120D01*
X618236Y576580D01*
X615696D01*
X618236Y574040D01*
X615696Y571500D01*
X618236D01*
X620776Y568960D01*
Y570992D02*
X622300Y572516D01*
X623824D01*
X622300Y574040D01*
X623824Y575564D01*
X622300D01*
X620776Y577088D01*
X619252Y575564D01*
X617728D01*
X619252Y574040D01*
X617728Y572516D01*
X619252D01*
X620776Y570992D01*
X283210Y546608D02*
X278130Y556768D01*
X288290D01*
X283210Y546608D01*
Y548640D02*
X280162Y554736D01*
X286258D01*
X283210Y548640D01*
X282702Y567182D02*
X277622Y577342D01*
X287782D01*
X282702Y567182D01*
Y569214D02*
X279654Y575310D01*
X285750D01*
X282702Y569214D01*
X271272Y494792D02*
X266192Y504952D01*
X276352D01*
X271272Y494792D01*
Y496824D02*
X268224Y502920D01*
X274320D01*
X271272Y496824D01*
X652780Y484886D02*
X655320Y487426D01*
X657860D01*
X655320Y489966D01*
X657860Y492506D01*
X655320D01*
X652780Y495046D01*
X650240Y492506D01*
X647700D01*
X650240Y489966D01*
X647700Y487426D01*
X650240D01*
X652780Y484886D01*
Y486918D02*
X654304Y488442D01*
X655828D01*
X654304Y489966D01*
X655828Y491490D01*
X654304D01*
X652780Y493014D01*
X651256Y491490D01*
X649732D01*
X651256Y489966D01*
X649732Y488442D01*
X651256D01*
X652780Y486918D01*
X673862Y304800D02*
X676402Y307340D01*
X678942D01*
X676402Y309880D01*
X678942Y312420D01*
X676402D01*
X673862Y314960D01*
X671322Y312420D01*
X668782D01*
X671322Y309880D01*
X668782Y307340D01*
X671322D01*
X673862Y304800D01*
Y306832D02*
X675386Y308356D01*
X676910D01*
X675386Y309880D01*
X676910Y311404D01*
X675386D01*
X673862Y312928D01*
X672338Y311404D01*
X670814D01*
X672338Y309880D01*
X670814Y308356D01*
X672338D01*
X673862Y306832D01*
X640198Y1225922D02*
X642738Y1228462D01*
X645278D01*
X642738Y1231002D01*
X645278Y1233542D01*
X642738D01*
X640198Y1236082D01*
X637658Y1233542D01*
X635118D01*
X637658Y1231002D01*
X635118Y1228462D01*
X637658D01*
X640198Y1225922D01*
Y1227954D02*
X641722Y1229478D01*
X643246D01*
X641722Y1231002D01*
X643246Y1232526D01*
X641722D01*
X640198Y1234050D01*
X638674Y1232526D01*
X637150D01*
X638674Y1231002D01*
X637150Y1229478D01*
X638674D01*
X640198Y1227954D01*
X697230Y1130808D02*
X699770Y1133348D01*
X702310D01*
X699770Y1135888D01*
X702310Y1138428D01*
X699770D01*
X697230Y1140968D01*
X694690Y1138428D01*
X692150D01*
X694690Y1135888D01*
X692150Y1133348D01*
X694690D01*
X697230Y1130808D01*
Y1132840D02*
X698754Y1134364D01*
X700278D01*
X698754Y1135888D01*
X700278Y1137412D01*
X698754D01*
X697230Y1138936D01*
X695706Y1137412D01*
X694182D01*
X695706Y1135888D01*
X694182Y1134364D01*
X695706D01*
X697230Y1132840D01*
Y1175512D02*
X699770Y1178052D01*
X702310D01*
X699770Y1180592D01*
X702310Y1183132D01*
X699770D01*
X697230Y1185672D01*
X694690Y1183132D01*
X692150D01*
X694690Y1180592D01*
X692150Y1178052D01*
X694690D01*
X697230Y1175512D01*
Y1177544D02*
X698754Y1179068D01*
X700278D01*
X698754Y1180592D01*
X700278Y1182116D01*
X698754D01*
X697230Y1183640D01*
X695706Y1182116D01*
X694182D01*
X695706Y1180592D01*
X694182Y1179068D01*
X695706D01*
X697230Y1177544D01*
X673862Y1153160D02*
X676402Y1155700D01*
X678942D01*
X676402Y1158240D01*
X678942Y1160780D01*
X676402D01*
X673862Y1163320D01*
X671322Y1160780D01*
X668782D01*
X671322Y1158240D01*
X668782Y1155700D01*
X671322D01*
X673862Y1153160D01*
Y1155192D02*
X675386Y1156716D01*
X676910D01*
X675386Y1158240D01*
X676910Y1159764D01*
X675386D01*
X673862Y1161288D01*
X672338Y1159764D01*
X670814D01*
X672338Y1158240D01*
X670814Y1156716D01*
X672338D01*
X673862Y1155192D01*
X743458Y440436D02*
X745998Y442976D01*
X748538D01*
X745998Y445516D01*
X748538Y448056D01*
X745998D01*
X743458Y450596D01*
X740918Y448056D01*
X738378D01*
X740918Y445516D01*
X738378Y442976D01*
X740918D01*
X743458Y440436D01*
Y442468D02*
X744982Y443992D01*
X746506D01*
X744982Y445516D01*
X746506Y447040D01*
X744982D01*
X743458Y448564D01*
X741934Y447040D01*
X740410D01*
X741934Y445516D01*
X740410Y443992D01*
X741934D01*
X743458Y442468D01*
X840232Y278638D02*
X842772Y281178D01*
X845312D01*
X842772Y283718D01*
X845312Y286258D01*
X842772D01*
X840232Y288798D01*
X837692Y286258D01*
X835152D01*
X837692Y283718D01*
X835152Y281178D01*
X837692D01*
X840232Y278638D01*
Y280670D02*
X841756Y282194D01*
X843280D01*
X841756Y283718D01*
X843280Y285242D01*
X841756D01*
X840232Y286766D01*
X838708Y285242D01*
X837184D01*
X838708Y283718D01*
X837184Y282194D01*
X838708D01*
X840232Y280670D01*
Y509016D02*
X842772Y511556D01*
X845312D01*
X842772Y514096D01*
X845312Y516636D01*
X842772D01*
X840232Y519176D01*
X837692Y516636D01*
X835152D01*
X837692Y514096D01*
X835152Y511556D01*
X837692D01*
X840232Y509016D01*
Y511048D02*
X841756Y512572D01*
X843280D01*
X841756Y514096D01*
X843280Y515620D01*
X841756D01*
X840232Y517144D01*
X838708Y515620D01*
X837184D01*
X838708Y514096D01*
X837184Y512572D01*
X838708D01*
X840232Y511048D01*
X743458Y487016D02*
X745998Y489556D01*
X748538D01*
X745998Y492096D01*
X748538Y494636D01*
X745998D01*
X743458Y497176D01*
X740918Y494636D01*
X738378D01*
X740918Y492096D01*
X738378Y489556D01*
X740918D01*
X743458Y487016D01*
Y489048D02*
X744982Y490572D01*
X746506D01*
X744982Y492096D01*
X746506Y493620D01*
X744982D01*
X743458Y495144D01*
X741934Y493620D01*
X740410D01*
X741934Y492096D01*
X740410Y490572D01*
X741934D01*
X743458Y489048D01*
X703072Y808228D02*
X705612Y810768D01*
X708152D01*
X705612Y813308D01*
X708152Y815848D01*
X705612D01*
X703072Y818388D01*
X700532Y815848D01*
X697992D01*
X700532Y813308D01*
X697992Y810768D01*
X700532D01*
X703072Y808228D01*
Y810260D02*
X704596Y811784D01*
X706120D01*
X704596Y813308D01*
X706120Y814832D01*
X704596D01*
X703072Y816356D01*
X701548Y814832D01*
X700024D01*
X701548Y813308D01*
X700024Y811784D01*
X701548D01*
X703072Y810260D01*
X388112Y807974D02*
X390652Y810514D01*
X393192D01*
X390652Y813054D01*
X393192Y815594D01*
X390652D01*
X388112Y818134D01*
X385572Y815594D01*
X383032D01*
X385572Y813054D01*
X383032Y810514D01*
X385572D01*
X388112Y807974D01*
Y810006D02*
X389636Y811530D01*
X391160D01*
X389636Y813054D01*
X391160Y814578D01*
X389636D01*
X388112Y816102D01*
X386588Y814578D01*
X385064D01*
X386588Y813054D01*
X385064Y811530D01*
X386588D01*
X388112Y810006D01*
X323723Y1102360D02*
X326263Y1104900D01*
X328803D01*
X326263Y1107440D01*
X328803Y1109980D01*
X326263D01*
X323723Y1112520D01*
X321183Y1109980D01*
X318643D01*
X321183Y1107440D01*
X318643Y1104900D01*
X321183D01*
X323723Y1102360D01*
Y1104392D02*
X325247Y1105916D01*
X326771D01*
X325247Y1107440D01*
X326771Y1108964D01*
X325247D01*
X323723Y1110488D01*
X322199Y1108964D01*
X320675D01*
X322199Y1107440D01*
X320675Y1105916D01*
X322199D01*
X323723Y1104392D01*
X335332Y1001268D02*
X337872Y1003808D01*
X340412D01*
X337872Y1006348D01*
X340412Y1008888D01*
X337872D01*
X335332Y1011428D01*
X332792Y1008888D01*
X330252D01*
X332792Y1006348D01*
X330252Y1003808D01*
X332792D01*
X335332Y1001268D01*
Y1003300D02*
X336856Y1004824D01*
X338380D01*
X336856Y1006348D01*
X338380Y1007872D01*
X336856D01*
X335332Y1009396D01*
X333808Y1007872D01*
X332284D01*
X333808Y1006348D01*
X332284Y1004824D01*
X333808D01*
X335332Y1003300D01*
X417391Y1001337D02*
X419930Y1003876D01*
X422471D01*
X419930Y1006416D01*
X422471Y1008957D01*
X419930D01*
X417391Y1011497D01*
X414851Y1008957D01*
X412310D01*
X414851Y1006416D01*
X412310Y1003876D01*
X414851D01*
X417391Y1001337D01*
Y1003369D02*
X418914Y1004893D01*
X420438D01*
X418914Y1006416D01*
X420438Y1007941D01*
X418914D01*
X417391Y1009464D01*
X415867Y1007941D01*
X414342D01*
X415867Y1006416D01*
X414342Y1004893D01*
X415867D01*
X417391Y1003369D01*
Y884242D02*
X419930Y886783D01*
X422471D01*
X419930Y889323D01*
X422471Y891862D01*
X419930D01*
X417391Y894402D01*
X414851Y891862D01*
X412310D01*
X414851Y889323D01*
X412310Y886783D01*
X414851D01*
X417391Y884242D01*
Y886274D02*
X418914Y887798D01*
X420438D01*
X418914Y889323D01*
X420438Y890846D01*
X418914D01*
X417391Y892371D01*
X415867Y890846D01*
X414342D01*
X415867Y889323D01*
X414342Y887798D01*
X415867D01*
X417391Y886274D01*
X551502Y884242D02*
X554043Y886783D01*
X556582D01*
X554043Y889323D01*
X556582Y891862D01*
X554043D01*
X551502Y894402D01*
X548963Y891862D01*
X546423D01*
X548963Y889323D01*
X546423Y886783D01*
X548963D01*
X551502Y884242D01*
Y886274D02*
X553027Y887798D01*
X554551D01*
X553027Y889323D01*
X554551Y890846D01*
X553027D01*
X551502Y892371D01*
X549978Y890846D01*
X548455D01*
X549978Y889323D01*
X548455Y887798D01*
X549978D01*
X551502Y886274D01*
X679196Y595376D02*
X681736Y597916D01*
X684276D01*
X681736Y600456D01*
X684276Y602996D01*
X681736D01*
X679196Y605536D01*
X676656Y602996D01*
X674116D01*
X676656Y600456D01*
X674116Y597916D01*
X676656D01*
X679196Y595376D01*
Y597408D02*
X680720Y598932D01*
X682244D01*
X680720Y600456D01*
X682244Y601980D01*
X680720D01*
X679196Y603504D01*
X677672Y601980D01*
X676148D01*
X677672Y600456D01*
X676148Y598932D01*
X677672D01*
X679196Y597408D01*
Y760730D02*
X681736Y763270D01*
X684276D01*
X681736Y765810D01*
X684276Y768350D01*
X681736D01*
X679196Y770890D01*
X676656Y768350D01*
X674116D01*
X676656Y765810D01*
X674116Y763270D01*
X676656D01*
X679196Y760730D01*
Y762762D02*
X680720Y764286D01*
X682244D01*
X680720Y765810D01*
X682244Y767334D01*
X680720D01*
X679196Y768858D01*
X677672Y767334D01*
X676148D01*
X677672Y765810D01*
X676148Y764286D01*
X677672D01*
X679196Y762762D01*
X664718Y760730D02*
X667258Y763270D01*
X669798D01*
X667258Y765810D01*
X669798Y768350D01*
X667258D01*
X664718Y770890D01*
X662178Y768350D01*
X659638D01*
X662178Y765810D01*
X659638Y763270D01*
X662178D01*
X664718Y760730D01*
Y762762D02*
X666242Y764286D01*
X667766D01*
X666242Y765810D01*
X667766Y767334D01*
X666242D01*
X664718Y768858D01*
X663194Y767334D01*
X661670D01*
X663194Y765810D01*
X661670Y764286D01*
X663194D01*
X664718Y762762D01*
Y1050426D02*
X667258Y1052966D01*
X669798D01*
X667258Y1055506D01*
X669798Y1058046D01*
X667258D01*
X664718Y1060586D01*
X662178Y1058046D01*
X659638D01*
X662178Y1055506D01*
X659638Y1052966D01*
X662178D01*
X664718Y1050426D01*
Y1052458D02*
X666242Y1053982D01*
X667766D01*
X666242Y1055506D01*
X667766Y1057030D01*
X666242D01*
X664718Y1058554D01*
X663194Y1057030D01*
X661670D01*
X663194Y1055506D01*
X661670Y1053982D01*
X663194D01*
X664718Y1052458D01*
X643382Y932942D02*
X645922Y935482D01*
X648462D01*
X645922Y938022D01*
X648462Y940562D01*
X645922D01*
X643382Y943102D01*
X640842Y940562D01*
X638302D01*
X640842Y938022D01*
X638302Y935482D01*
X640842D01*
X643382Y932942D01*
Y934974D02*
X644906Y936498D01*
X646430D01*
X644906Y938022D01*
X646430Y939546D01*
X644906D01*
X643382Y941070D01*
X641858Y939546D01*
X640334D01*
X641858Y938022D01*
X640334Y936498D01*
X641858D01*
X643382Y934974D01*
Y370332D02*
X645922Y372872D01*
X648462D01*
X645922Y375412D01*
X648462Y377952D01*
X645922D01*
X643382Y380492D01*
X640842Y377952D01*
X638302D01*
X640842Y375412D01*
X638302Y372872D01*
X640842D01*
X643382Y370332D01*
Y372364D02*
X644906Y373888D01*
X646430D01*
X644906Y375412D01*
X646430Y376936D01*
X644906D01*
X643382Y378460D01*
X641858Y376936D01*
X640334D01*
X641858Y375412D01*
X640334Y373888D01*
X641858D01*
X643382Y372364D01*
X611886Y932942D02*
X614426Y935482D01*
X616966D01*
X614426Y938022D01*
X616966Y940562D01*
X614426D01*
X611886Y943102D01*
X609346Y940562D01*
X606806D01*
X609346Y938022D01*
X606806Y935482D01*
X609346D01*
X611886Y932942D01*
Y934974D02*
X613410Y936498D01*
X614934D01*
X613410Y938022D01*
X614934Y939546D01*
X613410D01*
X611886Y941070D01*
X610362Y939546D01*
X608838D01*
X610362Y938022D01*
X608838Y936498D01*
X610362D01*
X611886Y934974D01*
Y1031748D02*
X614426Y1034288D01*
X616966D01*
X614426Y1036828D01*
X616966Y1039368D01*
X614426D01*
X611886Y1041908D01*
X609346Y1039368D01*
X606806D01*
X609346Y1036828D01*
X606806Y1034288D01*
X609346D01*
X611886Y1031748D01*
Y1033780D02*
X613410Y1035304D01*
X614934D01*
X613410Y1036828D01*
X614934Y1038352D01*
X613410D01*
X611886Y1039876D01*
X610362Y1038352D01*
X608838D01*
X610362Y1036828D01*
X608838Y1035304D01*
X610362D01*
X611886Y1033780D01*
X619760Y632206D02*
X622300Y634746D01*
X624840D01*
X622300Y637286D01*
X624840Y639826D01*
X622300D01*
X619760Y642366D01*
X617220Y639826D01*
X614680D01*
X617220Y637286D01*
X614680Y634746D01*
X617220D01*
X619760Y632206D01*
Y634238D02*
X621284Y635762D01*
X622808D01*
X621284Y637286D01*
X622808Y638810D01*
X621284D01*
X619760Y640334D01*
X618236Y638810D01*
X616712D01*
X618236Y637286D01*
X616712Y635762D01*
X618236D01*
X619760Y634238D01*
X696468Y632206D02*
X699008Y634746D01*
X701548D01*
X699008Y637286D01*
X701548Y639826D01*
X699008D01*
X696468Y642366D01*
X693928Y639826D01*
X691388D01*
X693928Y637286D01*
X691388Y634746D01*
X693928D01*
X696468Y632206D01*
Y634238D02*
X697992Y635762D01*
X699516D01*
X697992Y637286D01*
X699516Y638810D01*
X697992D01*
X696468Y640334D01*
X694944Y638810D01*
X693420D01*
X694944Y637286D01*
X693420Y635762D01*
X694944D01*
X696468Y634238D01*
Y426974D02*
X699008Y429514D01*
X701548D01*
X699008Y432054D01*
X701548Y434594D01*
X699008D01*
X696468Y437134D01*
X693928Y434594D01*
X691388D01*
X693928Y432054D01*
X691388Y429514D01*
X693928D01*
X696468Y426974D01*
Y429006D02*
X697992Y430530D01*
X699516D01*
X697992Y432054D01*
X699516Y433578D01*
X697992D01*
X696468Y435102D01*
X694944Y433578D01*
X693420D01*
X694944Y432054D01*
X693420Y430530D01*
X694944D01*
X696468Y429006D01*
X595630Y1032002D02*
X598170Y1034542D01*
X600710D01*
X598170Y1037082D01*
X600710Y1039622D01*
X598170D01*
X595630Y1042162D01*
X593090Y1039622D01*
X590550D01*
X593090Y1037082D01*
X590550Y1034542D01*
X593090D01*
X595630Y1032002D01*
Y1034034D02*
X597154Y1035558D01*
X598678D01*
X597154Y1037082D01*
X598678Y1038606D01*
X597154D01*
X595630Y1040130D01*
X594106Y1038606D01*
X592582D01*
X594106Y1037082D01*
X592582Y1035558D01*
X594106D01*
X595630Y1034034D01*
X672084Y1037590D02*
X674624Y1040130D01*
X677164D01*
X674624Y1042670D01*
X677164Y1045210D01*
X674624D01*
X672084Y1047750D01*
X669544Y1045210D01*
X667004D01*
X669544Y1042670D01*
X667004Y1040130D01*
X669544D01*
X672084Y1037590D01*
Y1039622D02*
X673608Y1041146D01*
X675132D01*
X673608Y1042670D01*
X675132Y1044194D01*
X673608D01*
X672084Y1045718D01*
X670560Y1044194D01*
X669036D01*
X670560Y1042670D01*
X669036Y1041146D01*
X670560D01*
X672084Y1039622D01*
X678532Y487016D02*
X681072Y489556D01*
X683612D01*
X681072Y492096D01*
X683612Y494636D01*
X681072D01*
X678532Y497176D01*
X675992Y494636D01*
X673452D01*
X675992Y492096D01*
X673452Y489556D01*
X675992D01*
X678532Y487016D01*
Y489048D02*
X680056Y490572D01*
X681580D01*
X680056Y492096D01*
X681580Y493620D01*
X680056D01*
X678532Y495144D01*
X677008Y493620D01*
X675484D01*
X677008Y492096D01*
X675484Y490572D01*
X677008D01*
X678532Y489048D01*
X493776Y1015238D02*
X496316Y1017778D01*
X498856D01*
X496316Y1020318D01*
X498856Y1022858D01*
X496316D01*
X493776Y1025398D01*
X491236Y1022858D01*
X488696D01*
X491236Y1020318D01*
X488696Y1017778D01*
X491236D01*
X493776Y1015238D01*
Y1017270D02*
X495300Y1018794D01*
X496824D01*
X495300Y1020318D01*
X496824Y1021842D01*
X495300D01*
X493776Y1023366D01*
X492252Y1021842D01*
X490728D01*
X492252Y1020318D01*
X490728Y1018794D01*
X492252D01*
X493776Y1017270D01*
X681972Y1009142D02*
X684512Y1011682D01*
X687052D01*
X684512Y1014222D01*
X687052Y1016762D01*
X684512D01*
X681972Y1019302D01*
X679432Y1016762D01*
X676892D01*
X679432Y1014222D01*
X676892Y1011682D01*
X679432D01*
X681972Y1009142D01*
Y1011174D02*
X683496Y1012698D01*
X685020D01*
X683496Y1014222D01*
X685020Y1015746D01*
X683496D01*
X681972Y1017270D01*
X680448Y1015746D01*
X678924D01*
X680448Y1014222D01*
X678924Y1012698D01*
X680448D01*
X681972Y1011174D01*
Y938258D02*
X684512Y940798D01*
X687052D01*
X684512Y943338D01*
X687052Y945878D01*
X684512D01*
X681972Y948418D01*
X679432Y945878D01*
X676892D01*
X679432Y943338D01*
X676892Y940798D01*
X679432D01*
X681972Y938258D01*
Y940290D02*
X683496Y941814D01*
X685020D01*
X683496Y943338D01*
X685020Y944862D01*
X683496D01*
X681972Y946386D01*
X680448Y944862D01*
X678924D01*
X680448Y943338D01*
X678924Y941814D01*
X680448D01*
X681972Y940290D01*
X518160Y1009142D02*
X520700Y1011682D01*
X523240D01*
X520700Y1014222D01*
X523240Y1016762D01*
X520700D01*
X518160Y1019302D01*
X515620Y1016762D01*
X513080D01*
X515620Y1014222D01*
X513080Y1011682D01*
X515620D01*
X518160Y1009142D01*
Y1011174D02*
X519684Y1012698D01*
X521208D01*
X519684Y1014222D01*
X521208Y1015746D01*
X519684D01*
X518160Y1017270D01*
X516636Y1015746D01*
X515112D01*
X516636Y1014222D01*
X515112Y1012698D01*
X516636D01*
X518160Y1011174D01*
X629666Y625094D02*
X632206Y627634D01*
X634746D01*
X632206Y630174D01*
X634746Y632714D01*
X632206D01*
X629666Y635254D01*
X627126Y632714D01*
X624586D01*
X627126Y630174D01*
X624586Y627634D01*
X627126D01*
X629666Y625094D01*
Y627126D02*
X631190Y628650D01*
X632714D01*
X631190Y630174D01*
X632714Y631698D01*
X631190D01*
X629666Y633222D01*
X628142Y631698D01*
X626618D01*
X628142Y630174D01*
X626618Y628650D01*
X628142D01*
X629666Y627126D01*
Y951484D02*
X632206Y954024D01*
X634746D01*
X632206Y956564D01*
X634746Y959104D01*
X632206D01*
X629666Y961644D01*
X627126Y959104D01*
X624586D01*
X627126Y956564D01*
X624586Y954024D01*
X627126D01*
X629666Y951484D01*
Y953516D02*
X631190Y955040D01*
X632714D01*
X631190Y956564D01*
X632714Y958088D01*
X631190D01*
X629666Y959612D01*
X628142Y958088D01*
X626618D01*
X628142Y956564D01*
X626618Y955040D01*
X628142D01*
X629666Y953516D01*
X719888Y625094D02*
X722428Y627634D01*
X724968D01*
X722428Y630174D01*
X724968Y632714D01*
X722428D01*
X719888Y635254D01*
X717348Y632714D01*
X714808D01*
X717348Y630174D01*
X714808Y627634D01*
X717348D01*
X719888Y625094D01*
Y627126D02*
X721412Y628650D01*
X722936D01*
X721412Y630174D01*
X722936Y631698D01*
X721412D01*
X719888Y633222D01*
X718364Y631698D01*
X716840D01*
X718364Y630174D01*
X716840Y628650D01*
X718364D01*
X719888Y627126D01*
X734000Y884174D02*
X736540Y886714D01*
X739080D01*
X736540Y889254D01*
X739080Y891794D01*
X736540D01*
X734000Y894334D01*
X731460Y891794D01*
X728920D01*
X731460Y889254D01*
X728920Y886714D01*
X731460D01*
X734000Y884174D01*
Y886206D02*
X735524Y887730D01*
X737048D01*
X735524Y889254D01*
X737048Y890778D01*
X735524D01*
X734000Y892302D01*
X732476Y890778D01*
X730952D01*
X732476Y889254D01*
X730952Y887730D01*
X732476D01*
X734000Y886206D01*
X571246Y884174D02*
X573786Y886714D01*
X576326D01*
X573786Y889254D01*
X576326Y891794D01*
X573786D01*
X571246Y894334D01*
X568706Y891794D01*
X566166D01*
X568706Y889254D01*
X566166Y886714D01*
X568706D01*
X571246Y884174D01*
Y886206D02*
X572770Y887730D01*
X574294D01*
X572770Y889254D01*
X574294Y890778D01*
X572770D01*
X571246Y892302D01*
X569722Y890778D01*
X568198D01*
X569722Y889254D01*
X568198Y887730D01*
X569722D01*
X571246Y886206D01*
X726440Y617719D02*
X728980Y620259D01*
X731520D01*
X728980Y622799D01*
X731520Y625339D01*
X728980D01*
X726440Y627879D01*
X723900Y625339D01*
X721360D01*
X723900Y622799D01*
X721360Y620259D01*
X723900D01*
X726440Y617719D01*
Y619751D02*
X727964Y621275D01*
X729488D01*
X727964Y622799D01*
X729488Y624323D01*
X727964D01*
X726440Y625847D01*
X724916Y624323D01*
X723392D01*
X724916Y622799D01*
X723392Y621275D01*
X724916D01*
X726440Y619751D01*
X772532Y396494D02*
X775072Y399034D01*
X777612D01*
X775072Y401574D01*
X777612Y404114D01*
X775072D01*
X772532Y406654D01*
X769992Y404114D01*
X767452D01*
X769992Y401574D01*
X767452Y399034D01*
X769992D01*
X772532Y396494D01*
Y398526D02*
X774056Y400050D01*
X775580D01*
X774056Y401574D01*
X775580Y403098D01*
X774056D01*
X772532Y404622D01*
X771008Y403098D01*
X769484D01*
X771008Y401574D01*
X769484Y400050D01*
X771008D01*
X772532Y398526D01*
X601218Y404622D02*
X603758Y407162D01*
X606298D01*
X603758Y409702D01*
X606298Y412242D01*
X603758D01*
X601218Y414782D01*
X598678Y412242D01*
X596138D01*
X598678Y409702D01*
X596138Y407162D01*
X598678D01*
X601218Y404622D01*
Y406654D02*
X602742Y408178D01*
X604266D01*
X602742Y409702D01*
X604266Y411226D01*
X602742D01*
X601218Y412750D01*
X599694Y411226D01*
X598170D01*
X599694Y409702D01*
X598170Y408178D01*
X599694D01*
X601218Y406654D01*
Y366522D02*
X603758Y369062D01*
X606298D01*
X603758Y371602D01*
X606298Y374142D01*
X603758D01*
X601218Y376682D01*
X598678Y374142D01*
X596138D01*
X598678Y371602D01*
X596138Y369062D01*
X598678D01*
X601218Y366522D01*
Y368554D02*
X602742Y370078D01*
X604266D01*
X602742Y371602D01*
X604266Y373126D01*
X602742D01*
X601218Y374650D01*
X599694Y373126D01*
X598170D01*
X599694Y371602D01*
X598170Y370078D01*
X599694D01*
X601218Y368554D01*
X582070Y273812D02*
X584610Y276352D01*
X587150D01*
X584610Y278892D01*
X587150Y281432D01*
X584610D01*
X582070Y283972D01*
X579530Y281432D01*
X576990D01*
X579530Y278892D01*
X576990Y276352D01*
X579530D01*
X582070Y273812D01*
Y275844D02*
X583594Y277368D01*
X585118D01*
X583594Y278892D01*
X585118Y280416D01*
X583594D01*
X582070Y281940D01*
X580546Y280416D01*
X579022D01*
X580546Y278892D01*
X579022Y277368D01*
X580546D01*
X582070Y275844D01*
Y357476D02*
X584610Y360016D01*
X587150D01*
X584610Y362556D01*
X587150Y365096D01*
X584610D01*
X582070Y367636D01*
X579530Y365096D01*
X576990D01*
X579530Y362556D01*
X576990Y360016D01*
X579530D01*
X582070Y357476D01*
Y359508D02*
X583594Y361032D01*
X585118D01*
X583594Y362556D01*
X585118Y364080D01*
X583594D01*
X582070Y365604D01*
X580546Y364080D01*
X579022D01*
X580546Y362556D01*
X579022Y361032D01*
X580546D01*
X582070Y359508D01*
X606552Y433832D02*
X609092Y436372D01*
X611632D01*
X609092Y438912D01*
X611632Y441452D01*
X609092D01*
X606552Y443992D01*
X604012Y441452D01*
X601472D01*
X604012Y438912D01*
X601472Y436372D01*
X604012D01*
X606552Y433832D01*
Y435864D02*
X608076Y437388D01*
X609600D01*
X608076Y438912D01*
X609600Y440436D01*
X608076D01*
X606552Y441960D01*
X605028Y440436D01*
X603504D01*
X605028Y438912D01*
X603504Y437388D01*
X605028D01*
X606552Y435864D01*
Y417576D02*
X609092Y420116D01*
X611632D01*
X609092Y422656D01*
X611632Y425196D01*
X609092D01*
X606552Y427736D01*
X604012Y425196D01*
X601472D01*
X604012Y422656D01*
X601472Y420116D01*
X604012D01*
X606552Y417576D01*
Y419608D02*
X608076Y421132D01*
X609600D01*
X608076Y422656D01*
X609600Y424180D01*
X608076D01*
X606552Y425704D01*
X605028Y424180D01*
X603504D01*
X605028Y422656D01*
X603504Y421132D01*
X605028D01*
X606552Y419608D01*
X403352Y417576D02*
X405892Y420116D01*
X408432D01*
X405892Y422656D01*
X408432Y425196D01*
X405892D01*
X403352Y427736D01*
X400812Y425196D01*
X398272D01*
X400812Y422656D01*
X398272Y420116D01*
X400812D01*
X403352Y417576D01*
Y419608D02*
X404876Y421132D01*
X406400D01*
X404876Y422656D01*
X406400Y424180D01*
X404876D01*
X403352Y425704D01*
X401828Y424180D01*
X400304D01*
X401828Y422656D01*
X400304Y421132D01*
X401828D01*
X403352Y419608D01*
Y397002D02*
X405892Y399542D01*
X408432D01*
X405892Y402082D01*
X408432Y404622D01*
X405892D01*
X403352Y407162D01*
X400812Y404622D01*
X398272D01*
X400812Y402082D01*
X398272Y399542D01*
X400812D01*
X403352Y397002D01*
Y399034D02*
X404876Y400558D01*
X406400D01*
X404876Y402082D01*
X406400Y403606D01*
X404876D01*
X403352Y405130D01*
X401828Y403606D01*
X400304D01*
X401828Y402082D01*
X400304Y400558D01*
X401828D01*
X403352Y399034D01*
X624722Y322698D02*
X627262Y325238D01*
X629802D01*
X627262Y327778D01*
X629802Y330318D01*
X627262D01*
X624722Y332858D01*
X622182Y330318D01*
X619642D01*
X622182Y327778D01*
X619642Y325238D01*
X622182D01*
X624722Y322698D01*
Y324730D02*
X626246Y326254D01*
X627770D01*
X626246Y327778D01*
X627770Y329302D01*
X626246D01*
X624722Y330826D01*
X623198Y329302D01*
X621674D01*
X623198Y327778D01*
X621674Y326254D01*
X623198D01*
X624722Y324730D01*
Y440436D02*
X627262Y442976D01*
X629802D01*
X627262Y445516D01*
X629802Y448056D01*
X627262D01*
X624722Y450596D01*
X622182Y448056D01*
X619642D01*
X622182Y445516D01*
X619642Y442976D01*
X622182D01*
X624722Y440436D01*
Y442468D02*
X626246Y443992D01*
X627770D01*
X626246Y445516D01*
X627770Y447040D01*
X626246D01*
X624722Y448564D01*
X623198Y447040D01*
X621674D01*
X623198Y445516D01*
X621674Y443992D01*
X623198D01*
X624722Y442468D01*
X459740Y294132D02*
X462280Y296672D01*
X464820D01*
X462280Y299212D01*
X464820Y301752D01*
X462280D01*
X459740Y304292D01*
X457200Y301752D01*
X454660D01*
X457200Y299212D01*
X454660Y296672D01*
X457200D01*
X459740Y294132D01*
Y296164D02*
X461264Y297688D01*
X462788D01*
X461264Y299212D01*
X462788Y300736D01*
X461264D01*
X459740Y302260D01*
X458216Y300736D01*
X456692D01*
X458216Y299212D01*
X456692Y297688D01*
X458216D01*
X459740Y296164D01*
Y405130D02*
X462280Y407670D01*
X464820D01*
X462280Y410210D01*
X464820Y412750D01*
X462280D01*
X459740Y415290D01*
X457200Y412750D01*
X454660D01*
X457200Y410210D01*
X454660Y407670D01*
X457200D01*
X459740Y405130D01*
Y407162D02*
X461264Y408686D01*
X462788D01*
X461264Y410210D01*
X462788Y411734D01*
X461264D01*
X459740Y413258D01*
X458216Y411734D01*
X456692D01*
X458216Y410210D01*
X456692Y408686D01*
X458216D01*
X459740Y407162D01*
X344424Y366522D02*
X346964Y369062D01*
X349504D01*
X346964Y371602D01*
X349504Y374142D01*
X346964D01*
X344424Y376682D01*
X341884Y374142D01*
X339344D01*
X341884Y371602D01*
X339344Y369062D01*
X341884D01*
X344424Y366522D01*
Y368554D02*
X345948Y370078D01*
X347472D01*
X345948Y371602D01*
X347472Y373126D01*
X345948D01*
X344424Y374650D01*
X342900Y373126D01*
X341376D01*
X342900Y371602D01*
X341376Y370078D01*
X342900D01*
X344424Y368554D01*
X432562Y772922D02*
X427482Y783082D01*
X437642D01*
X432562Y772922D01*
Y774954D02*
X429514Y781050D01*
X435610D01*
X432562Y774954D01*
Y947928D02*
X427482Y958088D01*
X437642D01*
X432562Y947928D01*
Y949960D02*
X429514Y956056D01*
X435610D01*
X432562Y949960D01*
X474472Y1124458D02*
X477012Y1126998D01*
X479552D01*
X477012Y1129538D01*
X479552Y1132078D01*
X477012D01*
X474472Y1134618D01*
X471932Y1132078D01*
X469392D01*
X471932Y1129538D01*
X469392Y1126998D01*
X471932D01*
X474472Y1124458D01*
Y1126490D02*
X475996Y1128014D01*
X477520D01*
X475996Y1129538D01*
X477520Y1131062D01*
X475996D01*
X474472Y1132586D01*
X472948Y1131062D01*
X471424D01*
X472948Y1129538D01*
X471424Y1128014D01*
X472948D01*
X474472Y1126490D01*
X465582Y1129792D02*
X468122Y1132332D01*
X470662D01*
X468122Y1134872D01*
X470662Y1137412D01*
X468122D01*
X465582Y1139952D01*
X463042Y1137412D01*
X460502D01*
X463042Y1134872D01*
X460502Y1132332D01*
X463042D01*
X465582Y1129792D01*
Y1131824D02*
X467106Y1133348D01*
X468630D01*
X467106Y1134872D01*
X468630Y1136396D01*
X467106D01*
X465582Y1137920D01*
X464058Y1136396D01*
X462534D01*
X464058Y1134872D01*
X462534Y1133348D01*
X464058D01*
X465582Y1131824D01*
X463550Y1105662D02*
X466090Y1108202D01*
X468630D01*
X466090Y1110742D01*
X468630Y1113282D01*
X466090D01*
X463550Y1115822D01*
X461010Y1113282D01*
X458470D01*
X461010Y1110742D01*
X458470Y1108202D01*
X461010D01*
X463550Y1105662D01*
Y1107694D02*
X465074Y1109218D01*
X466598D01*
X465074Y1110742D01*
X466598Y1112266D01*
X465074D01*
X463550Y1113790D01*
X462026Y1112266D01*
X460502D01*
X462026Y1110742D01*
X460502Y1109218D01*
X462026D01*
X463550Y1107694D01*
X539496Y1083056D02*
X542036Y1085596D01*
X544576D01*
X542036Y1088136D01*
X544576Y1090676D01*
X542036D01*
X539496Y1093216D01*
X536956Y1090676D01*
X534416D01*
X536956Y1088136D01*
X534416Y1085596D01*
X536956D01*
X539496Y1083056D01*
Y1085088D02*
X541020Y1086612D01*
X542544D01*
X541020Y1088136D01*
X542544Y1089660D01*
X541020D01*
X539496Y1091184D01*
X537972Y1089660D01*
X536448D01*
X537972Y1088136D01*
X536448Y1086612D01*
X537972D01*
X539496Y1085088D01*
X528066Y964946D02*
X530606Y967486D01*
X533146D01*
X530606Y970026D01*
X533146Y972566D01*
X530606D01*
X528066Y975106D01*
X525526Y972566D01*
X522986D01*
X525526Y970026D01*
X522986Y967486D01*
X525526D01*
X528066Y964946D01*
Y966978D02*
X529590Y968502D01*
X531114D01*
X529590Y970026D01*
X531114Y971550D01*
X529590D01*
X528066Y973074D01*
X526542Y971550D01*
X525018D01*
X526542Y970026D01*
X525018Y968502D01*
X526542D01*
X528066Y966978D01*
X557530Y993902D02*
X560070Y996442D01*
X562610D01*
X560070Y998982D01*
X562610Y1001522D01*
X560070D01*
X557530Y1004062D01*
X554990Y1001522D01*
X552450D01*
X554990Y998982D01*
X552450Y996442D01*
X554990D01*
X557530Y993902D01*
Y995934D02*
X559054Y997458D01*
X560578D01*
X559054Y998982D01*
X560578Y1000506D01*
X559054D01*
X557530Y1002030D01*
X556006Y1000506D01*
X554482D01*
X556006Y998982D01*
X554482Y997458D01*
X556006D01*
X557530Y995934D01*
X547370Y1081786D02*
X549910Y1084326D01*
X552450D01*
X549910Y1086866D01*
X552450Y1089406D01*
X549910D01*
X547370Y1091946D01*
X544830Y1089406D01*
X542290D01*
X544830Y1086866D01*
X542290Y1084326D01*
X544830D01*
X547370Y1081786D01*
Y1083818D02*
X548894Y1085342D01*
X550418D01*
X548894Y1086866D01*
X550418Y1088390D01*
X548894D01*
X547370Y1089914D01*
X545846Y1088390D01*
X544322D01*
X545846Y1086866D01*
X544322Y1085342D01*
X545846D01*
X547370Y1083818D01*
X557530Y1081786D02*
X560070Y1084326D01*
X562610D01*
X560070Y1086866D01*
X562610Y1089406D01*
X560070D01*
X557530Y1091946D01*
X554990Y1089406D01*
X552450D01*
X554990Y1086866D01*
X552450Y1084326D01*
X554990D01*
X557530Y1081786D01*
Y1083818D02*
X559054Y1085342D01*
X560578D01*
X559054Y1086866D01*
X560578Y1088390D01*
X559054D01*
X557530Y1089914D01*
X556006Y1088390D01*
X554482D01*
X556006Y1086866D01*
X554482Y1085342D01*
X556006D01*
X557530Y1083818D01*
X560578Y525272D02*
X563118Y527812D01*
X565658D01*
X563118Y530352D01*
X565658Y532892D01*
X563118D01*
X560578Y535432D01*
X558038Y532892D01*
X555498D01*
X558038Y530352D01*
X555498Y527812D01*
X558038D01*
X560578Y525272D01*
Y527304D02*
X562102Y528828D01*
X563626D01*
X562102Y530352D01*
X563626Y531876D01*
X562102D01*
X560578Y533400D01*
X559054Y531876D01*
X557530D01*
X559054Y530352D01*
X557530Y528828D01*
X559054D01*
X560578Y527304D01*
X665532Y752296D02*
X668072Y754836D01*
X670612D01*
X668072Y757376D01*
X670612Y759916D01*
X668072D01*
X665532Y762456D01*
X662992Y759916D01*
X660452D01*
X662992Y757376D01*
X660452Y754836D01*
X662992D01*
X665532Y752296D01*
Y754328D02*
X667056Y755852D01*
X668580D01*
X667056Y757376D01*
X668580Y758900D01*
X667056D01*
X665532Y760424D01*
X664008Y758900D01*
X662484D01*
X664008Y757376D01*
X662484Y755852D01*
X664008D01*
X665532Y754328D01*
Y486866D02*
X668072Y489406D01*
X670612D01*
X668072Y491946D01*
X670612Y494486D01*
X668072D01*
X665532Y497026D01*
X662992Y494486D01*
X660452D01*
X662992Y491946D01*
X660452Y489406D01*
X662992D01*
X665532Y486866D01*
Y488898D02*
X667056Y490422D01*
X668580D01*
X667056Y491946D01*
X668580Y493470D01*
X667056D01*
X665532Y494994D01*
X664008Y493470D01*
X662484D01*
X664008Y491946D01*
X662484Y490422D01*
X664008D01*
X665532Y488898D01*
X740000Y504346D02*
X742540Y506886D01*
X745080D01*
X742540Y509426D01*
X745080Y511966D01*
X742540D01*
X740000Y514506D01*
X737460Y511966D01*
X734920D01*
X737460Y509426D01*
X734920Y506886D01*
X737460D01*
X740000Y504346D01*
Y506378D02*
X741524Y507902D01*
X743048D01*
X741524Y509426D01*
X743048Y510950D01*
X741524D01*
X740000Y512474D01*
X738476Y510950D01*
X736952D01*
X738476Y509426D01*
X736952Y507902D01*
X738476D01*
X740000Y506378D01*
Y541118D02*
X742540Y543658D01*
X745080D01*
X742540Y546198D01*
X745080Y548738D01*
X742540D01*
X740000Y551278D01*
X737460Y548738D01*
X734920D01*
X737460Y546198D01*
X734920Y543658D01*
X737460D01*
X740000Y541118D01*
Y543150D02*
X741524Y544674D01*
X743048D01*
X741524Y546198D01*
X743048Y547722D01*
X741524D01*
X740000Y549246D01*
X738476Y547722D01*
X736952D01*
X738476Y546198D01*
X736952Y544674D01*
X738476D01*
X740000Y543150D01*
X476370Y1225804D02*
X478910Y1228344D01*
X481450D01*
X478910Y1230884D01*
X481450Y1233424D01*
X478910D01*
X476370Y1235964D01*
X473830Y1233424D01*
X471290D01*
X473830Y1230884D01*
X471290Y1228344D01*
X473830D01*
X476370Y1225804D01*
Y1227836D02*
X477894Y1229360D01*
X479418D01*
X477894Y1230884D01*
X479418Y1232408D01*
X477894D01*
X476370Y1233932D01*
X474846Y1232408D01*
X473322D01*
X474846Y1230884D01*
X473322Y1229360D01*
X474846D01*
X476370Y1227836D01*
X469392Y1163454D02*
X471932Y1165994D01*
X474472D01*
X471932Y1168534D01*
X474472Y1171074D01*
X471932D01*
X469392Y1173614D01*
X466852Y1171074D01*
X464312D01*
X466852Y1168534D01*
X464312Y1165994D01*
X466852D01*
X469392Y1163454D01*
Y1165486D02*
X470916Y1167010D01*
X472440D01*
X470916Y1168534D01*
X472440Y1170058D01*
X470916D01*
X469392Y1171582D01*
X467868Y1170058D01*
X466344D01*
X467868Y1168534D01*
X466344Y1167010D01*
X467868D01*
X469392Y1165486D01*
X476370Y1148454D02*
X478910Y1150994D01*
X481450D01*
X478910Y1153534D01*
X481450Y1156074D01*
X478910D01*
X476370Y1158614D01*
X473830Y1156074D01*
X471290D01*
X473830Y1153534D01*
X471290Y1150994D01*
X473830D01*
X476370Y1148454D01*
Y1150486D02*
X477894Y1152010D01*
X479418D01*
X477894Y1153534D01*
X479418Y1155058D01*
X477894D01*
X476370Y1156582D01*
X474846Y1155058D01*
X473322D01*
X474846Y1153534D01*
X473322Y1152010D01*
X474846D01*
X476370Y1150486D01*
X686934Y1055624D02*
X689474Y1058164D01*
X692014D01*
X689474Y1060704D01*
X692014Y1063244D01*
X689474D01*
X686934Y1065784D01*
X684394Y1063244D01*
X681854D01*
X684394Y1060704D01*
X681854Y1058164D01*
X684394D01*
X686934Y1055624D01*
Y1057656D02*
X688458Y1059180D01*
X689982D01*
X688458Y1060704D01*
X689982Y1062228D01*
X688458D01*
X686934Y1063752D01*
X685410Y1062228D01*
X683886D01*
X685410Y1060704D01*
X683886Y1059180D01*
X685410D01*
X686934Y1057656D01*
X443992Y1172972D02*
X446532Y1175512D01*
X449072D01*
X446532Y1178052D01*
X449072Y1180592D01*
X446532D01*
X443992Y1183132D01*
X441452Y1180592D01*
X438912D01*
X441452Y1178052D01*
X438912Y1175512D01*
X441452D01*
X443992Y1172972D01*
Y1175004D02*
X445516Y1176528D01*
X447040D01*
X445516Y1178052D01*
X447040Y1179576D01*
X445516D01*
X443992Y1181100D01*
X442468Y1179576D01*
X440944D01*
X442468Y1178052D01*
X440944Y1176528D01*
X442468D01*
X443992Y1175004D01*
X705866Y1168454D02*
X708406Y1170994D01*
X710946D01*
X708406Y1173534D01*
X710946Y1176074D01*
X708406D01*
X705866Y1178614D01*
X703326Y1176074D01*
X700786D01*
X703326Y1173534D01*
X700786Y1170994D01*
X703326D01*
X705866Y1168454D01*
Y1170486D02*
X707390Y1172010D01*
X708914D01*
X707390Y1173534D01*
X708914Y1175058D01*
X707390D01*
X705866Y1176582D01*
X704342Y1175058D01*
X702818D01*
X704342Y1173534D01*
X702818Y1172010D01*
X704342D01*
X705866Y1170486D01*
X712072Y1189084D02*
X714612Y1191624D01*
X717152D01*
X714612Y1194164D01*
X717152Y1196704D01*
X714612D01*
X712072Y1199244D01*
X709532Y1196704D01*
X706992D01*
X709532Y1194164D01*
X706992Y1191624D01*
X709532D01*
X712072Y1189084D01*
Y1191116D02*
X713596Y1192640D01*
X715120D01*
X713596Y1194164D01*
X715120Y1195688D01*
X713596D01*
X712072Y1197212D01*
X710548Y1195688D01*
X709024D01*
X710548Y1194164D01*
X709024Y1192640D01*
X710548D01*
X712072Y1191116D01*
X728980Y1240536D02*
X731520Y1243076D01*
X734060D01*
X731520Y1245616D01*
X734060Y1248156D01*
X731520D01*
X728980Y1250696D01*
X726440Y1248156D01*
X723900D01*
X726440Y1245616D01*
X723900Y1243076D01*
X726440D01*
X728980Y1240536D01*
Y1242568D02*
X730504Y1244092D01*
X732028D01*
X730504Y1245616D01*
X732028Y1247140D01*
X730504D01*
X728980Y1248664D01*
X727456Y1247140D01*
X725932D01*
X727456Y1245616D01*
X725932Y1244092D01*
X727456D01*
X728980Y1242568D01*
X719074Y1259586D02*
X721614Y1262126D01*
X724154D01*
X721614Y1264666D01*
X724154Y1267206D01*
X721614D01*
X719074Y1269746D01*
X716534Y1267206D01*
X713994D01*
X716534Y1264666D01*
X713994Y1262126D01*
X716534D01*
X719074Y1259586D01*
Y1261618D02*
X720598Y1263142D01*
X722122D01*
X720598Y1264666D01*
X722122Y1266190D01*
X720598D01*
X719074Y1267714D01*
X717550Y1266190D01*
X716026D01*
X717550Y1264666D01*
X716026Y1263142D01*
X717550D01*
X719074Y1261618D01*
X712072Y1266334D02*
X714612Y1268874D01*
X717152D01*
X714612Y1271414D01*
X717152Y1273954D01*
X714612D01*
X712072Y1276494D01*
X709532Y1273954D01*
X706992D01*
X709532Y1271414D01*
X706992Y1268874D01*
X709532D01*
X712072Y1266334D01*
Y1268366D02*
X713596Y1269890D01*
X715120D01*
X713596Y1271414D01*
X715120Y1272938D01*
X713596D01*
X712072Y1274462D01*
X710548Y1272938D01*
X709024D01*
X710548Y1271414D01*
X709024Y1269890D01*
X710548D01*
X712072Y1268366D01*
X794114Y1281574D02*
X796654Y1284114D01*
X799194D01*
X796654Y1286654D01*
X799194Y1289194D01*
X796654D01*
X794114Y1291734D01*
X791574Y1289194D01*
X789034D01*
X791574Y1286654D01*
X789034Y1284114D01*
X791574D01*
X794114Y1281574D01*
Y1283606D02*
X795638Y1285130D01*
X797162D01*
X795638Y1286654D01*
X797162Y1288178D01*
X795638D01*
X794114Y1289702D01*
X792590Y1288178D01*
X791066D01*
X792590Y1286654D01*
X791066Y1285130D01*
X792590D01*
X794114Y1283606D01*
X546227Y1257173D02*
X548767Y1259713D01*
X551307D01*
X548767Y1262253D01*
X551307Y1264793D01*
X548767D01*
X546227Y1267333D01*
X543687Y1264793D01*
X541147D01*
X543687Y1262253D01*
X541147Y1259713D01*
X543687D01*
X546227Y1257173D01*
Y1259205D02*
X547751Y1260729D01*
X549275D01*
X547751Y1262253D01*
X549275Y1263777D01*
X547751D01*
X546227Y1265301D01*
X544703Y1263777D01*
X543179D01*
X544703Y1262253D01*
X543179Y1260729D01*
X544703D01*
X546227Y1259205D01*
X568706Y1264920D02*
X571246Y1267460D01*
X573786D01*
X571246Y1270000D01*
X573786Y1272540D01*
X571246D01*
X568706Y1275080D01*
X566166Y1272540D01*
X563626D01*
X566166Y1270000D01*
X563626Y1267460D01*
X566166D01*
X568706Y1264920D01*
Y1266952D02*
X570230Y1268476D01*
X571754D01*
X570230Y1270000D01*
X571754Y1271524D01*
X570230D01*
X568706Y1273048D01*
X567182Y1271524D01*
X565658D01*
X567182Y1270000D01*
X565658Y1268476D01*
X567182D01*
X568706Y1266952D01*
X464820Y448310D02*
X459740Y458470D01*
X469900D01*
X464820Y448310D01*
Y450342D02*
X461772Y456438D01*
X467868D01*
X464820Y450342D01*
Y464820D02*
X459740Y474980D01*
X469900D01*
X464820Y464820D01*
Y466852D02*
X461772Y472948D01*
X467868D01*
X464820Y466852D01*
X447040Y545846D02*
X441960Y556006D01*
X452120D01*
X447040Y545846D01*
Y547878D02*
X443992Y553974D01*
X450088D01*
X447040Y547878D01*
X463550Y531876D02*
X458470Y542036D01*
X468630D01*
X463550Y531876D01*
Y533908D02*
X460502Y540004D01*
X466598D01*
X463550Y533908D01*
X447294Y531876D02*
X442214Y542036D01*
X452374D01*
X447294Y531876D01*
Y533908D02*
X444246Y540004D01*
X450342D01*
X447294Y533908D01*
X518414Y464566D02*
X513334Y474726D01*
X523494D01*
X518414Y464566D01*
Y466598D02*
X515366Y472694D01*
X521462D01*
X518414Y466598D01*
X536194Y447040D02*
X531114Y457200D01*
X541274D01*
X536194Y447040D01*
Y449072D02*
X533146Y455168D01*
X539242D01*
X536194Y449072D01*
X518414Y447040D02*
X513334Y457200D01*
X523494D01*
X518414Y447040D01*
Y449072D02*
X515366Y455168D01*
X521462D01*
X518414Y449072D01*
X439420Y514350D02*
X441960Y519430D01*
X439420Y524510D01*
X444500Y521970D01*
X449580Y524510D01*
X447040Y519430D01*
X449580Y514350D01*
X444500Y516890D01*
X439420Y514350D01*
X441452Y516382D02*
X442976Y519430D01*
X441452Y522478D01*
X444500Y520954D01*
X447548Y522478D01*
X446024Y519430D01*
X447548Y516382D01*
X444500Y517906D01*
X441452Y516382D01*
X457200Y514350D02*
X459740Y519430D01*
X457200Y524510D01*
X462280Y521970D01*
X467360Y524510D01*
X464820Y519430D01*
X467360Y514350D01*
X462280Y516890D01*
X457200Y514350D01*
X459232Y516382D02*
X460756Y519430D01*
X459232Y522478D01*
X462280Y520954D01*
X465328Y522478D01*
X463804Y519430D01*
X465328Y516382D01*
X462280Y517906D01*
X459232Y516382D01*
X457200Y505629D02*
X459740Y510709D01*
X457200Y515789D01*
X462280Y513249D01*
X467360Y515789D01*
X464820Y510709D01*
X467360Y505629D01*
X462280Y508169D01*
X457200Y505629D01*
X459232Y507661D02*
X460756Y510709D01*
X459232Y513757D01*
X462280Y512233D01*
X465328Y513757D01*
X463804Y510709D01*
X465328Y507661D01*
X462280Y509185D01*
X459232Y507661D01*
X457200Y496908D02*
X459740Y501988D01*
X457200Y507068D01*
X462280Y504529D01*
X467360Y507068D01*
X464820Y501988D01*
X467360Y496908D01*
X462280Y499449D01*
X457200Y496908D01*
X459232Y498941D02*
X460756Y501988D01*
X459232Y505037D01*
X462280Y503512D01*
X465328Y505037D01*
X463804Y501988D01*
X465328Y498941D01*
X462280Y500465D01*
X459232Y498941D01*
X457200Y488188D02*
X459740Y493268D01*
X457200Y498348D01*
X462280Y495808D01*
X467360Y498348D01*
X464820Y493268D01*
X467360Y488188D01*
X462280Y490728D01*
X457200Y488188D01*
X459232Y490220D02*
X460756Y493268D01*
X459232Y496316D01*
X462280Y494792D01*
X465328Y496316D01*
X463804Y493268D01*
X465328Y490220D01*
X462280Y491744D01*
X459232Y490220D01*
X448310Y514350D02*
X450850Y519430D01*
X448310Y524510D01*
X453390Y521970D01*
X458470Y524510D01*
X455930Y519430D01*
X458470Y514350D01*
X453390Y516890D01*
X448310Y514350D01*
X450342Y516382D02*
X451866Y519430D01*
X450342Y522478D01*
X453390Y520954D01*
X456438Y522478D01*
X454914Y519430D01*
X456438Y516382D01*
X453390Y517906D01*
X450342Y516382D01*
X448310Y505629D02*
X450850Y510709D01*
X448310Y515789D01*
X453390Y513249D01*
X458470Y515789D01*
X455930Y510709D01*
X458470Y505629D01*
X453390Y508169D01*
X448310Y505629D01*
X450342Y507661D02*
X451866Y510709D01*
X450342Y513757D01*
X453390Y512233D01*
X456438Y513757D01*
X454914Y510709D01*
X456438Y507661D01*
X453390Y509185D01*
X450342Y507661D01*
X448310Y496908D02*
X450850Y501988D01*
X448310Y507068D01*
X453390Y504529D01*
X458470Y507068D01*
X455930Y501988D01*
X458470Y496908D01*
X453390Y499449D01*
X448310Y496908D01*
X450342Y498941D02*
X451866Y501988D01*
X450342Y505037D01*
X453390Y503512D01*
X456438Y505037D01*
X454914Y501988D01*
X456438Y498941D01*
X453390Y500465D01*
X450342Y498941D01*
X448310Y488188D02*
X450850Y493268D01*
X448310Y498348D01*
X453390Y495808D01*
X458470Y498348D01*
X455930Y493268D01*
X458470Y488188D01*
X453390Y490728D01*
X448310Y488188D01*
X450342Y490220D02*
X451866Y493268D01*
X450342Y496316D01*
X453390Y494792D01*
X456438Y496316D01*
X454914Y493268D01*
X456438Y490220D01*
X453390Y491744D01*
X450342Y490220D01*
X411480Y448310D02*
X406400Y458470D01*
X416560D01*
X411480Y448310D01*
Y450342D02*
X408432Y456438D01*
X414528D01*
X411480Y450342D01*
X429260Y448310D02*
X424180Y458470D01*
X434340D01*
X429260Y448310D01*
Y450342D02*
X426212Y456438D01*
X432308D01*
X429260Y450342D01*
Y464820D02*
X424180Y474980D01*
X434340D01*
X429260Y464820D01*
Y466852D02*
X426212Y472948D01*
X432308D01*
X429260Y466852D01*
X447040Y464820D02*
X441960Y474980D01*
X452120D01*
X447040Y464820D01*
Y466852D02*
X443992Y472948D01*
X450088D01*
X447040Y466852D01*
Y448310D02*
X441960Y458470D01*
X452120D01*
X447040Y448310D01*
Y450342D02*
X443992Y456438D01*
X450088D01*
X447040Y450342D01*
X337566Y566420D02*
X332486Y576580D01*
X342646D01*
X337566Y566420D01*
Y568452D02*
X334518Y574548D01*
X340614D01*
X337566Y568452D01*
X359410Y566420D02*
X354330Y576580D01*
X364490D01*
X359410Y566420D01*
Y568452D02*
X356362Y574548D01*
X362458D01*
X359410Y568452D01*
X431038Y545846D02*
X425958Y556006D01*
X436118D01*
X431038Y545846D01*
Y547878D02*
X427990Y553974D01*
X434086D01*
X431038Y547878D01*
X393700Y448310D02*
X388620Y458470D01*
X398780D01*
X393700Y448310D01*
Y450342D02*
X390652Y456438D01*
X396748D01*
X393700Y450342D01*
X340360Y448310D02*
X335280Y458470D01*
X345440D01*
X340360Y448310D01*
Y450342D02*
X337312Y456438D01*
X343408D01*
X340360Y450342D01*
X358140Y448310D02*
X353060Y458470D01*
X363220D01*
X358140Y448310D01*
Y450342D02*
X355092Y456438D01*
X361188D01*
X358140Y450342D01*
X375920Y448310D02*
X370840Y458470D01*
X381000D01*
X375920Y448310D01*
Y450342D02*
X372872Y456438D01*
X378968D01*
X375920Y450342D01*
X439420Y505629D02*
X441960Y510709D01*
X439420Y515789D01*
X444500Y513249D01*
X449580Y515789D01*
X447040Y510709D01*
X449580Y505629D01*
X444500Y508169D01*
X439420Y505629D01*
X441452Y507661D02*
X442976Y510709D01*
X441452Y513757D01*
X444500Y512233D01*
X447548Y513757D01*
X446024Y510709D01*
X447548Y507661D01*
X444500Y509185D01*
X441452Y507661D01*
X439420Y496908D02*
X441960Y501988D01*
X439420Y507068D01*
X444500Y504529D01*
X449580Y507068D01*
X447040Y501988D01*
X449580Y496908D01*
X444500Y499449D01*
X439420Y496908D01*
X441452Y498941D02*
X442976Y501988D01*
X441452Y505037D01*
X444500Y503512D01*
X447548Y505037D01*
X446024Y501988D01*
X447548Y498941D01*
X444500Y500465D01*
X441452Y498941D01*
X439420Y488188D02*
X441960Y493268D01*
X439420Y498348D01*
X444500Y495808D01*
X449580Y498348D01*
X447040Y493268D01*
X449580Y488188D01*
X444500Y490728D01*
X439420Y488188D01*
X441452Y490220D02*
X442976Y493268D01*
X441452Y496316D01*
X444500Y494792D01*
X447548Y496316D01*
X446024Y493268D01*
X447548Y490220D01*
X444500Y491744D01*
X441452Y490220D01*
X463550Y545846D02*
X458470Y556006D01*
X468630D01*
X463550Y545846D01*
Y547878D02*
X460502Y553974D01*
X466598D01*
X463550Y547878D01*
X414782Y546608D02*
X409702Y556768D01*
X419862D01*
X414782Y546608D01*
Y548640D02*
X411734Y554736D01*
X417830D01*
X414782Y548640D01*
X375920Y464820D02*
X370840Y474980D01*
X381000D01*
X375920Y464820D01*
Y466852D02*
X372872Y472948D01*
X378968D01*
X375920Y466852D01*
X587274Y1138454D02*
X589814Y1140994D01*
X592354D01*
X589814Y1143534D01*
X592354Y1146074D01*
X589814D01*
X587274Y1148614D01*
X584734Y1146074D01*
X582194D01*
X584734Y1143534D01*
X582194Y1140994D01*
X584734D01*
X587274Y1138454D01*
Y1140486D02*
X588798Y1142010D01*
X590322D01*
X588798Y1143534D01*
X590322Y1145058D01*
X588798D01*
X587274Y1146582D01*
X585750Y1145058D01*
X584226D01*
X585750Y1143534D01*
X584226Y1142010D01*
X585750D01*
X587274Y1140486D01*
X405638Y1053846D02*
X408178Y1056386D01*
X410718D01*
X408178Y1058926D01*
X410718Y1061466D01*
X408178D01*
X405638Y1064006D01*
X403098Y1061466D01*
X400558D01*
X403098Y1058926D01*
X400558Y1056386D01*
X403098D01*
X405638Y1053846D01*
Y1055878D02*
X407162Y1057402D01*
X408686D01*
X407162Y1058926D01*
X408686Y1060450D01*
X407162D01*
X405638Y1061974D01*
X404114Y1060450D01*
X402590D01*
X404114Y1058926D01*
X402590Y1057402D01*
X404114D01*
X405638Y1055878D01*
Y1008634D02*
X408178Y1011174D01*
X410718D01*
X408178Y1013714D01*
X410718Y1016254D01*
X408178D01*
X405638Y1018794D01*
X403098Y1016254D01*
X400558D01*
X403098Y1013714D01*
X400558Y1011174D01*
X403098D01*
X405638Y1008634D01*
Y1010666D02*
X407162Y1012190D01*
X408686D01*
X407162Y1013714D01*
X408686Y1015238D01*
X407162D01*
X405638Y1016762D01*
X404114Y1015238D01*
X402590D01*
X404114Y1013714D01*
X402590Y1012190D01*
X404114D01*
X405638Y1010666D01*
X314452Y1008634D02*
X316992Y1011174D01*
X319532D01*
X316992Y1013714D01*
X319532Y1016254D01*
X316992D01*
X314452Y1018794D01*
X311912Y1016254D01*
X309372D01*
X311912Y1013714D01*
X309372Y1011174D01*
X311912D01*
X314452Y1008634D01*
Y1010666D02*
X315976Y1012190D01*
X317500D01*
X315976Y1013714D01*
X317500Y1015238D01*
X315976D01*
X314452Y1016762D01*
X312928Y1015238D01*
X311404D01*
X312928Y1013714D01*
X311404Y1012190D01*
X312928D01*
X314452Y1010666D01*
Y972058D02*
X316992Y974598D01*
X319532D01*
X316992Y977138D01*
X319532Y979678D01*
X316992D01*
X314452Y982218D01*
X311912Y979678D01*
X309372D01*
X311912Y977138D01*
X309372Y974598D01*
X311912D01*
X314452Y972058D01*
Y974090D02*
X315976Y975614D01*
X317500D01*
X315976Y977138D01*
X317500Y978662D01*
X315976D01*
X314452Y980186D01*
X312928Y978662D01*
X311404D01*
X312928Y977138D01*
X311404Y975614D01*
X312928D01*
X314452Y974090D01*
X399288Y1061720D02*
X401828Y1064260D01*
X404368D01*
X401828Y1066800D01*
X404368Y1069340D01*
X401828D01*
X399288Y1071880D01*
X396748Y1069340D01*
X394208D01*
X396748Y1066800D01*
X394208Y1064260D01*
X396748D01*
X399288Y1061720D01*
Y1063752D02*
X400812Y1065276D01*
X402336D01*
X400812Y1066800D01*
X402336Y1068324D01*
X400812D01*
X399288Y1069848D01*
X397764Y1068324D01*
X396240D01*
X397764Y1066800D01*
X396240Y1065276D01*
X397764D01*
X399288Y1063752D01*
X376870Y970722D02*
X379410Y973262D01*
X381950D01*
X379410Y975802D01*
X381950Y978342D01*
X379410D01*
X376870Y980882D01*
X374330Y978342D01*
X371790D01*
X374330Y975802D01*
X371790Y973262D01*
X374330D01*
X376870Y970722D01*
Y972754D02*
X378394Y974278D01*
X379918D01*
X378394Y975802D01*
X379918Y977326D01*
X378394D01*
X376870Y978850D01*
X375346Y977326D01*
X373822D01*
X375346Y975802D01*
X373822Y974278D01*
X375346D01*
X376870Y972754D01*
Y1015172D02*
X379410Y1017712D01*
X381950D01*
X379410Y1020252D01*
X381950Y1022792D01*
X379410D01*
X376870Y1025332D01*
X374330Y1022792D01*
X371790D01*
X374330Y1020252D01*
X371790Y1017712D01*
X374330D01*
X376870Y1015172D01*
Y1017204D02*
X378394Y1018728D01*
X379918D01*
X378394Y1020252D01*
X379918Y1021776D01*
X378394D01*
X376870Y1023300D01*
X375346Y1021776D01*
X373822D01*
X375346Y1020252D01*
X373822Y1018728D01*
X375346D01*
X376870Y1017204D01*
X399354Y1015172D02*
X401894Y1017712D01*
X404434D01*
X401894Y1020252D01*
X404434Y1022792D01*
X401894D01*
X399354Y1025332D01*
X396814Y1022792D01*
X394274D01*
X396814Y1020252D01*
X394274Y1017712D01*
X396814D01*
X399354Y1015172D01*
Y1017204D02*
X400878Y1018728D01*
X402402D01*
X400878Y1020252D01*
X402402Y1021776D01*
X400878D01*
X399354Y1023300D01*
X397830Y1021776D01*
X396306D01*
X397830Y1020252D01*
X396306Y1018728D01*
X397830D01*
X399354Y1017204D01*
X464820Y1067816D02*
X467360Y1070356D01*
X469900D01*
X467360Y1072896D01*
X469900Y1075436D01*
X467360D01*
X464820Y1077976D01*
X462280Y1075436D01*
X459740D01*
X462280Y1072896D01*
X459740Y1070356D01*
X462280D01*
X464820Y1067816D01*
Y1069848D02*
X466344Y1071372D01*
X467868D01*
X466344Y1072896D01*
X467868Y1074420D01*
X466344D01*
X464820Y1075944D01*
X463296Y1074420D01*
X461772D01*
X463296Y1072896D01*
X461772Y1071372D01*
X463296D01*
X464820Y1069848D01*
Y785114D02*
X467360Y787654D01*
X469900D01*
X467360Y790194D01*
X469900Y792734D01*
X467360D01*
X464820Y795274D01*
X462280Y792734D01*
X459740D01*
X462280Y790194D01*
X459740Y787654D01*
X462280D01*
X464820Y785114D01*
Y787146D02*
X466344Y788670D01*
X467868D01*
X466344Y790194D01*
X467868Y791718D01*
X466344D01*
X464820Y793242D01*
X463296Y791718D01*
X461772D01*
X463296Y790194D01*
X461772Y788670D01*
X463296D01*
X464820Y787146D01*
X587274Y1015238D02*
X589814Y1017778D01*
X592354D01*
X589814Y1020318D01*
X592354Y1022858D01*
X589814D01*
X587274Y1025398D01*
X584734Y1022858D01*
X582194D01*
X584734Y1020318D01*
X582194Y1017778D01*
X584734D01*
X587274Y1015238D01*
Y1017270D02*
X588798Y1018794D01*
X590322D01*
X588798Y1020318D01*
X590322Y1021842D01*
X588798D01*
X587274Y1023366D01*
X585750Y1021842D01*
X584226D01*
X585750Y1020318D01*
X584226Y1018794D01*
X585750D01*
X587274Y1017270D01*
X572702Y1183454D02*
X575242Y1185994D01*
X577782D01*
X575242Y1188534D01*
X577782Y1191074D01*
X575242D01*
X572702Y1193614D01*
X570162Y1191074D01*
X567622D01*
X570162Y1188534D01*
X567622Y1185994D01*
X570162D01*
X572702Y1183454D01*
Y1185486D02*
X574226Y1187010D01*
X575750D01*
X574226Y1188534D01*
X575750Y1190058D01*
X574226D01*
X572702Y1191582D01*
X571178Y1190058D01*
X569654D01*
X571178Y1188534D01*
X569654Y1187010D01*
X571178D01*
X572702Y1185486D01*
X573532Y1173734D02*
X576072Y1176274D01*
X578612D01*
X576072Y1178814D01*
X578612Y1181354D01*
X576072D01*
X573532Y1183894D01*
X570992Y1181354D01*
X568452D01*
X570992Y1178814D01*
X568452Y1176274D01*
X570992D01*
X573532Y1173734D01*
Y1175766D02*
X575056Y1177290D01*
X576580D01*
X575056Y1178814D01*
X576580Y1180338D01*
X575056D01*
X573532Y1181862D01*
X572008Y1180338D01*
X570484D01*
X572008Y1178814D01*
X570484Y1177290D01*
X572008D01*
X573532Y1175766D01*
X572262Y1166114D02*
X574802Y1168654D01*
X577342D01*
X574802Y1171194D01*
X577342Y1173734D01*
X574802D01*
X572262Y1176274D01*
X569722Y1173734D01*
X567182D01*
X569722Y1171194D01*
X567182Y1168654D01*
X569722D01*
X572262Y1166114D01*
Y1168146D02*
X573786Y1169670D01*
X575310D01*
X573786Y1171194D01*
X575310Y1172718D01*
X573786D01*
X572262Y1174242D01*
X570738Y1172718D01*
X569214D01*
X570738Y1171194D01*
X569214Y1169670D01*
X570738D01*
X572262Y1168146D01*
X571246Y1156970D02*
X573786Y1159510D01*
X576326D01*
X573786Y1162050D01*
X576326Y1164590D01*
X573786D01*
X571246Y1167130D01*
X568706Y1164590D01*
X566166D01*
X568706Y1162050D01*
X566166Y1159510D01*
X568706D01*
X571246Y1156970D01*
Y1159002D02*
X572770Y1160526D01*
X574294D01*
X572770Y1162050D01*
X574294Y1163574D01*
X572770D01*
X571246Y1165098D01*
X569722Y1163574D01*
X568198D01*
X569722Y1162050D01*
X568198Y1160526D01*
X569722D01*
X571246Y1159002D01*
X792988Y1123442D02*
X795528Y1125982D01*
X798068D01*
X795528Y1128522D01*
X798068Y1131062D01*
X795528D01*
X792988Y1133602D01*
X790448Y1131062D01*
X787908D01*
X790448Y1128522D01*
X787908Y1125982D01*
X790448D01*
X792988Y1123442D01*
Y1125474D02*
X794512Y1126998D01*
X796036D01*
X794512Y1128522D01*
X796036Y1130046D01*
X794512D01*
X792988Y1131570D01*
X791464Y1130046D01*
X789940D01*
X791464Y1128522D01*
X789940Y1126998D01*
X791464D01*
X792988Y1125474D01*
X719888Y330656D02*
X722428Y333196D01*
X724968D01*
X722428Y335736D01*
X724968Y338276D01*
X722428D01*
X719888Y340816D01*
X717348Y338276D01*
X714808D01*
X717348Y335736D01*
X714808Y333196D01*
X717348D01*
X719888Y330656D01*
Y332688D02*
X721412Y334212D01*
X722936D01*
X721412Y335736D01*
X722936Y337260D01*
X721412D01*
X719888Y338784D01*
X718364Y337260D01*
X716840D01*
X718364Y335736D01*
X716840Y334212D01*
X718364D01*
X719888Y332688D01*
X726596Y317656D02*
X729136Y320196D01*
X731676D01*
X729136Y322736D01*
X731676Y325276D01*
X729136D01*
X726596Y327816D01*
X724056Y325276D01*
X721516D01*
X724056Y322736D01*
X721516Y320196D01*
X724056D01*
X726596Y317656D01*
Y319688D02*
X728120Y321212D01*
X729644D01*
X728120Y322736D01*
X729644Y324260D01*
X728120D01*
X726596Y325784D01*
X725072Y324260D01*
X723548D01*
X725072Y322736D01*
X723548Y321212D01*
X725072D01*
X726596Y319688D01*
X780406Y1085224D02*
X782946Y1087764D01*
X785486D01*
X782946Y1090304D01*
X785486Y1092844D01*
X782946D01*
X780406Y1095384D01*
X777866Y1092844D01*
X775326D01*
X777866Y1090304D01*
X775326Y1087764D01*
X777866D01*
X780406Y1085224D01*
Y1087256D02*
X781930Y1088780D01*
X783454D01*
X781930Y1090304D01*
X783454Y1091828D01*
X781930D01*
X780406Y1093352D01*
X778882Y1091828D01*
X777358D01*
X778882Y1090304D01*
X777358Y1088780D01*
X778882D01*
X780406Y1087256D01*
X780542Y1139190D02*
X783082Y1141730D01*
X785622D01*
X783082Y1144270D01*
X785622Y1146810D01*
X783082D01*
X780542Y1149350D01*
X778002Y1146810D01*
X775462D01*
X778002Y1144270D01*
X775462Y1141730D01*
X778002D01*
X780542Y1139190D01*
Y1141222D02*
X782066Y1142746D01*
X783590D01*
X782066Y1144270D01*
X783590Y1145794D01*
X782066D01*
X780542Y1147318D01*
X779018Y1145794D01*
X777494D01*
X779018Y1144270D01*
X777494Y1142746D01*
X779018D01*
X780542Y1141222D01*
X585216Y1182878D02*
X587756Y1185418D01*
X590296D01*
X587756Y1187958D01*
X590296Y1190498D01*
X587756D01*
X585216Y1193038D01*
X582676Y1190498D01*
X580136D01*
X582676Y1187958D01*
X580136Y1185418D01*
X582676D01*
X585216Y1182878D01*
Y1184910D02*
X586740Y1186434D01*
X588264D01*
X586740Y1187958D01*
X588264Y1189482D01*
X586740D01*
X585216Y1191006D01*
X583692Y1189482D01*
X582168D01*
X583692Y1187958D01*
X582168Y1186434D01*
X583692D01*
X585216Y1184910D01*
X592836Y1261110D02*
X595376Y1263650D01*
X597916D01*
X595376Y1266190D01*
X597916Y1268730D01*
X595376D01*
X592836Y1271270D01*
X590296Y1268730D01*
X587756D01*
X590296Y1266190D01*
X587756Y1263650D01*
X590296D01*
X592836Y1261110D01*
Y1263142D02*
X594360Y1264666D01*
X595884D01*
X594360Y1266190D01*
X595884Y1267714D01*
X594360D01*
X592836Y1269238D01*
X591312Y1267714D01*
X589788D01*
X591312Y1266190D01*
X589788Y1264666D01*
X591312D01*
X592836Y1263142D01*
X619506Y1145540D02*
X622046Y1148080D01*
X624586D01*
X622046Y1150620D01*
X624586Y1153160D01*
X622046D01*
X619506Y1155700D01*
X616966Y1153160D01*
X614426D01*
X616966Y1150620D01*
X614426Y1148080D01*
X616966D01*
X619506Y1145540D01*
Y1147572D02*
X621030Y1149096D01*
X622554D01*
X621030Y1150620D01*
X622554Y1152144D01*
X621030D01*
X619506Y1153668D01*
X617982Y1152144D01*
X616458D01*
X617982Y1150620D01*
X616458Y1149096D01*
X617982D01*
X619506Y1147572D01*
X620014Y1153160D02*
X622554Y1155700D01*
X625094D01*
X622554Y1158240D01*
X625094Y1160780D01*
X622554D01*
X620014Y1163320D01*
X617474Y1160780D01*
X614934D01*
X617474Y1158240D01*
X614934Y1155700D01*
X617474D01*
X620014Y1153160D01*
Y1155192D02*
X621538Y1156716D01*
X623062D01*
X621538Y1158240D01*
X623062Y1159764D01*
X621538D01*
X620014Y1161288D01*
X618490Y1159764D01*
X616966D01*
X618490Y1158240D01*
X616966Y1156716D01*
X618490D01*
X620014Y1155192D01*
X621030Y1175512D02*
X623570Y1178052D01*
X626110D01*
X623570Y1180592D01*
X626110Y1183132D01*
X623570D01*
X621030Y1185672D01*
X618490Y1183132D01*
X615950D01*
X618490Y1180592D01*
X615950Y1178052D01*
X618490D01*
X621030Y1175512D01*
Y1177544D02*
X622554Y1179068D01*
X624078D01*
X622554Y1180592D01*
X624078Y1182116D01*
X622554D01*
X621030Y1183640D01*
X619506Y1182116D01*
X617982D01*
X619506Y1180592D01*
X617982Y1179068D01*
X619506D01*
X621030Y1177544D01*
X673862Y1139190D02*
X676402Y1141730D01*
X678942D01*
X676402Y1144270D01*
X678942Y1146810D01*
X676402D01*
X673862Y1149350D01*
X671322Y1146810D01*
X668782D01*
X671322Y1144270D01*
X668782Y1141730D01*
X671322D01*
X673862Y1139190D01*
Y1141222D02*
X675386Y1142746D01*
X676910D01*
X675386Y1144270D01*
X676910Y1145794D01*
X675386D01*
X673862Y1147318D01*
X672338Y1145794D01*
X670814D01*
X672338Y1144270D01*
X670814Y1142746D01*
X672338D01*
X673862Y1141222D01*
X776224Y1044702D02*
X778764Y1047242D01*
X781304D01*
X778764Y1049782D01*
X781304Y1052322D01*
X778764D01*
X776224Y1054862D01*
X773684Y1052322D01*
X771144D01*
X773684Y1049782D01*
X771144Y1047242D01*
X773684D01*
X776224Y1044702D01*
Y1046734D02*
X777748Y1048258D01*
X779272D01*
X777748Y1049782D01*
X779272Y1051306D01*
X777748D01*
X776224Y1052830D01*
X774700Y1051306D01*
X773176D01*
X774700Y1049782D01*
X773176Y1048258D01*
X774700D01*
X776224Y1046734D01*
X471678Y724154D02*
X474218Y726694D01*
X476758D01*
X474218Y729234D01*
X476758Y731774D01*
X474218D01*
X471678Y734314D01*
X469138Y731774D01*
X466598D01*
X469138Y729234D01*
X466598Y726694D01*
X469138D01*
X471678Y724154D01*
Y726186D02*
X473202Y727710D01*
X474726D01*
X473202Y729234D01*
X474726Y730758D01*
X473202D01*
X471678Y732282D01*
X470154Y730758D01*
X468630D01*
X470154Y729234D01*
X468630Y727710D01*
X470154D01*
X471678Y726186D01*
X789686Y724154D02*
X792226Y726694D01*
X794766D01*
X792226Y729234D01*
X794766Y731774D01*
X792226D01*
X789686Y734314D01*
X787146Y731774D01*
X784606D01*
X787146Y729234D01*
X784606Y726694D01*
X787146D01*
X789686Y724154D01*
Y726186D02*
X791210Y727710D01*
X792734D01*
X791210Y729234D01*
X792734Y730758D01*
X791210D01*
X789686Y732282D01*
X788162Y730758D01*
X786638D01*
X788162Y729234D01*
X786638Y727710D01*
X788162D01*
X789686Y726186D01*
X385420Y793344D02*
X387960Y795884D01*
X390500D01*
X387960Y798424D01*
X390500Y800964D01*
X387960D01*
X385420Y803504D01*
X382880Y800964D01*
X380340D01*
X382880Y798424D01*
X380340Y795884D01*
X382880D01*
X385420Y793344D01*
Y795376D02*
X386944Y796900D01*
X388468D01*
X386944Y798424D01*
X388468Y799948D01*
X386944D01*
X385420Y801472D01*
X383896Y799948D01*
X382372D01*
X383896Y798424D01*
X382372Y796900D01*
X383896D01*
X385420Y795376D01*
X477774Y793344D02*
X480314Y795884D01*
X482854D01*
X480314Y798424D01*
X482854Y800964D01*
X480314D01*
X477774Y803504D01*
X475234Y800964D01*
X472694D01*
X475234Y798424D01*
X472694Y795884D01*
X475234D01*
X477774Y793344D01*
Y795376D02*
X479298Y796900D01*
X480822D01*
X479298Y798424D01*
X480822Y799948D01*
X479298D01*
X477774Y801472D01*
X476250Y799948D01*
X474726D01*
X476250Y798424D01*
X474726Y796900D01*
X476250D01*
X477774Y795376D01*
X752117Y266215D02*
X754657Y268755D01*
X757197D01*
X754657Y271295D01*
X757197Y273835D01*
X754657D01*
X752117Y276375D01*
X749577Y273835D01*
X747037D01*
X749577Y271295D01*
X747037Y268755D01*
X749577D01*
X752117Y266215D01*
Y268247D02*
X753641Y269771D01*
X755165D01*
X753641Y271295D01*
X755165Y272819D01*
X753641D01*
X752117Y274343D01*
X750593Y272819D01*
X749069D01*
X750593Y271295D01*
X749069Y269771D01*
X750593D01*
X752117Y268247D01*
X335280Y1215338D02*
X337820Y1217878D01*
X340360D01*
X337820Y1220418D01*
X340360Y1222958D01*
X337820D01*
X335280Y1225498D01*
X332740Y1222958D01*
X330200D01*
X332740Y1220418D01*
X330200Y1217878D01*
X332740D01*
X335280Y1215338D01*
Y1217370D02*
X336804Y1218894D01*
X338328D01*
X336804Y1220418D01*
X338328Y1221942D01*
X336804D01*
X335280Y1223466D01*
X333756Y1221942D01*
X332232D01*
X333756Y1220418D01*
X332232Y1218894D01*
X333756D01*
X335280Y1217370D01*
X323723Y1190244D02*
X326263Y1192784D01*
X328803D01*
X326263Y1195324D01*
X328803Y1197864D01*
X326263D01*
X323723Y1200404D01*
X321183Y1197864D01*
X318643D01*
X321183Y1195324D01*
X318643Y1192784D01*
X321183D01*
X323723Y1190244D01*
Y1192276D02*
X325247Y1193800D01*
X326771D01*
X325247Y1195324D01*
X326771Y1196848D01*
X325247D01*
X323723Y1198372D01*
X322199Y1196848D01*
X320675D01*
X322199Y1195324D01*
X320675Y1193800D01*
X322199D01*
X323723Y1192276D01*
X350774Y1221838D02*
X353314Y1224378D01*
X355854D01*
X353314Y1226918D01*
X355854Y1229458D01*
X353314D01*
X350774Y1231998D01*
X348234Y1229458D01*
X345694D01*
X348234Y1226918D01*
X345694Y1224378D01*
X348234D01*
X350774Y1221838D01*
Y1223870D02*
X352298Y1225394D01*
X353822D01*
X352298Y1226918D01*
X353822Y1228442D01*
X352298D01*
X350774Y1229966D01*
X349250Y1228442D01*
X347726D01*
X349250Y1226918D01*
X347726Y1225394D01*
X349250D01*
X350774Y1223870D01*
X351126Y1202338D02*
X353666Y1204878D01*
X356206D01*
X353666Y1207418D01*
X356206Y1209958D01*
X353666D01*
X351126Y1212498D01*
X348586Y1209958D01*
X346046D01*
X348586Y1207418D01*
X346046Y1204878D01*
X348586D01*
X351126Y1202338D01*
Y1204370D02*
X352650Y1205894D01*
X354174D01*
X352650Y1207418D01*
X354174Y1208942D01*
X352650D01*
X351126Y1210466D01*
X349602Y1208942D01*
X348078D01*
X349602Y1207418D01*
X348078Y1205894D01*
X349602D01*
X351126Y1204370D01*
X342646Y1226820D02*
X345186Y1229360D01*
X347726D01*
X345186Y1231900D01*
X347726Y1234440D01*
X345186D01*
X342646Y1236980D01*
X340106Y1234440D01*
X337566D01*
X340106Y1231900D01*
X337566Y1229360D01*
X340106D01*
X342646Y1226820D01*
Y1228852D02*
X344170Y1230376D01*
X345694D01*
X344170Y1231900D01*
X345694Y1233424D01*
X344170D01*
X342646Y1234948D01*
X341122Y1233424D01*
X339598D01*
X341122Y1231900D01*
X339598Y1230376D01*
X341122D01*
X342646Y1228852D01*
X330200Y1231392D02*
X332740Y1233932D01*
X335280D01*
X332740Y1236472D01*
X335280Y1239012D01*
X332740D01*
X330200Y1241552D01*
X327660Y1239012D01*
X325120D01*
X327660Y1236472D01*
X325120Y1233932D01*
X327660D01*
X330200Y1231392D01*
Y1233424D02*
X331724Y1234948D01*
X333248D01*
X331724Y1236472D01*
X333248Y1237996D01*
X331724D01*
X330200Y1239520D01*
X328676Y1237996D01*
X327152D01*
X328676Y1236472D01*
X327152Y1234948D01*
X328676D01*
X330200Y1233424D01*
X579374Y1038098D02*
X581914Y1040638D01*
X584454D01*
X581914Y1043178D01*
X584454Y1045718D01*
X581914D01*
X579374Y1048258D01*
X576834Y1045718D01*
X574294D01*
X576834Y1043178D01*
X574294Y1040638D01*
X576834D01*
X579374Y1038098D01*
Y1040130D02*
X580898Y1041654D01*
X582422D01*
X580898Y1043178D01*
X582422Y1044702D01*
X580898D01*
X579374Y1046226D01*
X577850Y1044702D01*
X576326D01*
X577850Y1043178D01*
X576326Y1041654D01*
X577850D01*
X579374Y1040130D01*
X564896Y1037590D02*
X567436Y1040130D01*
X569976D01*
X567436Y1042670D01*
X569976Y1045210D01*
X567436D01*
X564896Y1047750D01*
X562356Y1045210D01*
X559816D01*
X562356Y1042670D01*
X559816Y1040130D01*
X562356D01*
X564896Y1037590D01*
Y1039622D02*
X566420Y1041146D01*
X567944D01*
X566420Y1042670D01*
X567944Y1044194D01*
X566420D01*
X564896Y1045718D01*
X563372Y1044194D01*
X561848D01*
X563372Y1042670D01*
X561848Y1041146D01*
X563372D01*
X564896Y1039622D01*
X760104Y573396D02*
X762644Y575936D01*
X765184D01*
X762644Y578476D01*
X765184Y581016D01*
X762644D01*
X760104Y583556D01*
X757564Y581016D01*
X755024D01*
X757564Y578476D01*
X755024Y575936D01*
X757564D01*
X760104Y573396D01*
Y575428D02*
X761628Y576952D01*
X763152D01*
X761628Y578476D01*
X763152Y580000D01*
X761628D01*
X760104Y581524D01*
X758580Y580000D01*
X757056D01*
X758580Y578476D01*
X757056Y576952D01*
X758580D01*
X760104Y575428D01*
X665226Y1243584D02*
X667766Y1246124D01*
X670306D01*
X667766Y1248664D01*
X670306Y1251204D01*
X667766D01*
X665226Y1253744D01*
X662686Y1251204D01*
X660146D01*
X662686Y1248664D01*
X660146Y1246124D01*
X662686D01*
X665226Y1243584D01*
Y1245616D02*
X666750Y1247140D01*
X668274D01*
X666750Y1248664D01*
X668274Y1250188D01*
X666750D01*
X665226Y1251712D01*
X663702Y1250188D01*
X662178D01*
X663702Y1248664D01*
X662178Y1247140D01*
X663702D01*
X665226Y1245616D01*
X687070Y1103630D02*
X689610Y1106170D01*
X692150D01*
X689610Y1108710D01*
X692150Y1111250D01*
X689610D01*
X687070Y1113790D01*
X684530Y1111250D01*
X681990D01*
X684530Y1108710D01*
X681990Y1106170D01*
X684530D01*
X687070Y1103630D01*
Y1105662D02*
X688594Y1107186D01*
X690118D01*
X688594Y1108710D01*
X690118Y1110234D01*
X688594D01*
X687070Y1111758D01*
X685546Y1110234D01*
X684022D01*
X685546Y1108710D01*
X684022Y1107186D01*
X685546D01*
X687070Y1105662D01*
X636406Y1109980D02*
X638946Y1112520D01*
X641486D01*
X638946Y1115060D01*
X641486Y1117600D01*
X638946D01*
X636406Y1120140D01*
X633866Y1117600D01*
X631326D01*
X633866Y1115060D01*
X631326Y1112520D01*
X633866D01*
X636406Y1109980D01*
Y1112012D02*
X637930Y1113536D01*
X639454D01*
X637930Y1115060D01*
X639454Y1116584D01*
X637930D01*
X636406Y1118108D01*
X634882Y1116584D01*
X633358D01*
X634882Y1115060D01*
X633358Y1113536D01*
X634882D01*
X636406Y1112012D01*
X538226Y496570D02*
X540766Y499110D01*
X543306D01*
X540766Y501650D01*
X543306Y504190D01*
X540766D01*
X538226Y506730D01*
X535686Y504190D01*
X533146D01*
X535686Y501650D01*
X533146Y499110D01*
X535686D01*
X538226Y496570D01*
Y498602D02*
X539750Y500126D01*
X541274D01*
X539750Y501650D01*
X541274Y503174D01*
X539750D01*
X538226Y504698D01*
X536702Y503174D01*
X535178D01*
X536702Y501650D01*
X535178Y500126D01*
X536702D01*
X538226Y498602D01*
X359410Y540766D02*
X354330Y550926D01*
X364490D01*
X359410Y540766D01*
Y542798D02*
X356362Y548894D01*
X362458D01*
X359410Y542798D01*
X337566Y540766D02*
X332486Y550926D01*
X342646D01*
X337566Y540766D01*
Y542798D02*
X334518Y548894D01*
X340614D01*
X337566Y542798D01*
X563880Y1023112D02*
X566420Y1025652D01*
X568960D01*
X566420Y1028192D01*
X568960Y1030732D01*
X566420D01*
X563880Y1033272D01*
X561340Y1030732D01*
X558800D01*
X561340Y1028192D01*
X558800Y1025652D01*
X561340D01*
X563880Y1023112D01*
Y1025144D02*
X565404Y1026668D01*
X566928D01*
X565404Y1028192D01*
X566928Y1029716D01*
X565404D01*
X563880Y1031240D01*
X562356Y1029716D01*
X560832D01*
X562356Y1028192D01*
X560832Y1026668D01*
X562356D01*
X563880Y1025144D01*
X536194Y464566D02*
X531114Y474726D01*
X541274D01*
X536194Y464566D01*
Y466598D02*
X533146Y472694D01*
X539242D01*
X536194Y466598D01*
X747150Y1036692D02*
X749690Y1039232D01*
X752230D01*
X749690Y1041772D01*
X752230Y1044312D01*
X749690D01*
X747150Y1046852D01*
X744610Y1044312D01*
X742070D01*
X744610Y1041772D01*
X742070Y1039232D01*
X744610D01*
X747150Y1036692D01*
Y1038724D02*
X748674Y1040248D01*
X750198D01*
X748674Y1041772D01*
X750198Y1043296D01*
X748674D01*
X747150Y1044820D01*
X745626Y1043296D01*
X744102D01*
X745626Y1041772D01*
X744102Y1040248D01*
X745626D01*
X747150Y1038724D01*
X377444Y507492D02*
X372364Y517652D01*
X382524D01*
X377444Y507492D01*
Y509524D02*
X374396Y515620D01*
X380492D01*
X377444Y509524D01*
Y575310D02*
X372364Y585470D01*
X382524D01*
X377444Y575310D01*
Y577342D02*
X374396Y583438D01*
X380492D01*
X377444Y577342D01*
X772532Y474726D02*
X775072Y477266D01*
X777612D01*
X775072Y479806D01*
X777612Y482346D01*
X775072D01*
X772532Y484886D01*
X769992Y482346D01*
X767452D01*
X769992Y479806D01*
X767452Y477266D01*
X769992D01*
X772532Y474726D01*
Y476758D02*
X774056Y478282D01*
X775580D01*
X774056Y479806D01*
X775580Y481330D01*
X774056D01*
X772532Y482854D01*
X771008Y481330D01*
X769484D01*
X771008Y479806D01*
X769484Y478282D01*
X771008D01*
X772532Y476758D01*
X792988Y1145540D02*
X795528Y1148080D01*
X798068D01*
X795528Y1150620D01*
X798068Y1153160D01*
X795528D01*
X792988Y1155700D01*
X790448Y1153160D01*
X787908D01*
X790448Y1150620D01*
X787908Y1148080D01*
X790448D01*
X792988Y1145540D01*
Y1147572D02*
X794512Y1149096D01*
X796036D01*
X794512Y1150620D01*
X796036Y1152144D01*
X794512D01*
X792988Y1153668D01*
X791464Y1152144D01*
X789940D01*
X791464Y1150620D01*
X789940Y1149096D01*
X791464D01*
X792988Y1147572D01*
X511048Y1001776D02*
X513588Y1004316D01*
X516128D01*
X513588Y1006856D01*
X516128Y1009396D01*
X513588D01*
X511048Y1011936D01*
X508508Y1009396D01*
X505968D01*
X508508Y1006856D01*
X505968Y1004316D01*
X508508D01*
X511048Y1001776D01*
Y1003808D02*
X512572Y1005332D01*
X514096D01*
X512572Y1006856D01*
X514096Y1008380D01*
X512572D01*
X511048Y1009904D01*
X509524Y1008380D01*
X508000D01*
X509524Y1006856D01*
X508000Y1005332D01*
X509524D01*
X511048Y1003808D01*
X451630Y1073676D02*
X454170Y1076216D01*
X456710D01*
X454170Y1078756D01*
X456710Y1081296D01*
X454170D01*
X451630Y1083836D01*
X449090Y1081296D01*
X446550D01*
X449090Y1078756D01*
X446550Y1076216D01*
X449090D01*
X451630Y1073676D01*
Y1075708D02*
X453154Y1077232D01*
X454678D01*
X453154Y1078756D01*
X454678Y1080280D01*
X453154D01*
X451630Y1081804D01*
X450106Y1080280D01*
X448582D01*
X450106Y1078756D01*
X448582Y1077232D01*
X450106D01*
X451630Y1075708D01*
X535178Y1036066D02*
X537718Y1038606D01*
X540258D01*
X537718Y1041146D01*
X540258Y1043686D01*
X537718D01*
X535178Y1046226D01*
X532638Y1043686D01*
X530098D01*
X532638Y1041146D01*
X530098Y1038606D01*
X532638D01*
X535178Y1036066D01*
Y1038098D02*
X536702Y1039622D01*
X538226D01*
X536702Y1041146D01*
X538226Y1042670D01*
X536702D01*
X535178Y1044194D01*
X533654Y1042670D01*
X532130D01*
X533654Y1041146D01*
X532130Y1039622D01*
X533654D01*
X535178Y1038098D01*
X504190Y1123442D02*
X506730Y1125982D01*
X509270D01*
X506730Y1128522D01*
X509270Y1131062D01*
X506730D01*
X504190Y1133602D01*
X501650Y1131062D01*
X499110D01*
X501650Y1128522D01*
X499110Y1125982D01*
X501650D01*
X504190Y1123442D01*
Y1125474D02*
X505714Y1126998D01*
X507238D01*
X505714Y1128522D01*
X507238Y1130046D01*
X505714D01*
X504190Y1131570D01*
X502666Y1130046D01*
X501142D01*
X502666Y1128522D01*
X501142Y1126998D01*
X502666D01*
X504190Y1125474D01*
X539877Y1194689D02*
X542417Y1197229D01*
X544957D01*
X542417Y1199769D01*
X544957Y1202309D01*
X542417D01*
X539877Y1204849D01*
X537337Y1202309D01*
X534797D01*
X537337Y1199769D01*
X534797Y1197229D01*
X537337D01*
X539877Y1194689D01*
Y1196721D02*
X541401Y1198245D01*
X542925D01*
X541401Y1199769D01*
X542925Y1201293D01*
X541401D01*
X539877Y1202817D01*
X538353Y1201293D01*
X536829D01*
X538353Y1199769D01*
X536829Y1198245D01*
X538353D01*
X539877Y1196721D01*
X528854Y1190752D02*
X531394Y1193292D01*
X533934D01*
X531394Y1195832D01*
X533934Y1198372D01*
X531394D01*
X528854Y1200912D01*
X526314Y1198372D01*
X523774D01*
X526314Y1195832D01*
X523774Y1193292D01*
X526314D01*
X528854Y1190752D01*
Y1192784D02*
X530378Y1194308D01*
X531902D01*
X530378Y1195832D01*
X531902Y1197356D01*
X530378D01*
X528854Y1198880D01*
X527330Y1197356D01*
X525806D01*
X527330Y1195832D01*
X525806Y1194308D01*
X527330D01*
X528854Y1192784D01*
X512191Y1194689D02*
X514731Y1197229D01*
X517271D01*
X514731Y1199769D01*
X517271Y1202309D01*
X514731D01*
X512191Y1204849D01*
X509651Y1202309D01*
X507111D01*
X509651Y1199769D01*
X507111Y1197229D01*
X509651D01*
X512191Y1194689D01*
Y1196721D02*
X513715Y1198245D01*
X515239D01*
X513715Y1199769D01*
X515239Y1201293D01*
X513715D01*
X512191Y1202817D01*
X510667Y1201293D01*
X509143D01*
X510667Y1199769D01*
X509143Y1198245D01*
X510667D01*
X512191Y1196721D01*
X520700Y1194308D02*
X523240Y1196848D01*
X525780D01*
X523240Y1199388D01*
X525780Y1201928D01*
X523240D01*
X520700Y1204468D01*
X518160Y1201928D01*
X515620D01*
X518160Y1199388D01*
X515620Y1196848D01*
X518160D01*
X520700Y1194308D01*
Y1196340D02*
X522224Y1197864D01*
X523748D01*
X522224Y1199388D01*
X523748Y1200912D01*
X522224D01*
X520700Y1202436D01*
X519176Y1200912D01*
X517652D01*
X519176Y1199388D01*
X517652Y1197864D01*
X519176D01*
X520700Y1196340D01*
X617728Y1077214D02*
X620268Y1079754D01*
X622808D01*
X620268Y1082294D01*
X622808Y1084834D01*
X620268D01*
X617728Y1087374D01*
X615188Y1084834D01*
X612648D01*
X615188Y1082294D01*
X612648Y1079754D01*
X615188D01*
X617728Y1077214D01*
Y1079246D02*
X619252Y1080770D01*
X620776D01*
X619252Y1082294D01*
X620776Y1083818D01*
X619252D01*
X617728Y1085342D01*
X616204Y1083818D01*
X614680D01*
X616204Y1082294D01*
X614680Y1080770D01*
X616204D01*
X617728Y1079246D01*
Y1097534D02*
X620268Y1100074D01*
X622808D01*
X620268Y1102614D01*
X622808Y1105154D01*
X620268D01*
X617728Y1107694D01*
X615188Y1105154D01*
X612648D01*
X615188Y1102614D01*
X612648Y1100074D01*
X615188D01*
X617728Y1097534D01*
Y1099566D02*
X619252Y1101090D01*
X620776D01*
X619252Y1102614D01*
X620776Y1104138D01*
X619252D01*
X617728Y1105662D01*
X616204Y1104138D01*
X614680D01*
X616204Y1102614D01*
X614680Y1101090D01*
X616204D01*
X617728Y1099566D01*
X653406Y1109980D02*
X655946Y1112520D01*
X658486D01*
X655946Y1115060D01*
X658486Y1117600D01*
X655946D01*
X653406Y1120140D01*
X650866Y1117600D01*
X648326D01*
X650866Y1115060D01*
X648326Y1112520D01*
X650866D01*
X653406Y1109980D01*
Y1112012D02*
X654930Y1113536D01*
X656454D01*
X654930Y1115060D01*
X656454Y1116584D01*
X654930D01*
X653406Y1118108D01*
X651882Y1116584D01*
X650358D01*
X651882Y1115060D01*
X650358Y1113536D01*
X651882D01*
X653406Y1112012D01*
X505460Y1152906D02*
X508000Y1155446D01*
X510540D01*
X508000Y1157986D01*
X510540Y1160526D01*
X508000D01*
X505460Y1163066D01*
X502920Y1160526D01*
X500380D01*
X502920Y1157986D01*
X500380Y1155446D01*
X502920D01*
X505460Y1152906D01*
Y1154938D02*
X506984Y1156462D01*
X508508D01*
X506984Y1157986D01*
X508508Y1159510D01*
X506984D01*
X505460Y1161034D01*
X503936Y1159510D01*
X502412D01*
X503936Y1157986D01*
X502412Y1156462D01*
X503936D01*
X505460Y1154938D01*
X404622Y1208786D02*
X407162Y1211326D01*
X409702D01*
X407162Y1213866D01*
X409702Y1216406D01*
X407162D01*
X404622Y1218946D01*
X402082Y1216406D01*
X399542D01*
X402082Y1213866D01*
X399542Y1211326D01*
X402082D01*
X404622Y1208786D01*
Y1210818D02*
X406146Y1212342D01*
X407670D01*
X406146Y1213866D01*
X407670Y1215390D01*
X406146D01*
X404622Y1216914D01*
X403098Y1215390D01*
X401574D01*
X403098Y1213866D01*
X401574Y1212342D01*
X403098D01*
X404622Y1210818D01*
X484632Y1217422D02*
X487172Y1219962D01*
X489712D01*
X487172Y1222502D01*
X489712Y1225042D01*
X487172D01*
X484632Y1227582D01*
X482092Y1225042D01*
X479552D01*
X482092Y1222502D01*
X479552Y1219962D01*
X482092D01*
X484632Y1217422D01*
Y1219454D02*
X486156Y1220978D01*
X487680D01*
X486156Y1222502D01*
X487680Y1224026D01*
X486156D01*
X484632Y1225550D01*
X483108Y1224026D01*
X481584D01*
X483108Y1222502D01*
X481584Y1220978D01*
X483108D01*
X484632Y1219454D01*
X580656Y1123454D02*
X583196Y1125994D01*
X585736D01*
X583196Y1128534D01*
X585736Y1131074D01*
X583196D01*
X580656Y1133614D01*
X578116Y1131074D01*
X575576D01*
X578116Y1128534D01*
X575576Y1125994D01*
X578116D01*
X580656Y1123454D01*
Y1125486D02*
X582180Y1127010D01*
X583704D01*
X582180Y1128534D01*
X583704Y1130058D01*
X582180D01*
X580656Y1131582D01*
X579132Y1130058D01*
X577608D01*
X579132Y1128534D01*
X577608Y1127010D01*
X579132D01*
X580656Y1125486D01*
X414784Y696720D02*
X409704Y706880D01*
X419864D01*
X414784Y696720D01*
Y698752D02*
X411736Y704848D01*
X417832D01*
X414784Y698752D01*
D121*
X581581Y782483D02*
G03*
X581581Y782483I-5080J0D01*
G01*
X556582D02*
G03*
X556582Y782483I-5080J0D01*
G01*
X531581D02*
G03*
X531581Y782483I-5080J0D01*
G01*
X581581Y622799D02*
G03*
X581581Y622799I-5080J0D01*
G01*
X556582D02*
G03*
X556582Y622799I-5080J0D01*
G01*
X531581D02*
G03*
X531581Y622799I-5080J0D01*
G01*
X556582Y986282D02*
G03*
X556582Y986282I-5080J0D01*
G01*
Y935482D02*
G03*
X556582Y935482I-5080J0D01*
G01*
Y960882D02*
G03*
X556582Y960882I-5080J0D01*
G01*
D122*
X554551Y986282D02*
G03*
X554551Y986282I-3048J0D01*
G01*
Y935482D02*
G03*
X554551Y935482I-3048J0D01*
G01*
Y960882D02*
G03*
X554551Y960882I-3048J0D01*
G01*
M02*
