G04*
G04 #@! TF.GenerationSoftware,Altium Limited,CircuitStudio,1.5.1 (13)*
G04*
G04 Layer_Physical_Order=4*
G04 Layer_Color=12500520*
%FSLAX44Y44*%
%MOMM*%
G71*
G01*
G75*
%ADD34C,0.2540*%
%ADD35C,0.5080*%
%ADD41C,3.6619*%
%ADD42C,1.8001*%
%ADD43C,1.6501*%
%ADD44C,1.5000*%
%ADD45R,1.5000X1.5000*%
%ADD46C,2.0320*%
%ADD47C,0.8636*%
%ADD48C,2.3368*%
%ADD49R,1.8000X2.6000*%
%ADD50R,2.0000X2.0000*%
%ADD51C,2.0000*%
%ADD52R,1.5000X1.5000*%
%ADD53C,1.2000*%
%ADD54C,1.2700*%
%ADD55C,0.5588*%
%ADD56C,0.5080*%
%ADD68C,0.7874*%
D34*
X421894Y1201928D02*
X428752Y1208786D01*
X421894Y1200150D02*
Y1201928D01*
X419354Y1155446D02*
Y1172210D01*
X421894Y1174750D01*
X290576Y1038352D02*
Y1083818D01*
X369824Y1053338D02*
Y1107440D01*
X378460Y1033780D02*
Y1065276D01*
X367792Y1023112D02*
X378460Y1033780D01*
X367792Y994410D02*
Y1023112D01*
X432562Y953008D02*
Y994410D01*
X381000Y1122934D02*
X386080Y1117854D01*
Y1072388D02*
Y1117854D01*
Y1072388D02*
X388112Y1070356D01*
X619760Y1115568D02*
X628396Y1106932D01*
X619760Y1115568D02*
Y1140968D01*
X426466Y1235710D02*
Y1238250D01*
X404622Y1213866D02*
X426466Y1235710D01*
X294640Y1271778D02*
X337820D01*
X347472Y1281430D01*
X840232Y283718D02*
Y514096D01*
X743458Y445516D02*
Y492096D01*
X432308Y1141984D02*
X463550Y1110742D01*
X400050Y1141984D02*
X432308D01*
X386842Y1155192D02*
X400050Y1141984D01*
X386842Y1155192D02*
Y1170432D01*
X394716Y1178306D01*
X703072Y482337D02*
Y813308D01*
X417391Y889323D02*
Y1006416D01*
X551502Y782483D02*
Y889323D01*
X696468Y432054D02*
Y637286D01*
X619760D02*
Y877316D01*
X595630Y901446D02*
X619760Y877316D01*
X595630Y901446D02*
Y1037082D01*
X672084Y498544D02*
X678532Y492096D01*
X672084Y498544D02*
Y1042670D01*
X629666Y630174D02*
Y956564D01*
X719888Y335736D02*
Y630174D01*
X726440Y622799D02*
X726596Y322736D01*
X772532Y401574D02*
Y479806D01*
X601218Y371602D02*
Y409702D01*
X582070Y278892D02*
Y362556D01*
X606552Y422656D02*
Y438912D01*
X403352Y402082D02*
Y422656D01*
X624722Y327778D02*
Y445516D01*
X459740Y299212D02*
Y410210D01*
X344424Y293139D02*
Y371602D01*
X322580Y271295D02*
X344424Y293139D01*
X477012Y279400D02*
Y366014D01*
X497294Y386296D01*
X525780D01*
X474472Y1127506D02*
Y1129538D01*
X465582Y1121664D02*
X471678Y1115568D01*
Y729234D02*
Y1115568D01*
X465582Y1121664D02*
Y1134872D01*
X394716Y1178306D02*
X412750D01*
X551502Y622799D02*
X560578Y613724D01*
Y530352D02*
Y613724D01*
X551502Y622799D02*
Y782483D01*
X665532Y491946D02*
Y757376D01*
X740000Y509426D02*
Y546198D01*
X686934Y1060704D02*
X687061Y1108710D01*
X705866Y1173534D02*
X719074Y1186742D01*
X728980Y1167384D02*
Y1245616D01*
X719074Y1186742D02*
Y1264666D01*
X712072Y1194164D02*
Y1271414D01*
X754380Y1167384D02*
X794114Y1207118D01*
Y1286654D01*
X412750Y1178306D02*
X421894Y1187450D01*
X454025Y1262253D02*
Y1288415D01*
Y1262253D02*
X546227D01*
X480060Y1270254D02*
Y1289050D01*
Y1270254D02*
X480314Y1270000D01*
X568706D01*
X617728Y1082294D02*
Y1102614D01*
X719888Y304090D02*
Y335736D01*
X704596Y288798D02*
X719888Y304090D01*
X789686Y684175D02*
Y729234D01*
X385420Y683260D02*
Y798424D01*
X752094Y482337D02*
X752117Y271295D01*
X323723Y1107440D02*
Y1195324D01*
X388112Y813054D02*
Y1070356D01*
X335280Y1220418D02*
Y1231392D01*
X330200Y1236472D02*
X335280Y1231392D01*
X335332Y1006348D02*
Y1220418D01*
X314452Y977138D02*
Y1013714D01*
X376870Y975802D02*
Y1020252D01*
X399288Y1020318D02*
Y1066800D01*
X734000Y774000D02*
Y889254D01*
X679196Y600456D02*
Y765810D01*
X664718D02*
Y1055506D01*
X681972Y943338D02*
Y1014222D01*
X643382Y375412D02*
Y938022D01*
X464820Y790194D02*
Y1072896D01*
X474472Y1127506D02*
X477774Y1124204D01*
Y798424D02*
Y1124204D01*
X405638Y1013714D02*
Y1058926D01*
X585216Y1258570D02*
X592836Y1266190D01*
X585216Y1187958D02*
Y1258570D01*
X697230Y1135888D02*
Y1180592D01*
X673862Y1144270D02*
Y1158240D01*
X686816Y1049782D02*
X776224D01*
X780406Y1090304D02*
Y1143372D01*
X780542Y1144270D01*
X792988Y1128522D02*
Y1150620D01*
X811530D01*
X818896Y1143254D01*
X571246Y1162050D02*
X582676Y1150620D01*
X619506D01*
X572262Y1171194D02*
X585216Y1158240D01*
X620014D01*
X572702Y1188534D02*
X581660Y1179576D01*
X621030Y1180592D01*
X611886Y938022D02*
Y1036828D01*
X511048Y1140460D02*
X520700Y1150112D01*
X511048Y1006856D02*
Y1140460D01*
X476370Y1153534D02*
Y1230884D01*
X520700Y1150112D02*
Y1199388D01*
X434594Y1187450D02*
X443992Y1178052D01*
X434594Y1200150D02*
X437896D01*
X469392Y1168534D02*
Y1200150D01*
X437896D02*
X448056Y1210310D01*
X459232D01*
X469392Y1200150D01*
X628396Y981964D02*
Y1106932D01*
X665226Y1071372D02*
X686816Y1049782D01*
X573532Y1178814D02*
X585724Y1166622D01*
X655574D01*
X665226Y1156970D01*
Y1071372D02*
Y1156970D01*
X434594Y1174750D02*
X436372Y1172972D01*
Y1153922D02*
Y1172972D01*
Y1153922D02*
X444754Y1145540D01*
X501650D01*
X512191Y1156081D01*
Y1199769D01*
X528854Y1145058D02*
Y1195832D01*
X518160Y1134364D02*
X528854Y1145058D01*
X518160Y1014222D02*
Y1134364D01*
X571246Y889254D02*
Y1092962D01*
X539877Y1124331D02*
X571246Y1092962D01*
X539877Y1124331D02*
Y1199769D01*
X528066Y970026D02*
Y1067562D01*
X547370Y1086866D01*
X505460Y1157986D02*
Y1201674D01*
X484632Y1222502D02*
X505460Y1201674D01*
X587274Y1020318D02*
Y1143534D01*
X493776Y1020318D02*
Y1046480D01*
X557530Y998982D02*
Y1086866D01*
D35*
X286512Y1133218D02*
X299720Y1120010D01*
Y898652D02*
Y1120010D01*
Y898652D02*
X339090Y859282D01*
Y618744D02*
Y859282D01*
X432562Y778002D02*
Y953008D01*
X377444Y512572D02*
Y580390D01*
X339090Y618744D02*
X377444Y580390D01*
X414784Y591564D02*
Y701800D01*
Y591564D02*
X431292Y575056D01*
X443992D01*
D41*
X598002Y857485D02*
D03*
X505000D02*
D03*
X598002Y697800D02*
D03*
X505000D02*
D03*
D42*
X576501Y782483D02*
D03*
X551502D02*
D03*
X526501D02*
D03*
X576501Y622799D02*
D03*
X551502D02*
D03*
X526501D02*
D03*
D43*
X322580Y271295D02*
D03*
Y301295D02*
D03*
Y386296D02*
D03*
X525780Y271295D02*
D03*
Y301295D02*
D03*
Y386296D02*
D03*
X424180Y271295D02*
D03*
Y301295D02*
D03*
Y386296D02*
D03*
X780420Y271295D02*
D03*
Y301295D02*
D03*
Y386296D02*
D03*
D44*
X728980Y1167384D02*
D03*
X754380D02*
D03*
X632460Y1289050D02*
D03*
X607060D02*
D03*
X581660D02*
D03*
X556260D02*
D03*
X530860D02*
D03*
X505460D02*
D03*
X480060D02*
D03*
X469392Y575056D02*
D03*
X443992Y600456D02*
D03*
X469392D02*
D03*
X443992Y625856D02*
D03*
X469392D02*
D03*
X443992Y651256D02*
D03*
X469392D02*
D03*
X443992Y676656D02*
D03*
X469392D02*
D03*
D45*
X779780Y1167384D02*
D03*
X454660Y1289050D02*
D03*
D46*
X791464Y445516D02*
D03*
X400558Y1086104D02*
D03*
X381000Y1122934D02*
D03*
X493776Y1046480D02*
D03*
X375666Y424180D02*
D03*
X659892Y385318D02*
D03*
X795528Y600456D02*
D03*
X660908Y1292860D02*
D03*
X426466Y1238250D02*
D03*
X401320D02*
D03*
X818896Y1250696D02*
D03*
X660908Y1267460D02*
D03*
X818896Y1214374D02*
D03*
Y1287018D02*
D03*
X791464Y414782D02*
D03*
X822452Y600456D02*
D03*
X477012Y279400D02*
D03*
X297688Y424180D02*
D03*
X375158Y279400D02*
D03*
X289814D02*
D03*
X559562Y452374D02*
D03*
X347472Y1281430D02*
D03*
X275082Y1060196D02*
D03*
X379730Y1281430D02*
D03*
X612394Y310642D02*
D03*
X818896Y1177544D02*
D03*
Y1143254D02*
D03*
X804672Y1093216D02*
D03*
Y1041908D02*
D03*
X704596Y288798D02*
D03*
D47*
X428244Y1162050D02*
D03*
X438404Y1212850D02*
D03*
X418084D02*
D03*
D48*
X402844Y1162050D02*
D03*
X453644D02*
D03*
Y1193800D02*
D03*
X402844D02*
D03*
D49*
X287000Y844000D02*
D03*
X401000D02*
D03*
X702000D02*
D03*
X816000D02*
D03*
X717601Y683260D02*
D03*
X790601D02*
D03*
X312420D02*
D03*
X385420D02*
D03*
D50*
X319000Y774000D02*
D03*
X734000D02*
D03*
D51*
X369000D02*
D03*
X319000Y919000D02*
D03*
X344000D02*
D03*
X369000D02*
D03*
X784000Y774000D02*
D03*
X734000Y919000D02*
D03*
X759000D02*
D03*
X784000D02*
D03*
D52*
X443992Y575056D02*
D03*
D53*
X551502Y986282D02*
D03*
Y935482D02*
D03*
Y960882D02*
D03*
D54*
X277622Y455168D02*
D03*
X286512Y1133218D02*
D03*
X360296D02*
D03*
X528320Y1250950D02*
D03*
X321056Y1246378D02*
D03*
X311556Y1299870D02*
D03*
X440016Y1005928D02*
D03*
X585812Y576414D02*
D03*
X777104Y587248D02*
D03*
X709168Y443738D02*
D03*
X283210Y551688D02*
D03*
X282702Y572262D02*
D03*
X271272Y499872D02*
D03*
X432562Y778002D02*
D03*
Y953008D02*
D03*
X464820Y453390D02*
D03*
Y469900D02*
D03*
X447040Y550926D02*
D03*
X463550Y536956D02*
D03*
X447294D02*
D03*
X518414Y469646D02*
D03*
X536194Y452120D02*
D03*
X518414D02*
D03*
X411480Y453390D02*
D03*
X429260D02*
D03*
Y469900D02*
D03*
X447040D02*
D03*
Y453390D02*
D03*
X337566Y571500D02*
D03*
X359410D02*
D03*
X431038Y550926D02*
D03*
X393700Y453390D02*
D03*
X340360D02*
D03*
X358140D02*
D03*
X375920D02*
D03*
X463550Y550926D02*
D03*
X414782Y551688D02*
D03*
X375920Y469900D02*
D03*
X359410Y545846D02*
D03*
X337566D02*
D03*
X536194Y469646D02*
D03*
X377444Y512572D02*
D03*
Y580390D02*
D03*
X414784Y701800D02*
D03*
D55*
X428752Y1208786D02*
D03*
X419354Y1155446D02*
D03*
X290576Y1038352D02*
D03*
Y1083818D02*
D03*
X369824Y1107440D02*
D03*
X367792Y994410D02*
D03*
X432562D02*
D03*
X378460Y1065276D02*
D03*
X369824Y1053338D02*
D03*
X369942Y1043568D02*
D03*
X378578Y1089524D02*
D03*
X695062Y1123306D02*
D03*
X720716Y1082920D02*
D03*
X735330Y1087374D02*
D03*
X628396Y981964D02*
D03*
X619760Y1140968D02*
D03*
X623198Y1230512D02*
D03*
X744916Y975802D02*
D03*
X766963Y975751D02*
D03*
X830816Y972838D02*
D03*
X699008Y987806D02*
D03*
X705494Y1024772D02*
D03*
X747894Y1024772D02*
D03*
X270764Y1208786D02*
D03*
Y1156716D02*
D03*
X710810Y467224D02*
D03*
X705612Y371602D02*
D03*
X680720Y372872D02*
D03*
X563854Y1122960D02*
D03*
X495418Y1094350D02*
D03*
X464820Y1083056D02*
D03*
X656082Y1198626D02*
D03*
X661806Y1232544D02*
D03*
X694182Y1215136D02*
D03*
X704850Y1209294D02*
D03*
X756412Y1217676D02*
D03*
X727456Y1272032D02*
D03*
X479416Y1240672D02*
D03*
X433460Y1279516D02*
D03*
X294640Y1271778D02*
D03*
X270510Y1225550D02*
D03*
X269748Y1242822D02*
D03*
X358902Y1243330D02*
D03*
X419608Y1112774D02*
D03*
X420116Y1132078D02*
D03*
X422130Y1078720D02*
D03*
X401574Y986790D02*
D03*
X354417Y977813D02*
D03*
X331963Y977377D02*
D03*
X267480Y972584D02*
D03*
X743458Y593344D02*
D03*
X752094Y482337D02*
D03*
X703072D02*
D03*
X733044Y526698D02*
D03*
X679098Y543208D02*
D03*
X620776Y574040D02*
D03*
X652780Y489966D02*
D03*
X673862Y309880D02*
D03*
X640198Y1231002D02*
D03*
X697230Y1135888D02*
D03*
Y1180592D02*
D03*
X673862Y1158240D02*
D03*
X743458Y445516D02*
D03*
X840232Y283718D02*
D03*
Y514096D02*
D03*
X743458Y492096D02*
D03*
X703072Y813308D02*
D03*
X388112Y813054D02*
D03*
X323723Y1107440D02*
D03*
X335332Y1006348D02*
D03*
X417391Y1006416D02*
D03*
Y889323D02*
D03*
X551502D02*
D03*
X679196Y600456D02*
D03*
Y765810D02*
D03*
X664718D02*
D03*
Y1055506D02*
D03*
X643382Y938022D02*
D03*
Y375412D02*
D03*
X611886Y938022D02*
D03*
Y1036828D02*
D03*
X619760Y637286D02*
D03*
X696468D02*
D03*
Y432054D02*
D03*
X595630Y1037082D02*
D03*
X672084Y1042670D02*
D03*
X678532Y492096D02*
D03*
X493776Y1020318D02*
D03*
X681972Y1014222D02*
D03*
Y943338D02*
D03*
X518160Y1014222D02*
D03*
X629666Y630174D02*
D03*
Y956564D02*
D03*
X719888Y630174D02*
D03*
X734000Y889254D02*
D03*
X571246D02*
D03*
X726440Y622799D02*
D03*
X772532Y401574D02*
D03*
X601218Y409702D02*
D03*
Y371602D02*
D03*
X582070Y278892D02*
D03*
Y362556D02*
D03*
X606552Y438912D02*
D03*
Y422656D02*
D03*
X403352D02*
D03*
Y402082D02*
D03*
X624722Y327778D02*
D03*
Y445516D02*
D03*
X459740Y299212D02*
D03*
Y410210D02*
D03*
X344424Y371602D02*
D03*
X474472Y1129538D02*
D03*
X465582Y1134872D02*
D03*
X463550Y1110742D02*
D03*
X539496Y1088136D02*
D03*
X528066Y970026D02*
D03*
X557530Y998982D02*
D03*
X547370Y1086866D02*
D03*
X557530D02*
D03*
X560578Y530352D02*
D03*
X665532Y757376D02*
D03*
Y491946D02*
D03*
X740000Y509426D02*
D03*
Y546198D02*
D03*
X476370Y1230884D02*
D03*
X469392Y1168534D02*
D03*
X476370Y1153534D02*
D03*
X686934Y1060704D02*
D03*
X443992Y1178052D02*
D03*
X705866Y1173534D02*
D03*
X712072Y1194164D02*
D03*
X728980Y1245616D02*
D03*
X719074Y1264666D02*
D03*
X712072Y1271414D02*
D03*
X794114Y1286654D02*
D03*
X546227Y1262253D02*
D03*
X568706Y1270000D02*
D03*
X587274Y1143534D02*
D03*
X405638Y1058926D02*
D03*
Y1013714D02*
D03*
X314452D02*
D03*
Y977138D02*
D03*
X399288Y1066800D02*
D03*
X376870Y975802D02*
D03*
Y1020252D02*
D03*
X399354D02*
D03*
X464820Y1072896D02*
D03*
Y790194D02*
D03*
X587274Y1020318D02*
D03*
X572702Y1188534D02*
D03*
X573532Y1178814D02*
D03*
X572262Y1171194D02*
D03*
X571246Y1162050D02*
D03*
X792988Y1128522D02*
D03*
X719888Y335736D02*
D03*
X726596Y322736D02*
D03*
X780406Y1090304D02*
D03*
X780542Y1144270D02*
D03*
X585216Y1187958D02*
D03*
X592836Y1266190D02*
D03*
X619506Y1150620D02*
D03*
X620014Y1158240D02*
D03*
X621030Y1180592D02*
D03*
X673862Y1144270D02*
D03*
X776224Y1049782D02*
D03*
X471678Y729234D02*
D03*
X789686D02*
D03*
X385420Y798424D02*
D03*
X477774D02*
D03*
X752117Y271295D02*
D03*
X335280Y1220418D02*
D03*
X323723Y1195324D02*
D03*
X350774Y1226918D02*
D03*
X351126Y1207418D02*
D03*
X342646Y1231900D02*
D03*
X330200Y1236472D02*
D03*
X579374Y1043178D02*
D03*
X564896Y1042670D02*
D03*
X760104Y578476D02*
D03*
X665226Y1248664D02*
D03*
X687070Y1108710D02*
D03*
X636406Y1115060D02*
D03*
X538226Y501650D02*
D03*
X563880Y1028192D02*
D03*
X747150Y1041772D02*
D03*
X772532Y479806D02*
D03*
X792988Y1150620D02*
D03*
X511048Y1006856D02*
D03*
X451630Y1078756D02*
D03*
X535178Y1041146D02*
D03*
X504190Y1128522D02*
D03*
X539877Y1199769D02*
D03*
X528854Y1195832D02*
D03*
X512191Y1199769D02*
D03*
X520700Y1199388D02*
D03*
X617728Y1082294D02*
D03*
Y1102614D02*
D03*
X653406Y1115060D02*
D03*
X505460Y1157986D02*
D03*
X404622Y1213866D02*
D03*
X484632Y1222502D02*
D03*
X580656Y1128534D02*
D03*
D56*
X444500Y519430D02*
D03*
X462280D02*
D03*
Y510709D02*
D03*
Y501988D02*
D03*
Y493268D02*
D03*
X453390Y519430D02*
D03*
Y510709D02*
D03*
Y501988D02*
D03*
Y493268D02*
D03*
X444500Y510709D02*
D03*
Y501988D02*
D03*
Y493268D02*
D03*
D68*
X434594Y1187450D02*
D03*
X421894Y1200150D02*
D03*
X434594D02*
D03*
X421894Y1187450D02*
D03*
X434594Y1174750D02*
D03*
X421894D02*
D03*
M02*
