G04*
G04 #@! TF.GenerationSoftware,Altium Limited,CircuitStudio,1.5.1 (13)*
G04*
G04 Layer_Physical_Order=1*
G04 Layer_Color=11767835*
%FSLAX44Y44*%
%MOMM*%
G71*
G01*
G75*
%ADD10R,1.3000X1.0500*%
%ADD11R,1.0000X1.1000*%
%ADD12R,1.1000X1.0000*%
%ADD13R,1.7500X1.1500*%
%ADD14R,1.1500X1.7500*%
%ADD15R,0.4500X1.5500*%
%ADD16R,0.9500X0.9000*%
%ADD17O,2.1500X0.4500*%
%ADD18R,2.1500X0.4500*%
%ADD19R,2.4000X3.1000*%
%ADD20R,1.6764X0.3556*%
%ADD21O,0.3000X1.7000*%
%ADD22R,1.0500X1.3000*%
%ADD23R,2.7000X4.8999*%
%ADD24O,0.3000X1.8000*%
%ADD25O,1.8000X0.3000*%
%ADD26R,1.4224X0.4318*%
%ADD27R,1.1000X1.3000*%
%ADD28R,0.6000X1.1000*%
%ADD29O,0.6000X1.1000*%
%ADD30O,0.6000X2.2000*%
%ADD31R,1.5500X0.4500*%
%ADD32R,3.5500X1.8500*%
%ADD33R,1.8500X3.5500*%
%ADD34C,0.2540*%
%ADD35C,0.5080*%
%ADD36R,3.3782X2.8702*%
%ADD37R,2.4384X6.9850*%
%ADD38R,11.6078X2.3876*%
%ADD39R,3.2004X4.6736*%
%ADD40R,5.6642X4.4704*%
%ADD41C,3.6619*%
%ADD42C,1.8001*%
%ADD43C,1.6501*%
%ADD44C,1.5000*%
%ADD45R,1.5000X1.5000*%
%ADD46C,2.0320*%
%ADD47C,0.8636*%
%ADD48C,2.3368*%
%ADD49R,1.8000X2.6000*%
%ADD50R,2.0000X2.0000*%
%ADD51C,2.0000*%
%ADD52R,1.5000X1.5000*%
%ADD53C,1.2000*%
%ADD54C,1.2700*%
%ADD55C,0.5588*%
%ADD56C,0.5080*%
G36*
X466090Y479044D02*
X482854Y479044D01*
X482854Y444500D01*
X324358Y444500D01*
X324358Y463042D01*
X362204Y463042D01*
X362204Y490474D01*
X466090Y490474D01*
Y479044D01*
D02*
G37*
D10*
X788416Y962338D02*
D03*
Y942838D02*
D03*
X744916Y962338D02*
D03*
Y942838D02*
D03*
X722869Y962338D02*
D03*
Y942838D02*
D03*
X331963Y942584D02*
D03*
Y962084D02*
D03*
X354417D02*
D03*
Y942584D02*
D03*
X766963Y962338D02*
D03*
Y942838D02*
D03*
X309510Y942584D02*
D03*
Y962084D02*
D03*
X376870Y942584D02*
D03*
Y962084D02*
D03*
X504190Y538070D02*
D03*
Y518570D02*
D03*
X511556Y1240692D02*
D03*
Y1260192D02*
D03*
X623062Y362556D02*
D03*
Y343056D02*
D03*
X828802Y547468D02*
D03*
Y527968D02*
D03*
X638810Y543208D02*
D03*
Y562708D02*
D03*
X659130Y543208D02*
D03*
Y562708D02*
D03*
D11*
X611886Y1055506D02*
D03*
Y1072506D02*
D03*
X779272Y1128640D02*
D03*
Y1111640D02*
D03*
X762508Y1128640D02*
D03*
Y1111640D02*
D03*
X419608Y1262516D02*
D03*
Y1279516D02*
D03*
X402844Y1262516D02*
D03*
Y1279516D02*
D03*
X528066Y952618D02*
D03*
Y935618D02*
D03*
X778764Y1255658D02*
D03*
Y1272658D02*
D03*
Y1221114D02*
D03*
Y1238114D02*
D03*
X676656Y1249544D02*
D03*
Y1232544D02*
D03*
X579374Y1072506D02*
D03*
Y1055506D02*
D03*
X563118Y1072506D02*
D03*
Y1055506D02*
D03*
X493776Y1240672D02*
D03*
Y1257672D02*
D03*
X595630Y1055506D02*
D03*
Y1072506D02*
D03*
X696468Y450224D02*
D03*
Y467224D02*
D03*
X482600Y553330D02*
D03*
Y536330D02*
D03*
X733298Y1041772D02*
D03*
Y1024772D02*
D03*
X708152Y1123306D02*
D03*
Y1106306D02*
D03*
X707136Y1082920D02*
D03*
Y1065920D02*
D03*
X717296Y1024772D02*
D03*
Y1041772D02*
D03*
X292100Y1098940D02*
D03*
Y1115940D02*
D03*
X323850Y1043822D02*
D03*
Y1060822D02*
D03*
X341630Y1044076D02*
D03*
Y1061076D02*
D03*
X358394Y1060568D02*
D03*
Y1043568D02*
D03*
X438912Y1050408D02*
D03*
Y1033408D02*
D03*
X422148Y1050408D02*
D03*
Y1033408D02*
D03*
X659384Y343798D02*
D03*
Y360798D02*
D03*
X643382Y343798D02*
D03*
Y360798D02*
D03*
X795274Y528456D02*
D03*
Y545456D02*
D03*
X811276Y528456D02*
D03*
Y545456D02*
D03*
X628142Y1055506D02*
D03*
Y1072506D02*
D03*
X614172Y956564D02*
D03*
Y973564D02*
D03*
X620776Y560188D02*
D03*
Y543188D02*
D03*
X743458Y580762D02*
D03*
Y563762D02*
D03*
D12*
X780406Y1062228D02*
D03*
X763406D02*
D03*
X780406Y1077976D02*
D03*
X763406D02*
D03*
X738242Y1287018D02*
D03*
X721242D02*
D03*
X737988Y1209294D02*
D03*
X720988D02*
D03*
X495418Y1083056D02*
D03*
X478418D02*
D03*
X636406Y1126236D02*
D03*
X653406D02*
D03*
X623198Y1217422D02*
D03*
X640198D02*
D03*
X452208Y1118616D02*
D03*
X435208D02*
D03*
X660790Y432054D02*
D03*
X677790D02*
D03*
X641722Y457708D02*
D03*
X624722D02*
D03*
X660790Y415798D02*
D03*
X677790D02*
D03*
X624722Y474472D02*
D03*
X641722D02*
D03*
X385200Y527812D02*
D03*
X402200D02*
D03*
X296554Y455168D02*
D03*
X313554D02*
D03*
X520310Y501650D02*
D03*
X503310D02*
D03*
X520310Y485902D02*
D03*
X503310D02*
D03*
X502276Y469900D02*
D03*
X485276D02*
D03*
X299838Y1225550D02*
D03*
X282838D02*
D03*
X299584Y1208786D02*
D03*
X282584D02*
D03*
X528710Y1029208D02*
D03*
X545710D02*
D03*
X742306Y1127252D02*
D03*
X725306D02*
D03*
X653406Y1141984D02*
D03*
X636406D02*
D03*
X299838Y1242822D02*
D03*
X282838D02*
D03*
X335906Y1156716D02*
D03*
X318906D02*
D03*
X353196Y1156716D02*
D03*
X370196D02*
D03*
X334654Y1172972D02*
D03*
X351654D02*
D03*
X395596Y1032510D02*
D03*
X378596D02*
D03*
X659502Y326644D02*
D03*
X642502D02*
D03*
X642502Y310896D02*
D03*
X659502D02*
D03*
X700650Y358902D02*
D03*
X683650D02*
D03*
X777104Y563626D02*
D03*
X760104D02*
D03*
X772532Y509270D02*
D03*
X755532D02*
D03*
X755532Y493268D02*
D03*
X772532D02*
D03*
X683904Y1042670D02*
D03*
X700904D02*
D03*
X284616Y1156716D02*
D03*
X301616D02*
D03*
X378578Y1077976D02*
D03*
X361578D02*
D03*
D13*
X579882Y957054D02*
D03*
Y986554D02*
D03*
X699008Y943338D02*
D03*
Y972838D02*
D03*
X285750Y972584D02*
D03*
Y943084D02*
D03*
X401574Y943084D02*
D03*
Y972584D02*
D03*
X813308Y943338D02*
D03*
Y972838D02*
D03*
X396240Y551924D02*
D03*
Y581424D02*
D03*
X400304Y480804D02*
D03*
Y510304D02*
D03*
X303530Y1060468D02*
D03*
Y1030968D02*
D03*
D14*
X451630Y1095756D02*
D03*
X422130D02*
D03*
D15*
X678532Y474800D02*
D03*
X672032D02*
D03*
X665532D02*
D03*
X659032D02*
D03*
X678532Y452300D02*
D03*
X672032D02*
D03*
X665532D02*
D03*
X659032D02*
D03*
D16*
X419100Y587244D02*
D03*
Y618744D02*
D03*
X435102Y753618D02*
D03*
Y722118D02*
D03*
D17*
X482460Y487090D02*
D03*
Y499790D02*
D03*
Y512490D02*
D03*
Y525190D02*
D03*
X424960Y487090D02*
D03*
Y499790D02*
D03*
Y512490D02*
D03*
D18*
Y525190D02*
D03*
D19*
X453710Y506140D02*
D03*
D20*
X698754Y1225914D02*
D03*
Y1232414D02*
D03*
Y1238914D02*
D03*
Y1245414D02*
D03*
Y1251914D02*
D03*
Y1258414D02*
D03*
Y1264914D02*
D03*
Y1271414D02*
D03*
X755142D02*
D03*
Y1264914D02*
D03*
Y1258414D02*
D03*
Y1251914D02*
D03*
Y1245414D02*
D03*
Y1238914D02*
D03*
Y1232414D02*
D03*
Y1225914D02*
D03*
D21*
X745330Y1106858D02*
D03*
X740330D02*
D03*
X735330D02*
D03*
X730330D02*
D03*
X725330D02*
D03*
X745330Y1065858D02*
D03*
X740330D02*
D03*
X735330D02*
D03*
X730330D02*
D03*
X725330D02*
D03*
D22*
X298352Y551688D02*
D03*
X317852D02*
D03*
X298352Y572262D02*
D03*
X317852D02*
D03*
X337468Y1258062D02*
D03*
X356968D02*
D03*
X622964Y1198626D02*
D03*
X642464D02*
D03*
X452218Y1136904D02*
D03*
X432718D02*
D03*
X622456Y419608D02*
D03*
X641956D02*
D03*
X322736Y410210D02*
D03*
X342236D02*
D03*
X525682D02*
D03*
X545182D02*
D03*
X422812D02*
D03*
X442312D02*
D03*
D23*
X341516Y499872D02*
D03*
X295516D02*
D03*
D24*
X508854Y1105534D02*
D03*
X513854D02*
D03*
X518854D02*
D03*
X523854D02*
D03*
X528854D02*
D03*
X533854D02*
D03*
X538854D02*
D03*
X543854D02*
D03*
X548854D02*
D03*
X553854D02*
D03*
X558854D02*
D03*
X563854D02*
D03*
X568854D02*
D03*
X573854D02*
D03*
X578854D02*
D03*
X583854D02*
D03*
Y1216534D02*
D03*
X578854D02*
D03*
X573854D02*
D03*
X568854D02*
D03*
X563854D02*
D03*
X558854D02*
D03*
X553854D02*
D03*
X548854D02*
D03*
X543854D02*
D03*
X538854D02*
D03*
X533854D02*
D03*
X528854D02*
D03*
X523854D02*
D03*
X518854D02*
D03*
X513854D02*
D03*
X508854D02*
D03*
D25*
X601854Y1123534D02*
D03*
Y1128534D02*
D03*
Y1133534D02*
D03*
Y1138534D02*
D03*
Y1143534D02*
D03*
Y1148534D02*
D03*
Y1153534D02*
D03*
Y1158534D02*
D03*
Y1163534D02*
D03*
Y1168534D02*
D03*
Y1173534D02*
D03*
Y1178534D02*
D03*
Y1183534D02*
D03*
Y1188534D02*
D03*
Y1193534D02*
D03*
Y1198534D02*
D03*
X490854D02*
D03*
Y1193534D02*
D03*
Y1188534D02*
D03*
Y1183534D02*
D03*
Y1178534D02*
D03*
Y1173534D02*
D03*
Y1168534D02*
D03*
Y1163534D02*
D03*
Y1158534D02*
D03*
Y1153534D02*
D03*
Y1148534D02*
D03*
Y1143534D02*
D03*
Y1138534D02*
D03*
Y1133534D02*
D03*
Y1128534D02*
D03*
Y1123534D02*
D03*
D26*
X323215Y1226918D02*
D03*
Y1220418D02*
D03*
Y1213918D02*
D03*
Y1207418D02*
D03*
X366649D02*
D03*
Y1213918D02*
D03*
Y1220418D02*
D03*
Y1226918D02*
D03*
D27*
X545460Y1053006D02*
D03*
X528960D02*
D03*
X545460Y1074006D02*
D03*
X528960D02*
D03*
D28*
X321056Y1284986D02*
D03*
D29*
X311556D02*
D03*
X302056D02*
D03*
X321056Y1258986D02*
D03*
X302056D02*
D03*
D30*
X346964Y1133218D02*
D03*
X334264D02*
D03*
X321564D02*
D03*
X308864D02*
D03*
X346964Y1085218D02*
D03*
X334264D02*
D03*
X321564D02*
D03*
X308864D02*
D03*
D31*
X680392Y342236D02*
D03*
Y335736D02*
D03*
Y329236D02*
D03*
Y322736D02*
D03*
X702892Y342236D02*
D03*
Y335736D02*
D03*
Y329236D02*
D03*
Y322736D02*
D03*
X753544Y546198D02*
D03*
Y539698D02*
D03*
Y533198D02*
D03*
Y526698D02*
D03*
X776044Y546198D02*
D03*
Y539698D02*
D03*
Y533198D02*
D03*
Y526698D02*
D03*
D32*
X533312Y554736D02*
D03*
X585812D02*
D03*
D33*
X458724Y953428D02*
D03*
Y1005928D02*
D03*
D34*
X375666Y424180D02*
X389636Y410210D01*
X375666Y424180D02*
X377444D01*
X299466D02*
X313592Y410054D01*
X297688Y424180D02*
X299466D01*
X828802Y537972D02*
Y547468D01*
X303530Y1060468D02*
X320176Y1043822D01*
X275082Y1060196D02*
X303258D01*
X290576Y1033272D02*
Y1038352D01*
Y1033272D02*
X292880Y1030968D01*
X303530D01*
X290576Y1083818D02*
Y1097416D01*
X292100Y1115940D02*
X329810D01*
X367792Y994410D02*
X432562D01*
X374278Y1065276D02*
X378460D01*
X361578Y1077976D02*
X374278Y1065276D01*
X372754Y1050408D02*
X422148D01*
X369824Y1053338D02*
X372754Y1050408D01*
X358394Y1043568D02*
X369942D01*
X379222Y1107440D02*
X400558Y1086104D01*
X369824Y1107440D02*
X379222D01*
X378578Y1077976D02*
Y1089524D01*
X695062Y1123306D02*
X708152D01*
X707136Y1082920D02*
X720716D01*
X735330Y1087374D02*
Y1106858D01*
X619996Y973564D02*
X628396Y981964D01*
X614172Y973564D02*
X619996D01*
X635644Y1140968D02*
X636152Y1140460D01*
X617326Y1138534D02*
X619760Y1140968D01*
X601854Y1138534D02*
X617326D01*
X623198Y1217422D02*
Y1230512D01*
X601854Y1207390D02*
X611886Y1217422D01*
X601854Y1198534D02*
Y1207390D01*
X611886Y1217422D02*
X623198D01*
X744916Y962338D02*
Y975802D01*
X766963Y962338D02*
Y975751D01*
X813308Y972838D02*
X830816D01*
X699008Y972838D02*
Y987806D01*
X705494Y1024772D02*
X717296D01*
X733298Y1024772D02*
X747894D01*
X366649Y1213918D02*
X404674D01*
X312674Y1236472D02*
X330200D01*
X306324Y1242822D02*
X312674Y1236472D01*
X299838Y1242822D02*
X306324D01*
X270764Y1208786D02*
X282584D01*
X270764Y1156716D02*
X284616D01*
X696468Y467224D02*
X710810D01*
X700650Y366640D02*
X705612Y371602D01*
X700650Y358902D02*
Y366640D01*
X680720Y372872D02*
X683650Y369942D01*
Y358902D02*
Y369942D01*
X563854Y1105534D02*
Y1122960D01*
X495300Y1109218D02*
X506730Y1120648D01*
X465074Y1109218D02*
X495300D01*
X463550Y1110742D02*
X465074Y1109218D01*
X464820Y1083056D02*
X478418D01*
X642464Y1198626D02*
X656082D01*
X661806Y1232544D02*
X676656D01*
X694182Y1215136D02*
X698754Y1219708D01*
Y1225914D01*
X704850Y1209294D02*
X720988D01*
X479416Y1240672D02*
X493776D01*
X419608Y1279516D02*
X433460D01*
X402844D02*
X419608D01*
X294640Y1271778D02*
X302056Y1264362D01*
Y1258986D02*
Y1264362D01*
X270510Y1225550D02*
X282838D01*
X269748Y1242822D02*
X282838D01*
X356968Y1245264D02*
X358902Y1243330D01*
X356968Y1245264D02*
Y1258062D01*
X350774Y1226918D02*
X366649D01*
X419608Y1112774D02*
X424434Y1117600D01*
X434192D01*
X435208Y1118616D01*
X420116Y1132078D02*
X424942Y1136904D01*
X432718D01*
X422130Y1078720D02*
Y1095756D01*
X401574Y972584D02*
Y986790D01*
X354417Y962084D02*
Y977813D01*
X331963Y962084D02*
Y977377D01*
X267480Y972584D02*
X285750D01*
X743458Y580762D02*
Y593344D01*
X703072Y482337D02*
X752094D01*
X733044Y526698D02*
X753544D01*
X659130Y543208D02*
X679098D01*
X620776Y560188D02*
Y574040D01*
X652780Y489966D02*
X659032Y483714D01*
Y474800D02*
Y483714D01*
X673862Y309880D02*
X680392Y316410D01*
Y322736D01*
X676656Y1232544D02*
X683026Y1238914D01*
X698754D01*
X640198Y1217422D02*
Y1231002D01*
X743458Y445516D02*
X791464D01*
X749808Y283718D02*
X840232D01*
X737385Y271295D02*
X749808Y283718D01*
X678532Y492096D02*
X743458D01*
X774192Y432054D02*
X791464Y414782D01*
X696468Y432054D02*
X774192D01*
X388112Y813054D02*
X703072Y813308D01*
X323723Y1107440D02*
X369824D01*
X335332Y1006416D02*
X417391D01*
Y889323D02*
X551502D01*
X619760Y637286D02*
X696468D01*
X677790Y432054D02*
X696468D01*
X595630Y1037082D02*
Y1055506D01*
X672084Y1042670D02*
X683904D01*
X678532Y474800D02*
Y492096D01*
X614172Y956564D02*
X629666D01*
Y630174D02*
X719888D01*
X576501Y622799D02*
X726440D01*
X599694Y401574D02*
X772532D01*
X591058Y410210D02*
X599694Y401574D01*
X545182Y410210D02*
X591058D01*
X612550Y409702D02*
X622456Y419608D01*
X601218Y409702D02*
X612550D01*
X344424Y371602D02*
X601218D01*
X582070Y362556D02*
X623062D01*
X548640Y278892D02*
X582070D01*
X544068Y283464D02*
X548640Y278892D01*
X648970Y288544D02*
X659502Y299076D01*
X517398Y288544D02*
X648970D01*
X506730Y299212D02*
X517398Y288544D01*
X515112Y283464D02*
X544068D01*
X496824Y265176D02*
X515112Y283464D01*
X453644Y265176D02*
X496824D01*
X447525Y271295D02*
X453644Y265176D01*
X424180Y271295D02*
X447525D01*
X641722Y447158D02*
Y457708D01*
X633476Y438912D02*
X641722Y447158D01*
X606552Y438912D02*
X633476D01*
X403352Y422656D02*
X606552D01*
X378714Y402082D02*
X403352D01*
X370586Y410210D02*
X378714Y402082D01*
X342236Y410210D02*
X370586D01*
X624722Y327778D02*
X641368D01*
X624722Y445516D02*
Y457708D01*
X642248Y310642D02*
X642502Y310896D01*
X612394Y310642D02*
X642248D01*
X659502Y299076D02*
Y310896D01*
X642502D02*
Y326644D01*
Y310896D02*
Y310896D01*
X642502D01*
X459740Y299212D02*
X506730D01*
X442312Y410210D02*
X459740D01*
X642522Y509426D02*
X740000D01*
X624722Y491626D02*
X642522Y509426D01*
X624722Y474472D02*
Y491626D01*
X740000Y546198D02*
X743458Y549656D01*
Y563762D01*
X389636Y410210D02*
X422812D01*
X416075Y279400D02*
X424180Y271295D01*
X375158Y279400D02*
X416075D01*
X314475D02*
X322580Y271295D01*
X289814Y279400D02*
X314475D01*
X525682Y386394D02*
Y410210D01*
X424180Y386296D02*
Y408842D01*
X313592Y410054D02*
X322580D01*
Y386296D02*
Y410054D01*
X660908Y1292860D02*
X682354Y1271414D01*
X698754D01*
X551502Y985433D02*
X579882Y957054D01*
X551502Y985433D02*
Y986282D01*
X551367Y935618D02*
X551502Y935482D01*
X528066Y935618D02*
X551367D01*
X474472Y1129538D02*
X478468Y1133534D01*
X452208Y1096334D02*
Y1118616D01*
X478468Y1133534D02*
X490854D01*
X465582Y1134872D02*
X469244Y1138534D01*
X490854D01*
X453478Y1117346D02*
X484666D01*
X490854Y1123534D01*
X493776Y1223264D02*
Y1240672D01*
Y1223264D02*
X500506Y1216534D01*
X508854D01*
X539496Y1084834D02*
Y1088136D01*
Y1084834D02*
X545460Y1078870D01*
X528066Y952618D02*
Y970026D01*
X618998Y1198626D02*
X622964D01*
X613906Y1193534D02*
X618998Y1198626D01*
X601854Y1193534D02*
X613906D01*
X545460Y1074006D02*
Y1078870D01*
X506730Y1120648D02*
X536194D01*
X538854Y1117988D01*
Y1105534D02*
Y1117988D01*
X702892Y329236D02*
Y335736D01*
X677790Y415798D02*
Y432054D01*
X660790Y415798D02*
Y432054D01*
X656980Y419608D02*
X660790Y415798D01*
X641956Y419608D02*
X656980D01*
X560578Y530352D02*
X607940D01*
X620776Y543188D01*
X586792Y757376D02*
X665532D01*
X576501Y767667D02*
X586792Y757376D01*
X576501Y767667D02*
Y782483D01*
X665532Y474800D02*
Y491946D01*
X624722Y457708D02*
Y474472D01*
X641722Y457708D02*
Y474472D01*
X641722Y457708D02*
X647130Y452300D01*
X659032D01*
X672032Y437812D02*
X677790Y432054D01*
X672032Y437812D02*
Y452300D01*
X660790Y432054D02*
X665532Y436796D01*
Y452300D01*
X672032Y474800D02*
X678532D01*
X790532Y533198D02*
X795274Y528456D01*
X776044Y533198D02*
X790532D01*
X693830Y562708D02*
X723340Y533198D01*
X659130Y562708D02*
X693830D01*
X638810D02*
X659130D01*
X638790Y543188D02*
X638810Y543208D01*
X620776Y543188D02*
X638790D01*
X840232Y514096D02*
Y539750D01*
X832514Y547468D02*
X840232Y539750D01*
X828802Y547468D02*
X832514D01*
X828802D02*
Y594106D01*
X740000Y509426D02*
X755376D01*
X740000Y546198D02*
X753544D01*
X723340Y533198D02*
X753544D01*
Y539698D02*
Y546198D01*
X402844Y1239774D02*
Y1262516D01*
X376310Y1030224D02*
X378596Y1032510D01*
X352806Y1030224D02*
X376310D01*
X341630Y1041400D02*
X352806Y1030224D01*
X341630Y1041400D02*
Y1044076D01*
X320176Y1043822D02*
X323850D01*
Y1060822D02*
X340596Y1044076D01*
X341630Y1061076D02*
X357886D01*
X334264Y1068442D02*
X341630Y1061076D01*
X334264Y1068442D02*
Y1085218D01*
X308864D02*
X321564D01*
X303530Y1060468D02*
Y1079884D01*
X329810Y1115940D02*
X334264Y1120394D01*
Y1133218D01*
X335906Y1156716D02*
X353196D01*
X370196Y1156716D02*
Y1168282D01*
X365506Y1172972D02*
X370196Y1168282D01*
X351654Y1172972D02*
X365506D01*
X318906Y1156716D02*
Y1169044D01*
X322834Y1172972D01*
X334654D01*
X321564Y1133218D02*
Y1154058D01*
X334264Y1133218D02*
Y1155074D01*
X302056Y1243008D02*
Y1258986D01*
X382574Y962084D02*
X401574Y943084D01*
X376870Y962084D02*
X382574D01*
X309510Y928490D02*
Y942584D01*
Y928490D02*
X319000Y919000D01*
X369000Y934714D02*
X376870Y942584D01*
X369000Y919000D02*
Y934714D01*
X354417Y942584D02*
X376870D01*
X309510D02*
X331963D01*
X686934Y1060704D02*
X700904Y1042670D01*
X757726Y1106858D02*
X762508Y1111640D01*
X745330Y1106858D02*
X757726D01*
X761610Y1093978D02*
X779272Y1111640D01*
X743204Y1093978D02*
X761610D01*
X740330Y1096852D02*
X743204Y1093978D01*
X740330Y1096852D02*
Y1106858D01*
X735330Y1120276D02*
X742306Y1127252D01*
X735330Y1106858D02*
Y1120276D01*
X725306Y1127252D02*
X730330Y1122228D01*
Y1106858D02*
Y1122228D01*
X752738Y1051560D02*
X763406Y1062228D01*
X744220Y1051560D02*
X752738D01*
X740330Y1055450D02*
X744220Y1051560D01*
X740330Y1055450D02*
Y1065858D01*
X757448Y1077976D02*
X763406D01*
X745330Y1065858D02*
X757448Y1077976D01*
X730330Y1056212D02*
Y1065858D01*
X717922Y1043804D02*
X730330Y1056212D01*
X717922Y1041772D02*
Y1043804D01*
X700904Y1042670D02*
X716398D01*
X722869Y942838D02*
X744916D01*
X734000Y919000D02*
Y931921D01*
X744916Y942838D01*
X788416Y923416D02*
Y942838D01*
X766963D02*
X788416D01*
Y962338D02*
X807416Y943338D01*
X813308D01*
X684940Y1258414D02*
X698754D01*
X675894Y1267460D02*
X684940Y1258414D01*
X660908Y1267460D02*
X675894D01*
X699002Y1264666D02*
X719074D01*
X698754Y1264914D02*
X699002Y1264666D01*
X698754Y1225914D02*
Y1232414D01*
Y1271414D02*
X712072D01*
X698754Y1245414D02*
X728980D01*
X737988Y1209294D02*
Y1234304D01*
X742598Y1238914D01*
X755142D01*
X767464Y1232414D02*
X778764Y1221114D01*
X755142Y1232414D02*
X767464D01*
X771464Y1245414D02*
X778764Y1238114D01*
X755142Y1245414D02*
X771464D01*
X775020Y1251914D02*
X778764Y1255658D01*
X755142Y1251914D02*
X775020D01*
X764520Y1258414D02*
X778764Y1272658D01*
X755142Y1258414D02*
X764520D01*
X595630Y1072506D02*
Y1076198D01*
X563118Y1072506D02*
X579374D01*
X528854Y1074112D02*
Y1105534D01*
X452218Y1136904D02*
X458848Y1143534D01*
X490854D01*
X513854Y1216534D02*
Y1238394D01*
X561594Y1289050D02*
X583854Y1266790D01*
Y1216534D02*
Y1266790D01*
X546227Y1262253D02*
X568854Y1239626D01*
Y1216534D02*
Y1239626D01*
X568706Y1270000D02*
X578854Y1259852D01*
X482600Y525330D02*
Y537830D01*
X424960Y487090D02*
X434660D01*
X400340Y512610D02*
X424840D01*
X493776Y440690D02*
X502276Y449190D01*
X312054Y448422D02*
Y455168D01*
Y448422D02*
X319786Y440690D01*
X493776D01*
X516960Y500190D02*
X517024Y500126D01*
X505460Y1289050D02*
X563854Y1230656D01*
Y1216534D02*
Y1230656D01*
X530860Y1289050D02*
X573854Y1246056D01*
Y1216534D02*
Y1246056D01*
X578854Y1216534D02*
Y1259852D01*
X376870Y962084D02*
Y975802D01*
X611886Y1072506D02*
Y1076452D01*
X705866Y1173534D02*
X715318D01*
X735584Y1193800D01*
X303530Y1079884D02*
X308864Y1085218D01*
X534416Y452120D02*
X559308D01*
X735584Y1193800D02*
X774700D01*
X818896Y1237996D01*
X702892Y322736D02*
X726596D01*
X702892Y335736D02*
X719888D01*
X471678Y729234D02*
X789686D01*
X385420Y798424D02*
X477774D01*
X525780Y271295D02*
X737385D01*
X752117D02*
X780420D01*
X299838Y1225550D02*
X301206Y1226918D01*
X323215D01*
X313638Y1220418D02*
X323215D01*
X302006Y1208786D02*
X313638Y1220418D01*
X299584Y1208786D02*
X302006D01*
X323215Y1220418D02*
X335280D01*
X370196Y1133738D02*
Y1156716D01*
Y1133738D02*
X381000Y1122934D01*
X351126Y1207418D02*
X366649D01*
X323215Y1226918D02*
X337664D01*
X342646Y1231900D01*
X323215Y1208584D02*
Y1213918D01*
X323723Y1195324D02*
Y1208076D01*
X563118Y1044448D02*
Y1055506D01*
X579374Y1043178D02*
Y1055506D01*
X563118Y1044448D02*
X564896Y1042670D01*
X760104Y563626D02*
Y578476D01*
X619760Y1140968D02*
X635644D01*
X601854Y1133534D02*
X618812D01*
X626110Y1126236D01*
X636406D01*
Y1115060D02*
Y1126236D01*
X520310Y501650D02*
X538226D01*
X464820Y469900D02*
X485276D01*
X502920Y485150D02*
X502960Y485190D01*
X502276Y449190D02*
Y469900D01*
X733298Y1041772D02*
X747150D01*
X772532Y523186D02*
X776044Y526698D01*
X772532Y509270D02*
Y523186D01*
Y493268D02*
Y509270D01*
X772532Y479806D02*
Y493268D01*
X728980Y1167384D02*
X747522Y1185926D01*
X790448D01*
X818896Y1214374D01*
Y1237996D02*
Y1250696D01*
Y1163066D02*
Y1177544D01*
X762508Y1128640D02*
X771788Y1137920D01*
X793750D01*
X818896Y1163066D01*
X779390Y1128522D02*
X792988D01*
X754634Y1136514D02*
X762508Y1128640D01*
X697856Y1136514D02*
X754634D01*
X697230Y1135888D02*
X697856Y1136514D01*
X419608Y1245108D02*
Y1262516D01*
Y1245108D02*
X426466Y1238250D01*
X469004D01*
X476370Y1230884D01*
X309510Y962084D02*
Y972196D01*
X314452Y977138D01*
X285750Y943084D02*
X304750Y962084D01*
X309510D01*
X571246Y889254D02*
X734000D01*
X662094Y329236D02*
X680392D01*
X659502Y310896D02*
Y326644D01*
X667446Y335736D02*
X680392D01*
X659384Y343798D02*
X667446Y335736D01*
X677946Y342236D02*
X680392D01*
X659384Y360798D02*
X677946Y342236D01*
X643382Y343798D02*
X659384D01*
X643382Y360798D02*
X659384D01*
Y384810D01*
X643382Y360798D02*
Y375412D01*
X623804Y343798D02*
X643382D01*
X776044Y546198D02*
Y562566D01*
X795274Y545456D02*
Y600202D01*
Y545456D02*
X811276D01*
X776044Y539698D02*
X789516D01*
X795274Y545456D01*
X679196Y600456D02*
X795528D01*
X664718Y765810D02*
X679196D01*
X628142Y1055506D02*
X664718D01*
X611886Y1036828D02*
Y1055506D01*
X780406Y1062228D02*
X784352D01*
X804672Y1041908D01*
X780406Y1077976D02*
Y1090304D01*
Y1077976D02*
X789432D01*
X804672Y1093216D01*
X780406Y1053964D02*
Y1062228D01*
X776224Y1049782D02*
X780406Y1053964D01*
X735330Y1043804D02*
Y1065858D01*
X733298Y1041772D02*
X735330Y1043804D01*
X681972Y943338D02*
X699008D01*
X518160Y1014222D02*
X681972D01*
X569958Y986554D02*
X579882D01*
X557530Y998982D02*
X569958Y986554D01*
X319000Y774000D02*
X335194Y790194D01*
X464820D01*
X611886Y938022D02*
X643382D01*
X513854Y1094244D02*
Y1105534D01*
X504698Y1085088D02*
X513854Y1094244D01*
X504698Y1075182D02*
Y1085088D01*
X502412Y1072896D02*
X504698Y1075182D01*
X464820Y1072896D02*
X502412D01*
X399288Y1066800D02*
X502920D01*
X510286Y1074166D01*
Y1083310D01*
X518854Y1091878D01*
Y1105534D01*
X523854Y1089258D02*
Y1105534D01*
X515620Y1081024D02*
X523854Y1089258D01*
X515620Y1071372D02*
Y1081024D01*
X405638Y1058926D02*
X407162Y1060704D01*
X504952D01*
X515620Y1071372D01*
X422148Y1033408D02*
X438912D01*
X395596Y1032510D02*
X421250D01*
X422148Y1033408D01*
X376870Y1020252D02*
X399354D01*
X548854Y1091652D02*
Y1105534D01*
X547370Y1090168D02*
X548854Y1091652D01*
X553854Y1090542D02*
Y1105534D01*
Y1090542D02*
X557530Y1086866D01*
X547370D02*
Y1090168D01*
X594106Y1267460D02*
X660908D01*
X592836Y1266190D02*
X594106Y1267460D01*
X666106Y1249544D02*
X676656D01*
X665226Y1248664D02*
X666106Y1249544D01*
X679026Y1251914D02*
X698754D01*
X676656Y1249544D02*
X679026Y1251914D01*
X755142Y1218946D02*
Y1225914D01*
Y1218946D02*
X756412Y1217676D01*
X490854Y1173534D02*
X559762D01*
X571246Y1162050D01*
X490854Y1178534D02*
X564922D01*
X572262Y1171194D01*
X490854Y1183534D02*
X568812D01*
X573532Y1178814D01*
X490854Y1188534D02*
X572702D01*
X589640Y1183534D02*
X601854D01*
X585216Y1187958D02*
X589640Y1183534D01*
X601854Y1188534D02*
X706442D01*
X712072Y1194164D01*
X621030Y1180592D02*
X697230D01*
X601854Y1173534D02*
X705866D01*
X620014Y1158240D02*
X673862D01*
X619506Y1150620D02*
X792988D01*
X673862Y1144270D02*
X780542D01*
X708704Y1106858D02*
X725330D01*
X707198Y1065858D02*
X725330D01*
X314452Y1013714D02*
X405638D01*
X788416Y962338D02*
Y978154D01*
X759714Y1006856D02*
X788416Y978154D01*
X511048Y1006856D02*
X759714D01*
X628142Y1072506D02*
X700550D01*
X707136Y1065920D01*
X451630Y1078756D02*
Y1095756D01*
X493776Y1020318D02*
X587274D01*
X490854Y1128534D02*
X490866Y1128522D01*
X504190D01*
X518854Y1206432D02*
Y1216534D01*
X512191Y1199769D02*
X518854Y1206432D01*
X533854Y1205792D02*
Y1216534D01*
Y1205792D02*
X539877Y1199769D01*
X528854Y1195832D02*
Y1216534D01*
X523854Y1202542D02*
Y1216534D01*
X520700Y1199388D02*
X523854Y1202542D01*
X476370Y1153534D02*
X490854D01*
X366649Y1220418D02*
X383488D01*
X401320Y1238250D01*
X472602Y1198534D02*
X490854D01*
X469138Y1195070D02*
X472602Y1198534D01*
X443992Y1178052D02*
X460502D01*
X469138Y1186688D01*
Y1195070D01*
X469392Y1168534D02*
X490854D01*
X568854Y1078242D02*
Y1105534D01*
X563118Y1072506D02*
X568854Y1078242D01*
X573854Y1089338D02*
Y1105534D01*
Y1089338D02*
X580644Y1082548D01*
X611886Y1076452D02*
X617728Y1082294D01*
X628142Y1072506D02*
Y1083056D01*
X580644Y1082548D02*
X593344D01*
X595630Y1080262D01*
Y1072506D02*
Y1080262D01*
X578854Y1093736D02*
Y1105534D01*
Y1093736D02*
X585216Y1087374D01*
X597018D01*
X611886Y1072506D01*
X573854Y1105534D02*
Y1118802D01*
X575954Y1120902D01*
X584708D01*
X611886Y1093724D02*
X729742D01*
X730330Y1094312D01*
Y1106858D01*
X704460Y1102614D02*
X708152Y1106306D01*
X617728Y1102614D02*
X704460D01*
X583854Y1105534D02*
X589916D01*
X584708Y1120902D02*
X611886Y1093724D01*
X622300Y1088898D02*
X628142Y1083056D01*
X589916Y1105534D02*
X606552Y1088898D01*
X622300D01*
X653406Y1126236D02*
Y1141984D01*
X653406Y1115060D02*
Y1126236D01*
X490854Y1148534D02*
X502104D01*
X505460Y1151890D01*
Y1157986D01*
X383488Y1220418D02*
X385572Y1222502D01*
X484378D01*
X587274Y1143534D02*
X601854D01*
X699008Y943338D02*
X703869D01*
X722869Y962338D01*
X678532Y452300D02*
X694392D01*
X696468Y450224D01*
X702892Y342236D02*
Y356660D01*
X700650Y358902D02*
X702892Y356660D01*
X795274Y528456D02*
X811276D01*
X828314D01*
X659502Y326644D02*
X662094Y329236D01*
X438912Y1050408D02*
X489848D01*
X493776Y1046480D01*
X528960Y1047364D02*
Y1053006D01*
Y1047364D02*
X535178Y1041146D01*
X528710Y1029208D02*
Y1034678D01*
X535178Y1041146D01*
X545710Y1029208D02*
X562864D01*
X563880Y1028192D01*
X580656Y1128534D02*
X601854D01*
Y1118488D02*
Y1123534D01*
Y1118488D02*
X611632Y1108710D01*
X687070D01*
X495418Y1083056D02*
Y1094350D01*
X506602Y1105534D01*
X508854D01*
X738242Y1272168D02*
Y1287018D01*
Y1272168D02*
X745496Y1264914D01*
X755142D01*
X721242Y1278246D02*
Y1287018D01*
Y1278246D02*
X727456Y1272032D01*
X755142Y1271414D02*
Y1273048D01*
X768748Y1286654D01*
X794114D01*
X818532D01*
D35*
X277622Y455168D02*
X296554D01*
X286512Y1133218D02*
X308864D01*
X346964D02*
X360296D01*
X301616Y1140466D02*
X308864Y1133218D01*
X354336Y1085218D02*
X361578Y1077976D01*
X346964Y1085218D02*
X354336D01*
X301616Y1140466D02*
Y1156716D01*
X493776Y1257672D02*
X521598D01*
X528320Y1250950D01*
X321056Y1246378D02*
Y1258986D01*
X321980Y1258062D02*
X337468D01*
X321056Y1258986D02*
X321980Y1258062D01*
X311556Y1284986D02*
Y1299870D01*
X440016Y1005928D02*
X458724D01*
X585812Y554736D02*
Y576414D01*
X777104Y563626D02*
Y587248D01*
X702682Y450224D02*
X709168Y443738D01*
X696468Y450224D02*
X702682D01*
X283210Y551688D02*
X298352D01*
X282702Y572262D02*
X298352D01*
X271272Y499872D02*
X295516D01*
X432562Y756158D02*
X435102Y753618D01*
X432562Y756158D02*
Y778002D01*
Y953008D02*
X458304D01*
X458724Y953428D01*
X563118Y1055506D02*
X579374D01*
X755532Y493268D02*
Y509270D01*
X484632Y587248D02*
X504190Y567690D01*
X504444Y554736D02*
X533312D01*
X296554Y455168D02*
Y498834D01*
X298352Y502708D02*
Y551688D01*
Y572262D01*
X464708Y551830D02*
X482600D01*
X463550Y550672D02*
X464708Y551830D01*
X463550Y540766D02*
Y550672D01*
X396240Y553174D02*
X412280D01*
X341516Y499618D02*
X423100D01*
X482460Y512490D02*
X498110D01*
X504190Y518570D01*
Y538070D02*
Y567690D01*
X482460Y499790D02*
X501450D01*
X482460Y487090D02*
X500980D01*
X503310Y470934D02*
Y485902D01*
X422338Y527812D02*
X424960Y525190D01*
X402200Y527812D02*
X422338D01*
X341516Y499872D02*
Y513982D01*
X355600Y528066D01*
X385826D01*
X377444Y512572D02*
X398036D01*
X400304Y510304D01*
X377444Y580390D02*
X395206D01*
X302056Y1277986D02*
X321056Y1258986D01*
X302056Y1277986D02*
Y1284986D01*
X443992Y676656D02*
X469392D01*
X443992Y575056D02*
X469392D01*
X419100Y587248D02*
X484632D01*
X396240Y581424D02*
X402060Y587244D01*
X419100D01*
Y618744D02*
Y651764D01*
X443992Y676656D01*
X414784Y701800D02*
X435102Y722118D01*
D36*
X455549Y545465D02*
D03*
D37*
X453898Y523113D02*
D03*
D38*
X414401Y547878D02*
D03*
D39*
X527050Y467360D02*
D03*
D40*
X338455Y558292D02*
D03*
D41*
X598002Y857485D02*
D03*
X505000D02*
D03*
X598002Y697800D02*
D03*
X505000D02*
D03*
D42*
X576501Y782483D02*
D03*
X551502D02*
D03*
X526501D02*
D03*
X576501Y622799D02*
D03*
X551502D02*
D03*
X526501D02*
D03*
D43*
X322580Y271295D02*
D03*
Y301295D02*
D03*
Y386296D02*
D03*
X525780Y271295D02*
D03*
Y301295D02*
D03*
Y386296D02*
D03*
X424180Y271295D02*
D03*
Y301295D02*
D03*
Y386296D02*
D03*
X780420Y271295D02*
D03*
Y301295D02*
D03*
Y386296D02*
D03*
D44*
X728980Y1167384D02*
D03*
X754380D02*
D03*
X632460Y1289050D02*
D03*
X607060D02*
D03*
X581660D02*
D03*
X556260D02*
D03*
X530860D02*
D03*
X505460D02*
D03*
X480060D02*
D03*
X469392Y575056D02*
D03*
X443992Y600456D02*
D03*
X469392D02*
D03*
X443992Y625856D02*
D03*
X469392D02*
D03*
X443992Y651256D02*
D03*
X469392D02*
D03*
X443992Y676656D02*
D03*
X469392D02*
D03*
D45*
X779780Y1167384D02*
D03*
X454660Y1289050D02*
D03*
D46*
X791464Y445516D02*
D03*
X400558Y1086104D02*
D03*
X381000Y1122934D02*
D03*
X493776Y1046480D02*
D03*
X375666Y424180D02*
D03*
X659892Y385318D02*
D03*
X795528Y600456D02*
D03*
X660908Y1292860D02*
D03*
X426466Y1238250D02*
D03*
X401320D02*
D03*
X818896Y1250696D02*
D03*
X660908Y1267460D02*
D03*
X818896Y1214374D02*
D03*
Y1287018D02*
D03*
X791464Y414782D02*
D03*
X822452Y600456D02*
D03*
X477012Y279400D02*
D03*
X297688Y424180D02*
D03*
X375158Y279400D02*
D03*
X289814D02*
D03*
X559562Y452374D02*
D03*
X347472Y1281430D02*
D03*
X275082Y1060196D02*
D03*
X379730Y1281430D02*
D03*
X612394Y310642D02*
D03*
X818896Y1177544D02*
D03*
Y1143254D02*
D03*
X804672Y1093216D02*
D03*
Y1041908D02*
D03*
X704596Y288798D02*
D03*
D47*
X428244Y1162050D02*
D03*
X438404Y1212850D02*
D03*
X418084D02*
D03*
D48*
X402844Y1162050D02*
D03*
X453644D02*
D03*
Y1193800D02*
D03*
X402844D02*
D03*
D49*
X287000Y844000D02*
D03*
X401000D02*
D03*
X702000D02*
D03*
X816000D02*
D03*
X717601Y683260D02*
D03*
X790601D02*
D03*
X312420D02*
D03*
X385420D02*
D03*
D50*
X319000Y774000D02*
D03*
X734000D02*
D03*
D51*
X369000D02*
D03*
X319000Y919000D02*
D03*
X344000D02*
D03*
X369000D02*
D03*
X784000Y774000D02*
D03*
X734000Y919000D02*
D03*
X759000D02*
D03*
X784000D02*
D03*
D52*
X443992Y575056D02*
D03*
D53*
X551502Y986282D02*
D03*
Y935482D02*
D03*
Y960882D02*
D03*
D54*
X277622Y455168D02*
D03*
X286512Y1133218D02*
D03*
X360296D02*
D03*
X528320Y1250950D02*
D03*
X321056Y1246378D02*
D03*
X311556Y1299870D02*
D03*
X440016Y1005928D02*
D03*
X585812Y576414D02*
D03*
X777104Y587248D02*
D03*
X709168Y443738D02*
D03*
X283210Y551688D02*
D03*
X282702Y572262D02*
D03*
X271272Y499872D02*
D03*
X432562Y778002D02*
D03*
Y953008D02*
D03*
X464820Y453390D02*
D03*
Y469900D02*
D03*
X447040Y550926D02*
D03*
X463550Y536956D02*
D03*
X447294D02*
D03*
X518414Y469646D02*
D03*
X536194Y452120D02*
D03*
X518414D02*
D03*
X411480Y453390D02*
D03*
X429260D02*
D03*
Y469900D02*
D03*
X447040D02*
D03*
Y453390D02*
D03*
X337566Y571500D02*
D03*
X359410D02*
D03*
X431038Y550926D02*
D03*
X393700Y453390D02*
D03*
X340360D02*
D03*
X358140D02*
D03*
X375920D02*
D03*
X463550Y550926D02*
D03*
X414782Y551688D02*
D03*
X375920Y469900D02*
D03*
X359410Y545846D02*
D03*
X337566D02*
D03*
X536194Y469646D02*
D03*
X377444Y512572D02*
D03*
Y580390D02*
D03*
X414784Y701800D02*
D03*
D55*
X428752Y1208786D02*
D03*
X419354Y1155446D02*
D03*
X290576Y1038352D02*
D03*
Y1083818D02*
D03*
X369824Y1107440D02*
D03*
X367792Y994410D02*
D03*
X432562D02*
D03*
X378460Y1065276D02*
D03*
X369824Y1053338D02*
D03*
X369942Y1043568D02*
D03*
X378578Y1089524D02*
D03*
X695062Y1123306D02*
D03*
X720716Y1082920D02*
D03*
X735330Y1087374D02*
D03*
X628396Y981964D02*
D03*
X619760Y1140968D02*
D03*
X623198Y1230512D02*
D03*
X744916Y975802D02*
D03*
X766963Y975751D02*
D03*
X830816Y972838D02*
D03*
X699008Y987806D02*
D03*
X705494Y1024772D02*
D03*
X747894Y1024772D02*
D03*
X270764Y1208786D02*
D03*
Y1156716D02*
D03*
X710810Y467224D02*
D03*
X705612Y371602D02*
D03*
X680720Y372872D02*
D03*
X563854Y1122960D02*
D03*
X495418Y1094350D02*
D03*
X464820Y1083056D02*
D03*
X656082Y1198626D02*
D03*
X661806Y1232544D02*
D03*
X694182Y1215136D02*
D03*
X704850Y1209294D02*
D03*
X756412Y1217676D02*
D03*
X727456Y1272032D02*
D03*
X479416Y1240672D02*
D03*
X433460Y1279516D02*
D03*
X294640Y1271778D02*
D03*
X270510Y1225550D02*
D03*
X269748Y1242822D02*
D03*
X358902Y1243330D02*
D03*
X419608Y1112774D02*
D03*
X420116Y1132078D02*
D03*
X422130Y1078720D02*
D03*
X401574Y986790D02*
D03*
X354417Y977813D02*
D03*
X331963Y977377D02*
D03*
X267480Y972584D02*
D03*
X743458Y593344D02*
D03*
X752094Y482337D02*
D03*
X703072D02*
D03*
X733044Y526698D02*
D03*
X679098Y543208D02*
D03*
X620776Y574040D02*
D03*
X652780Y489966D02*
D03*
X673862Y309880D02*
D03*
X640198Y1231002D02*
D03*
X697230Y1135888D02*
D03*
Y1180592D02*
D03*
X673862Y1158240D02*
D03*
X743458Y445516D02*
D03*
X840232Y283718D02*
D03*
Y514096D02*
D03*
X743458Y492096D02*
D03*
X703072Y813308D02*
D03*
X388112Y813054D02*
D03*
X323723Y1107440D02*
D03*
X335332Y1006348D02*
D03*
X417391Y1006416D02*
D03*
Y889323D02*
D03*
X551502D02*
D03*
X679196Y600456D02*
D03*
Y765810D02*
D03*
X664718D02*
D03*
Y1055506D02*
D03*
X643382Y938022D02*
D03*
Y375412D02*
D03*
X611886Y938022D02*
D03*
Y1036828D02*
D03*
X619760Y637286D02*
D03*
X696468D02*
D03*
Y432054D02*
D03*
X595630Y1037082D02*
D03*
X672084Y1042670D02*
D03*
X678532Y492096D02*
D03*
X493776Y1020318D02*
D03*
X681972Y1014222D02*
D03*
Y943338D02*
D03*
X518160Y1014222D02*
D03*
X629666Y630174D02*
D03*
Y956564D02*
D03*
X719888Y630174D02*
D03*
X734000Y889254D02*
D03*
X571246D02*
D03*
X726440Y622799D02*
D03*
X772532Y401574D02*
D03*
X601218Y409702D02*
D03*
Y371602D02*
D03*
X582070Y278892D02*
D03*
Y362556D02*
D03*
X606552Y438912D02*
D03*
Y422656D02*
D03*
X403352D02*
D03*
Y402082D02*
D03*
X624722Y327778D02*
D03*
Y445516D02*
D03*
X459740Y299212D02*
D03*
Y410210D02*
D03*
X344424Y371602D02*
D03*
X474472Y1129538D02*
D03*
X465582Y1134872D02*
D03*
X463550Y1110742D02*
D03*
X539496Y1088136D02*
D03*
X528066Y970026D02*
D03*
X557530Y998982D02*
D03*
X547370Y1086866D02*
D03*
X557530D02*
D03*
X560578Y530352D02*
D03*
X665532Y757376D02*
D03*
Y491946D02*
D03*
X740000Y509426D02*
D03*
Y546198D02*
D03*
X476370Y1230884D02*
D03*
X469392Y1168534D02*
D03*
X476370Y1153534D02*
D03*
X686934Y1060704D02*
D03*
X443992Y1178052D02*
D03*
X705866Y1173534D02*
D03*
X712072Y1194164D02*
D03*
X728980Y1245616D02*
D03*
X719074Y1264666D02*
D03*
X712072Y1271414D02*
D03*
X794114Y1286654D02*
D03*
X546227Y1262253D02*
D03*
X568706Y1270000D02*
D03*
X587274Y1143534D02*
D03*
X405638Y1058926D02*
D03*
Y1013714D02*
D03*
X314452D02*
D03*
Y977138D02*
D03*
X399288Y1066800D02*
D03*
X376870Y975802D02*
D03*
Y1020252D02*
D03*
X399354D02*
D03*
X464820Y1072896D02*
D03*
Y790194D02*
D03*
X587274Y1020318D02*
D03*
X572702Y1188534D02*
D03*
X573532Y1178814D02*
D03*
X572262Y1171194D02*
D03*
X571246Y1162050D02*
D03*
X792988Y1128522D02*
D03*
X719888Y335736D02*
D03*
X726596Y322736D02*
D03*
X780406Y1090304D02*
D03*
X780542Y1144270D02*
D03*
X585216Y1187958D02*
D03*
X592836Y1266190D02*
D03*
X619506Y1150620D02*
D03*
X620014Y1158240D02*
D03*
X621030Y1180592D02*
D03*
X673862Y1144270D02*
D03*
X776224Y1049782D02*
D03*
X471678Y729234D02*
D03*
X789686D02*
D03*
X385420Y798424D02*
D03*
X477774D02*
D03*
X752117Y271295D02*
D03*
X335280Y1220418D02*
D03*
X323723Y1195324D02*
D03*
X350774Y1226918D02*
D03*
X351126Y1207418D02*
D03*
X342646Y1231900D02*
D03*
X330200Y1236472D02*
D03*
X579374Y1043178D02*
D03*
X564896Y1042670D02*
D03*
X760104Y578476D02*
D03*
X665226Y1248664D02*
D03*
X687070Y1108710D02*
D03*
X636406Y1115060D02*
D03*
X538226Y501650D02*
D03*
X563880Y1028192D02*
D03*
X747150Y1041772D02*
D03*
X772532Y479806D02*
D03*
X792988Y1150620D02*
D03*
X511048Y1006856D02*
D03*
X451630Y1078756D02*
D03*
X535178Y1041146D02*
D03*
X504190Y1128522D02*
D03*
X539877Y1199769D02*
D03*
X528854Y1195832D02*
D03*
X512191Y1199769D02*
D03*
X520700Y1199388D02*
D03*
X617728Y1082294D02*
D03*
Y1102614D02*
D03*
X653406Y1115060D02*
D03*
X505460Y1157986D02*
D03*
X404622Y1213866D02*
D03*
X484632Y1222502D02*
D03*
X580656Y1128534D02*
D03*
D56*
X444500Y519430D02*
D03*
X462280D02*
D03*
Y510709D02*
D03*
Y501988D02*
D03*
Y493268D02*
D03*
X453390Y519430D02*
D03*
Y510709D02*
D03*
Y501988D02*
D03*
Y493268D02*
D03*
X444500Y510709D02*
D03*
Y501988D02*
D03*
Y493268D02*
D03*
M02*
