G04*
G04 #@! TF.GenerationSoftware,Altium Limited,CircuitStudio,1.5.1 (13)*
G04*
G04 Layer_Color=8150272*
%FSLAX44Y44*%
%MOMM*%
G71*
G01*
G75*
%ADD104C,3.8651*%
%ADD105C,2.0033*%
%ADD106C,1.8533*%
%ADD107C,1.7032*%
%ADD108R,1.7032X1.7032*%
%ADD109C,2.2352*%
%ADD110C,1.0668*%
%ADD111C,2.5400*%
%ADD112R,2.0032X2.8032*%
%ADD113R,2.2032X2.2032*%
%ADD114C,2.2032*%
%ADD115R,1.7032X1.7032*%
%ADD116C,1.4032*%
%ADD117C,1.4732*%
%ADD118C,0.9906*%
D104*
X598002Y857485D02*
D03*
X505000D02*
D03*
X598002Y697800D02*
D03*
X505000D02*
D03*
D105*
X576501Y782483D02*
D03*
X551502D02*
D03*
X526501D02*
D03*
X576501Y622799D02*
D03*
X551502D02*
D03*
X526501D02*
D03*
D106*
X322580Y271295D02*
D03*
Y301295D02*
D03*
Y386296D02*
D03*
X525780Y271295D02*
D03*
Y301295D02*
D03*
Y386296D02*
D03*
X424180Y271295D02*
D03*
Y301295D02*
D03*
Y386296D02*
D03*
X780420Y271295D02*
D03*
Y301295D02*
D03*
Y386296D02*
D03*
D107*
X728980Y1167384D02*
D03*
X754380D02*
D03*
X632460Y1289050D02*
D03*
X607060D02*
D03*
X581660D02*
D03*
X556260D02*
D03*
X530860D02*
D03*
X505460D02*
D03*
X480060D02*
D03*
X469392Y575056D02*
D03*
X443992Y600456D02*
D03*
X469392D02*
D03*
X443992Y625856D02*
D03*
X469392D02*
D03*
X443992Y651256D02*
D03*
X469392D02*
D03*
X443992Y676656D02*
D03*
X469392D02*
D03*
D108*
X779780Y1167384D02*
D03*
X454660Y1289050D02*
D03*
D109*
X791464Y445516D02*
D03*
X400558Y1086104D02*
D03*
X381000Y1122934D02*
D03*
X493776Y1046480D02*
D03*
X375666Y424180D02*
D03*
X659892Y385318D02*
D03*
X795528Y600456D02*
D03*
X660908Y1292860D02*
D03*
X426466Y1238250D02*
D03*
X401320D02*
D03*
X818896Y1250696D02*
D03*
X660908Y1267460D02*
D03*
X818896Y1214374D02*
D03*
Y1287018D02*
D03*
X791464Y414782D02*
D03*
X822452Y600456D02*
D03*
X477012Y279400D02*
D03*
X297688Y424180D02*
D03*
X375158Y279400D02*
D03*
X289814D02*
D03*
X559562Y452374D02*
D03*
X347472Y1281430D02*
D03*
X275082Y1060196D02*
D03*
X379730Y1281430D02*
D03*
X612394Y310642D02*
D03*
X818896Y1177544D02*
D03*
Y1143254D02*
D03*
X804672Y1093216D02*
D03*
Y1041908D02*
D03*
X704596Y288798D02*
D03*
D110*
X428244Y1162050D02*
D03*
X438404Y1212850D02*
D03*
X418084D02*
D03*
D111*
X402844Y1162050D02*
D03*
X453644D02*
D03*
Y1193800D02*
D03*
X402844D02*
D03*
D112*
X287000Y844000D02*
D03*
X401000D02*
D03*
X702000D02*
D03*
X816000D02*
D03*
X717601Y683260D02*
D03*
X790601D02*
D03*
X312420D02*
D03*
X385420D02*
D03*
D113*
X319000Y774000D02*
D03*
X734000D02*
D03*
D114*
X369000D02*
D03*
X319000Y919000D02*
D03*
X344000D02*
D03*
X369000D02*
D03*
X784000Y774000D02*
D03*
X734000Y919000D02*
D03*
X759000D02*
D03*
X784000D02*
D03*
D115*
X443992Y575056D02*
D03*
D116*
X551502Y986282D02*
D03*
Y935482D02*
D03*
Y960882D02*
D03*
D117*
X432562Y953008D02*
D03*
D118*
X434594Y1187450D02*
D03*
X421894Y1200150D02*
D03*
X434594D02*
D03*
X421894Y1187450D02*
D03*
X434594Y1174750D02*
D03*
X421894D02*
D03*
M02*
