G04*
G04 #@! TF.GenerationSoftware,Altium Limited,CircuitStudio,1.5.1 (13)*
G04*
G04 Layer_Color=7318015*
%FSLAX44Y44*%
%MOMM*%
G71*
G01*
G75*
%ADD10R,0.9000X0.8000*%
%ADD11R,0.8000X0.9000*%
%ADD12R,0.4500X1.5500*%
%ADD13R,1.5500X0.4500*%
%ADD14R,1.2000X1.4000*%
%ADD15R,1.4000X1.2000*%
%ADD16R,0.9500X0.9000*%
%ADD17R,1.1000X1.7000*%
%ADD18R,1.7000X1.1000*%
%ADD19R,1.1000X1.3000*%
%ADD20R,1.1000X1.4000*%
%ADD21O,2.1500X0.4500*%
%ADD22R,2.1500X0.4500*%
%ADD23R,2.4000X3.1000*%
%ADD24R,1.4224X0.4318*%
%ADD25R,2.0000X2.2000*%
%ADD26O,1.1000X0.6000*%
%ADD27R,1.1000X0.6000*%
%ADD28O,0.3000X1.8000*%
%ADD29O,1.8000X0.3000*%
%ADD30R,0.3556X1.6764*%
%ADD31O,0.6000X2.2000*%
%ADD32O,0.3000X1.7000*%
D10*
X689610Y606410D02*
D03*
Y620410D02*
D03*
X720090Y574406D02*
D03*
Y588406D02*
D03*
X645160Y794370D02*
D03*
Y808370D02*
D03*
X662940Y827390D02*
D03*
Y841390D02*
D03*
X574294Y887364D02*
D03*
Y873364D02*
D03*
X468376Y930798D02*
D03*
Y916798D02*
D03*
X484632Y930798D02*
D03*
Y916798D02*
D03*
X551500Y377000D02*
D03*
Y391000D02*
D03*
X334772Y1024494D02*
D03*
Y1038494D02*
D03*
X676656Y841868D02*
D03*
Y855868D02*
D03*
X801500Y414500D02*
D03*
Y428500D02*
D03*
X779000Y306000D02*
D03*
Y292000D02*
D03*
X831500Y428500D02*
D03*
Y414500D02*
D03*
X816500Y414500D02*
D03*
Y428500D02*
D03*
X706820Y574470D02*
D03*
Y588470D02*
D03*
X631190Y808370D02*
D03*
Y794370D02*
D03*
X650240Y827390D02*
D03*
Y841390D02*
D03*
X412242Y1098916D02*
D03*
Y1112916D02*
D03*
X398272Y1098916D02*
D03*
Y1112916D02*
D03*
X482600Y537830D02*
D03*
Y551830D02*
D03*
X824000Y306000D02*
D03*
Y292000D02*
D03*
X538226Y377048D02*
D03*
Y391048D02*
D03*
D11*
X631048Y859790D02*
D03*
X645048D02*
D03*
X405018Y528066D02*
D03*
X391018D02*
D03*
X678800Y543052D02*
D03*
X692800D02*
D03*
X569610Y306070D02*
D03*
X555610D02*
D03*
X543194D02*
D03*
X529194D02*
D03*
X362600Y1283970D02*
D03*
X348600D02*
D03*
X362600Y1211580D02*
D03*
X348600D02*
D03*
X362600Y1225550D02*
D03*
X348600D02*
D03*
X362600Y1270000D02*
D03*
X348600D02*
D03*
X578216Y997712D02*
D03*
X592216D02*
D03*
X552562Y982726D02*
D03*
X566562D02*
D03*
X719186Y601472D02*
D03*
X733186D02*
D03*
X486522Y471678D02*
D03*
X500522D02*
D03*
X502960Y485190D02*
D03*
X516960D02*
D03*
X794000Y294000D02*
D03*
X808000D02*
D03*
X774304Y1195832D02*
D03*
X788304D02*
D03*
X734680Y1196848D02*
D03*
X748680D02*
D03*
X729884Y1292606D02*
D03*
X715884D02*
D03*
X692800Y557022D02*
D03*
X678800D02*
D03*
X555610Y318770D02*
D03*
X569610D02*
D03*
X542940Y318770D02*
D03*
X528940D02*
D03*
X412130Y1183132D02*
D03*
X398130D02*
D03*
X471058Y1004570D02*
D03*
X457058D02*
D03*
X471058Y991870D02*
D03*
X457058D02*
D03*
X502960Y500190D02*
D03*
X516960D02*
D03*
X312054Y455168D02*
D03*
X298054D02*
D03*
X657130Y458790D02*
D03*
X671130D02*
D03*
X816000Y399000D02*
D03*
X802000D02*
D03*
X794000Y308000D02*
D03*
X808000D02*
D03*
D12*
X557750Y358750D02*
D03*
X551250D02*
D03*
X544750D02*
D03*
X538250D02*
D03*
X557750Y336250D02*
D03*
X551250D02*
D03*
X544750D02*
D03*
X538250D02*
D03*
D13*
X631010Y824640D02*
D03*
Y831140D02*
D03*
Y837640D02*
D03*
Y844140D02*
D03*
X608510Y824640D02*
D03*
Y831140D02*
D03*
Y837640D02*
D03*
Y844140D02*
D03*
X688070Y571720D02*
D03*
Y578220D02*
D03*
Y584720D02*
D03*
Y591220D02*
D03*
X665570Y571720D02*
D03*
Y578220D02*
D03*
Y584720D02*
D03*
Y591220D02*
D03*
D14*
X626508Y601726D02*
D03*
X644508D02*
D03*
X626508Y579120D02*
D03*
X644508D02*
D03*
X663592Y914400D02*
D03*
X681592D02*
D03*
X663338Y893064D02*
D03*
X681338D02*
D03*
X317102Y572262D02*
D03*
X299102D02*
D03*
X317102Y551688D02*
D03*
X299102D02*
D03*
X534560Y279400D02*
D03*
X552560D02*
D03*
D15*
X720344Y537608D02*
D03*
Y555608D02*
D03*
X717550Y1037480D02*
D03*
Y1055480D02*
D03*
X720090Y1113900D02*
D03*
Y1095900D02*
D03*
X504190Y516780D02*
D03*
Y534780D02*
D03*
X759460Y962770D02*
D03*
Y944770D02*
D03*
X364490Y962770D02*
D03*
Y944770D02*
D03*
X289000Y963000D02*
D03*
Y945000D02*
D03*
X784000Y945000D02*
D03*
Y963000D02*
D03*
X342900Y944770D02*
D03*
Y962770D02*
D03*
X321310Y962770D02*
D03*
Y944770D02*
D03*
D16*
X418592Y600968D02*
D03*
Y569468D02*
D03*
D17*
X641134Y1191260D02*
D03*
X614134D02*
D03*
X644436Y914400D02*
D03*
X617436D02*
D03*
D18*
X400340Y512610D02*
D03*
Y485610D02*
D03*
X396240Y580174D02*
D03*
Y553174D02*
D03*
X759460Y1009180D02*
D03*
Y982180D02*
D03*
X314000Y1012500D02*
D03*
Y985500D02*
D03*
X289000D02*
D03*
Y1012500D02*
D03*
X784000Y400500D02*
D03*
Y427500D02*
D03*
X525018Y923760D02*
D03*
Y950760D02*
D03*
D19*
X395356Y1167970D02*
D03*
X411856D02*
D03*
X395356Y1146970D02*
D03*
X411856D02*
D03*
D20*
X674130Y478790D02*
D03*
X659130D02*
D03*
D21*
X482460Y487090D02*
D03*
Y499790D02*
D03*
Y512490D02*
D03*
Y525190D02*
D03*
X424960Y487090D02*
D03*
Y499790D02*
D03*
Y512490D02*
D03*
D22*
Y525190D02*
D03*
D23*
X453710Y506140D02*
D03*
D24*
X533217Y998750D02*
D03*
Y992250D02*
D03*
Y985750D02*
D03*
Y979250D02*
D03*
X489783D02*
D03*
Y985750D02*
D03*
Y992250D02*
D03*
Y998750D02*
D03*
D25*
X297906Y501396D02*
D03*
X356906D02*
D03*
D26*
X642630Y459790D02*
D03*
Y478790D02*
D03*
X616630Y459790D02*
D03*
Y469290D02*
D03*
D27*
Y478790D02*
D03*
D28*
X449000Y1214500D02*
D03*
X454000D02*
D03*
X459000D02*
D03*
X464000D02*
D03*
X469000D02*
D03*
X474000D02*
D03*
X479000D02*
D03*
X484000D02*
D03*
X489000D02*
D03*
X494000D02*
D03*
X499000D02*
D03*
X504000D02*
D03*
X509000D02*
D03*
X514000D02*
D03*
X519000D02*
D03*
X524000D02*
D03*
X529000D02*
D03*
X534000D02*
D03*
X539000D02*
D03*
X544000D02*
D03*
X549000D02*
D03*
X554000D02*
D03*
X559000D02*
D03*
X564000D02*
D03*
X569000D02*
D03*
Y1063500D02*
D03*
X564000D02*
D03*
X559000D02*
D03*
X554000D02*
D03*
X549000D02*
D03*
X544000D02*
D03*
X539000D02*
D03*
X534000D02*
D03*
X529000D02*
D03*
X524000D02*
D03*
X519000D02*
D03*
X514000D02*
D03*
X509000D02*
D03*
X504000D02*
D03*
X499000D02*
D03*
X494000D02*
D03*
X489000D02*
D03*
X484000D02*
D03*
X479000D02*
D03*
X474000D02*
D03*
X469000D02*
D03*
X464000D02*
D03*
X459000D02*
D03*
X454000D02*
D03*
X449000D02*
D03*
D29*
X584500Y1199000D02*
D03*
Y1194000D02*
D03*
Y1189000D02*
D03*
Y1184000D02*
D03*
Y1179000D02*
D03*
Y1174000D02*
D03*
Y1169000D02*
D03*
Y1164000D02*
D03*
Y1159000D02*
D03*
Y1154000D02*
D03*
Y1149000D02*
D03*
Y1144000D02*
D03*
Y1139000D02*
D03*
Y1134000D02*
D03*
Y1129000D02*
D03*
Y1124000D02*
D03*
Y1119000D02*
D03*
Y1114000D02*
D03*
Y1109000D02*
D03*
Y1104000D02*
D03*
Y1099000D02*
D03*
Y1094000D02*
D03*
Y1089000D02*
D03*
Y1084000D02*
D03*
Y1079000D02*
D03*
X433500D02*
D03*
Y1084000D02*
D03*
Y1089000D02*
D03*
Y1094000D02*
D03*
Y1099000D02*
D03*
Y1104000D02*
D03*
Y1109000D02*
D03*
Y1114000D02*
D03*
Y1119000D02*
D03*
Y1124000D02*
D03*
Y1129000D02*
D03*
Y1134000D02*
D03*
Y1139000D02*
D03*
Y1144000D02*
D03*
Y1149000D02*
D03*
Y1154000D02*
D03*
Y1159000D02*
D03*
Y1164000D02*
D03*
Y1169000D02*
D03*
Y1174000D02*
D03*
Y1179000D02*
D03*
Y1184000D02*
D03*
Y1189000D02*
D03*
Y1194000D02*
D03*
Y1199000D02*
D03*
D30*
X728750Y1272194D02*
D03*
X735250D02*
D03*
X741750D02*
D03*
X748250D02*
D03*
X754750D02*
D03*
X761250D02*
D03*
X767750D02*
D03*
X774250D02*
D03*
Y1215806D02*
D03*
X767750D02*
D03*
X761250D02*
D03*
X754750D02*
D03*
X748250D02*
D03*
X741750D02*
D03*
X735250D02*
D03*
X728750D02*
D03*
D31*
X789950Y327500D02*
D03*
X802650D02*
D03*
X815350D02*
D03*
X828050D02*
D03*
X789950Y375500D02*
D03*
X802650D02*
D03*
X815350D02*
D03*
X828050D02*
D03*
D32*
X332580Y1267640D02*
D03*
X327580D02*
D03*
X322580D02*
D03*
X317580D02*
D03*
X312580D02*
D03*
X332580Y1226640D02*
D03*
X327580D02*
D03*
X322580D02*
D03*
X317580D02*
D03*
X312580D02*
D03*
M02*
