G04*
G04 #@! TF.GenerationSoftware,Altium Limited,CircuitStudio,1.5.1 (13)*
G04*
G04 Layer_Color=20142*
%FSLAX44Y44*%
%MOMM*%
G71*
G01*
G75*
%ADD24R,1.4224X0.4318*%
%ADD25R,2.0000X2.2000*%
%ADD30R,0.3556X1.6764*%
%ADD71R,1.1032X1.0032*%
%ADD72R,1.0032X1.1032*%
%ADD73R,0.6532X1.7532*%
%ADD74R,1.7532X0.6532*%
%ADD75R,1.4032X1.6032*%
%ADD76R,1.6032X1.4032*%
%ADD77R,1.1532X1.1032*%
%ADD78R,1.3032X1.9032*%
%ADD79R,1.9032X1.3032*%
%ADD80R,1.3032X1.5032*%
%ADD81R,1.3032X1.6032*%
%ADD82O,2.3532X0.6532*%
%ADD83R,2.3532X0.6532*%
%ADD84R,2.6032X3.3032*%
%ADD85O,1.3032X0.8032*%
%ADD86R,1.3032X0.8032*%
%ADD87O,0.5032X2.0032*%
%ADD88O,2.0032X0.5032*%
%ADD89O,0.8032X2.4032*%
%ADD90O,0.5032X1.9032*%
%ADD91R,2.0032X2.8032*%
%ADD92R,2.2032X2.2032*%
%ADD93C,2.2032*%
%ADD94C,2.2352*%
%ADD95C,2.7032*%
%ADD96R,2.7032X2.7032*%
%ADD97R,2.0032X1.4032*%
%ADD98C,1.8533*%
%ADD99C,1.7032*%
%ADD100R,1.7032X1.7032*%
%ADD101R,1.7032X1.7032*%
%ADD102C,1.4032*%
%ADD103C,0.7620*%
%ADD104C,1.4732*%
%ADD105C,0.7112*%
D24*
X533217Y998750D02*
D03*
Y992250D02*
D03*
Y985750D02*
D03*
Y979250D02*
D03*
X489783D02*
D03*
Y985750D02*
D03*
Y992250D02*
D03*
Y998750D02*
D03*
D25*
X297906Y501396D02*
D03*
X356906D02*
D03*
D30*
X728750Y1272194D02*
D03*
X735250D02*
D03*
X741750D02*
D03*
X748250D02*
D03*
X754750D02*
D03*
X761250D02*
D03*
X767750D02*
D03*
X774250D02*
D03*
Y1215806D02*
D03*
X767750D02*
D03*
X761250D02*
D03*
X754750D02*
D03*
X748250D02*
D03*
X741750D02*
D03*
X735250D02*
D03*
X728750D02*
D03*
D71*
X689610Y606410D02*
D03*
Y620410D02*
D03*
X720090Y574406D02*
D03*
Y588406D02*
D03*
X645160Y794370D02*
D03*
Y808370D02*
D03*
X662940Y827390D02*
D03*
Y841390D02*
D03*
X574294Y887364D02*
D03*
Y873364D02*
D03*
X468376Y930798D02*
D03*
Y916798D02*
D03*
X484632Y930798D02*
D03*
Y916798D02*
D03*
X551500Y377000D02*
D03*
Y391000D02*
D03*
X334772Y1024494D02*
D03*
Y1038494D02*
D03*
X676656Y841868D02*
D03*
Y855868D02*
D03*
X801500Y414500D02*
D03*
Y428500D02*
D03*
X779000Y306000D02*
D03*
Y292000D02*
D03*
X831500Y428500D02*
D03*
Y414500D02*
D03*
X816500Y414500D02*
D03*
Y428500D02*
D03*
X706820Y574470D02*
D03*
Y588470D02*
D03*
X631190Y808370D02*
D03*
Y794370D02*
D03*
X650240Y827390D02*
D03*
Y841390D02*
D03*
X412242Y1098916D02*
D03*
Y1112916D02*
D03*
X398272Y1098916D02*
D03*
Y1112916D02*
D03*
X482600Y537830D02*
D03*
Y551830D02*
D03*
X824000Y306000D02*
D03*
Y292000D02*
D03*
X538226Y377048D02*
D03*
Y391048D02*
D03*
D72*
X631048Y859790D02*
D03*
X645048D02*
D03*
X405018Y528066D02*
D03*
X391018D02*
D03*
X678800Y543052D02*
D03*
X692800D02*
D03*
X569610Y306070D02*
D03*
X555610D02*
D03*
X543194D02*
D03*
X529194D02*
D03*
X362600Y1283970D02*
D03*
X348600D02*
D03*
X362600Y1211580D02*
D03*
X348600D02*
D03*
X362600Y1225550D02*
D03*
X348600D02*
D03*
X362600Y1270000D02*
D03*
X348600D02*
D03*
X578216Y997712D02*
D03*
X592216D02*
D03*
X552562Y982726D02*
D03*
X566562D02*
D03*
X719186Y601472D02*
D03*
X733186D02*
D03*
X486522Y471678D02*
D03*
X500522D02*
D03*
X502960Y485190D02*
D03*
X516960D02*
D03*
X794000Y294000D02*
D03*
X808000D02*
D03*
X774304Y1195832D02*
D03*
X788304D02*
D03*
X734680Y1196848D02*
D03*
X748680D02*
D03*
X729884Y1292606D02*
D03*
X715884D02*
D03*
X692800Y557022D02*
D03*
X678800D02*
D03*
X555610Y318770D02*
D03*
X569610D02*
D03*
X542940Y318770D02*
D03*
X528940D02*
D03*
X412130Y1183132D02*
D03*
X398130D02*
D03*
X471058Y1004570D02*
D03*
X457058D02*
D03*
X471058Y991870D02*
D03*
X457058D02*
D03*
X502960Y500190D02*
D03*
X516960D02*
D03*
X312054Y455168D02*
D03*
X298054D02*
D03*
X657130Y458790D02*
D03*
X671130D02*
D03*
X816000Y399000D02*
D03*
X802000D02*
D03*
X794000Y308000D02*
D03*
X808000D02*
D03*
D73*
X557750Y358750D02*
D03*
X551250D02*
D03*
X544750D02*
D03*
X538250D02*
D03*
X557750Y336250D02*
D03*
X551250D02*
D03*
X544750D02*
D03*
X538250D02*
D03*
D74*
X631010Y824640D02*
D03*
Y831140D02*
D03*
Y837640D02*
D03*
Y844140D02*
D03*
X608510Y824640D02*
D03*
Y831140D02*
D03*
Y837640D02*
D03*
Y844140D02*
D03*
X688070Y571720D02*
D03*
Y578220D02*
D03*
Y584720D02*
D03*
Y591220D02*
D03*
X665570Y571720D02*
D03*
Y578220D02*
D03*
Y584720D02*
D03*
Y591220D02*
D03*
D75*
X626508Y601726D02*
D03*
X644508D02*
D03*
X626508Y579120D02*
D03*
X644508D02*
D03*
X663592Y914400D02*
D03*
X681592D02*
D03*
X663338Y893064D02*
D03*
X681338D02*
D03*
X317102Y572262D02*
D03*
X299102D02*
D03*
X317102Y551688D02*
D03*
X299102D02*
D03*
X534560Y279400D02*
D03*
X552560D02*
D03*
D76*
X720344Y537608D02*
D03*
Y555608D02*
D03*
X717550Y1037480D02*
D03*
Y1055480D02*
D03*
X720090Y1113900D02*
D03*
Y1095900D02*
D03*
X504190Y516780D02*
D03*
Y534780D02*
D03*
X759460Y962770D02*
D03*
Y944770D02*
D03*
X364490Y962770D02*
D03*
Y944770D02*
D03*
X289000Y963000D02*
D03*
Y945000D02*
D03*
X784000Y945000D02*
D03*
Y963000D02*
D03*
X342900Y944770D02*
D03*
Y962770D02*
D03*
X321310Y962770D02*
D03*
Y944770D02*
D03*
D77*
X418592Y600968D02*
D03*
Y569468D02*
D03*
D78*
X641134Y1191260D02*
D03*
X614134D02*
D03*
X644436Y914400D02*
D03*
X617436D02*
D03*
D79*
X400340Y512610D02*
D03*
Y485610D02*
D03*
X396240Y580174D02*
D03*
Y553174D02*
D03*
X759460Y1009180D02*
D03*
Y982180D02*
D03*
X314000Y1012500D02*
D03*
Y985500D02*
D03*
X289000D02*
D03*
Y1012500D02*
D03*
X784000Y400500D02*
D03*
Y427500D02*
D03*
X525018Y923760D02*
D03*
Y950760D02*
D03*
D80*
X395356Y1167970D02*
D03*
X411856D02*
D03*
X395356Y1146970D02*
D03*
X411856D02*
D03*
D81*
X674130Y478790D02*
D03*
X659130D02*
D03*
D82*
X482460Y487090D02*
D03*
Y499790D02*
D03*
Y512490D02*
D03*
Y525190D02*
D03*
X424960Y487090D02*
D03*
Y499790D02*
D03*
Y512490D02*
D03*
D83*
Y525190D02*
D03*
D84*
X453710Y506140D02*
D03*
D85*
X642630Y459790D02*
D03*
Y478790D02*
D03*
X616630Y459790D02*
D03*
Y469290D02*
D03*
D86*
Y478790D02*
D03*
D87*
X449000Y1214500D02*
D03*
X454000D02*
D03*
X459000D02*
D03*
X464000D02*
D03*
X469000D02*
D03*
X474000D02*
D03*
X479000D02*
D03*
X484000D02*
D03*
X489000D02*
D03*
X494000D02*
D03*
X499000D02*
D03*
X504000D02*
D03*
X509000D02*
D03*
X514000D02*
D03*
X519000D02*
D03*
X524000D02*
D03*
X529000D02*
D03*
X534000D02*
D03*
X539000D02*
D03*
X544000D02*
D03*
X549000D02*
D03*
X554000D02*
D03*
X559000D02*
D03*
X564000D02*
D03*
X569000D02*
D03*
Y1063500D02*
D03*
X564000D02*
D03*
X559000D02*
D03*
X554000D02*
D03*
X549000D02*
D03*
X544000D02*
D03*
X539000D02*
D03*
X534000D02*
D03*
X529000D02*
D03*
X524000D02*
D03*
X519000D02*
D03*
X514000D02*
D03*
X509000D02*
D03*
X504000D02*
D03*
X499000D02*
D03*
X494000D02*
D03*
X489000D02*
D03*
X484000D02*
D03*
X479000D02*
D03*
X474000D02*
D03*
X469000D02*
D03*
X464000D02*
D03*
X459000D02*
D03*
X454000D02*
D03*
X449000D02*
D03*
D88*
X584500Y1199000D02*
D03*
Y1194000D02*
D03*
Y1189000D02*
D03*
Y1184000D02*
D03*
Y1179000D02*
D03*
Y1174000D02*
D03*
Y1169000D02*
D03*
Y1164000D02*
D03*
Y1159000D02*
D03*
Y1154000D02*
D03*
Y1149000D02*
D03*
Y1144000D02*
D03*
Y1139000D02*
D03*
Y1134000D02*
D03*
Y1129000D02*
D03*
Y1124000D02*
D03*
Y1119000D02*
D03*
Y1114000D02*
D03*
Y1109000D02*
D03*
Y1104000D02*
D03*
Y1099000D02*
D03*
Y1094000D02*
D03*
Y1089000D02*
D03*
Y1084000D02*
D03*
Y1079000D02*
D03*
X433500D02*
D03*
Y1084000D02*
D03*
Y1089000D02*
D03*
Y1094000D02*
D03*
Y1099000D02*
D03*
Y1104000D02*
D03*
Y1109000D02*
D03*
Y1114000D02*
D03*
Y1119000D02*
D03*
Y1124000D02*
D03*
Y1129000D02*
D03*
Y1134000D02*
D03*
Y1139000D02*
D03*
Y1144000D02*
D03*
Y1149000D02*
D03*
Y1154000D02*
D03*
Y1159000D02*
D03*
Y1164000D02*
D03*
Y1169000D02*
D03*
Y1174000D02*
D03*
Y1179000D02*
D03*
Y1184000D02*
D03*
Y1189000D02*
D03*
Y1194000D02*
D03*
Y1199000D02*
D03*
D89*
X789950Y327500D02*
D03*
X802650D02*
D03*
X815350D02*
D03*
X828050D02*
D03*
X789950Y375500D02*
D03*
X802650D02*
D03*
X815350D02*
D03*
X828050D02*
D03*
D90*
X332580Y1267640D02*
D03*
X327580D02*
D03*
X322580D02*
D03*
X317580D02*
D03*
X312580D02*
D03*
X332580Y1226640D02*
D03*
X327580D02*
D03*
X322580D02*
D03*
X317580D02*
D03*
X312580D02*
D03*
D91*
X287000Y844000D02*
D03*
X401000D02*
D03*
X702000D02*
D03*
X816000D02*
D03*
D92*
X319000Y774000D02*
D03*
X526500Y724000D02*
D03*
X734000Y774000D02*
D03*
X526500Y554000D02*
D03*
D93*
X369000Y774000D02*
D03*
X319000Y919000D02*
D03*
X344000D02*
D03*
X369000D02*
D03*
X551500Y724000D02*
D03*
X576500D02*
D03*
X784000Y774000D02*
D03*
X734000Y919000D02*
D03*
X759000D02*
D03*
X784000D02*
D03*
X551500Y554000D02*
D03*
X576500D02*
D03*
D94*
X812800Y1108456D02*
D03*
Y1186180D02*
D03*
X673100Y326644D02*
D03*
X769112Y588264D02*
D03*
X660654Y536194D02*
D03*
X590296Y388620D02*
D03*
X673100Y362458D02*
D03*
X505714Y279654D02*
D03*
X336042Y298958D02*
D03*
X425704Y336550D02*
D03*
X676148Y777494D02*
D03*
X444500Y843280D02*
D03*
X425704Y374904D02*
D03*
X351282Y413766D02*
D03*
X387350Y1287780D02*
D03*
X388366Y1211580D02*
D03*
X387350Y1236980D02*
D03*
Y1262380D02*
D03*
X438912Y930656D02*
D03*
Y966470D02*
D03*
X557276Y1002030D02*
D03*
X559562Y961390D02*
D03*
X297942Y422148D02*
D03*
X813816Y1056894D02*
D03*
X334772Y1104646D02*
D03*
X776500Y481500D02*
D03*
X801500D02*
D03*
X812800Y1160272D02*
D03*
Y1134364D02*
D03*
Y1082548D02*
D03*
D95*
X409000Y664000D02*
D03*
Y714000D02*
D03*
X284000Y664000D02*
D03*
X819000D02*
D03*
Y714000D02*
D03*
X694000Y664000D02*
D03*
D96*
X284000Y714000D02*
D03*
X694000D02*
D03*
D97*
X598000Y799000D02*
D03*
X505000D02*
D03*
X598000Y629000D02*
D03*
X505000D02*
D03*
D98*
X474000Y299000D02*
D03*
Y384001D02*
D03*
Y414001D02*
D03*
X379000Y299000D02*
D03*
Y384001D02*
D03*
Y414001D02*
D03*
X724000Y299000D02*
D03*
Y384001D02*
D03*
Y414001D02*
D03*
X629158Y299000D02*
D03*
Y384001D02*
D03*
Y414001D02*
D03*
D99*
X800100Y1273810D02*
D03*
Y1248410D02*
D03*
X632460Y1289050D02*
D03*
X607060D02*
D03*
X581660D02*
D03*
X556260D02*
D03*
X530860D02*
D03*
X505460D02*
D03*
X480060D02*
D03*
X690880Y1024890D02*
D03*
X665480D02*
D03*
X690880Y1050290D02*
D03*
X665480D02*
D03*
X690880Y1075690D02*
D03*
X665480D02*
D03*
X690880Y1101090D02*
D03*
X665480D02*
D03*
X690880Y1126490D02*
D03*
X665480D02*
D03*
X690880Y1151890D02*
D03*
X665480D02*
D03*
X690880Y1177290D02*
D03*
X665480D02*
D03*
X690880Y1202690D02*
D03*
X665480D02*
D03*
X690880Y1228090D02*
D03*
X665480D02*
D03*
X690880Y1253490D02*
D03*
X471900Y571500D02*
D03*
X446500Y596900D02*
D03*
X471900D02*
D03*
X446500Y622300D02*
D03*
X471900D02*
D03*
X446500Y647700D02*
D03*
X471900D02*
D03*
X446500Y673100D02*
D03*
X471900D02*
D03*
D100*
X800100Y1223010D02*
D03*
X665480Y1253490D02*
D03*
X446500Y571500D02*
D03*
D101*
X454660Y1289050D02*
D03*
D102*
X551500Y899400D02*
D03*
Y874000D02*
D03*
Y924800D02*
D03*
D103*
X465328Y1119632D02*
D03*
X478536D02*
D03*
X477520Y1080770D02*
D03*
X465760D02*
D03*
X454000Y1090168D02*
D03*
Y1080770D02*
D03*
X718312Y1249680D02*
D03*
X727568Y1229614D02*
D03*
X480822Y1138428D02*
D03*
X428752Y1044448D02*
D03*
X453390D02*
D03*
X561340Y1046734D02*
D03*
X579628Y328930D02*
D03*
X480060Y1128522D02*
D03*
X425704Y317754D02*
D03*
X503174Y382524D02*
D03*
X575818Y414274D02*
D03*
X784098Y458724D02*
D03*
X784000Y440338D02*
D03*
X266954Y364998D02*
D03*
X569722Y361188D02*
D03*
X592455Y404876D02*
D03*
X737616Y315722D02*
D03*
X768604Y327406D02*
D03*
Y400558D02*
D03*
X629158Y444246D02*
D03*
X558292Y408178D02*
D03*
X433070Y414020D02*
D03*
X532638Y414274D02*
D03*
X558292Y517144D02*
D03*
X618490D02*
D03*
X576580Y822960D02*
D03*
X628650Y762762D02*
D03*
X578104Y672084D02*
D03*
X476250Y707136D02*
D03*
X467106Y727964D02*
D03*
X737616Y735330D02*
D03*
X527050Y750062D02*
D03*
X604520Y459790D02*
D03*
X527050Y908050D02*
D03*
X628650Y633984D02*
D03*
X618490Y801370D02*
D03*
X484632Y967994D02*
D03*
Y944118D02*
D03*
X468376Y943610D02*
D03*
X474472Y1044448D02*
D03*
X510032Y985774D02*
D03*
X330454Y977646D02*
D03*
X342900Y977646D02*
D03*
X364490Y1019302D02*
D03*
Y985500D02*
D03*
X546989Y1038225D02*
D03*
X545846Y1191768D02*
D03*
X359156Y1188212D02*
D03*
X349250Y1188466D02*
D03*
X495046Y1095756D02*
D03*
X487680Y1086358D02*
D03*
X517398Y1101090D02*
D03*
X510286Y1110488D02*
D03*
X517398Y1157986D02*
D03*
X510286Y1139190D02*
D03*
X494792Y1180592D02*
D03*
Y1170432D02*
D03*
X471678Y1198118D02*
D03*
X762762Y1173988D02*
D03*
X647700Y1140714D02*
D03*
X705358Y1240282D02*
D03*
X711708Y1256030D02*
D03*
X741750Y1229614D02*
D03*
X711708Y1153668D02*
D03*
X705358Y1173988D02*
D03*
X562864Y1250696D02*
D03*
X645160Y1303274D02*
D03*
X517652Y1231900D02*
D03*
X439562Y1221120D02*
D03*
X461010Y1230630D02*
D03*
X499000Y1244346D02*
D03*
Y1231900D02*
D03*
X626110Y1257300D02*
D03*
Y1094000D02*
D03*
X618490Y1101090D02*
D03*
Y1266190D02*
D03*
X610870Y1106170D02*
D03*
X648970Y1225550D02*
D03*
X647700Y1130300D02*
D03*
X603504Y1128522D02*
D03*
X647700Y1075690D02*
D03*
X648970Y1214500D02*
D03*
X322580Y1285240D02*
D03*
X537210Y401320D02*
D03*
X314000Y1024890D02*
D03*
X289000D02*
D03*
X828050Y394960D02*
D03*
X824230Y280670D02*
D03*
X759460Y1022350D02*
D03*
X543194Y294274D02*
D03*
X674370Y491998D02*
D03*
X671130Y447802D02*
D03*
X604012Y469392D02*
D03*
X576580Y1045718D02*
D03*
X440690Y1044448D02*
D03*
X465328D02*
D03*
X415544Y1081786D02*
D03*
X416052Y1072896D02*
D03*
X382430Y1146970D02*
D03*
X386588Y1183132D02*
D03*
X451104Y1158494D02*
D03*
X450088Y1173988D02*
D03*
X451322Y1109000D02*
D03*
X451358Y1149096D02*
D03*
X601472Y1069990D02*
D03*
X545846Y1086104D02*
D03*
X761250Y1196098D02*
D03*
X758190Y1230884D02*
D03*
X741750Y1290828D02*
D03*
X704342Y1292860D02*
D03*
X715264Y1272540D02*
D03*
X788304Y1204976D02*
D03*
X565150Y1196594D02*
D03*
X601980D02*
D03*
X567690Y336042D02*
D03*
X658114Y859790D02*
D03*
X608510Y811710D02*
D03*
X556260Y1189482D02*
D03*
X610870Y1272540D02*
D03*
X358902Y1246124D02*
D03*
X322580Y1246378D02*
D03*
X633222Y1084072D02*
D03*
X604266Y1118616D02*
D03*
X504000Y1118806D02*
D03*
X439024Y1207120D02*
D03*
X300736Y1235964D02*
D03*
Y1088898D02*
D03*
X290322Y1081786D02*
D03*
Y1267640D02*
D03*
X313436Y1072896D02*
D03*
X312580Y1200658D02*
D03*
X320802Y1042670D02*
D03*
X505460Y1265936D02*
D03*
X517652Y1273556D02*
D03*
X454660Y1257300D02*
D03*
X562864Y1235456D02*
D03*
X739940Y982180D02*
D03*
X320802Y1191768D02*
D03*
X536194Y970026D02*
D03*
X535432Y1008634D02*
D03*
X592216Y1010300D02*
D03*
X445516Y991870D02*
D03*
X681592Y931562D02*
D03*
X784000Y981612D02*
D03*
X644906Y893064D02*
D03*
X618490Y859790D02*
D03*
X445262Y1004570D02*
D03*
X517398Y1035304D02*
D03*
X502666Y1004062D02*
D03*
Y1035304D02*
D03*
X510286Y1011428D02*
D03*
X486664Y1009650D02*
D03*
X380962Y950760D02*
D03*
X392572Y887364D02*
D03*
X349250Y1063752D02*
D03*
X392572Y1050148D02*
D03*
X406146Y1088644D02*
D03*
X412242Y1123950D02*
D03*
X398272Y1124204D02*
D03*
X406146Y863346D02*
D03*
X701059Y414001D02*
D03*
X704596Y521462D02*
D03*
X399542Y1030986D02*
D03*
Y870712D02*
D03*
X444500Y869950D02*
D03*
X502666Y879856D02*
D03*
X319000D02*
D03*
X662940Y815086D02*
D03*
X490220Y713994D02*
D03*
X692912Y507492D02*
D03*
X665226Y757174D02*
D03*
X647954Y563880D02*
D03*
X611886Y601726D02*
D03*
X665226Y602742D02*
D03*
Y557022D02*
D03*
X631190Y982180D02*
D03*
X604266Y914400D02*
D03*
X642874Y449580D02*
D03*
X528828Y500126D02*
D03*
X702564Y621792D02*
D03*
X754750Y1290828D02*
D03*
X416052Y771652D02*
D03*
D104*
X464820Y453390D02*
D03*
Y469900D02*
D03*
X447040Y550926D02*
D03*
X463550Y536956D02*
D03*
X447294D02*
D03*
X801370Y447040D02*
D03*
X747014Y395986D02*
D03*
Y459994D02*
D03*
X518668Y377190D02*
D03*
X516636Y470662D02*
D03*
X532638D02*
D03*
X548640Y454152D02*
D03*
X532638D02*
D03*
X516636D02*
D03*
X548640Y470662D02*
D03*
X603758Y558292D02*
D03*
X642556Y491490D02*
D03*
X377952Y513334D02*
D03*
X411480Y453390D02*
D03*
X429260D02*
D03*
Y469900D02*
D03*
X411480D02*
D03*
X447040D02*
D03*
Y453390D02*
D03*
X342900Y571500D02*
D03*
X359410D02*
D03*
X342900Y554990D02*
D03*
X359410D02*
D03*
X431038Y550672D02*
D03*
X393700Y469900D02*
D03*
Y453390D02*
D03*
X340360D02*
D03*
X358140D02*
D03*
X375920D02*
D03*
X591850Y649000D02*
D03*
X454000Y817270D02*
D03*
X641500Y751736D02*
D03*
X433084Y747000D02*
D03*
X826164Y351518D02*
D03*
X703834Y606410D02*
D03*
X641604Y623570D02*
D03*
X377952Y580390D02*
D03*
X463550Y550672D02*
D03*
X414782D02*
D03*
X330200Y513842D02*
D03*
Y486156D02*
D03*
Y499999D02*
D03*
X313436D02*
D03*
Y486156D02*
D03*
Y513842D02*
D03*
D105*
X444500Y519430D02*
D03*
X462280D02*
D03*
Y510709D02*
D03*
Y501988D02*
D03*
Y493268D02*
D03*
X453390Y519430D02*
D03*
Y510709D02*
D03*
Y501988D02*
D03*
Y493268D02*
D03*
X444500Y510709D02*
D03*
Y501988D02*
D03*
Y493268D02*
D03*
M02*
