G04*
G04 #@! TF.GenerationSoftware,Altium Limited,CircuitStudio,1.5.1 (13)*
G04*
G04 Layer_Physical_Order=3*
G04 Layer_Color=56745*
%FSLAX44Y44*%
%MOMM*%
G71*
G01*
G75*
%ADD33C,0.2540*%
%ADD34C,0.5080*%
%ADD44C,2.0000*%
%ADD45C,2.0320*%
%ADD50C,1.5000*%
%ADD51R,1.5000X1.5000*%
%ADD54C,0.5588*%
%ADD55C,1.2700*%
G36*
X845633Y257366D02*
X257366D01*
Y1315633D01*
X845633D01*
Y257366D01*
D02*
G37*
%LPC*%
G36*
X665226Y762094D02*
X663343Y761720D01*
X661747Y760653D01*
X660680Y759057D01*
X660305Y757174D01*
X660680Y755291D01*
X661747Y753695D01*
X663343Y752628D01*
X665226Y752253D01*
X667109Y752628D01*
X668705Y753695D01*
X669772Y755291D01*
X670146Y757174D01*
X669772Y759057D01*
X668705Y760653D01*
X667109Y761720D01*
X665226Y762094D01*
D02*
G37*
G36*
X527050Y754982D02*
X525167Y754608D01*
X523571Y753541D01*
X522504Y751945D01*
X522129Y750062D01*
X522504Y748179D01*
X523571Y746582D01*
X525167Y745516D01*
X527050Y745141D01*
X528933Y745516D01*
X530529Y746582D01*
X531596Y748179D01*
X531970Y750062D01*
X531596Y751945D01*
X530529Y753541D01*
X528933Y754608D01*
X527050Y754982D01*
D02*
G37*
G36*
X628650Y767682D02*
X626767Y767308D01*
X625171Y766241D01*
X624104Y764645D01*
X623729Y762762D01*
X624104Y760879D01*
X625171Y759283D01*
X626767Y758216D01*
X628650Y757841D01*
X630533Y758216D01*
X632129Y759283D01*
X633196Y760879D01*
X633570Y762762D01*
X633196Y764645D01*
X632129Y766241D01*
X630533Y767308D01*
X628650Y767682D01*
D02*
G37*
G36*
X784000Y786136D02*
X780859Y785722D01*
X777932Y784510D01*
X775418Y782581D01*
X773490Y780068D01*
X772278Y777141D01*
X771864Y774000D01*
X772278Y770859D01*
X773490Y767932D01*
X775418Y765418D01*
X777932Y763490D01*
X780859Y762278D01*
X784000Y761864D01*
X787141Y762278D01*
X790068Y763490D01*
X792581Y765418D01*
X794510Y767932D01*
X795722Y770859D01*
X796136Y774000D01*
X795722Y777141D01*
X794510Y780068D01*
X792581Y782581D01*
X790068Y784510D01*
X787141Y785722D01*
X784000Y786136D01*
D02*
G37*
G36*
X369000D02*
X365859Y785722D01*
X362932Y784510D01*
X360419Y782581D01*
X358490Y780068D01*
X357277Y777141D01*
X356864Y774000D01*
X357277Y770859D01*
X358490Y767932D01*
X360419Y765418D01*
X362932Y763490D01*
X365859Y762278D01*
X369000Y761864D01*
X372141Y762278D01*
X375068Y763490D01*
X377581Y765418D01*
X379510Y767932D01*
X380722Y770859D01*
X381136Y774000D01*
X380722Y777141D01*
X379510Y780068D01*
X377581Y782581D01*
X375068Y784510D01*
X372141Y785722D01*
X369000Y786136D01*
D02*
G37*
G36*
X467106Y732884D02*
X465223Y732510D01*
X463627Y731443D01*
X462560Y729847D01*
X462185Y727964D01*
X462560Y726081D01*
X463627Y724484D01*
X465223Y723418D01*
X467106Y723043D01*
X468989Y723418D01*
X470585Y724484D01*
X471652Y726081D01*
X472026Y727964D01*
X471652Y729847D01*
X470585Y731443D01*
X468989Y732510D01*
X467106Y732884D01*
D02*
G37*
G36*
X490220Y718914D02*
X488337Y718540D01*
X486740Y717473D01*
X485674Y715877D01*
X485299Y713994D01*
X485674Y712111D01*
X486740Y710515D01*
X488337Y709448D01*
X490220Y709073D01*
X492103Y709448D01*
X493699Y710515D01*
X494766Y712111D01*
X495140Y713994D01*
X494766Y715877D01*
X493699Y717473D01*
X492103Y718540D01*
X490220Y718914D01*
D02*
G37*
G36*
X737616Y740250D02*
X735733Y739876D01*
X734137Y738809D01*
X733070Y737213D01*
X732695Y735330D01*
X733070Y733447D01*
X734137Y731851D01*
X735733Y730784D01*
X737616Y730409D01*
X739499Y730784D01*
X741095Y731851D01*
X742162Y733447D01*
X742536Y735330D01*
X742162Y737213D01*
X741095Y738809D01*
X739499Y739876D01*
X737616Y740250D01*
D02*
G37*
G36*
X641500Y760190D02*
X639312Y759902D01*
X637273Y759057D01*
X635522Y757714D01*
X634178Y755963D01*
X633334Y753924D01*
X633046Y751736D01*
X633334Y749548D01*
X634178Y747509D01*
X635522Y745758D01*
X637273Y744414D01*
X639312Y743570D01*
X641500Y743281D01*
X643688Y743570D01*
X645727Y744414D01*
X647478Y745758D01*
X648821Y747509D01*
X649666Y749548D01*
X649954Y751736D01*
X649666Y753924D01*
X648821Y755963D01*
X647478Y757714D01*
X645727Y759057D01*
X643688Y759902D01*
X641500Y760190D01*
D02*
G37*
G36*
X433084Y755454D02*
X430896Y755166D01*
X428857Y754322D01*
X427106Y752978D01*
X426096Y751662D01*
X408926D01*
X407142Y751307D01*
X405630Y750296D01*
X374656Y719322D01*
X373645Y717810D01*
X373586Y717514D01*
X373290Y716026D01*
Y587378D01*
X371974Y586368D01*
X370630Y584617D01*
X369786Y582578D01*
X369497Y580390D01*
X369786Y578202D01*
X370630Y576163D01*
X371974Y574412D01*
X373290Y573401D01*
Y520322D01*
X371974Y519312D01*
X370630Y517561D01*
X369786Y515522D01*
X369497Y513334D01*
X369786Y511146D01*
X370630Y509107D01*
X371974Y507356D01*
X373725Y506012D01*
X375764Y505168D01*
X377952Y504879D01*
X380140Y505168D01*
X382179Y506012D01*
X383930Y507356D01*
X385274Y509107D01*
X386118Y511146D01*
X386406Y513334D01*
X386118Y515522D01*
X385274Y517561D01*
X383930Y519312D01*
X382613Y520322D01*
Y573401D01*
X383930Y574412D01*
X385274Y576163D01*
X386118Y578202D01*
X386406Y580390D01*
X386118Y582578D01*
X385274Y584617D01*
X383930Y586368D01*
X382613Y587378D01*
Y714095D01*
X410857Y742338D01*
X426096D01*
X427106Y741022D01*
X428857Y739678D01*
X430896Y738834D01*
X433084Y738546D01*
X435272Y738834D01*
X437311Y739678D01*
X439062Y741022D01*
X440406Y742773D01*
X441250Y744812D01*
X441538Y747000D01*
X441250Y749188D01*
X440406Y751227D01*
X439062Y752978D01*
X437311Y754322D01*
X435272Y755166D01*
X433084Y755454D01*
D02*
G37*
G36*
X331032Y786032D02*
X306968D01*
Y761968D01*
X331032D01*
Y786032D01*
D02*
G37*
G36*
X662940Y820006D02*
X661057Y819632D01*
X659461Y818565D01*
X658394Y816969D01*
X658019Y815086D01*
X658394Y813203D01*
X659461Y811607D01*
X661057Y810540D01*
X662940Y810165D01*
X664823Y810540D01*
X666419Y811607D01*
X667486Y813203D01*
X667860Y815086D01*
X667486Y816969D01*
X666419Y818565D01*
X664823Y819632D01*
X662940Y820006D01*
D02*
G37*
G36*
X454000Y825724D02*
X451812Y825436D01*
X449773Y824592D01*
X448022Y823248D01*
X446678Y821497D01*
X445834Y819458D01*
X445546Y817270D01*
X445834Y815082D01*
X446678Y813043D01*
X448022Y811292D01*
X449773Y809948D01*
X451812Y809104D01*
X454000Y808816D01*
X456188Y809104D01*
X458227Y809948D01*
X459978Y811292D01*
X461322Y813043D01*
X462166Y815082D01*
X462454Y817270D01*
X462166Y819458D01*
X461322Y821497D01*
X459978Y823248D01*
X458227Y824592D01*
X456188Y825436D01*
X454000Y825724D01*
D02*
G37*
G36*
X576580Y827880D02*
X574697Y827506D01*
X573101Y826439D01*
X572034Y824843D01*
X571659Y822960D01*
X572034Y821077D01*
X573101Y819481D01*
X574697Y818414D01*
X576580Y818039D01*
X578463Y818414D01*
X580059Y819481D01*
X581126Y821077D01*
X581500Y822960D01*
X581126Y824843D01*
X580059Y826439D01*
X578463Y827506D01*
X576580Y827880D01*
D02*
G37*
G36*
X399542Y875632D02*
X397659Y875258D01*
X396063Y874191D01*
X394996Y872595D01*
X394621Y870712D01*
X394996Y868829D01*
X396063Y867233D01*
X397659Y866166D01*
X399542Y865791D01*
X400587Y865999D01*
X400924Y865743D01*
X401533Y864893D01*
X401225Y863346D01*
X401600Y861463D01*
X402376Y860302D01*
X401804Y859032D01*
X389968D01*
Y828968D01*
X412032D01*
Y859032D01*
X410488D01*
X409916Y860302D01*
X410692Y861463D01*
X411066Y863346D01*
X410692Y865229D01*
X409625Y866825D01*
X408029Y867892D01*
X406146Y868266D01*
X405101Y868058D01*
X404764Y868315D01*
X404155Y869165D01*
X404462Y870712D01*
X404088Y872595D01*
X403021Y874191D01*
X401425Y875258D01*
X399542Y875632D01*
D02*
G37*
G36*
X298032Y859032D02*
X275968D01*
Y828968D01*
X298032D01*
Y859032D01*
D02*
G37*
G36*
X676148Y789791D02*
X672965Y789372D01*
X669999Y788144D01*
X667452Y786189D01*
X665498Y783643D01*
X664270Y780677D01*
X663851Y777494D01*
X664270Y774311D01*
X665498Y771345D01*
X667452Y768798D01*
X669999Y766844D01*
X672965Y765616D01*
X676148Y765197D01*
X679331Y765616D01*
X682297Y766844D01*
X684843Y768798D01*
X686798Y771345D01*
X688026Y774311D01*
X688445Y777494D01*
X688026Y780677D01*
X686798Y783643D01*
X684843Y786189D01*
X682297Y788144D01*
X679331Y789372D01*
X676148Y789791D01*
D02*
G37*
G36*
X746032Y786032D02*
X721968D01*
Y761968D01*
X746032D01*
Y786032D01*
D02*
G37*
G36*
X416052Y776572D02*
X414169Y776198D01*
X412573Y775131D01*
X411506Y773535D01*
X411131Y771652D01*
X411506Y769769D01*
X412573Y768173D01*
X414169Y767106D01*
X416052Y766731D01*
X417935Y767106D01*
X419531Y768173D01*
X420598Y769769D01*
X420972Y771652D01*
X420598Y773535D01*
X419531Y775131D01*
X417935Y776198D01*
X416052Y776572D01*
D02*
G37*
G36*
X618490Y806290D02*
X616607Y805916D01*
X615011Y804849D01*
X613944Y803253D01*
X613569Y801370D01*
X613944Y799487D01*
X615011Y797891D01*
X616607Y796824D01*
X618490Y796449D01*
X620373Y796824D01*
X621969Y797891D01*
X623036Y799487D01*
X623410Y801370D01*
X623036Y803253D01*
X621969Y804849D01*
X620373Y805916D01*
X618490Y806290D01*
D02*
G37*
G36*
X608510Y816630D02*
X606627Y816256D01*
X605031Y815189D01*
X603964Y813593D01*
X603589Y811710D01*
X603964Y809827D01*
X604983Y808302D01*
X604900Y807913D01*
X604538Y807032D01*
X586968D01*
Y790968D01*
X609032D01*
Y806893D01*
X610393Y807164D01*
X611989Y808231D01*
X613056Y809827D01*
X613430Y811710D01*
X613056Y813593D01*
X611989Y815189D01*
X610393Y816256D01*
X608510Y816630D01*
D02*
G37*
G36*
X476250Y712056D02*
X474367Y711682D01*
X472771Y710615D01*
X471704Y709019D01*
X471329Y707136D01*
X471704Y705253D01*
X472771Y703656D01*
X474367Y702590D01*
X476250Y702215D01*
X478133Y702590D01*
X479729Y703656D01*
X480796Y705253D01*
X481170Y707136D01*
X480796Y709019D01*
X479729Y710615D01*
X478133Y711682D01*
X476250Y712056D01*
D02*
G37*
G36*
X628650Y638904D02*
X626767Y638530D01*
X625171Y637463D01*
X624104Y635867D01*
X623729Y633984D01*
X624104Y632101D01*
X625171Y630504D01*
X626767Y629438D01*
X628650Y629063D01*
X630533Y629438D01*
X632129Y630504D01*
X633196Y632101D01*
X633570Y633984D01*
X633196Y635867D01*
X632129Y637463D01*
X630533Y638530D01*
X628650Y638904D01*
D02*
G37*
G36*
X609032Y637032D02*
X586968D01*
Y620968D01*
X609032D01*
Y637032D01*
D02*
G37*
G36*
X446500Y657314D02*
X444011Y656986D01*
X441693Y656026D01*
X439702Y654498D01*
X438174Y652507D01*
X437213Y650188D01*
X436886Y647700D01*
X437213Y645211D01*
X438174Y642893D01*
X439702Y640902D01*
X441693Y639374D01*
X444011Y638413D01*
X446500Y638086D01*
X448988Y638413D01*
X451307Y639374D01*
X453298Y640902D01*
X454826Y642893D01*
X455787Y645211D01*
X456114Y647700D01*
X455787Y650188D01*
X454826Y652507D01*
X453298Y654498D01*
X451307Y656026D01*
X448988Y656986D01*
X446500Y657314D01*
D02*
G37*
G36*
X591850Y657454D02*
X589662Y657166D01*
X587623Y656321D01*
X585872Y654978D01*
X584528Y653227D01*
X583684Y651188D01*
X583396Y649000D01*
X583684Y646812D01*
X584528Y644773D01*
X585872Y643022D01*
X587623Y641678D01*
X589662Y640834D01*
X591850Y640546D01*
X594038Y640834D01*
X596077Y641678D01*
X597828Y643022D01*
X599171Y644773D01*
X600016Y646812D01*
X600304Y649000D01*
X600016Y651188D01*
X599171Y653227D01*
X597828Y654978D01*
X596077Y656321D01*
X594038Y657166D01*
X591850Y657454D01*
D02*
G37*
G36*
X471900Y657314D02*
X469412Y656986D01*
X467093Y656026D01*
X465102Y654498D01*
X463574Y652507D01*
X462613Y650188D01*
X462286Y647700D01*
X462613Y645211D01*
X463574Y642893D01*
X465102Y640902D01*
X467093Y639374D01*
X469412Y638413D01*
X471900Y638086D01*
X474388Y638413D01*
X476707Y639374D01*
X478698Y640902D01*
X480226Y642893D01*
X481186Y645211D01*
X481514Y647700D01*
X481186Y650188D01*
X480226Y652507D01*
X478698Y654498D01*
X476707Y656026D01*
X474388Y656986D01*
X471900Y657314D01*
D02*
G37*
G36*
X446500Y631914D02*
X444011Y631586D01*
X441693Y630626D01*
X439702Y629098D01*
X438174Y627107D01*
X437213Y624788D01*
X436886Y622300D01*
X437213Y619812D01*
X438174Y617493D01*
X439702Y615502D01*
X441693Y613974D01*
X444011Y613013D01*
X446500Y612686D01*
X448988Y613013D01*
X451307Y613974D01*
X453298Y615502D01*
X454826Y617493D01*
X455787Y619812D01*
X456114Y622300D01*
X455787Y624788D01*
X454826Y627107D01*
X453298Y629098D01*
X451307Y630626D01*
X448988Y631586D01*
X446500Y631914D01*
D02*
G37*
G36*
X705104Y615209D02*
Y607680D01*
X712633D01*
X712495Y608731D01*
X711599Y610893D01*
X710174Y612750D01*
X708317Y614175D01*
X706155Y615071D01*
X705104Y615209D01*
D02*
G37*
G36*
X471900Y631914D02*
X469412Y631586D01*
X467093Y630626D01*
X465102Y629098D01*
X463574Y627107D01*
X462613Y624788D01*
X462286Y622300D01*
X462613Y619812D01*
X463574Y617493D01*
X465102Y615502D01*
X467093Y613974D01*
X469412Y613013D01*
X471900Y612686D01*
X474388Y613013D01*
X476707Y613974D01*
X478698Y615502D01*
X480226Y617493D01*
X481186Y619812D01*
X481514Y622300D01*
X481186Y624788D01*
X480226Y627107D01*
X478698Y629098D01*
X476707Y630626D01*
X474388Y631586D01*
X471900Y631914D01*
D02*
G37*
G36*
X516032Y637032D02*
X493968D01*
Y620968D01*
X516032D01*
Y637032D01*
D02*
G37*
G36*
X702564Y626712D02*
X700681Y626338D01*
X699084Y625271D01*
X698018Y623675D01*
X697643Y621792D01*
X698018Y619909D01*
X699084Y618312D01*
X700681Y617246D01*
X702564Y616871D01*
X704447Y617246D01*
X706043Y618312D01*
X707110Y619909D01*
X707484Y621792D01*
X707110Y623675D01*
X706043Y625271D01*
X704447Y626338D01*
X702564Y626712D01*
D02*
G37*
G36*
X284000Y678657D02*
X280206Y678158D01*
X276671Y676693D01*
X273636Y674364D01*
X271306Y671329D01*
X269842Y667794D01*
X269342Y664000D01*
X269842Y660206D01*
X271306Y656671D01*
X273636Y653635D01*
X276671Y651306D01*
X280206Y649842D01*
X284000Y649342D01*
X287794Y649842D01*
X291329Y651306D01*
X294364Y653635D01*
X296693Y656671D01*
X298158Y660206D01*
X298657Y664000D01*
X298158Y667794D01*
X296693Y671329D01*
X294364Y674364D01*
X291329Y676693D01*
X287794Y678158D01*
X284000Y678657D01*
D02*
G37*
G36*
X409000Y728657D02*
X405206Y728158D01*
X401671Y726693D01*
X398635Y724364D01*
X396306Y721329D01*
X394842Y717794D01*
X394342Y714000D01*
X394842Y710206D01*
X396306Y706671D01*
X398635Y703635D01*
X401671Y701306D01*
X405206Y699842D01*
X409000Y699342D01*
X412794Y699842D01*
X416329Y701306D01*
X419364Y703635D01*
X421693Y706671D01*
X423158Y710206D01*
X423657Y714000D01*
X423158Y717794D01*
X421693Y721329D01*
X419364Y724364D01*
X416329Y726693D01*
X412794Y728158D01*
X409000Y728657D01*
D02*
G37*
G36*
X578104Y677004D02*
X576221Y676630D01*
X574624Y675563D01*
X573558Y673967D01*
X573183Y672084D01*
X573558Y670201D01*
X574624Y668605D01*
X576221Y667538D01*
X578104Y667163D01*
X579987Y667538D01*
X581583Y668605D01*
X582650Y670201D01*
X583024Y672084D01*
X582650Y673967D01*
X581583Y675563D01*
X579987Y676630D01*
X578104Y677004D01*
D02*
G37*
G36*
X819000Y728657D02*
X815206Y728158D01*
X811671Y726693D01*
X808635Y724364D01*
X806306Y721329D01*
X804842Y717794D01*
X804342Y714000D01*
X804842Y710206D01*
X806306Y706671D01*
X808635Y703635D01*
X811671Y701306D01*
X815206Y699842D01*
X819000Y699342D01*
X822794Y699842D01*
X826329Y701306D01*
X829364Y703635D01*
X831694Y706671D01*
X833158Y710206D01*
X833657Y714000D01*
X833158Y717794D01*
X831694Y721329D01*
X829364Y724364D01*
X826329Y726693D01*
X822794Y728158D01*
X819000Y728657D01*
D02*
G37*
G36*
X708532Y728532D02*
X679468D01*
Y699468D01*
X708532D01*
Y728532D01*
D02*
G37*
G36*
X298532D02*
X269468D01*
Y699468D01*
X298532D01*
Y728532D01*
D02*
G37*
G36*
X694000Y678657D02*
X690206Y678158D01*
X686671Y676693D01*
X683635Y674364D01*
X681306Y671329D01*
X679842Y667794D01*
X679342Y664000D01*
X679842Y660206D01*
X681306Y656671D01*
X683635Y653635D01*
X686671Y651306D01*
X690206Y649842D01*
X694000Y649342D01*
X697794Y649842D01*
X701329Y651306D01*
X704364Y653635D01*
X706694Y656671D01*
X708158Y660206D01*
X708657Y664000D01*
X708158Y667794D01*
X706694Y671329D01*
X704364Y674364D01*
X701329Y676693D01*
X697794Y678158D01*
X694000Y678657D01*
D02*
G37*
G36*
X409000D02*
X405206Y678158D01*
X401671Y676693D01*
X398635Y674364D01*
X396306Y671329D01*
X394842Y667794D01*
X394342Y664000D01*
X394842Y660206D01*
X396306Y656671D01*
X398635Y653635D01*
X401671Y651306D01*
X405206Y649842D01*
X409000Y649342D01*
X412794Y649842D01*
X416329Y651306D01*
X419364Y653635D01*
X421693Y656671D01*
X423158Y660206D01*
X423657Y664000D01*
X423158Y667794D01*
X421693Y671329D01*
X419364Y674364D01*
X416329Y676693D01*
X412794Y678158D01*
X409000Y678657D01*
D02*
G37*
G36*
X819000D02*
X815206Y678158D01*
X811671Y676693D01*
X808635Y674364D01*
X806306Y671329D01*
X804842Y667794D01*
X804342Y664000D01*
X804842Y660206D01*
X806306Y656671D01*
X808635Y653635D01*
X811671Y651306D01*
X815206Y649842D01*
X819000Y649342D01*
X822794Y649842D01*
X826329Y651306D01*
X829364Y653635D01*
X831694Y656671D01*
X833158Y660206D01*
X833657Y664000D01*
X833158Y667794D01*
X831694Y671329D01*
X829364Y674364D01*
X826329Y676693D01*
X822794Y678158D01*
X819000Y678657D01*
D02*
G37*
G36*
X471900Y682714D02*
X469412Y682386D01*
X467093Y681426D01*
X465102Y679898D01*
X463574Y677907D01*
X462613Y675588D01*
X462286Y673100D01*
X462613Y670611D01*
X463574Y668293D01*
X465102Y666302D01*
X467093Y664774D01*
X469412Y663813D01*
X471900Y663486D01*
X474388Y663813D01*
X476707Y664774D01*
X478698Y666302D01*
X480226Y668293D01*
X481186Y670611D01*
X481514Y673100D01*
X481186Y675588D01*
X480226Y677907D01*
X478698Y679898D01*
X476707Y681426D01*
X474388Y682386D01*
X471900Y682714D01*
D02*
G37*
G36*
X446500D02*
X444011Y682386D01*
X441693Y681426D01*
X439702Y679898D01*
X438174Y677907D01*
X437213Y675588D01*
X436886Y673100D01*
X437213Y670611D01*
X438174Y668293D01*
X439702Y666302D01*
X441693Y664774D01*
X444011Y663813D01*
X446500Y663486D01*
X448988Y663813D01*
X451307Y664774D01*
X453298Y666302D01*
X454826Y668293D01*
X455787Y670611D01*
X456114Y673100D01*
X455787Y675588D01*
X454826Y677907D01*
X453298Y679898D01*
X451307Y681426D01*
X448988Y682386D01*
X446500Y682714D01*
D02*
G37*
G36*
X559562Y973687D02*
X556379Y973268D01*
X553413Y972040D01*
X550866Y970085D01*
X548912Y967539D01*
X547684Y964573D01*
X547265Y961390D01*
X547684Y958207D01*
X548912Y955241D01*
X550866Y952694D01*
X553413Y950740D01*
X556379Y949512D01*
X559562Y949093D01*
X562745Y949512D01*
X565710Y950740D01*
X568257Y952694D01*
X570212Y955241D01*
X571440Y958207D01*
X571859Y961390D01*
X571440Y964573D01*
X570212Y967539D01*
X568257Y970085D01*
X565710Y972040D01*
X562745Y973268D01*
X559562Y973687D01*
D02*
G37*
G36*
X380962Y955680D02*
X379079Y955306D01*
X377482Y954239D01*
X376416Y952643D01*
X376041Y950760D01*
X376416Y948877D01*
X377482Y947281D01*
X379079Y946214D01*
X380962Y945839D01*
X382845Y946214D01*
X384441Y947281D01*
X385508Y948877D01*
X385882Y950760D01*
X385508Y952643D01*
X384441Y954239D01*
X382845Y955306D01*
X380962Y955680D01*
D02*
G37*
G36*
X484632Y972914D02*
X482749Y972540D01*
X481152Y971473D01*
X480086Y969877D01*
X479711Y967994D01*
X480086Y966111D01*
X481152Y964515D01*
X482749Y963448D01*
X484632Y963073D01*
X486515Y963448D01*
X488111Y964515D01*
X489178Y966111D01*
X489552Y967994D01*
X489178Y969877D01*
X488111Y971473D01*
X486515Y972540D01*
X484632Y972914D01*
D02*
G37*
G36*
X329184Y976376D02*
X325268D01*
X325429Y975565D01*
X326608Y973800D01*
X328373Y972621D01*
X329184Y972460D01*
Y976376D01*
D02*
G37*
G36*
X536194Y974946D02*
X534311Y974572D01*
X532715Y973505D01*
X531648Y971909D01*
X531273Y970026D01*
X531648Y968143D01*
X532715Y966546D01*
X534311Y965480D01*
X536194Y965105D01*
X538077Y965480D01*
X539673Y966546D01*
X540740Y968143D01*
X541114Y970026D01*
X540740Y971909D01*
X539673Y973505D01*
X538077Y974572D01*
X536194Y974946D01*
D02*
G37*
G36*
X369000Y931136D02*
X365859Y930722D01*
X362932Y929510D01*
X360419Y927581D01*
X358490Y925068D01*
X357277Y922141D01*
X357140Y921099D01*
X355859D01*
X355722Y922141D01*
X354510Y925068D01*
X352581Y927581D01*
X350068Y929510D01*
X347141Y930722D01*
X344000Y931136D01*
X340859Y930722D01*
X337932Y929510D01*
X335419Y927581D01*
X333490Y925068D01*
X332277Y922141D01*
X332140Y921099D01*
X330859D01*
X330722Y922141D01*
X329510Y925068D01*
X327581Y927581D01*
X325068Y929510D01*
X322141Y930722D01*
X319000Y931136D01*
X315859Y930722D01*
X312932Y929510D01*
X310418Y927581D01*
X308490Y925068D01*
X307278Y922141D01*
X306864Y919000D01*
X307278Y915859D01*
X308490Y912932D01*
X310418Y910418D01*
X312932Y908490D01*
X315859Y907278D01*
X319000Y906864D01*
X322141Y907278D01*
X325068Y908490D01*
X327581Y910418D01*
X329510Y912932D01*
X330722Y915859D01*
X330859Y916901D01*
X332140D01*
X332277Y915859D01*
X333490Y912932D01*
X335419Y910418D01*
X337932Y908490D01*
X340859Y907278D01*
X344000Y906864D01*
X347141Y907278D01*
X350068Y908490D01*
X352581Y910418D01*
X354510Y912932D01*
X355722Y915859D01*
X355859Y916901D01*
X357140D01*
X357277Y915859D01*
X358490Y912932D01*
X360419Y910418D01*
X362932Y908490D01*
X365859Y907278D01*
X369000Y906864D01*
X372141Y907278D01*
X375068Y908490D01*
X377581Y910418D01*
X379510Y912932D01*
X380722Y915859D01*
X381136Y919000D01*
X380722Y922141D01*
X379510Y925068D01*
X377581Y927581D01*
X375068Y929510D01*
X372141Y930722D01*
X369000Y931136D01*
D02*
G37*
G36*
X784000D02*
X780859Y930722D01*
X777932Y929510D01*
X775418Y927581D01*
X773490Y925068D01*
X772278Y922141D01*
X772140Y921099D01*
X770859D01*
X770722Y922141D01*
X769510Y925068D01*
X767581Y927581D01*
X765068Y929510D01*
X762141Y930722D01*
X759000Y931136D01*
X755859Y930722D01*
X752932Y929510D01*
X750418Y927581D01*
X748490Y925068D01*
X747278Y922141D01*
X747140Y921099D01*
X745859D01*
X745722Y922141D01*
X744510Y925068D01*
X742581Y927581D01*
X740068Y929510D01*
X737141Y930722D01*
X734000Y931136D01*
X730859Y930722D01*
X727932Y929510D01*
X725418Y927581D01*
X723490Y925068D01*
X722278Y922141D01*
X721864Y919000D01*
X722278Y915859D01*
X723490Y912932D01*
X725418Y910418D01*
X727932Y908490D01*
X730859Y907278D01*
X734000Y906864D01*
X737141Y907278D01*
X740068Y908490D01*
X742581Y910418D01*
X744510Y912932D01*
X745722Y915859D01*
X745859Y916901D01*
X747140D01*
X747278Y915859D01*
X748490Y912932D01*
X750418Y910418D01*
X752932Y908490D01*
X755859Y907278D01*
X759000Y906864D01*
X762141Y907278D01*
X765068Y908490D01*
X767581Y910418D01*
X769510Y912932D01*
X770722Y915859D01*
X770859Y916901D01*
X772140D01*
X772278Y915859D01*
X773490Y912932D01*
X775418Y910418D01*
X777932Y908490D01*
X780859Y907278D01*
X784000Y906864D01*
X787141Y907278D01*
X790068Y908490D01*
X792581Y910418D01*
X794510Y912932D01*
X795722Y915859D01*
X796136Y919000D01*
X795722Y922141D01*
X794510Y925068D01*
X792581Y927581D01*
X790068Y929510D01*
X787141Y930722D01*
X784000Y931136D01*
D02*
G37*
G36*
X681592Y936482D02*
X679709Y936108D01*
X678112Y935041D01*
X677046Y933445D01*
X676671Y931562D01*
X677046Y929679D01*
X678112Y928083D01*
X679709Y927016D01*
X681592Y926641D01*
X683475Y927016D01*
X685071Y928083D01*
X686138Y929679D01*
X686512Y931562D01*
X686138Y933445D01*
X685071Y935041D01*
X683475Y936108D01*
X681592Y936482D01*
D02*
G37*
G36*
X484632Y949038D02*
X482749Y948664D01*
X481152Y947597D01*
X480086Y946001D01*
X479711Y944118D01*
X480086Y942235D01*
X481152Y940639D01*
X482749Y939572D01*
X484632Y939197D01*
X486515Y939572D01*
X488111Y940639D01*
X489178Y942235D01*
X489552Y944118D01*
X489178Y946001D01*
X488111Y947597D01*
X486515Y948664D01*
X484632Y949038D01*
D02*
G37*
G36*
X468376Y948530D02*
X466493Y948156D01*
X464897Y947089D01*
X463830Y945493D01*
X463455Y943610D01*
X463830Y941727D01*
X464897Y940130D01*
X466493Y939064D01*
X468376Y938689D01*
X470259Y939064D01*
X471855Y940130D01*
X472922Y941727D01*
X473296Y943610D01*
X472922Y945493D01*
X471855Y947089D01*
X470259Y948156D01*
X468376Y948530D01*
D02*
G37*
G36*
X335640Y976376D02*
X331724D01*
Y972460D01*
X332535Y972621D01*
X334300Y973800D01*
X335478Y975565D01*
X335640Y976376D01*
D02*
G37*
G36*
X329184Y982832D02*
X328373Y982670D01*
X326608Y981491D01*
X325429Y979727D01*
X325268Y978916D01*
X329184D01*
Y982832D01*
D02*
G37*
G36*
X739940Y987100D02*
X738057Y986726D01*
X736460Y985659D01*
X735394Y984063D01*
X735019Y982180D01*
X735394Y980297D01*
X736460Y978700D01*
X738057Y977634D01*
X739940Y977259D01*
X741823Y977634D01*
X743419Y978700D01*
X744486Y980297D01*
X744860Y982180D01*
X744486Y984063D01*
X743419Y985659D01*
X741823Y986726D01*
X739940Y987100D01*
D02*
G37*
G36*
X331724Y982832D02*
Y978916D01*
X335640D01*
X335478Y979727D01*
X334300Y981491D01*
X332535Y982670D01*
X331724Y982832D01*
D02*
G37*
G36*
X344170Y982832D02*
Y978916D01*
X348086D01*
X347924Y979727D01*
X346745Y981491D01*
X344981Y982670D01*
X344170Y982832D01*
D02*
G37*
G36*
X341630D02*
X340819Y982670D01*
X339054Y981491D01*
X337875Y979727D01*
X337714Y978916D01*
X341630D01*
Y982832D01*
D02*
G37*
G36*
X348086Y976376D02*
X344170D01*
Y972460D01*
X344981Y972621D01*
X346745Y973800D01*
X347924Y975565D01*
X348086Y976376D01*
D02*
G37*
G36*
X341630D02*
X337714D01*
X337875Y975565D01*
X339054Y973800D01*
X340819Y972621D01*
X341630Y972460D01*
Y976376D01*
D02*
G37*
G36*
X782730Y980342D02*
X778814D01*
X778975Y979531D01*
X780154Y977766D01*
X781919Y976587D01*
X782730Y976426D01*
Y980342D01*
D02*
G37*
G36*
X631190Y987100D02*
X629307Y986726D01*
X627710Y985659D01*
X626644Y984063D01*
X626269Y982180D01*
X626644Y980297D01*
X627710Y978700D01*
X629307Y977634D01*
X631190Y977259D01*
X633073Y977634D01*
X634669Y978700D01*
X635736Y980297D01*
X636110Y982180D01*
X635736Y984063D01*
X634669Y985659D01*
X633073Y986726D01*
X631190Y987100D01*
D02*
G37*
G36*
X789186Y980342D02*
X785270D01*
Y976426D01*
X786081Y976587D01*
X787846Y977766D01*
X789024Y979531D01*
X789186Y980342D01*
D02*
G37*
G36*
X438912Y942953D02*
X435729Y942534D01*
X432763Y941306D01*
X430216Y939351D01*
X428262Y936805D01*
X427034Y933839D01*
X426615Y930656D01*
X427034Y927473D01*
X428262Y924507D01*
X430216Y921960D01*
X432763Y920006D01*
X435729Y918778D01*
X438912Y918359D01*
X442095Y918778D01*
X445061Y920006D01*
X447607Y921960D01*
X449562Y924507D01*
X450790Y927473D01*
X451209Y930656D01*
X450790Y933839D01*
X449562Y936805D01*
X447607Y939351D01*
X445061Y941306D01*
X442095Y942534D01*
X438912Y942953D01*
D02*
G37*
G36*
X617220Y864976D02*
X616409Y864814D01*
X614644Y863635D01*
X613465Y861871D01*
X613304Y861060D01*
X617220D01*
Y864976D01*
D02*
G37*
G36*
X658114Y864710D02*
X656231Y864336D01*
X654634Y863269D01*
X653568Y861673D01*
X653193Y859790D01*
X653568Y857907D01*
X654634Y856311D01*
X656231Y855244D01*
X658114Y854869D01*
X659997Y855244D01*
X661593Y856311D01*
X662660Y857907D01*
X663034Y859790D01*
X662660Y861673D01*
X661593Y863269D01*
X659997Y864336D01*
X658114Y864710D01*
D02*
G37*
G36*
X619760Y864976D02*
Y861060D01*
X623676D01*
X623514Y861871D01*
X622335Y863635D01*
X620571Y864814D01*
X619760Y864976D01*
D02*
G37*
G36*
X551500Y882101D02*
X549403Y881825D01*
X547449Y881016D01*
X545771Y879728D01*
X544484Y878051D01*
X543675Y876097D01*
X543399Y874000D01*
X543675Y871903D01*
X544484Y869949D01*
X545771Y868271D01*
X547449Y866984D01*
X549403Y866175D01*
X551500Y865899D01*
X553597Y866175D01*
X555550Y866984D01*
X557228Y868271D01*
X558516Y869949D01*
X559325Y871903D01*
X559601Y874000D01*
X559325Y876097D01*
X558516Y878051D01*
X557228Y879728D01*
X555550Y881016D01*
X553597Y881825D01*
X551500Y882101D01*
D02*
G37*
G36*
X444500Y874870D02*
X442617Y874496D01*
X441021Y873429D01*
X439954Y871833D01*
X439579Y869950D01*
X439954Y868067D01*
X441021Y866470D01*
X442617Y865404D01*
X444500Y865029D01*
X446383Y865404D01*
X447979Y866470D01*
X449046Y868067D01*
X449420Y869950D01*
X449046Y871833D01*
X447979Y873429D01*
X446383Y874496D01*
X444500Y874870D01*
D02*
G37*
G36*
X827032Y859032D02*
X804968D01*
Y828968D01*
X827032D01*
Y859032D01*
D02*
G37*
G36*
X713032D02*
X690968D01*
Y828968D01*
X713032D01*
Y859032D01*
D02*
G37*
G36*
X444500Y855577D02*
X441317Y855158D01*
X438351Y853930D01*
X435804Y851975D01*
X433850Y849428D01*
X432622Y846463D01*
X432203Y843280D01*
X432622Y840097D01*
X433850Y837131D01*
X435804Y834584D01*
X438351Y832630D01*
X441317Y831402D01*
X444500Y830983D01*
X447683Y831402D01*
X450648Y832630D01*
X453195Y834584D01*
X455150Y837131D01*
X456378Y840097D01*
X456797Y843280D01*
X456378Y846463D01*
X455150Y849428D01*
X453195Y851975D01*
X450648Y853930D01*
X447683Y855158D01*
X444500Y855577D01*
D02*
G37*
G36*
X623676Y858520D02*
X619760D01*
Y854604D01*
X620571Y854765D01*
X622335Y855944D01*
X623514Y857709D01*
X623676Y858520D01*
D02*
G37*
G36*
X617220D02*
X613304D01*
X613465Y857709D01*
X614644Y855944D01*
X616409Y854765D01*
X617220Y854604D01*
Y858520D01*
D02*
G37*
G36*
X319000Y884776D02*
X317117Y884402D01*
X315520Y883335D01*
X314454Y881739D01*
X314079Y879856D01*
X314454Y877973D01*
X315520Y876376D01*
X317117Y875310D01*
X319000Y874935D01*
X320883Y875310D01*
X322479Y876376D01*
X323546Y877973D01*
X323920Y879856D01*
X323546Y881739D01*
X322479Y883335D01*
X320883Y884402D01*
X319000Y884776D01*
D02*
G37*
G36*
X646176Y898250D02*
Y894334D01*
X650092D01*
X649930Y895145D01*
X648751Y896909D01*
X646987Y898088D01*
X646176Y898250D01*
D02*
G37*
G36*
X643636D02*
X642825Y898088D01*
X641060Y896909D01*
X639881Y895145D01*
X639720Y894334D01*
X643636D01*
Y898250D01*
D02*
G37*
G36*
X527050Y912970D02*
X525167Y912596D01*
X523571Y911529D01*
X522504Y909933D01*
X522129Y908050D01*
X522504Y906167D01*
X523571Y904570D01*
X525167Y903504D01*
X527050Y903129D01*
X528933Y903504D01*
X530529Y904570D01*
X531596Y906167D01*
X531970Y908050D01*
X531596Y909933D01*
X530529Y911529D01*
X528933Y912596D01*
X527050Y912970D01*
D02*
G37*
G36*
X551500Y932901D02*
X549403Y932625D01*
X547449Y931816D01*
X545771Y930528D01*
X544484Y928850D01*
X543675Y926897D01*
X543399Y924800D01*
X543675Y922703D01*
X544484Y920749D01*
X545771Y919071D01*
X547449Y917784D01*
X549403Y916975D01*
X551500Y916699D01*
X553597Y916975D01*
X555550Y917784D01*
X557228Y919071D01*
X558516Y920749D01*
X559325Y922703D01*
X559601Y924800D01*
X559325Y926897D01*
X558516Y928850D01*
X557228Y930528D01*
X555550Y931816D01*
X553597Y932625D01*
X551500Y932901D01*
D02*
G37*
G36*
X604266Y919320D02*
X602383Y918946D01*
X600787Y917879D01*
X599720Y916283D01*
X599345Y914400D01*
X599720Y912517D01*
X600787Y910920D01*
X602383Y909854D01*
X604266Y909479D01*
X606149Y909854D01*
X607745Y910920D01*
X608812Y912517D01*
X609186Y914400D01*
X608812Y916283D01*
X607745Y917879D01*
X606149Y918946D01*
X604266Y919320D01*
D02*
G37*
G36*
X392572Y892284D02*
X390689Y891910D01*
X389092Y890843D01*
X388026Y889247D01*
X387651Y887364D01*
X388026Y885481D01*
X389092Y883885D01*
X390689Y882818D01*
X392572Y882443D01*
X394455Y882818D01*
X396051Y883885D01*
X397118Y885481D01*
X397492Y887364D01*
X397118Y889247D01*
X396051Y890843D01*
X394455Y891910D01*
X392572Y892284D01*
D02*
G37*
G36*
X502666Y884776D02*
X500783Y884402D01*
X499187Y883335D01*
X498120Y881739D01*
X497745Y879856D01*
X498120Y877973D01*
X499187Y876376D01*
X500783Y875310D01*
X502666Y874935D01*
X504549Y875310D01*
X506145Y876376D01*
X507212Y877973D01*
X507586Y879856D01*
X507212Y881739D01*
X506145Y883335D01*
X504549Y884402D01*
X502666Y884776D01*
D02*
G37*
G36*
X643636Y891794D02*
X639720D01*
X639881Y890983D01*
X641060Y889218D01*
X642825Y888039D01*
X643636Y887878D01*
Y891794D01*
D02*
G37*
G36*
X551500Y907501D02*
X549403Y907225D01*
X547449Y906416D01*
X545771Y905128D01*
X544484Y903450D01*
X543675Y901497D01*
X543399Y899400D01*
X543675Y897303D01*
X544484Y895349D01*
X545771Y893671D01*
X547449Y892384D01*
X549403Y891575D01*
X551500Y891299D01*
X553597Y891575D01*
X555550Y892384D01*
X557228Y893671D01*
X558516Y895349D01*
X559325Y897303D01*
X559601Y899400D01*
X559325Y901497D01*
X558516Y903450D01*
X557228Y905128D01*
X555550Y906416D01*
X553597Y907225D01*
X551500Y907501D01*
D02*
G37*
G36*
X650092Y891794D02*
X646176D01*
Y887878D01*
X646987Y888039D01*
X648751Y889218D01*
X649930Y890983D01*
X650092Y891794D01*
D02*
G37*
G36*
X828050Y399880D02*
X826167Y399506D01*
X824570Y398439D01*
X823504Y396843D01*
X823129Y394960D01*
X823504Y393077D01*
X824570Y391480D01*
X826167Y390414D01*
X828050Y390039D01*
X829933Y390414D01*
X831529Y391480D01*
X832596Y393077D01*
X832970Y394960D01*
X832596Y396843D01*
X831529Y398439D01*
X829933Y399506D01*
X828050Y399880D01*
D02*
G37*
G36*
X519938Y385989D02*
Y378460D01*
X527467D01*
X527329Y379511D01*
X526433Y381673D01*
X525008Y383530D01*
X523151Y384955D01*
X520989Y385851D01*
X519938Y385989D01*
D02*
G37*
G36*
X537210Y406240D02*
X535327Y405866D01*
X533731Y404799D01*
X532664Y403203D01*
X532289Y401320D01*
X532664Y399437D01*
X533731Y397840D01*
X535327Y396774D01*
X537210Y396399D01*
X539093Y396774D01*
X540689Y397840D01*
X541756Y399437D01*
X542130Y401320D01*
X541756Y403203D01*
X540689Y404799D01*
X539093Y405866D01*
X537210Y406240D01*
D02*
G37*
G36*
X558292Y413098D02*
X556409Y412724D01*
X554813Y411657D01*
X553746Y410061D01*
X553371Y408178D01*
X553746Y406295D01*
X554813Y404698D01*
X556409Y403632D01*
X558292Y403257D01*
X560175Y403632D01*
X561771Y404698D01*
X562838Y406295D01*
X563212Y408178D01*
X562838Y410061D01*
X561771Y411657D01*
X560175Y412724D01*
X558292Y413098D01*
D02*
G37*
G36*
X351282Y426063D02*
X348099Y425644D01*
X345133Y424416D01*
X342586Y422461D01*
X340632Y419915D01*
X339404Y416949D01*
X338985Y413766D01*
X339404Y410583D01*
X340632Y407617D01*
X342586Y405070D01*
X345133Y403116D01*
X348099Y401888D01*
X351282Y401469D01*
X354465Y401888D01*
X357430Y403116D01*
X359977Y405070D01*
X361932Y407617D01*
X363160Y410583D01*
X363579Y413766D01*
X363160Y416949D01*
X361932Y419915D01*
X359977Y422461D01*
X357430Y424416D01*
X354465Y425644D01*
X351282Y426063D01*
D02*
G37*
G36*
X724000Y393736D02*
X721480Y393405D01*
X719132Y392432D01*
X717116Y390885D01*
X715569Y388869D01*
X714596Y386521D01*
X714265Y384001D01*
X714596Y381481D01*
X715569Y379133D01*
X717116Y377117D01*
X719132Y375570D01*
X721480Y374598D01*
X724000Y374266D01*
X726520Y374598D01*
X728867Y375570D01*
X730884Y377117D01*
X732431Y379133D01*
X733403Y381481D01*
X733735Y384001D01*
X733403Y386521D01*
X732431Y388869D01*
X730884Y390885D01*
X728867Y392432D01*
X726520Y393405D01*
X724000Y393736D01*
D02*
G37*
G36*
X629158D02*
X626638Y393405D01*
X624290Y392432D01*
X622274Y390885D01*
X620727Y388869D01*
X619754Y386521D01*
X619423Y384001D01*
X619754Y381481D01*
X620727Y379133D01*
X622274Y377117D01*
X624290Y375570D01*
X626638Y374598D01*
X629158Y374266D01*
X631678Y374598D01*
X634025Y375570D01*
X636042Y377117D01*
X637589Y379133D01*
X638561Y381481D01*
X638893Y384001D01*
X638561Y386521D01*
X637589Y388869D01*
X636042Y390885D01*
X634025Y392432D01*
X631678Y393405D01*
X629158Y393736D01*
D02*
G37*
G36*
X592455Y409796D02*
X590572Y409422D01*
X588975Y408355D01*
X587909Y406759D01*
X587534Y404876D01*
X587909Y402993D01*
X588590Y401973D01*
X588028Y400619D01*
X587113Y400498D01*
X584147Y399270D01*
X581600Y397315D01*
X579646Y394768D01*
X578418Y391803D01*
X577999Y388620D01*
X578418Y385437D01*
X579646Y382471D01*
X581600Y379924D01*
X584147Y377970D01*
X587113Y376742D01*
X590296Y376323D01*
X593479Y376742D01*
X596445Y377970D01*
X598991Y379924D01*
X600946Y382471D01*
X602174Y385437D01*
X602593Y388620D01*
X602174Y391803D01*
X600946Y394768D01*
X598991Y397315D01*
X596445Y399270D01*
X595576Y399630D01*
X595434Y401063D01*
X595934Y401396D01*
X597001Y402993D01*
X597375Y404876D01*
X597001Y406759D01*
X595934Y408355D01*
X594338Y409422D01*
X592455Y409796D01*
D02*
G37*
G36*
X517398Y385989D02*
X516347Y385851D01*
X514184Y384955D01*
X512327Y383530D01*
X510902Y381673D01*
X510007Y379511D01*
X509868Y378460D01*
X517398D01*
Y385989D01*
D02*
G37*
G36*
X503174Y387444D02*
X501291Y387070D01*
X499695Y386003D01*
X498628Y384407D01*
X498253Y382524D01*
X498628Y380641D01*
X499695Y379044D01*
X501291Y377978D01*
X503174Y377603D01*
X505057Y377978D01*
X506653Y379044D01*
X507720Y380641D01*
X508094Y382524D01*
X507720Y384407D01*
X506653Y386003D01*
X505057Y387070D01*
X503174Y387444D01*
D02*
G37*
G36*
X379000Y423736D02*
X376480Y423405D01*
X374132Y422432D01*
X372116Y420885D01*
X370569Y418869D01*
X369596Y416521D01*
X369265Y414001D01*
X369596Y411481D01*
X370569Y409133D01*
X372116Y407117D01*
X374132Y405570D01*
X376480Y404597D01*
X379000Y404266D01*
X381520Y404597D01*
X383867Y405570D01*
X385884Y407117D01*
X387431Y409133D01*
X388403Y411481D01*
X388735Y414001D01*
X388403Y416521D01*
X387431Y418869D01*
X385884Y420885D01*
X383867Y422432D01*
X381520Y423405D01*
X379000Y423736D01*
D02*
G37*
G36*
X575818Y419194D02*
X573935Y418820D01*
X572338Y417753D01*
X571272Y416157D01*
X570897Y414274D01*
X571272Y412391D01*
X572338Y410795D01*
X573935Y409728D01*
X575818Y409353D01*
X577701Y409728D01*
X579297Y410795D01*
X580364Y412391D01*
X580738Y414274D01*
X580364Y416157D01*
X579297Y417753D01*
X577701Y418820D01*
X575818Y419194D01*
D02*
G37*
G36*
X532638D02*
X530755Y418820D01*
X529159Y417753D01*
X528092Y416157D01*
X527717Y414274D01*
X528092Y412391D01*
X529159Y410795D01*
X530755Y409728D01*
X532638Y409353D01*
X534521Y409728D01*
X536117Y410795D01*
X537184Y412391D01*
X537558Y414274D01*
X537184Y416157D01*
X536117Y417753D01*
X534521Y418820D01*
X532638Y419194D01*
D02*
G37*
G36*
X296672Y420878D02*
X285299D01*
X285569Y418833D01*
X286848Y415743D01*
X288884Y413090D01*
X291537Y411054D01*
X294627Y409775D01*
X296672Y409506D01*
Y420878D01*
D02*
G37*
G36*
Y434790D02*
X294627Y434521D01*
X291537Y433241D01*
X288884Y431206D01*
X286848Y428553D01*
X285569Y425463D01*
X285299Y423418D01*
X296672D01*
Y434790D01*
D02*
G37*
G36*
X310584Y420878D02*
X299212D01*
Y409506D01*
X301257Y409775D01*
X304347Y411054D01*
X307000Y413090D01*
X309035Y415743D01*
X310315Y418833D01*
X310584Y420878D01*
D02*
G37*
G36*
X629158Y423736D02*
X626638Y423405D01*
X624290Y422432D01*
X622274Y420885D01*
X620727Y418869D01*
X619754Y416521D01*
X619423Y414001D01*
X619754Y411481D01*
X620727Y409133D01*
X622274Y407117D01*
X624290Y405570D01*
X626638Y404597D01*
X629158Y404266D01*
X631678Y404597D01*
X634025Y405570D01*
X636042Y407117D01*
X637589Y409133D01*
X638561Y411481D01*
X638893Y414001D01*
X638561Y416521D01*
X637589Y418869D01*
X636042Y420885D01*
X634025Y422432D01*
X631678Y423405D01*
X629158Y423736D01*
D02*
G37*
G36*
X474000D02*
X471480Y423405D01*
X469132Y422432D01*
X467116Y420885D01*
X465569Y418869D01*
X464596Y416521D01*
X464265Y414001D01*
X464596Y411481D01*
X465569Y409133D01*
X467116Y407117D01*
X469132Y405570D01*
X471480Y404597D01*
X474000Y404266D01*
X476520Y404597D01*
X478867Y405570D01*
X480884Y407117D01*
X482431Y409133D01*
X483403Y411481D01*
X483735Y414001D01*
X483403Y416521D01*
X482431Y418869D01*
X480884Y420885D01*
X478867Y422432D01*
X476520Y423405D01*
X474000Y423736D01*
D02*
G37*
G36*
X724000D02*
X721480Y423405D01*
X719132Y422432D01*
X717116Y420885D01*
X715569Y418869D01*
X714596Y416521D01*
X714265Y414001D01*
X714596Y411481D01*
X715569Y409133D01*
X717116Y407117D01*
X719132Y405570D01*
X721480Y404597D01*
X724000Y404266D01*
X726520Y404597D01*
X728867Y405570D01*
X730884Y407117D01*
X732431Y409133D01*
X733403Y411481D01*
X733735Y414001D01*
X733403Y416521D01*
X732431Y418869D01*
X730884Y420885D01*
X728867Y422432D01*
X726520Y423405D01*
X724000Y423736D01*
D02*
G37*
G36*
X433070Y418940D02*
X431187Y418566D01*
X429590Y417499D01*
X428524Y415903D01*
X428149Y414020D01*
X428524Y412137D01*
X429590Y410541D01*
X431187Y409474D01*
X433070Y409099D01*
X434953Y409474D01*
X436549Y410541D01*
X437616Y412137D01*
X437990Y414020D01*
X437616Y415903D01*
X436549Y417499D01*
X434953Y418566D01*
X433070Y418940D01*
D02*
G37*
G36*
X701059Y418922D02*
X699176Y418547D01*
X697579Y417480D01*
X696513Y415884D01*
X696138Y414001D01*
X696513Y412118D01*
X697579Y410522D01*
X699176Y409455D01*
X701059Y409081D01*
X702942Y409455D01*
X704538Y410522D01*
X705605Y412118D01*
X705979Y414001D01*
X705605Y415884D01*
X704538Y417480D01*
X702942Y418547D01*
X701059Y418922D01*
D02*
G37*
G36*
X474000Y393736D02*
X471480Y393405D01*
X469132Y392432D01*
X467116Y390885D01*
X465569Y388869D01*
X464596Y386521D01*
X464265Y384001D01*
X464596Y381481D01*
X465569Y379133D01*
X467116Y377117D01*
X469132Y375570D01*
X471480Y374598D01*
X474000Y374266D01*
X476520Y374598D01*
X478867Y375570D01*
X480884Y377117D01*
X482431Y379133D01*
X483403Y381481D01*
X483735Y384001D01*
X483403Y386521D01*
X482431Y388869D01*
X480884Y390885D01*
X478867Y392432D01*
X476520Y393405D01*
X474000Y393736D01*
D02*
G37*
G36*
X724000Y308735D02*
X721480Y308403D01*
X719132Y307431D01*
X717116Y305884D01*
X715569Y303868D01*
X714596Y301520D01*
X714265Y299000D01*
X714596Y296480D01*
X715569Y294132D01*
X717116Y292116D01*
X719132Y290569D01*
X721480Y289596D01*
X724000Y289265D01*
X726520Y289596D01*
X728867Y290569D01*
X730884Y292116D01*
X732431Y294132D01*
X733403Y296480D01*
X733735Y299000D01*
X733403Y301520D01*
X732431Y303868D01*
X730884Y305884D01*
X728867Y307431D01*
X726520Y308403D01*
X724000Y308735D01*
D02*
G37*
G36*
X629158D02*
X626638Y308403D01*
X624290Y307431D01*
X622274Y305884D01*
X620727Y303868D01*
X619754Y301520D01*
X619423Y299000D01*
X619754Y296480D01*
X620727Y294132D01*
X622274Y292116D01*
X624290Y290569D01*
X626638Y289596D01*
X629158Y289265D01*
X631678Y289596D01*
X634025Y290569D01*
X636042Y292116D01*
X637589Y294132D01*
X638561Y296480D01*
X638893Y299000D01*
X638561Y301520D01*
X637589Y303868D01*
X636042Y305884D01*
X634025Y307431D01*
X631678Y308403D01*
X629158Y308735D01*
D02*
G37*
G36*
X543194Y299194D02*
X541311Y298820D01*
X539715Y297753D01*
X538648Y296157D01*
X538273Y294274D01*
X538648Y292391D01*
X539715Y290795D01*
X541311Y289728D01*
X543194Y289353D01*
X545077Y289728D01*
X546673Y290795D01*
X547740Y292391D01*
X548114Y294274D01*
X547740Y296157D01*
X546673Y297753D01*
X545077Y298820D01*
X543194Y299194D01*
D02*
G37*
G36*
X425704Y322674D02*
X423821Y322300D01*
X422225Y321233D01*
X421158Y319637D01*
X420783Y317754D01*
X421158Y315871D01*
X422225Y314275D01*
X423821Y313208D01*
X425704Y312833D01*
X427587Y313208D01*
X429183Y314275D01*
X430250Y315871D01*
X430624Y317754D01*
X430250Y319637D01*
X429183Y321233D01*
X427587Y322300D01*
X425704Y322674D01*
D02*
G37*
G36*
X737616Y320642D02*
X735733Y320268D01*
X734137Y319201D01*
X733070Y317605D01*
X732695Y315722D01*
X733070Y313839D01*
X734137Y312243D01*
X735733Y311176D01*
X737616Y310801D01*
X739499Y311176D01*
X741095Y312243D01*
X742162Y313839D01*
X742536Y315722D01*
X742162Y317605D01*
X741095Y319201D01*
X739499Y320268D01*
X737616Y320642D01*
D02*
G37*
G36*
X824230Y285590D02*
X822347Y285216D01*
X820751Y284149D01*
X819684Y282553D01*
X819309Y280670D01*
X819684Y278787D01*
X820751Y277190D01*
X822347Y276124D01*
X824230Y275749D01*
X826113Y276124D01*
X827709Y277190D01*
X828776Y278787D01*
X829150Y280670D01*
X828776Y282553D01*
X827709Y284149D01*
X826113Y285216D01*
X824230Y285590D01*
D02*
G37*
G36*
X505714Y291951D02*
X502531Y291532D01*
X499565Y290304D01*
X497018Y288349D01*
X495064Y285802D01*
X493836Y282837D01*
X493417Y279654D01*
X493836Y276471D01*
X495064Y273505D01*
X497018Y270958D01*
X499565Y269004D01*
X502531Y267776D01*
X505714Y267357D01*
X508897Y267776D01*
X511862Y269004D01*
X514409Y270958D01*
X516364Y273505D01*
X517592Y276471D01*
X518011Y279654D01*
X517592Y282837D01*
X516364Y285802D01*
X514409Y288349D01*
X511862Y290304D01*
X508897Y291532D01*
X505714Y291951D01*
D02*
G37*
G36*
X336042Y311255D02*
X332859Y310836D01*
X329893Y309608D01*
X327346Y307653D01*
X325392Y305107D01*
X324164Y302141D01*
X323745Y298958D01*
X324164Y295775D01*
X325392Y292809D01*
X327346Y290262D01*
X329893Y288308D01*
X332859Y287080D01*
X336042Y286661D01*
X339225Y287080D01*
X342191Y288308D01*
X344737Y290262D01*
X346692Y292809D01*
X347920Y295775D01*
X348339Y298958D01*
X347920Y302141D01*
X346692Y305107D01*
X344737Y307653D01*
X342191Y309608D01*
X339225Y310836D01*
X336042Y311255D01*
D02*
G37*
G36*
X474000Y308735D02*
X471480Y308403D01*
X469132Y307431D01*
X467116Y305884D01*
X465569Y303868D01*
X464596Y301520D01*
X464265Y299000D01*
X464596Y296480D01*
X465569Y294132D01*
X467116Y292116D01*
X469132Y290569D01*
X471480Y289596D01*
X474000Y289265D01*
X476520Y289596D01*
X478867Y290569D01*
X480884Y292116D01*
X482431Y294132D01*
X483403Y296480D01*
X483735Y299000D01*
X483403Y301520D01*
X482431Y303868D01*
X480884Y305884D01*
X478867Y307431D01*
X476520Y308403D01*
X474000Y308735D01*
D02*
G37*
G36*
X379000D02*
X376480Y308403D01*
X374132Y307431D01*
X372116Y305884D01*
X370569Y303868D01*
X369596Y301520D01*
X369265Y299000D01*
X369596Y296480D01*
X370569Y294132D01*
X372116Y292116D01*
X374132Y290569D01*
X376480Y289596D01*
X379000Y289265D01*
X381520Y289596D01*
X383867Y290569D01*
X385884Y292116D01*
X387431Y294132D01*
X388403Y296480D01*
X388735Y299000D01*
X388403Y301520D01*
X387431Y303868D01*
X385884Y305884D01*
X383867Y307431D01*
X381520Y308403D01*
X379000Y308735D01*
D02*
G37*
G36*
X673100Y338941D02*
X669917Y338522D01*
X666951Y337294D01*
X664404Y335339D01*
X662450Y332793D01*
X661222Y329827D01*
X660803Y326644D01*
X661222Y323461D01*
X662450Y320495D01*
X664404Y317948D01*
X666951Y315994D01*
X669917Y314766D01*
X673100Y314347D01*
X676283Y314766D01*
X679249Y315994D01*
X681795Y317948D01*
X683750Y320495D01*
X684978Y323461D01*
X685397Y326644D01*
X684978Y329827D01*
X683750Y332793D01*
X681795Y335339D01*
X679249Y337294D01*
X676283Y338522D01*
X673100Y338941D01*
D02*
G37*
G36*
X425704Y387201D02*
X422521Y386782D01*
X419555Y385554D01*
X417008Y383599D01*
X415054Y381053D01*
X413826Y378087D01*
X413407Y374904D01*
X413826Y371721D01*
X415054Y368755D01*
X417008Y366208D01*
X419555Y364254D01*
X422521Y363026D01*
X425704Y362607D01*
X428887Y363026D01*
X431852Y364254D01*
X434399Y366208D01*
X436354Y368755D01*
X437582Y371721D01*
X438001Y374904D01*
X437582Y378087D01*
X436354Y381053D01*
X434399Y383599D01*
X431852Y385554D01*
X428887Y386782D01*
X425704Y387201D01*
D02*
G37*
G36*
X266954Y369918D02*
X265071Y369544D01*
X263475Y368477D01*
X262408Y366881D01*
X262033Y364998D01*
X262408Y363115D01*
X263475Y361519D01*
X265071Y360452D01*
X266954Y360077D01*
X268837Y360452D01*
X270433Y361519D01*
X271500Y363115D01*
X271874Y364998D01*
X271500Y366881D01*
X270433Y368477D01*
X268837Y369544D01*
X266954Y369918D01*
D02*
G37*
G36*
X517398Y375920D02*
X509868D01*
X510007Y374869D01*
X510902Y372706D01*
X512327Y370849D01*
X514184Y369425D01*
X516347Y368529D01*
X517398Y368390D01*
Y375920D01*
D02*
G37*
G36*
X379000Y393736D02*
X376480Y393405D01*
X374132Y392432D01*
X372116Y390885D01*
X370569Y388869D01*
X369596Y386521D01*
X369265Y384001D01*
X369596Y381481D01*
X370569Y379133D01*
X372116Y377117D01*
X374132Y375570D01*
X376480Y374598D01*
X379000Y374266D01*
X381520Y374598D01*
X383867Y375570D01*
X385884Y377117D01*
X387431Y379133D01*
X388403Y381481D01*
X388735Y384001D01*
X388403Y386521D01*
X387431Y388869D01*
X385884Y390885D01*
X383867Y392432D01*
X381520Y393405D01*
X379000Y393736D01*
D02*
G37*
G36*
X527467Y375920D02*
X519938D01*
Y368390D01*
X520989Y368529D01*
X523151Y369425D01*
X525008Y370849D01*
X526433Y372706D01*
X527329Y374869D01*
X527467Y375920D01*
D02*
G37*
G36*
X425704Y348847D02*
X422521Y348428D01*
X419555Y347200D01*
X417008Y345245D01*
X415054Y342699D01*
X413826Y339733D01*
X413407Y336550D01*
X413826Y333367D01*
X415054Y330401D01*
X417008Y327854D01*
X419555Y325900D01*
X422521Y324672D01*
X425704Y324253D01*
X428887Y324672D01*
X431852Y325900D01*
X434399Y327854D01*
X436354Y330401D01*
X437582Y333367D01*
X438001Y336550D01*
X437582Y339733D01*
X436354Y342699D01*
X434399Y345245D01*
X431852Y347200D01*
X428887Y348428D01*
X425704Y348847D01*
D02*
G37*
G36*
X768604Y332326D02*
X766721Y331952D01*
X765125Y330885D01*
X764058Y329289D01*
X763683Y327406D01*
X764058Y325523D01*
X765125Y323927D01*
X766721Y322860D01*
X768604Y322485D01*
X770487Y322860D01*
X772083Y323927D01*
X773150Y325523D01*
X773524Y327406D01*
X773150Y329289D01*
X772083Y330885D01*
X770487Y331952D01*
X768604Y332326D01*
D02*
G37*
G36*
X567690Y340962D02*
X565807Y340588D01*
X564211Y339521D01*
X563144Y337925D01*
X562769Y336042D01*
X563144Y334159D01*
X564211Y332562D01*
X565807Y331496D01*
X567690Y331121D01*
X569573Y331496D01*
X571169Y332562D01*
X572236Y334159D01*
X572610Y336042D01*
X572236Y337925D01*
X571169Y339521D01*
X569573Y340588D01*
X567690Y340962D01*
D02*
G37*
G36*
X569722Y366108D02*
X567839Y365734D01*
X566242Y364667D01*
X565176Y363071D01*
X564801Y361188D01*
X565176Y359305D01*
X566242Y357709D01*
X567839Y356642D01*
X569722Y356267D01*
X571605Y356642D01*
X573201Y357709D01*
X574268Y359305D01*
X574642Y361188D01*
X574268Y363071D01*
X573201Y364667D01*
X571605Y365734D01*
X569722Y366108D01*
D02*
G37*
G36*
X673100Y374755D02*
X669917Y374336D01*
X666951Y373108D01*
X664404Y371153D01*
X662450Y368606D01*
X661222Y365641D01*
X660803Y362458D01*
X661222Y359275D01*
X662450Y356309D01*
X664404Y353762D01*
X666951Y351808D01*
X669917Y350580D01*
X673100Y350161D01*
X676283Y350580D01*
X679249Y351808D01*
X681795Y353762D01*
X683750Y356309D01*
X684978Y359275D01*
X685397Y362458D01*
X684978Y365641D01*
X683750Y368606D01*
X681795Y371153D01*
X679249Y373108D01*
X676283Y374336D01*
X673100Y374755D01*
D02*
G37*
G36*
X603758Y566746D02*
X601570Y566458D01*
X599531Y565614D01*
X597780Y564270D01*
X596436Y562519D01*
X595592Y560480D01*
X595303Y558292D01*
X595592Y556104D01*
X596436Y554065D01*
X597780Y552314D01*
X599531Y550970D01*
X601570Y550126D01*
X603758Y549837D01*
X605946Y550126D01*
X607985Y550970D01*
X609736Y552314D01*
X611079Y554065D01*
X611924Y556104D01*
X612212Y558292D01*
X611924Y560480D01*
X611079Y562519D01*
X609736Y564270D01*
X607985Y565614D01*
X605946Y566458D01*
X603758Y566746D01*
D02*
G37*
G36*
X462280Y524091D02*
X460496Y523737D01*
X458984Y522726D01*
X458599Y522150D01*
X457071D01*
X456686Y522726D01*
X455174Y523737D01*
X453390Y524091D01*
X451606Y523737D01*
X450094Y522726D01*
X449709Y522150D01*
X448181D01*
X447796Y522726D01*
X446284Y523737D01*
X444500Y524091D01*
X442716Y523737D01*
X441204Y522726D01*
X440193Y521214D01*
X439838Y519430D01*
X440193Y517646D01*
X441204Y516134D01*
X441653Y515833D01*
Y514306D01*
X441204Y514005D01*
X440193Y512493D01*
X439838Y510709D01*
X440193Y508925D01*
X441204Y507413D01*
X441653Y507113D01*
Y505585D01*
X441204Y505285D01*
X440193Y503772D01*
X439838Y501988D01*
X440193Y500205D01*
X441204Y498692D01*
X441653Y498392D01*
Y496865D01*
X441204Y496564D01*
X440193Y495052D01*
X439838Y493268D01*
X440193Y491484D01*
X441204Y489972D01*
X442716Y488961D01*
X444500Y488606D01*
X446284Y488961D01*
X447796Y489972D01*
X448181Y490548D01*
X449709D01*
X450094Y489972D01*
X451606Y488961D01*
X453390Y488606D01*
X455174Y488961D01*
X456686Y489972D01*
X457071Y490548D01*
X458599D01*
X458984Y489972D01*
X460496Y488961D01*
X462280Y488606D01*
X464064Y488961D01*
X465576Y489972D01*
X466587Y491484D01*
X466941Y493268D01*
X466587Y495052D01*
X465576Y496564D01*
X465126Y496865D01*
Y498392D01*
X465576Y498692D01*
X466587Y500205D01*
X466941Y501988D01*
X466587Y503772D01*
X465576Y505285D01*
X465126Y505585D01*
Y507113D01*
X465576Y507413D01*
X466587Y508925D01*
X466941Y510709D01*
X466587Y512493D01*
X465576Y514005D01*
X465126Y514306D01*
Y515833D01*
X465576Y516134D01*
X466587Y517646D01*
X466941Y519430D01*
X466587Y521214D01*
X465576Y522726D01*
X464064Y523737D01*
X462280Y524091D01*
D02*
G37*
G36*
X665226Y561942D02*
X663343Y561568D01*
X661747Y560501D01*
X660680Y558905D01*
X660305Y557022D01*
X660680Y555139D01*
X661747Y553543D01*
X663343Y552476D01*
X665226Y552101D01*
X667109Y552476D01*
X668705Y553543D01*
X669772Y555139D01*
X670146Y557022D01*
X669772Y558905D01*
X668705Y560501D01*
X667109Y561568D01*
X665226Y561942D01*
D02*
G37*
G36*
X647954Y568800D02*
X646071Y568426D01*
X644474Y567359D01*
X643408Y565763D01*
X643033Y563880D01*
X643408Y561997D01*
X644474Y560401D01*
X646071Y559334D01*
X647954Y558959D01*
X649837Y559334D01*
X651433Y560401D01*
X652500Y561997D01*
X652874Y563880D01*
X652500Y565763D01*
X651433Y567359D01*
X649837Y568426D01*
X647954Y568800D01*
D02*
G37*
G36*
X447040Y559380D02*
X444852Y559092D01*
X442813Y558247D01*
X441062Y556904D01*
X439718Y555153D01*
X439613Y554899D01*
X439123D01*
X438281Y555002D01*
X437016Y556650D01*
X435265Y557994D01*
X433226Y558838D01*
X431038Y559126D01*
X428850Y558838D01*
X426811Y557994D01*
X425060Y556650D01*
X423716Y554899D01*
X423545Y554485D01*
X422275D01*
X422104Y554899D01*
X420760Y556650D01*
X419009Y557994D01*
X416970Y558838D01*
X414782Y559126D01*
X412594Y558838D01*
X410555Y557994D01*
X408804Y556650D01*
X407460Y554899D01*
X406616Y552860D01*
X406328Y550672D01*
X406616Y548484D01*
X407460Y546445D01*
X408804Y544694D01*
X410555Y543350D01*
X412594Y542506D01*
X414782Y542217D01*
X416970Y542506D01*
X419009Y543350D01*
X420760Y544694D01*
X422104Y546445D01*
X422275Y546858D01*
X423545D01*
X423716Y546445D01*
X425060Y544694D01*
X426811Y543350D01*
X428850Y542506D01*
X431038Y542217D01*
X433226Y542506D01*
X435265Y543350D01*
X437016Y544694D01*
X438359Y546445D01*
X438465Y546699D01*
X438955D01*
X439797Y546596D01*
X441062Y544948D01*
X441673Y544478D01*
Y543208D01*
X441316Y542934D01*
X439972Y541183D01*
X439128Y539144D01*
X438839Y536956D01*
X439128Y534768D01*
X439972Y532729D01*
X441316Y530978D01*
X443067Y529634D01*
X445106Y528790D01*
X447294Y528502D01*
X449482Y528790D01*
X451521Y529634D01*
X453272Y530978D01*
X454616Y532729D01*
X454787Y533142D01*
X456057D01*
X456228Y532729D01*
X457572Y530978D01*
X459323Y529634D01*
X461362Y528790D01*
X463550Y528502D01*
X465738Y528790D01*
X467777Y529634D01*
X469528Y530978D01*
X470872Y532729D01*
X471716Y534768D01*
X472004Y536956D01*
X471716Y539144D01*
X470872Y541183D01*
X469528Y542934D01*
X469209Y543179D01*
Y544449D01*
X469528Y544694D01*
X470872Y546445D01*
X471716Y548484D01*
X472004Y550672D01*
X471716Y552860D01*
X470872Y554899D01*
X469528Y556650D01*
X467777Y557994D01*
X465738Y558838D01*
X463550Y559126D01*
X461362Y558838D01*
X459323Y557994D01*
X457572Y556650D01*
X456228Y554899D01*
X456035Y554432D01*
X454660D01*
X454361Y555153D01*
X453018Y556904D01*
X451267Y558247D01*
X449228Y559092D01*
X447040Y559380D01*
D02*
G37*
G36*
X312166Y522641D02*
X311115Y522503D01*
X308953Y521607D01*
X307095Y520182D01*
X305671Y518325D01*
X304775Y516163D01*
X304636Y515112D01*
X312166D01*
Y522641D01*
D02*
G37*
G36*
X618490Y522064D02*
X616607Y521690D01*
X615011Y520623D01*
X613944Y519027D01*
X613569Y517144D01*
X613944Y515261D01*
X615011Y513665D01*
X616607Y512598D01*
X618490Y512223D01*
X620373Y512598D01*
X621969Y513665D01*
X623036Y515261D01*
X623410Y517144D01*
X623036Y519027D01*
X621969Y520623D01*
X620373Y521690D01*
X618490Y522064D01*
D02*
G37*
G36*
X331470Y522641D02*
Y515112D01*
X338999D01*
X338861Y516163D01*
X337965Y518325D01*
X336540Y520182D01*
X334683Y521607D01*
X332521Y522503D01*
X331470Y522641D01*
D02*
G37*
G36*
X328930D02*
X327879Y522503D01*
X325717Y521607D01*
X323859Y520182D01*
X322526Y518445D01*
X321818Y518366D01*
X321109Y518445D01*
X319776Y520182D01*
X317919Y521607D01*
X315757Y522503D01*
X314706Y522641D01*
Y513842D01*
X313436D01*
Y512572D01*
X304636D01*
X304775Y511521D01*
X305671Y509358D01*
X307095Y507501D01*
Y506339D01*
X305671Y504482D01*
X304775Y502320D01*
X304636Y501269D01*
X313436D01*
Y498729D01*
X304636D01*
X304775Y497678D01*
X305671Y495516D01*
X306884Y493935D01*
X307010Y493077D01*
X306884Y492220D01*
X305671Y490639D01*
X304775Y488477D01*
X304636Y487426D01*
X313436D01*
Y486156D01*
X314706D01*
Y477356D01*
X315757Y477495D01*
X317919Y478391D01*
X319776Y479815D01*
X321109Y481553D01*
X321818Y481632D01*
X322526Y481553D01*
X323859Y479815D01*
X325717Y478391D01*
X327879Y477495D01*
X328930Y477356D01*
Y486156D01*
X330200D01*
Y487426D01*
X338999D01*
X338861Y488477D01*
X337965Y490639D01*
X336752Y492220D01*
X336626Y493077D01*
X336752Y493935D01*
X337965Y495516D01*
X338861Y497678D01*
X338999Y498729D01*
X330200D01*
Y501269D01*
X338999D01*
X338861Y502320D01*
X337965Y504482D01*
X336752Y506063D01*
X336626Y506920D01*
X336752Y507777D01*
X337965Y509358D01*
X338861Y511521D01*
X338999Y512572D01*
X330200D01*
Y513842D01*
X328930D01*
Y522641D01*
D02*
G37*
G36*
X704596Y526382D02*
X702713Y526008D01*
X701116Y524941D01*
X700050Y523345D01*
X699675Y521462D01*
X700050Y519579D01*
X701116Y517982D01*
X702713Y516916D01*
X704596Y516541D01*
X706479Y516916D01*
X708075Y517982D01*
X709142Y519579D01*
X709516Y521462D01*
X709142Y523345D01*
X708075Y524941D01*
X706479Y526008D01*
X704596Y526382D01*
D02*
G37*
G36*
X471900Y581114D02*
X469412Y580787D01*
X467093Y579826D01*
X465102Y578298D01*
X463574Y576307D01*
X462613Y573988D01*
X462286Y571500D01*
X462613Y569011D01*
X463574Y566693D01*
X465102Y564702D01*
X467093Y563174D01*
X469412Y562213D01*
X471900Y561886D01*
X474388Y562213D01*
X476707Y563174D01*
X478698Y564702D01*
X480226Y566693D01*
X481186Y569011D01*
X481514Y571500D01*
X481186Y573988D01*
X480226Y576307D01*
X478698Y578298D01*
X476707Y579826D01*
X474388Y580787D01*
X471900Y581114D01*
D02*
G37*
G36*
X702564Y605140D02*
X695034D01*
X695173Y604089D01*
X696068Y601926D01*
X697493Y600069D01*
X699351Y598644D01*
X701513Y597749D01*
X702564Y597610D01*
Y605140D01*
D02*
G37*
G36*
X611886Y606646D02*
X610003Y606272D01*
X608406Y605205D01*
X607340Y603609D01*
X606965Y601726D01*
X607340Y599843D01*
X608406Y598246D01*
X610003Y597180D01*
X611886Y596805D01*
X613769Y597180D01*
X615365Y598246D01*
X616432Y599843D01*
X616806Y601726D01*
X616432Y603609D01*
X615365Y605205D01*
X613769Y606272D01*
X611886Y606646D01*
D02*
G37*
G36*
X712633Y605140D02*
X705104D01*
Y597610D01*
X706155Y597749D01*
X708317Y598644D01*
X710174Y600069D01*
X711599Y601926D01*
X712495Y604089D01*
X712633Y605140D01*
D02*
G37*
G36*
X702564Y615209D02*
X701513Y615071D01*
X699351Y614175D01*
X697493Y612750D01*
X696068Y610893D01*
X695173Y608731D01*
X695034Y607680D01*
X702564D01*
Y615209D01*
D02*
G37*
G36*
X665226Y607662D02*
X663343Y607288D01*
X661747Y606221D01*
X660680Y604625D01*
X660305Y602742D01*
X660680Y600859D01*
X661747Y599263D01*
X663343Y598196D01*
X665226Y597821D01*
X667109Y598196D01*
X668705Y599263D01*
X669772Y600859D01*
X670146Y602742D01*
X669772Y604625D01*
X668705Y606221D01*
X667109Y607288D01*
X665226Y607662D01*
D02*
G37*
G36*
X359410Y579954D02*
X357222Y579666D01*
X355183Y578821D01*
X353432Y577478D01*
X352088Y575727D01*
X351842Y575133D01*
X350467D01*
X350221Y575727D01*
X348878Y577478D01*
X347127Y578821D01*
X345088Y579666D01*
X342900Y579954D01*
X340712Y579666D01*
X338673Y578821D01*
X336922Y577478D01*
X335578Y575727D01*
X334734Y573688D01*
X334445Y571500D01*
X334734Y569312D01*
X335578Y567273D01*
X336922Y565522D01*
X338673Y564178D01*
X339267Y563932D01*
Y562557D01*
X338673Y562312D01*
X336922Y560968D01*
X335578Y559217D01*
X334734Y557178D01*
X334445Y554990D01*
X334734Y552802D01*
X335578Y550763D01*
X336922Y549012D01*
X338673Y547668D01*
X340712Y546824D01*
X342900Y546535D01*
X345088Y546824D01*
X347127Y547668D01*
X348878Y549012D01*
X350221Y550763D01*
X350467Y551357D01*
X351842D01*
X352088Y550763D01*
X353432Y549012D01*
X355183Y547668D01*
X357222Y546824D01*
X359410Y546535D01*
X361598Y546824D01*
X363637Y547668D01*
X365388Y549012D01*
X366732Y550763D01*
X367576Y552802D01*
X367864Y554990D01*
X367576Y557178D01*
X366732Y559217D01*
X365388Y560968D01*
X363637Y562312D01*
X363043Y562557D01*
Y563932D01*
X363637Y564178D01*
X365388Y565522D01*
X366732Y567273D01*
X367576Y569312D01*
X367864Y571500D01*
X367576Y573688D01*
X366732Y575727D01*
X365388Y577478D01*
X363637Y578821D01*
X361598Y579666D01*
X359410Y579954D01*
D02*
G37*
G36*
X456032Y581032D02*
X436968D01*
Y561968D01*
X456032D01*
Y581032D01*
D02*
G37*
G36*
X769112Y600561D02*
X765929Y600142D01*
X762963Y598914D01*
X760416Y596959D01*
X758462Y594412D01*
X757234Y591447D01*
X756815Y588264D01*
X757234Y585081D01*
X758462Y582115D01*
X760416Y579568D01*
X762963Y577614D01*
X765929Y576386D01*
X769112Y575967D01*
X772295Y576386D01*
X775260Y577614D01*
X777807Y579568D01*
X779762Y582115D01*
X780990Y585081D01*
X781409Y588264D01*
X780990Y591447D01*
X779762Y594412D01*
X777807Y596959D01*
X775260Y598914D01*
X772295Y600142D01*
X769112Y600561D01*
D02*
G37*
G36*
X471900Y606514D02*
X469412Y606186D01*
X467093Y605226D01*
X465102Y603698D01*
X463574Y601707D01*
X462613Y599388D01*
X462286Y596900D01*
X462613Y594412D01*
X463574Y592093D01*
X465102Y590102D01*
X467093Y588574D01*
X469412Y587613D01*
X471900Y587286D01*
X474388Y587613D01*
X476707Y588574D01*
X478698Y590102D01*
X480226Y592093D01*
X481186Y594412D01*
X481514Y596900D01*
X481186Y599388D01*
X480226Y601707D01*
X478698Y603698D01*
X476707Y605226D01*
X474388Y606186D01*
X471900Y606514D01*
D02*
G37*
G36*
X446500D02*
X444011Y606186D01*
X441693Y605226D01*
X439702Y603698D01*
X438174Y601707D01*
X437213Y599388D01*
X436886Y596900D01*
X437213Y594412D01*
X438174Y592093D01*
X439702Y590102D01*
X441693Y588574D01*
X444011Y587613D01*
X446500Y587286D01*
X448988Y587613D01*
X451307Y588574D01*
X453298Y590102D01*
X454826Y592093D01*
X455787Y594412D01*
X456114Y596900D01*
X455787Y599388D01*
X454826Y601707D01*
X453298Y603698D01*
X451307Y605226D01*
X448988Y606186D01*
X446500Y606514D01*
D02*
G37*
G36*
X692912Y512412D02*
X691029Y512038D01*
X689433Y510971D01*
X688366Y509375D01*
X687991Y507492D01*
X688366Y505609D01*
X689433Y504012D01*
X691029Y502946D01*
X692912Y502571D01*
X694795Y502946D01*
X696391Y504012D01*
X697458Y505609D01*
X697832Y507492D01*
X697458Y509375D01*
X696391Y510971D01*
X694795Y512038D01*
X692912Y512412D01*
D02*
G37*
G36*
X784098Y463644D02*
X782215Y463270D01*
X780619Y462203D01*
X779552Y460607D01*
X779177Y458724D01*
X779552Y456841D01*
X780619Y455244D01*
X782215Y454178D01*
X784098Y453803D01*
X785981Y454178D01*
X787577Y455244D01*
X788644Y456841D01*
X789018Y458724D01*
X788644Y460607D01*
X787577Y462203D01*
X785981Y463270D01*
X784098Y463644D01*
D02*
G37*
G36*
X557439Y452882D02*
X549910D01*
Y445352D01*
X550961Y445491D01*
X553123Y446386D01*
X554980Y447811D01*
X556405Y449669D01*
X557301Y451831D01*
X557439Y452882D01*
D02*
G37*
G36*
X603250Y458520D02*
X599334D01*
X599495Y457709D01*
X600674Y455944D01*
X602439Y454765D01*
X603250Y454604D01*
Y458520D01*
D02*
G37*
G36*
X464820Y478354D02*
X462632Y478066D01*
X460593Y477222D01*
X458842Y475878D01*
X457498Y474127D01*
X456654Y472088D01*
X456570Y471456D01*
X455289D01*
X455206Y472088D01*
X454361Y474127D01*
X453018Y475878D01*
X451267Y477222D01*
X449228Y478066D01*
X447040Y478354D01*
X444852Y478066D01*
X442813Y477222D01*
X441062Y475878D01*
X439718Y474127D01*
X438874Y472088D01*
X438790Y471456D01*
X437509D01*
X437426Y472088D01*
X436582Y474127D01*
X435238Y475878D01*
X433487Y477222D01*
X431448Y478066D01*
X429260Y478354D01*
X427072Y478066D01*
X425033Y477222D01*
X423282Y475878D01*
X421938Y474127D01*
X421094Y472088D01*
X421010Y471456D01*
X419729D01*
X419646Y472088D01*
X418801Y474127D01*
X417458Y475878D01*
X415707Y477222D01*
X413668Y478066D01*
X411480Y478354D01*
X409292Y478066D01*
X407253Y477222D01*
X405502Y475878D01*
X404158Y474127D01*
X403314Y472088D01*
X403230Y471456D01*
X401949D01*
X401866Y472088D01*
X401021Y474127D01*
X399678Y475878D01*
X397927Y477222D01*
X395888Y478066D01*
X393700Y478354D01*
X391512Y478066D01*
X389473Y477222D01*
X387722Y475878D01*
X386378Y474127D01*
X385534Y472088D01*
X385246Y469900D01*
X385534Y467712D01*
X386378Y465673D01*
X387722Y463922D01*
X389473Y462578D01*
X390067Y462332D01*
Y460957D01*
X389473Y460712D01*
X387722Y459368D01*
X386378Y457617D01*
X385534Y455578D01*
X385450Y454946D01*
X384169D01*
X384086Y455578D01*
X383242Y457617D01*
X381898Y459368D01*
X380147Y460712D01*
X378108Y461556D01*
X375920Y461844D01*
X373732Y461556D01*
X371693Y460712D01*
X369942Y459368D01*
X368598Y457617D01*
X367754Y455578D01*
X367670Y454946D01*
X366389D01*
X366306Y455578D01*
X365462Y457617D01*
X364118Y459368D01*
X362367Y460712D01*
X360328Y461556D01*
X358140Y461844D01*
X355952Y461556D01*
X353913Y460712D01*
X352162Y459368D01*
X350818Y457617D01*
X349974Y455578D01*
X349890Y454946D01*
X348609D01*
X348526Y455578D01*
X347682Y457617D01*
X346338Y459368D01*
X344587Y460712D01*
X342548Y461556D01*
X340360Y461844D01*
X338172Y461556D01*
X336133Y460712D01*
X334382Y459368D01*
X333038Y457617D01*
X332194Y455578D01*
X331906Y453390D01*
X332194Y451202D01*
X333038Y449163D01*
X334382Y447412D01*
X336133Y446068D01*
X338172Y445224D01*
X340360Y444935D01*
X342548Y445224D01*
X344587Y446068D01*
X346338Y447412D01*
X347682Y449163D01*
X348526Y451202D01*
X348609Y451834D01*
X349890D01*
X349974Y451202D01*
X350818Y449163D01*
X352162Y447412D01*
X353913Y446068D01*
X355952Y445224D01*
X358140Y444935D01*
X360328Y445224D01*
X362367Y446068D01*
X364118Y447412D01*
X365462Y449163D01*
X366306Y451202D01*
X366389Y451834D01*
X367670D01*
X367754Y451202D01*
X368598Y449163D01*
X369942Y447412D01*
X371693Y446068D01*
X373732Y445224D01*
X375920Y444935D01*
X378108Y445224D01*
X380147Y446068D01*
X381898Y447412D01*
X383242Y449163D01*
X384086Y451202D01*
X384169Y451834D01*
X385450D01*
X385534Y451202D01*
X386378Y449163D01*
X387722Y447412D01*
X389473Y446068D01*
X391512Y445224D01*
X393700Y444935D01*
X395888Y445224D01*
X397927Y446068D01*
X399678Y447412D01*
X401021Y449163D01*
X401866Y451202D01*
X401949Y451834D01*
X403230D01*
X403314Y451202D01*
X404158Y449163D01*
X405502Y447412D01*
X407253Y446068D01*
X409292Y445224D01*
X411480Y444935D01*
X413668Y445224D01*
X415707Y446068D01*
X417458Y447412D01*
X418801Y449163D01*
X419646Y451202D01*
X419729Y451834D01*
X421010D01*
X421094Y451202D01*
X421938Y449163D01*
X423282Y447412D01*
X425033Y446068D01*
X427072Y445224D01*
X429260Y444935D01*
X431448Y445224D01*
X433487Y446068D01*
X435238Y447412D01*
X436582Y449163D01*
X437426Y451202D01*
X437509Y451834D01*
X438790D01*
X438874Y451202D01*
X439718Y449163D01*
X441062Y447412D01*
X442813Y446068D01*
X444852Y445224D01*
X447040Y444935D01*
X449228Y445224D01*
X451267Y446068D01*
X453018Y447412D01*
X454361Y449163D01*
X455206Y451202D01*
X455289Y451834D01*
X456570D01*
X456654Y451202D01*
X457498Y449163D01*
X458842Y447412D01*
X460593Y446068D01*
X462632Y445224D01*
X464820Y444935D01*
X467008Y445224D01*
X469047Y446068D01*
X470798Y447412D01*
X472141Y449163D01*
X472986Y451202D01*
X473274Y453390D01*
X472986Y455578D01*
X472141Y457617D01*
X470798Y459368D01*
X469047Y460712D01*
X468453Y460957D01*
Y462332D01*
X469047Y462578D01*
X470798Y463922D01*
X472141Y465673D01*
X472986Y467712D01*
X473274Y469900D01*
X472986Y472088D01*
X472141Y474127D01*
X470798Y475878D01*
X469047Y477222D01*
X467008Y478066D01*
X464820Y478354D01*
D02*
G37*
G36*
X609706Y458520D02*
X605790D01*
Y454604D01*
X606601Y454765D01*
X608366Y455944D01*
X609544Y457709D01*
X609706Y458520D01*
D02*
G37*
G36*
X784000Y445258D02*
X782117Y444884D01*
X780520Y443817D01*
X779454Y442221D01*
X779079Y440338D01*
X779454Y438455D01*
X780520Y436858D01*
X782117Y435792D01*
X784000Y435417D01*
X785883Y435792D01*
X787479Y436858D01*
X788546Y438455D01*
X788920Y440338D01*
X788546Y442221D01*
X787479Y443817D01*
X785883Y444884D01*
X784000Y445258D01*
D02*
G37*
G36*
X299212Y434790D02*
Y423418D01*
X310584D01*
X310315Y425463D01*
X309035Y428553D01*
X307000Y431206D01*
X304347Y433241D01*
X301257Y434521D01*
X299212Y434790D01*
D02*
G37*
G36*
X641604Y632024D02*
X639416Y631736D01*
X637377Y630891D01*
X635626Y629548D01*
X634282Y627797D01*
X633438Y625758D01*
X633149Y623570D01*
X633438Y621382D01*
X634282Y619343D01*
X635626Y617592D01*
X636942Y616581D01*
Y602234D01*
X637238Y600746D01*
X637297Y600450D01*
X638308Y598938D01*
X756322Y480923D01*
Y462743D01*
X755052Y462491D01*
X754335Y464221D01*
X752992Y465972D01*
X751241Y467316D01*
X749202Y468160D01*
X747014Y468448D01*
X744826Y468160D01*
X742787Y467316D01*
X741036Y465972D01*
X739692Y464221D01*
X738848Y462182D01*
X738559Y459994D01*
X738848Y457806D01*
X739692Y455767D01*
X741036Y454016D01*
X742787Y452672D01*
X744826Y451828D01*
X747014Y451539D01*
X749202Y451828D01*
X751241Y452672D01*
X752992Y454016D01*
X754335Y455767D01*
X755052Y457497D01*
X756322Y457244D01*
Y398735D01*
X755052Y398483D01*
X754335Y400213D01*
X752992Y401964D01*
X751241Y403307D01*
X749202Y404152D01*
X747014Y404440D01*
X744826Y404152D01*
X742787Y403307D01*
X741036Y401964D01*
X739692Y400213D01*
X738848Y398174D01*
X738559Y395986D01*
X738848Y393798D01*
X739692Y391759D01*
X741036Y390008D01*
X742787Y388664D01*
X744826Y387820D01*
X747014Y387532D01*
X749202Y387820D01*
X751241Y388664D01*
X752992Y390008D01*
X754335Y391759D01*
X755052Y393489D01*
X756322Y393237D01*
Y373888D01*
X756618Y372400D01*
X756677Y372104D01*
X757688Y370592D01*
X780294Y347986D01*
X781806Y346975D01*
X782102Y346916D01*
X783590Y346620D01*
X819357D01*
X820186Y345540D01*
X821937Y344196D01*
X823976Y343352D01*
X826164Y343064D01*
X828352Y343352D01*
X830391Y344196D01*
X832142Y345540D01*
X833486Y347291D01*
X834330Y349330D01*
X834618Y351518D01*
X834330Y353706D01*
X833486Y355745D01*
X832142Y357496D01*
X830391Y358839D01*
X828352Y359684D01*
X826164Y359972D01*
X823976Y359684D01*
X821937Y358839D01*
X820186Y357496D01*
X818995Y355943D01*
X785521D01*
X765645Y375819D01*
Y395404D01*
X766916Y395973D01*
X768604Y395637D01*
X770487Y396012D01*
X772083Y397079D01*
X773150Y398675D01*
X773524Y400558D01*
X773150Y402441D01*
X772083Y404037D01*
X770487Y405104D01*
X768604Y405478D01*
X766916Y405143D01*
X765645Y405712D01*
Y473532D01*
X766915Y473963D01*
X767804Y472804D01*
X770351Y470850D01*
X773317Y469622D01*
X776500Y469203D01*
X779683Y469622D01*
X782648Y470850D01*
X785195Y472804D01*
X787150Y475351D01*
X788378Y478317D01*
X789622D01*
X790850Y475351D01*
X792804Y472804D01*
X795351Y470850D01*
X796708Y470288D01*
Y454028D01*
X795392Y453018D01*
X794048Y451267D01*
X793204Y449228D01*
X792915Y447040D01*
X793204Y444852D01*
X794048Y442813D01*
X795392Y441062D01*
X797143Y439718D01*
X799182Y438874D01*
X801370Y438586D01*
X803558Y438874D01*
X805597Y439718D01*
X807348Y441062D01*
X808691Y442813D01*
X809536Y444852D01*
X809824Y447040D01*
X809536Y449228D01*
X808691Y451267D01*
X807348Y453018D01*
X806031Y454028D01*
Y470180D01*
X807648Y470850D01*
X810195Y472804D01*
X812150Y475351D01*
X813378Y478317D01*
X813797Y481500D01*
X813378Y484683D01*
X812150Y487649D01*
X810195Y490195D01*
X807648Y492150D01*
X804683Y493378D01*
X801500Y493797D01*
X798317Y493378D01*
X795351Y492150D01*
X792804Y490195D01*
X790850Y487649D01*
X789622Y484683D01*
X788378D01*
X787150Y487649D01*
X785195Y490195D01*
X782648Y492150D01*
X779683Y493378D01*
X776500Y493797D01*
X773317Y493378D01*
X770351Y492150D01*
X767804Y490195D01*
X765850Y487649D01*
X765390Y486537D01*
X763979Y486451D01*
X646265Y604165D01*
Y616581D01*
X647582Y617592D01*
X648926Y619343D01*
X649770Y621382D01*
X650058Y623570D01*
X649770Y625758D01*
X648926Y627797D01*
X647582Y629548D01*
X645831Y630891D01*
X643792Y631736D01*
X641604Y632024D01*
D02*
G37*
G36*
X515366Y452882D02*
X507836D01*
X507975Y451831D01*
X508871Y449669D01*
X510295Y447811D01*
X512152Y446386D01*
X514315Y445491D01*
X515366Y445352D01*
Y452882D01*
D02*
G37*
G36*
X660654Y548491D02*
X657471Y548072D01*
X654505Y546844D01*
X651958Y544889D01*
X650004Y542342D01*
X648776Y539377D01*
X648357Y536194D01*
X648776Y533011D01*
X650004Y530045D01*
X651958Y527498D01*
X654505Y525544D01*
X657471Y524316D01*
X658278Y524209D01*
Y386741D01*
X639419Y367881D01*
X614060D01*
X612572Y367585D01*
X612276Y367527D01*
X610764Y366516D01*
X577680Y333433D01*
X576148Y332409D01*
X575082Y330813D01*
X574707Y328930D01*
X575082Y327047D01*
X576148Y325451D01*
X577745Y324384D01*
X579628Y324009D01*
X581511Y324384D01*
X583107Y325451D01*
X583559Y326126D01*
X615991Y358558D01*
X641350D01*
X642838Y358854D01*
X643134Y358913D01*
X644646Y359924D01*
X666236Y381514D01*
X667247Y383026D01*
X667601Y384810D01*
Y442828D01*
X668871Y443507D01*
X669247Y443256D01*
X671130Y442881D01*
X673013Y443256D01*
X674609Y444323D01*
X675676Y445919D01*
X676050Y447802D01*
X675676Y449685D01*
X674609Y451281D01*
X673013Y452348D01*
X671130Y452722D01*
X669247Y452348D01*
X668871Y452097D01*
X667601Y452776D01*
Y526157D01*
X669349Y527498D01*
X671304Y530045D01*
X672532Y533011D01*
X672951Y536194D01*
X672532Y539377D01*
X671304Y542342D01*
X669349Y544889D01*
X666803Y546844D01*
X663837Y548072D01*
X660654Y548491D01*
D02*
G37*
G36*
X515366Y479461D02*
X514315Y479323D01*
X512152Y478427D01*
X510295Y477002D01*
X508871Y475145D01*
X507975Y472983D01*
X507836Y471932D01*
X515366D01*
Y479461D01*
D02*
G37*
G36*
X674370Y496918D02*
X672487Y496544D01*
X670891Y495477D01*
X669824Y493881D01*
X669449Y491998D01*
X669824Y490115D01*
X670891Y488518D01*
X672487Y487452D01*
X674370Y487077D01*
X676253Y487452D01*
X677849Y488518D01*
X678916Y490115D01*
X679290Y491998D01*
X678916Y493881D01*
X677849Y495477D01*
X676253Y496544D01*
X674370Y496918D01*
D02*
G37*
G36*
X651355Y490220D02*
X643826D01*
Y482690D01*
X644877Y482829D01*
X647039Y483725D01*
X648896Y485149D01*
X650321Y487006D01*
X651217Y489169D01*
X651355Y490220D01*
D02*
G37*
G36*
X641286Y500289D02*
X640235Y500151D01*
X638073Y499255D01*
X636216Y497830D01*
X634790Y495973D01*
X633895Y493811D01*
X633756Y492760D01*
X641286D01*
Y500289D01*
D02*
G37*
G36*
X528828Y505046D02*
X526945Y504672D01*
X525349Y503605D01*
X524282Y502009D01*
X523907Y500126D01*
X524282Y498243D01*
X525349Y496646D01*
X526945Y495580D01*
X528828Y495205D01*
X530711Y495580D01*
X532307Y496646D01*
X533374Y498243D01*
X533748Y500126D01*
X533374Y502009D01*
X532307Y503605D01*
X530711Y504672D01*
X528828Y505046D01*
D02*
G37*
G36*
X643826Y500289D02*
Y492760D01*
X651355D01*
X651217Y493811D01*
X650321Y495973D01*
X648896Y497830D01*
X647039Y499255D01*
X644877Y500151D01*
X643826Y500289D01*
D02*
G37*
G36*
X547370Y479461D02*
X546319Y479323D01*
X544156Y478427D01*
X542299Y477002D01*
X541426Y475863D01*
X539852D01*
X538978Y477002D01*
X537121Y478427D01*
X534959Y479323D01*
X533908Y479461D01*
Y470662D01*
X531368D01*
Y479461D01*
X530317Y479323D01*
X528154Y478427D01*
X526297Y477002D01*
X525424Y475863D01*
X523850D01*
X522976Y477002D01*
X521119Y478427D01*
X518957Y479323D01*
X517906Y479461D01*
Y470662D01*
X516636D01*
Y469392D01*
X507836D01*
X507975Y468341D01*
X508871Y466179D01*
X510295Y464321D01*
X511818Y463153D01*
X511925Y462757D01*
Y462056D01*
X511818Y461660D01*
X510295Y460492D01*
X508871Y458635D01*
X507975Y456473D01*
X507836Y455422D01*
X516636D01*
Y454152D01*
X517906D01*
Y445352D01*
X518957Y445491D01*
X521119Y446386D01*
X522976Y447811D01*
X523850Y448950D01*
X525424D01*
X526297Y447811D01*
X528154Y446386D01*
X530317Y445491D01*
X531368Y445352D01*
Y454152D01*
X533908D01*
Y445352D01*
X534959Y445491D01*
X537121Y446386D01*
X538978Y447811D01*
X539852Y448950D01*
X541426D01*
X542299Y447811D01*
X544156Y446386D01*
X546319Y445491D01*
X547370Y445352D01*
Y454152D01*
X548640D01*
Y455422D01*
X557439D01*
X557301Y456473D01*
X556405Y458635D01*
X554980Y460492D01*
X553458Y461660D01*
X553351Y462056D01*
Y462757D01*
X553458Y463153D01*
X554980Y464321D01*
X556405Y466179D01*
X557301Y468341D01*
X557439Y469392D01*
X548640D01*
Y470662D01*
X547370D01*
Y479461D01*
D02*
G37*
G36*
X549910D02*
Y471932D01*
X557439D01*
X557301Y472983D01*
X556405Y475145D01*
X554980Y477002D01*
X553123Y478427D01*
X550961Y479323D01*
X549910Y479461D01*
D02*
G37*
G36*
X312166Y484886D02*
X304636D01*
X304775Y483835D01*
X305671Y481673D01*
X307095Y479815D01*
X308953Y478391D01*
X311115Y477495D01*
X312166Y477356D01*
Y484886D01*
D02*
G37*
G36*
X641286Y490220D02*
X633756D01*
X633895Y489169D01*
X634790Y487006D01*
X636216Y485149D01*
X638073Y483725D01*
X640235Y482829D01*
X641286Y482690D01*
Y490220D01*
D02*
G37*
G36*
X338999Y484886D02*
X331470D01*
Y477356D01*
X332521Y477495D01*
X334683Y478391D01*
X336540Y479815D01*
X337965Y481673D01*
X338861Y483835D01*
X338999Y484886D01*
D02*
G37*
G36*
X364490Y990420D02*
X362607Y990046D01*
X361011Y988979D01*
X359944Y987383D01*
X359569Y985500D01*
X359944Y983617D01*
X361011Y982020D01*
X362607Y980954D01*
X364490Y980579D01*
X366373Y980954D01*
X367969Y982020D01*
X369036Y983617D01*
X369410Y985500D01*
X369036Y987383D01*
X367969Y988979D01*
X366373Y990046D01*
X364490Y990420D01*
D02*
G37*
G36*
X665480Y1237704D02*
X662991Y1237376D01*
X660673Y1236416D01*
X658682Y1234888D01*
X657154Y1232897D01*
X656193Y1230578D01*
X655866Y1228090D01*
X656193Y1225602D01*
X657154Y1223283D01*
X658682Y1221292D01*
X660673Y1219764D01*
X662991Y1218803D01*
X665480Y1218476D01*
X667968Y1218803D01*
X670287Y1219764D01*
X672278Y1221292D01*
X673806Y1223283D01*
X674766Y1225602D01*
X675094Y1228090D01*
X674766Y1230578D01*
X673806Y1232897D01*
X672278Y1234888D01*
X670287Y1236416D01*
X667968Y1237376D01*
X665480Y1237704D01*
D02*
G37*
G36*
X439562Y1226040D02*
X437679Y1225666D01*
X436082Y1224599D01*
X435016Y1223003D01*
X434641Y1221120D01*
X435016Y1219237D01*
X436082Y1217641D01*
X437679Y1216574D01*
X439562Y1216199D01*
X441445Y1216574D01*
X443041Y1217641D01*
X444108Y1219237D01*
X444482Y1221120D01*
X444108Y1223003D01*
X443041Y1224599D01*
X441445Y1225666D01*
X439562Y1226040D01*
D02*
G37*
G36*
X690880Y1237704D02*
X688391Y1237376D01*
X686073Y1236416D01*
X684082Y1234888D01*
X682554Y1232897D01*
X681593Y1230578D01*
X681266Y1228090D01*
X681593Y1225602D01*
X682554Y1223283D01*
X684082Y1221292D01*
X686073Y1219764D01*
X688391Y1218803D01*
X690880Y1218476D01*
X693368Y1218803D01*
X695687Y1219764D01*
X697678Y1221292D01*
X699206Y1223283D01*
X700166Y1225602D01*
X700494Y1228090D01*
X700166Y1230578D01*
X699206Y1232897D01*
X697678Y1234888D01*
X695687Y1236416D01*
X693368Y1237376D01*
X690880Y1237704D01*
D02*
G37*
G36*
X727568Y1234534D02*
X725685Y1234160D01*
X724089Y1233093D01*
X723022Y1231497D01*
X722647Y1229614D01*
X723022Y1227731D01*
X724089Y1226134D01*
X725685Y1225068D01*
X727568Y1224693D01*
X729451Y1225068D01*
X731047Y1226134D01*
X732114Y1227731D01*
X732488Y1229614D01*
X732114Y1231497D01*
X731047Y1233093D01*
X729451Y1234160D01*
X727568Y1234534D01*
D02*
G37*
G36*
X648970Y1230470D02*
X647087Y1230096D01*
X645490Y1229029D01*
X644424Y1227433D01*
X644049Y1225550D01*
X644424Y1223667D01*
X645490Y1222070D01*
X647087Y1221004D01*
X648970Y1220629D01*
X650853Y1221004D01*
X652449Y1222070D01*
X653516Y1223667D01*
X653890Y1225550D01*
X653516Y1227433D01*
X652449Y1229029D01*
X650853Y1230096D01*
X648970Y1230470D01*
D02*
G37*
G36*
X444210Y1205850D02*
X440294D01*
Y1201934D01*
X441105Y1202095D01*
X442869Y1203274D01*
X444048Y1205039D01*
X444210Y1205850D01*
D02*
G37*
G36*
X437754D02*
X433838D01*
X433999Y1205039D01*
X435178Y1203274D01*
X436943Y1202095D01*
X437754Y1201934D01*
Y1205850D01*
D02*
G37*
G36*
Y1212306D02*
X436943Y1212144D01*
X435178Y1210965D01*
X433999Y1209201D01*
X433838Y1208390D01*
X437754D01*
Y1212306D01*
D02*
G37*
G36*
X648970Y1219420D02*
X647087Y1219046D01*
X645490Y1217979D01*
X644424Y1216383D01*
X644049Y1214500D01*
X644424Y1212617D01*
X645490Y1211021D01*
X647087Y1209954D01*
X648970Y1209579D01*
X650853Y1209954D01*
X652449Y1211021D01*
X653516Y1212617D01*
X653890Y1214500D01*
X653516Y1216383D01*
X652449Y1217979D01*
X650853Y1219046D01*
X648970Y1219420D01*
D02*
G37*
G36*
X440294Y1212306D02*
Y1208390D01*
X444210D01*
X444048Y1209201D01*
X442869Y1210965D01*
X441105Y1212144D01*
X440294Y1212306D01*
D02*
G37*
G36*
X741750Y1234534D02*
X739867Y1234160D01*
X738270Y1233093D01*
X737204Y1231497D01*
X736829Y1229614D01*
X737204Y1227731D01*
X738270Y1226134D01*
X739867Y1225068D01*
X741750Y1224693D01*
X743633Y1225068D01*
X745229Y1226134D01*
X746296Y1227731D01*
X746670Y1229614D01*
X746296Y1231497D01*
X745229Y1233093D01*
X743633Y1234160D01*
X741750Y1234534D01*
D02*
G37*
G36*
X705358Y1245202D02*
X703475Y1244828D01*
X701879Y1243761D01*
X700812Y1242165D01*
X700437Y1240282D01*
X700812Y1238399D01*
X701879Y1236803D01*
X703475Y1235736D01*
X705358Y1235361D01*
X707241Y1235736D01*
X708837Y1236803D01*
X709904Y1238399D01*
X710278Y1240282D01*
X709904Y1242165D01*
X708837Y1243761D01*
X707241Y1244828D01*
X705358Y1245202D01*
D02*
G37*
G36*
X300736Y1240884D02*
X298853Y1240510D01*
X297257Y1239443D01*
X296190Y1237847D01*
X295815Y1235964D01*
X296190Y1234081D01*
X297257Y1232485D01*
X298853Y1231418D01*
X300736Y1231043D01*
X302619Y1231418D01*
X304215Y1232485D01*
X305282Y1234081D01*
X305656Y1235964D01*
X305282Y1237847D01*
X304215Y1239443D01*
X302619Y1240510D01*
X300736Y1240884D01*
D02*
G37*
G36*
X499000Y1249266D02*
X497117Y1248892D01*
X495521Y1247825D01*
X494454Y1246229D01*
X494079Y1244346D01*
X494454Y1242463D01*
X495521Y1240866D01*
X497117Y1239800D01*
X499000Y1239425D01*
X500883Y1239800D01*
X502479Y1240866D01*
X503546Y1242463D01*
X503920Y1244346D01*
X503546Y1246229D01*
X502479Y1247825D01*
X500883Y1248892D01*
X499000Y1249266D01*
D02*
G37*
G36*
X327766Y1245108D02*
X323850D01*
Y1241192D01*
X324661Y1241353D01*
X326426Y1242532D01*
X327604Y1244297D01*
X327766Y1245108D01*
D02*
G37*
G36*
X321310D02*
X317394D01*
X317555Y1244297D01*
X318734Y1242532D01*
X320499Y1241353D01*
X321310Y1241192D01*
Y1245108D01*
D02*
G37*
G36*
X758190Y1235804D02*
X756307Y1235430D01*
X754711Y1234363D01*
X753644Y1232767D01*
X753269Y1230884D01*
X753644Y1229001D01*
X754711Y1227405D01*
X756307Y1226338D01*
X758190Y1225963D01*
X760073Y1226338D01*
X761669Y1227405D01*
X762736Y1229001D01*
X763110Y1230884D01*
X762736Y1232767D01*
X761669Y1234363D01*
X760073Y1235430D01*
X758190Y1235804D01*
D02*
G37*
G36*
X461010Y1235550D02*
X459127Y1235176D01*
X457531Y1234109D01*
X456464Y1232513D01*
X456089Y1230630D01*
X456464Y1228747D01*
X457531Y1227150D01*
X459127Y1226084D01*
X461010Y1225709D01*
X462893Y1226084D01*
X464489Y1227150D01*
X465556Y1228747D01*
X465930Y1230630D01*
X465556Y1232513D01*
X464489Y1234109D01*
X462893Y1235176D01*
X461010Y1235550D01*
D02*
G37*
G36*
X499000Y1236820D02*
X497117Y1236446D01*
X495521Y1235379D01*
X494454Y1233783D01*
X494079Y1231900D01*
X494454Y1230017D01*
X495521Y1228420D01*
X497117Y1227354D01*
X499000Y1226979D01*
X500883Y1227354D01*
X502479Y1228420D01*
X503546Y1230017D01*
X503920Y1231900D01*
X503546Y1233783D01*
X502479Y1235379D01*
X500883Y1236446D01*
X499000Y1236820D01*
D02*
G37*
G36*
X562864Y1240376D02*
X560981Y1240002D01*
X559384Y1238935D01*
X558318Y1237339D01*
X557943Y1235456D01*
X558318Y1233573D01*
X559384Y1231976D01*
X560981Y1230910D01*
X562864Y1230535D01*
X564747Y1230910D01*
X566343Y1231976D01*
X567410Y1233573D01*
X567784Y1235456D01*
X567410Y1237339D01*
X566343Y1238935D01*
X564747Y1240002D01*
X562864Y1240376D01*
D02*
G37*
G36*
X517652Y1236820D02*
X515769Y1236446D01*
X514173Y1235379D01*
X513106Y1233783D01*
X512731Y1231900D01*
X513106Y1230017D01*
X514173Y1228420D01*
X515769Y1227354D01*
X517652Y1226979D01*
X519535Y1227354D01*
X521131Y1228420D01*
X522198Y1230017D01*
X522572Y1231900D01*
X522198Y1233783D01*
X521131Y1235379D01*
X519535Y1236446D01*
X517652Y1236820D01*
D02*
G37*
G36*
X788304Y1209896D02*
X786421Y1209522D01*
X784825Y1208455D01*
X783758Y1206859D01*
X783383Y1204976D01*
X783758Y1203093D01*
X784825Y1201497D01*
X786421Y1200430D01*
X788304Y1200055D01*
X790187Y1200430D01*
X791783Y1201497D01*
X792850Y1203093D01*
X793224Y1204976D01*
X792850Y1206859D01*
X791783Y1208455D01*
X790187Y1209522D01*
X788304Y1209896D01*
D02*
G37*
G36*
X386588Y1188052D02*
X384705Y1187678D01*
X383109Y1186611D01*
X382042Y1185015D01*
X381667Y1183132D01*
X382042Y1181249D01*
X383109Y1179653D01*
X384705Y1178586D01*
X386588Y1178211D01*
X388471Y1178586D01*
X390067Y1179653D01*
X391134Y1181249D01*
X391508Y1183132D01*
X391134Y1185015D01*
X390067Y1186611D01*
X388471Y1187678D01*
X386588Y1188052D01*
D02*
G37*
G36*
X451358Y1179174D02*
Y1175258D01*
X455274D01*
X455112Y1176069D01*
X453933Y1177833D01*
X452169Y1179012D01*
X451358Y1179174D01*
D02*
G37*
G36*
X349250Y1193386D02*
X347367Y1193012D01*
X345770Y1191945D01*
X344704Y1190349D01*
X344329Y1188466D01*
X344704Y1186583D01*
X345770Y1184986D01*
X347367Y1183920D01*
X349250Y1183545D01*
X351133Y1183920D01*
X352729Y1184986D01*
X353412Y1186009D01*
X353630Y1186067D01*
X354866Y1185946D01*
X355676Y1184733D01*
X357273Y1183666D01*
X359156Y1183291D01*
X361039Y1183666D01*
X362635Y1184733D01*
X363702Y1186329D01*
X364076Y1188212D01*
X363702Y1190095D01*
X362635Y1191691D01*
X361039Y1192758D01*
X359156Y1193132D01*
X357273Y1192758D01*
X355676Y1191691D01*
X354993Y1190669D01*
X354775Y1190611D01*
X353540Y1190732D01*
X352729Y1191945D01*
X351133Y1193012D01*
X349250Y1193386D01*
D02*
G37*
G36*
X761250Y1201018D02*
X759367Y1200644D01*
X757770Y1199577D01*
X756704Y1197981D01*
X756329Y1196098D01*
X756704Y1194215D01*
X757770Y1192618D01*
X759367Y1191552D01*
X761250Y1191177D01*
X763133Y1191552D01*
X764729Y1192618D01*
X765796Y1194215D01*
X766170Y1196098D01*
X765796Y1197981D01*
X764729Y1199577D01*
X763133Y1200644D01*
X761250Y1201018D01*
D02*
G37*
G36*
X320802Y1196688D02*
X318919Y1196314D01*
X317323Y1195247D01*
X316256Y1193651D01*
X315881Y1191768D01*
X316256Y1189885D01*
X317323Y1188288D01*
X318919Y1187222D01*
X320802Y1186847D01*
X322685Y1187222D01*
X324281Y1188288D01*
X325348Y1189885D01*
X325722Y1191768D01*
X325348Y1193651D01*
X324281Y1195247D01*
X322685Y1196314D01*
X320802Y1196688D01*
D02*
G37*
G36*
X455274Y1172718D02*
X451358D01*
Y1168802D01*
X452169Y1168963D01*
X453933Y1170142D01*
X455112Y1171907D01*
X455274Y1172718D01*
D02*
G37*
G36*
X448818D02*
X444902D01*
X445063Y1171907D01*
X446242Y1170142D01*
X448007Y1168963D01*
X448818Y1168802D01*
Y1172718D01*
D02*
G37*
G36*
X690880Y1186904D02*
X688391Y1186577D01*
X686073Y1185616D01*
X684082Y1184088D01*
X682554Y1182097D01*
X681593Y1179778D01*
X681266Y1177290D01*
X681593Y1174801D01*
X682554Y1172483D01*
X684082Y1170492D01*
X686073Y1168964D01*
X688391Y1168003D01*
X690880Y1167676D01*
X693368Y1168003D01*
X695687Y1168964D01*
X697678Y1170492D01*
X699206Y1172483D01*
X699365Y1172867D01*
X700686Y1172737D01*
X700812Y1172105D01*
X701879Y1170508D01*
X703475Y1169442D01*
X705358Y1169067D01*
X707241Y1169442D01*
X708837Y1170508D01*
X709904Y1172105D01*
X710278Y1173988D01*
X709904Y1175871D01*
X708837Y1177467D01*
X707241Y1178534D01*
X705358Y1178908D01*
X703475Y1178534D01*
X701879Y1177467D01*
X701723Y1177235D01*
X701444Y1177248D01*
X700451Y1177617D01*
X700166Y1179778D01*
X699206Y1182097D01*
X697678Y1184088D01*
X695687Y1185616D01*
X693368Y1186577D01*
X690880Y1186904D01*
D02*
G37*
G36*
X448818Y1179174D02*
X448007Y1179012D01*
X446242Y1177833D01*
X445063Y1176069D01*
X444902Y1175258D01*
X448818D01*
Y1179174D01*
D02*
G37*
G36*
X762762Y1178908D02*
X760879Y1178534D01*
X759283Y1177467D01*
X758216Y1175871D01*
X757841Y1173988D01*
X758216Y1172105D01*
X759283Y1170508D01*
X760879Y1169442D01*
X762762Y1169067D01*
X764645Y1169442D01*
X766241Y1170508D01*
X767308Y1172105D01*
X767682Y1173988D01*
X767308Y1175871D01*
X766241Y1177467D01*
X764645Y1178534D01*
X762762Y1178908D01*
D02*
G37*
G36*
X545846Y1196688D02*
X543963Y1196314D01*
X542366Y1195247D01*
X541300Y1193651D01*
X540925Y1191768D01*
X541300Y1189885D01*
X542366Y1188288D01*
X543963Y1187222D01*
X545846Y1186847D01*
X547729Y1187222D01*
X549325Y1188288D01*
X550138Y1189505D01*
X550219Y1189504D01*
X551411Y1189124D01*
X551714Y1187599D01*
X552780Y1186003D01*
X554377Y1184936D01*
X556260Y1184561D01*
X558143Y1184936D01*
X559739Y1186003D01*
X560806Y1187599D01*
X561180Y1189482D01*
X560899Y1190897D01*
X560806Y1191365D01*
X560665Y1191706D01*
X560539Y1192014D01*
X560781Y1192246D01*
X560782Y1192247D01*
X560789Y1192253D01*
X560937Y1192396D01*
X561104Y1192556D01*
X561304Y1192748D01*
X561332Y1192730D01*
X563069Y1191569D01*
X563880Y1191408D01*
Y1195324D01*
X559964D01*
X560070Y1194789D01*
X560125Y1194513D01*
X560331Y1194070D01*
X560505Y1193696D01*
X560263Y1193463D01*
X560262Y1193463D01*
X560255Y1193456D01*
X560106Y1193313D01*
X559940Y1193154D01*
X559739Y1192961D01*
X559711Y1192980D01*
X558143Y1194028D01*
X556260Y1194402D01*
X554377Y1194028D01*
X552780Y1192961D01*
X551967Y1191744D01*
X551886Y1191746D01*
X550695Y1192126D01*
X550392Y1193651D01*
X549325Y1195247D01*
X547729Y1196314D01*
X545846Y1196688D01*
D02*
G37*
G36*
X312580Y1205578D02*
X310697Y1205204D01*
X309100Y1204137D01*
X308034Y1202541D01*
X307659Y1200658D01*
X308034Y1198775D01*
X309100Y1197178D01*
X310697Y1196112D01*
X312580Y1195737D01*
X314463Y1196112D01*
X316059Y1197178D01*
X317126Y1198775D01*
X317500Y1200658D01*
X317126Y1202541D01*
X316059Y1204137D01*
X314463Y1205204D01*
X312580Y1205578D01*
D02*
G37*
G36*
X800100Y1258024D02*
X797611Y1257697D01*
X795293Y1256736D01*
X793302Y1255208D01*
X791774Y1253217D01*
X790813Y1250898D01*
X790486Y1248410D01*
X790813Y1245921D01*
X791774Y1243603D01*
X793302Y1241612D01*
X795293Y1240084D01*
X797611Y1239123D01*
X800100Y1238796D01*
X802588Y1239123D01*
X804029Y1239720D01*
X810152Y1233596D01*
X809701Y1232955D01*
X809602Y1232814D01*
X809553Y1232744D01*
X809472Y1232629D01*
X809465Y1232619D01*
X809411Y1232542D01*
X809185D01*
X808454Y1232542D01*
X808383D01*
X808383D01*
X790568D01*
Y1213478D01*
X809632D01*
Y1231293D01*
Y1231293D01*
X809632Y1231364D01*
X809632Y1232095D01*
Y1232321D01*
X809709Y1232375D01*
X809719Y1232382D01*
X809834Y1232463D01*
X809904Y1232512D01*
X810045Y1232611D01*
X810686Y1233062D01*
X823403Y1220345D01*
Y1194364D01*
X822201Y1193956D01*
X821495Y1194875D01*
X818949Y1196830D01*
X815983Y1198058D01*
X812800Y1198477D01*
X809617Y1198058D01*
X806651Y1196830D01*
X804104Y1194875D01*
X802150Y1192328D01*
X800922Y1189363D01*
X800503Y1186180D01*
X800922Y1182997D01*
X802150Y1180031D01*
X804104Y1177484D01*
X806651Y1175530D01*
X809617Y1174302D01*
X812719Y1173893D01*
X812925Y1173638D01*
X813413Y1172682D01*
X813286Y1172505D01*
X812800Y1172569D01*
X809617Y1172150D01*
X806651Y1170922D01*
X804104Y1168967D01*
X802150Y1166421D01*
X800922Y1163455D01*
X800503Y1160272D01*
X800922Y1157089D01*
X802150Y1154123D01*
X804104Y1151576D01*
X806651Y1149622D01*
X809617Y1148394D01*
X812800Y1147975D01*
X815983Y1148394D01*
X818949Y1149622D01*
X821495Y1151576D01*
X823450Y1154123D01*
X824678Y1157089D01*
X825097Y1160272D01*
X824678Y1163455D01*
X823450Y1166421D01*
X821495Y1168967D01*
X821473Y1168985D01*
X821390Y1170252D01*
X829150Y1178013D01*
X829880Y1179105D01*
X830137Y1180393D01*
Y1221740D01*
X829880Y1223028D01*
X829150Y1224120D01*
X808790Y1244481D01*
X809387Y1245921D01*
X809714Y1248410D01*
X809387Y1250898D01*
X808426Y1253217D01*
X806898Y1255208D01*
X804907Y1256736D01*
X802588Y1257697D01*
X800100Y1258024D01*
D02*
G37*
G36*
X563880Y1201780D02*
X563069Y1201618D01*
X561304Y1200440D01*
X560125Y1198675D01*
X559964Y1197864D01*
X563880D01*
Y1201780D01*
D02*
G37*
G36*
X387350Y1300077D02*
X384167Y1299658D01*
X381201Y1298430D01*
X378654Y1296475D01*
X376700Y1293929D01*
X375472Y1290963D01*
X375053Y1287780D01*
X375472Y1284597D01*
X376700Y1281631D01*
X378654Y1279084D01*
X381201Y1277130D01*
X384167Y1275902D01*
X385545Y1275720D01*
Y1274439D01*
X384167Y1274258D01*
X381201Y1273030D01*
X378654Y1271075D01*
X376700Y1268529D01*
X375472Y1265563D01*
X375053Y1262380D01*
X375472Y1259197D01*
X376700Y1256231D01*
X378654Y1253684D01*
X381201Y1251730D01*
X384167Y1250502D01*
X385545Y1250320D01*
Y1249039D01*
X384167Y1248858D01*
X381201Y1247630D01*
X378654Y1245675D01*
X376700Y1243129D01*
X375472Y1240163D01*
X375053Y1236980D01*
X375472Y1233797D01*
X376700Y1230831D01*
X378654Y1228284D01*
X381201Y1226330D01*
X384167Y1225102D01*
X386053Y1224854D01*
Y1223572D01*
X385183Y1223458D01*
X382217Y1222230D01*
X379670Y1220275D01*
X377716Y1217729D01*
X376488Y1214763D01*
X376069Y1211580D01*
X376488Y1208397D01*
X377716Y1205431D01*
X379670Y1202884D01*
X382217Y1200930D01*
X385183Y1199702D01*
X388366Y1199283D01*
X391549Y1199702D01*
X394515Y1200930D01*
X397061Y1202884D01*
X399016Y1205431D01*
X400244Y1208397D01*
X400663Y1211580D01*
X400244Y1214763D01*
X399016Y1217729D01*
X397061Y1220275D01*
X394515Y1222230D01*
X391549Y1223458D01*
X389663Y1223706D01*
Y1224987D01*
X390533Y1225102D01*
X393498Y1226330D01*
X396045Y1228284D01*
X398000Y1230831D01*
X399228Y1233797D01*
X399647Y1236980D01*
X399228Y1240163D01*
X398000Y1243129D01*
X396045Y1245675D01*
X393498Y1247630D01*
X390533Y1248858D01*
X389155Y1249039D01*
Y1250320D01*
X390533Y1250502D01*
X393498Y1251730D01*
X396045Y1253684D01*
X398000Y1256231D01*
X399228Y1259197D01*
X399647Y1262380D01*
X399228Y1265563D01*
X398000Y1268529D01*
X396045Y1271075D01*
X393498Y1273030D01*
X390533Y1274258D01*
X389155Y1274439D01*
Y1275720D01*
X390533Y1275902D01*
X393498Y1277130D01*
X396045Y1279084D01*
X398000Y1281631D01*
X399228Y1284597D01*
X399647Y1287780D01*
X399228Y1290963D01*
X398000Y1293929D01*
X396045Y1296475D01*
X393498Y1298430D01*
X390533Y1299658D01*
X387350Y1300077D01*
D02*
G37*
G36*
X566420Y1201780D02*
Y1197864D01*
X570336D01*
X570174Y1198675D01*
X568996Y1200440D01*
X567231Y1201618D01*
X566420Y1201780D01*
D02*
G37*
G36*
X601980Y1201514D02*
X600097Y1201140D01*
X598501Y1200073D01*
X597434Y1198477D01*
X597059Y1196594D01*
X597434Y1194711D01*
X598501Y1193115D01*
X600097Y1192048D01*
X601980Y1191673D01*
X603863Y1192048D01*
X605459Y1193115D01*
X606526Y1194711D01*
X606900Y1196594D01*
X606526Y1198477D01*
X605459Y1200073D01*
X603863Y1201140D01*
X601980Y1201514D01*
D02*
G37*
G36*
X570336Y1195324D02*
X566420D01*
Y1191408D01*
X567231Y1191569D01*
X568996Y1192748D01*
X570174Y1194513D01*
X570336Y1195324D01*
D02*
G37*
G36*
X665480Y1212304D02*
X662991Y1211976D01*
X660673Y1211016D01*
X658682Y1209488D01*
X657154Y1207497D01*
X656193Y1205178D01*
X655866Y1202690D01*
X656193Y1200201D01*
X657154Y1197883D01*
X658682Y1195892D01*
X660673Y1194364D01*
X662991Y1193403D01*
X665480Y1193076D01*
X667968Y1193403D01*
X670287Y1194364D01*
X672278Y1195892D01*
X673806Y1197883D01*
X674766Y1200201D01*
X675094Y1202690D01*
X674766Y1205178D01*
X673806Y1207497D01*
X672278Y1209488D01*
X670287Y1211016D01*
X667968Y1211976D01*
X665480Y1212304D01*
D02*
G37*
G36*
X471678Y1203038D02*
X469795Y1202664D01*
X468199Y1201597D01*
X467132Y1200001D01*
X466757Y1198118D01*
X467132Y1196235D01*
X468199Y1194639D01*
X469795Y1193572D01*
X471678Y1193197D01*
X473561Y1193572D01*
X475157Y1194639D01*
X476224Y1196235D01*
X476598Y1198118D01*
X476224Y1200001D01*
X475157Y1201597D01*
X473561Y1202664D01*
X471678Y1203038D01*
D02*
G37*
G36*
X690880Y1212304D02*
X688391Y1211976D01*
X686073Y1211016D01*
X684082Y1209488D01*
X682554Y1207497D01*
X681593Y1205178D01*
X681266Y1202690D01*
X681593Y1200201D01*
X682554Y1197883D01*
X684082Y1195892D01*
X686073Y1194364D01*
X688391Y1193403D01*
X690880Y1193076D01*
X693368Y1193403D01*
X695687Y1194364D01*
X697678Y1195892D01*
X699206Y1197883D01*
X700166Y1200201D01*
X700494Y1202690D01*
X700166Y1205178D01*
X699206Y1207497D01*
X697678Y1209488D01*
X695687Y1211016D01*
X693368Y1211976D01*
X690880Y1212304D01*
D02*
G37*
G36*
X530860Y1298664D02*
X528372Y1298336D01*
X526053Y1297376D01*
X524062Y1295848D01*
X522534Y1293857D01*
X521573Y1291538D01*
X521246Y1289050D01*
X521573Y1286561D01*
X522534Y1284243D01*
X524062Y1282252D01*
X526053Y1280724D01*
X528372Y1279763D01*
X530860Y1279436D01*
X533348Y1279763D01*
X535667Y1280724D01*
X537658Y1282252D01*
X539186Y1284243D01*
X540146Y1286561D01*
X540474Y1289050D01*
X540146Y1291538D01*
X539186Y1293857D01*
X537658Y1295848D01*
X535667Y1297376D01*
X533348Y1298336D01*
X530860Y1298664D01*
D02*
G37*
G36*
X505460D02*
X502971Y1298336D01*
X500653Y1297376D01*
X498662Y1295848D01*
X497134Y1293857D01*
X496173Y1291538D01*
X495846Y1289050D01*
X496173Y1286561D01*
X497134Y1284243D01*
X498662Y1282252D01*
X500653Y1280724D01*
X502971Y1279763D01*
X505460Y1279436D01*
X507948Y1279763D01*
X510267Y1280724D01*
X512258Y1282252D01*
X513786Y1284243D01*
X514747Y1286561D01*
X515074Y1289050D01*
X514747Y1291538D01*
X513786Y1293857D01*
X512258Y1295848D01*
X510267Y1297376D01*
X507948Y1298336D01*
X505460Y1298664D01*
D02*
G37*
G36*
X556260D02*
X553772Y1298336D01*
X551453Y1297376D01*
X549462Y1295848D01*
X547934Y1293857D01*
X546973Y1291538D01*
X546646Y1289050D01*
X546973Y1286561D01*
X547934Y1284243D01*
X549462Y1282252D01*
X551453Y1280724D01*
X553772Y1279763D01*
X556260Y1279436D01*
X558748Y1279763D01*
X561067Y1280724D01*
X563058Y1282252D01*
X564586Y1284243D01*
X565546Y1286561D01*
X565874Y1289050D01*
X565546Y1291538D01*
X564586Y1293857D01*
X563058Y1295848D01*
X561067Y1297376D01*
X558748Y1298336D01*
X556260Y1298664D01*
D02*
G37*
G36*
X632460D02*
X629972Y1298336D01*
X627653Y1297376D01*
X625662Y1295848D01*
X624134Y1293857D01*
X623173Y1291538D01*
X622846Y1289050D01*
X623173Y1286561D01*
X624134Y1284243D01*
X625662Y1282252D01*
X627653Y1280724D01*
X629972Y1279763D01*
X632460Y1279436D01*
X634948Y1279763D01*
X637267Y1280724D01*
X639258Y1282252D01*
X640786Y1284243D01*
X641747Y1286561D01*
X642074Y1289050D01*
X641747Y1291538D01*
X640786Y1293857D01*
X639258Y1295848D01*
X637267Y1297376D01*
X634948Y1298336D01*
X632460Y1298664D01*
D02*
G37*
G36*
X581660D02*
X579171Y1298336D01*
X576853Y1297376D01*
X574862Y1295848D01*
X573334Y1293857D01*
X572373Y1291538D01*
X572046Y1289050D01*
X572373Y1286561D01*
X573334Y1284243D01*
X574862Y1282252D01*
X576853Y1280724D01*
X579171Y1279763D01*
X581660Y1279436D01*
X584148Y1279763D01*
X586467Y1280724D01*
X588458Y1282252D01*
X589986Y1284243D01*
X590947Y1286561D01*
X591274Y1289050D01*
X590947Y1291538D01*
X589986Y1293857D01*
X588458Y1295848D01*
X586467Y1297376D01*
X584148Y1298336D01*
X581660Y1298664D01*
D02*
G37*
G36*
X716534Y1277726D02*
Y1273810D01*
X720450D01*
X720288Y1274621D01*
X719109Y1276385D01*
X717345Y1277564D01*
X716534Y1277726D01*
D02*
G37*
G36*
X713994D02*
X713183Y1277564D01*
X711418Y1276385D01*
X710239Y1274621D01*
X710078Y1273810D01*
X713994D01*
Y1277726D01*
D02*
G37*
G36*
X605790Y1287780D02*
X597100D01*
X597278Y1286429D01*
X598290Y1283987D01*
X599899Y1281889D01*
X601997Y1280280D01*
X604439Y1279268D01*
X605790Y1279090D01*
Y1287780D01*
D02*
G37*
G36*
X480060Y1298664D02*
X477571Y1298336D01*
X475253Y1297376D01*
X473262Y1295848D01*
X471734Y1293857D01*
X470773Y1291538D01*
X470446Y1289050D01*
X470773Y1286561D01*
X471734Y1284243D01*
X473262Y1282252D01*
X475253Y1280724D01*
X477571Y1279763D01*
X480060Y1279436D01*
X482548Y1279763D01*
X484867Y1280724D01*
X486858Y1282252D01*
X488386Y1284243D01*
X489347Y1286561D01*
X489674Y1289050D01*
X489347Y1291538D01*
X488386Y1293857D01*
X486858Y1295848D01*
X484867Y1297376D01*
X482548Y1298336D01*
X480060Y1298664D01*
D02*
G37*
G36*
X617019Y1287780D02*
X608330D01*
Y1279090D01*
X609681Y1279268D01*
X612123Y1280280D01*
X614221Y1281889D01*
X615830Y1283987D01*
X616841Y1286429D01*
X617019Y1287780D01*
D02*
G37*
G36*
X464192Y1298582D02*
X445128D01*
Y1279518D01*
X464192D01*
Y1298582D01*
D02*
G37*
G36*
X608330Y1299009D02*
Y1290320D01*
X617019D01*
X616841Y1291671D01*
X615830Y1294113D01*
X614221Y1296210D01*
X612123Y1297820D01*
X609681Y1298831D01*
X608330Y1299009D01*
D02*
G37*
G36*
X605790D02*
X604439Y1298831D01*
X601997Y1297820D01*
X599899Y1296210D01*
X598290Y1294113D01*
X597278Y1291671D01*
X597100Y1290320D01*
X605790D01*
Y1299009D01*
D02*
G37*
G36*
X753480Y1296014D02*
X752669Y1295852D01*
X750904Y1294673D01*
X749725Y1292909D01*
X749564Y1292098D01*
X753480D01*
Y1296014D01*
D02*
G37*
G36*
X645160Y1308194D02*
X643277Y1307820D01*
X641681Y1306753D01*
X640614Y1305157D01*
X640239Y1303274D01*
X640614Y1301391D01*
X641681Y1299794D01*
X643277Y1298728D01*
X645160Y1298353D01*
X647043Y1298728D01*
X648639Y1299794D01*
X649706Y1301391D01*
X650080Y1303274D01*
X649706Y1305157D01*
X648639Y1306753D01*
X647043Y1307820D01*
X645160Y1308194D01*
D02*
G37*
G36*
X756020Y1296014D02*
Y1292098D01*
X759936D01*
X759774Y1292909D01*
X758595Y1294673D01*
X756831Y1295852D01*
X756020Y1296014D01*
D02*
G37*
G36*
X753480Y1289558D02*
X749564D01*
X749725Y1288747D01*
X750904Y1286982D01*
X752669Y1285803D01*
X753480Y1285642D01*
Y1289558D01*
D02*
G37*
G36*
X322580Y1290160D02*
X320697Y1289786D01*
X319100Y1288719D01*
X318034Y1287123D01*
X317659Y1285240D01*
X318034Y1283357D01*
X319100Y1281761D01*
X320697Y1280694D01*
X322580Y1280319D01*
X324463Y1280694D01*
X326059Y1281761D01*
X327126Y1283357D01*
X327500Y1285240D01*
X327126Y1287123D01*
X326059Y1288719D01*
X324463Y1289786D01*
X322580Y1290160D01*
D02*
G37*
G36*
X759936Y1289558D02*
X756020D01*
Y1285642D01*
X756831Y1285803D01*
X758595Y1286982D01*
X759774Y1288747D01*
X759936Y1289558D01*
D02*
G37*
G36*
X704342Y1297780D02*
X702459Y1297406D01*
X700863Y1296339D01*
X699796Y1294743D01*
X699421Y1292860D01*
X699796Y1290977D01*
X700863Y1289380D01*
X702459Y1288314D01*
X704342Y1287939D01*
X706225Y1288314D01*
X707821Y1289380D01*
X708888Y1290977D01*
X709262Y1292860D01*
X708888Y1294743D01*
X707821Y1296339D01*
X706225Y1297406D01*
X704342Y1297780D01*
D02*
G37*
G36*
X741750Y1295748D02*
X739867Y1295374D01*
X738270Y1294307D01*
X737204Y1292711D01*
X736829Y1290828D01*
X737204Y1288945D01*
X738270Y1287348D01*
X739867Y1286282D01*
X741750Y1285907D01*
X743633Y1286282D01*
X745229Y1287348D01*
X746296Y1288945D01*
X746670Y1290828D01*
X746296Y1292711D01*
X745229Y1294307D01*
X743633Y1295374D01*
X741750Y1295748D01*
D02*
G37*
G36*
X517652Y1278476D02*
X515769Y1278102D01*
X514173Y1277035D01*
X513106Y1275439D01*
X512731Y1273556D01*
X513106Y1271673D01*
X514173Y1270077D01*
X515769Y1269010D01*
X517652Y1268635D01*
X519535Y1269010D01*
X521131Y1270077D01*
X522198Y1271673D01*
X522572Y1273556D01*
X522198Y1275439D01*
X521131Y1277035D01*
X519535Y1278102D01*
X517652Y1278476D01*
D02*
G37*
G36*
X562864Y1255616D02*
X560981Y1255242D01*
X559384Y1254175D01*
X558318Y1252579D01*
X557943Y1250696D01*
X558318Y1248813D01*
X559384Y1247216D01*
X560981Y1246150D01*
X562864Y1245775D01*
X564747Y1246150D01*
X566343Y1247216D01*
X567410Y1248813D01*
X567784Y1250696D01*
X567410Y1252579D01*
X566343Y1254175D01*
X564747Y1255242D01*
X562864Y1255616D01*
D02*
G37*
G36*
X711708Y1260950D02*
X709825Y1260576D01*
X708229Y1259509D01*
X707162Y1257913D01*
X706787Y1256030D01*
X707162Y1254147D01*
X708229Y1252551D01*
X709825Y1251484D01*
X711708Y1251109D01*
X712409Y1251249D01*
X713489Y1250169D01*
X713391Y1249680D01*
X713766Y1247797D01*
X714833Y1246200D01*
X716429Y1245134D01*
X718312Y1244759D01*
X720195Y1245134D01*
X721791Y1246200D01*
X722858Y1247797D01*
X723232Y1249680D01*
X722858Y1251563D01*
X721791Y1253159D01*
X720195Y1254226D01*
X718312Y1254600D01*
X717611Y1254461D01*
X716531Y1255541D01*
X716628Y1256030D01*
X716254Y1257913D01*
X715187Y1259509D01*
X713591Y1260576D01*
X711708Y1260950D01*
D02*
G37*
G36*
X321310Y1251564D02*
X320499Y1251402D01*
X318734Y1250223D01*
X317555Y1248459D01*
X317394Y1247648D01*
X321310D01*
Y1251564D01*
D02*
G37*
G36*
X454660Y1262220D02*
X452777Y1261846D01*
X451180Y1260779D01*
X450114Y1259183D01*
X449739Y1257300D01*
X450114Y1255417D01*
X451180Y1253820D01*
X452777Y1252754D01*
X454660Y1252379D01*
X456543Y1252754D01*
X458139Y1253820D01*
X459206Y1255417D01*
X459580Y1257300D01*
X459206Y1259183D01*
X458139Y1260779D01*
X456543Y1261846D01*
X454660Y1262220D01*
D02*
G37*
G36*
X323850Y1251564D02*
Y1247648D01*
X327766D01*
X327604Y1248459D01*
X326426Y1250223D01*
X324661Y1251402D01*
X323850Y1251564D01*
D02*
G37*
G36*
X664210Y1252220D02*
X655440D01*
Y1243450D01*
X664210D01*
Y1252220D01*
D02*
G37*
G36*
X358902Y1251044D02*
X357019Y1250670D01*
X355423Y1249603D01*
X354356Y1248007D01*
X353981Y1246124D01*
X354356Y1244241D01*
X355423Y1242645D01*
X357019Y1241578D01*
X358902Y1241203D01*
X360785Y1241578D01*
X362381Y1242645D01*
X363448Y1244241D01*
X363822Y1246124D01*
X363448Y1248007D01*
X362381Y1249603D01*
X360785Y1250670D01*
X358902Y1251044D01*
D02*
G37*
G36*
X675520Y1252220D02*
X666750D01*
Y1243450D01*
X675520D01*
Y1252220D01*
D02*
G37*
G36*
X700839D02*
X692150D01*
Y1243531D01*
X693501Y1243708D01*
X695943Y1244720D01*
X698040Y1246329D01*
X699650Y1248427D01*
X700661Y1250869D01*
X700839Y1252220D01*
D02*
G37*
G36*
X689610D02*
X680920D01*
X681098Y1250869D01*
X682110Y1248427D01*
X683719Y1246329D01*
X685817Y1244720D01*
X688259Y1243708D01*
X689610Y1243531D01*
Y1252220D01*
D02*
G37*
G36*
X626110Y1262220D02*
X624227Y1261846D01*
X622631Y1260779D01*
X621564Y1259183D01*
X621189Y1257300D01*
X621564Y1255417D01*
X622631Y1253820D01*
X624227Y1252754D01*
X626110Y1252379D01*
X627993Y1252754D01*
X629589Y1253820D01*
X630656Y1255417D01*
X631030Y1257300D01*
X630656Y1259183D01*
X629589Y1260779D01*
X627993Y1261846D01*
X626110Y1262220D01*
D02*
G37*
G36*
X290322Y1272560D02*
X288439Y1272186D01*
X286842Y1271119D01*
X285776Y1269523D01*
X285401Y1267640D01*
X285776Y1265757D01*
X286842Y1264161D01*
X288439Y1263094D01*
X290322Y1262719D01*
X292205Y1263094D01*
X293801Y1264161D01*
X294868Y1265757D01*
X295242Y1267640D01*
X294868Y1269523D01*
X293801Y1271119D01*
X292205Y1272186D01*
X290322Y1272560D01*
D02*
G37*
G36*
X610870Y1277460D02*
X608987Y1277086D01*
X607391Y1276019D01*
X606324Y1274423D01*
X605949Y1272540D01*
X606324Y1270657D01*
X607391Y1269061D01*
X608987Y1267994D01*
X610870Y1267619D01*
X612628Y1267969D01*
X613154Y1267652D01*
X613758Y1267138D01*
X613569Y1266190D01*
X613944Y1264307D01*
X615010Y1262710D01*
X616607Y1261644D01*
X618490Y1261269D01*
X620373Y1261644D01*
X621969Y1262710D01*
X623036Y1264307D01*
X623410Y1266190D01*
X623036Y1268073D01*
X621969Y1269669D01*
X620373Y1270736D01*
X618490Y1271110D01*
X616731Y1270761D01*
X616205Y1271078D01*
X615602Y1271592D01*
X615790Y1272540D01*
X615416Y1274423D01*
X614349Y1276019D01*
X612753Y1277086D01*
X610870Y1277460D01*
D02*
G37*
G36*
X800100Y1283424D02*
X797611Y1283096D01*
X795293Y1282136D01*
X793302Y1280608D01*
X791774Y1278617D01*
X790813Y1276298D01*
X790486Y1273810D01*
X790813Y1271321D01*
X791774Y1269003D01*
X793302Y1267012D01*
X795293Y1265484D01*
X797611Y1264523D01*
X800100Y1264196D01*
X802588Y1264523D01*
X804907Y1265484D01*
X806898Y1267012D01*
X808426Y1269003D01*
X809387Y1271321D01*
X809714Y1273810D01*
X809387Y1276298D01*
X808426Y1278617D01*
X806898Y1280608D01*
X804907Y1282136D01*
X802588Y1283096D01*
X800100Y1283424D01*
D02*
G37*
G36*
X720450Y1271270D02*
X716534D01*
Y1267354D01*
X717345Y1267515D01*
X719109Y1268694D01*
X720288Y1270459D01*
X720450Y1271270D01*
D02*
G37*
G36*
X713994D02*
X710078D01*
X710239Y1270459D01*
X711418Y1268694D01*
X713183Y1267515D01*
X713994Y1267354D01*
Y1271270D01*
D02*
G37*
G36*
X689610Y1263449D02*
X688259Y1263271D01*
X685817Y1262260D01*
X683719Y1260650D01*
X682110Y1258553D01*
X681098Y1256111D01*
X680920Y1254760D01*
X689610D01*
Y1263449D01*
D02*
G37*
G36*
X664210Y1263530D02*
X655440D01*
Y1254760D01*
X664210D01*
Y1263530D01*
D02*
G37*
G36*
X675520D02*
X666750D01*
Y1254760D01*
X675520D01*
Y1263530D01*
D02*
G37*
G36*
X505460Y1270856D02*
X503577Y1270482D01*
X501981Y1269415D01*
X500914Y1267819D01*
X500539Y1265936D01*
X500914Y1264053D01*
X501981Y1262457D01*
X503577Y1261390D01*
X505460Y1261015D01*
X507343Y1261390D01*
X508939Y1262457D01*
X510006Y1264053D01*
X510380Y1265936D01*
X510006Y1267819D01*
X508939Y1269415D01*
X507343Y1270482D01*
X505460Y1270856D01*
D02*
G37*
G36*
X692150Y1263449D02*
Y1254760D01*
X700839D01*
X700661Y1256111D01*
X699650Y1258553D01*
X698040Y1260650D01*
X695943Y1262260D01*
X693501Y1263271D01*
X692150Y1263449D01*
D02*
G37*
G36*
X665480Y1186904D02*
X662991Y1186577D01*
X660673Y1185616D01*
X658682Y1184088D01*
X657154Y1182097D01*
X656193Y1179778D01*
X655866Y1177290D01*
X656193Y1174801D01*
X657154Y1172483D01*
X658682Y1170492D01*
X660673Y1168964D01*
X662991Y1168003D01*
X665480Y1167676D01*
X667968Y1168003D01*
X670287Y1168964D01*
X672278Y1170492D01*
X673806Y1172483D01*
X674766Y1174801D01*
X675094Y1177290D01*
X674766Y1179778D01*
X673806Y1182097D01*
X672278Y1184088D01*
X670287Y1185616D01*
X667968Y1186577D01*
X665480Y1186904D01*
D02*
G37*
G36*
X428752Y1049368D02*
X426869Y1048994D01*
X425272Y1047927D01*
X424206Y1046331D01*
X423831Y1044448D01*
X424206Y1042565D01*
X425272Y1040968D01*
X426869Y1039902D01*
X428752Y1039527D01*
X430635Y1039902D01*
X432231Y1040968D01*
X433298Y1042565D01*
X433672Y1044448D01*
X433298Y1046331D01*
X432231Y1047927D01*
X430635Y1048994D01*
X428752Y1049368D01*
D02*
G37*
G36*
X458576Y1043178D02*
X454660D01*
Y1039262D01*
X455471Y1039423D01*
X457235Y1040602D01*
X458414Y1042367D01*
X458576Y1043178D01*
D02*
G37*
G36*
X440690Y1049368D02*
X438807Y1048994D01*
X437211Y1047927D01*
X436144Y1046331D01*
X435769Y1044448D01*
X436144Y1042565D01*
X437211Y1040968D01*
X438807Y1039902D01*
X440690Y1039527D01*
X442573Y1039902D01*
X444169Y1040968D01*
X445236Y1042565D01*
X445610Y1044448D01*
X445236Y1046331D01*
X444169Y1047927D01*
X442573Y1048994D01*
X440690Y1049368D01*
D02*
G37*
G36*
X581766Y1044448D02*
X577850D01*
Y1040532D01*
X578661Y1040693D01*
X580425Y1041872D01*
X581604Y1043637D01*
X581766Y1044448D01*
D02*
G37*
G36*
X575310D02*
X571394D01*
X571555Y1043637D01*
X572734Y1041872D01*
X574499Y1040693D01*
X575310Y1040532D01*
Y1044448D01*
D02*
G37*
G36*
X517398Y1040224D02*
X515515Y1039850D01*
X513918Y1038783D01*
X512852Y1037187D01*
X512477Y1035304D01*
X512852Y1033421D01*
X513918Y1031824D01*
X515515Y1030758D01*
X517398Y1030383D01*
X519281Y1030758D01*
X520877Y1031824D01*
X521944Y1033421D01*
X522318Y1035304D01*
X521944Y1037187D01*
X520877Y1038783D01*
X519281Y1039850D01*
X517398Y1040224D01*
D02*
G37*
G36*
X502666D02*
X500783Y1039850D01*
X499187Y1038783D01*
X498120Y1037187D01*
X497745Y1035304D01*
X498120Y1033421D01*
X499187Y1031824D01*
X500783Y1030758D01*
X502666Y1030383D01*
X504549Y1030758D01*
X506145Y1031824D01*
X507212Y1033421D01*
X507586Y1035304D01*
X507212Y1037187D01*
X506145Y1038783D01*
X504549Y1039850D01*
X502666Y1040224D01*
D02*
G37*
G36*
X546989Y1043145D02*
X545106Y1042771D01*
X543509Y1041704D01*
X542443Y1040108D01*
X542068Y1038225D01*
X542443Y1036342D01*
X543509Y1034745D01*
X545106Y1033679D01*
X546989Y1033304D01*
X548872Y1033679D01*
X550468Y1034745D01*
X551535Y1036342D01*
X551909Y1038225D01*
X551535Y1040108D01*
X550468Y1041704D01*
X548872Y1042771D01*
X546989Y1043145D01*
D02*
G37*
G36*
X452120Y1043178D02*
X448204D01*
X448365Y1042367D01*
X449544Y1040602D01*
X451309Y1039423D01*
X452120Y1039262D01*
Y1043178D01*
D02*
G37*
G36*
X320802Y1047590D02*
X318919Y1047216D01*
X317323Y1046149D01*
X316256Y1044553D01*
X315881Y1042670D01*
X316256Y1040787D01*
X317323Y1039191D01*
X318919Y1038124D01*
X320802Y1037749D01*
X322685Y1038124D01*
X324281Y1039191D01*
X325348Y1040787D01*
X325722Y1042670D01*
X325348Y1044553D01*
X324281Y1046149D01*
X322685Y1047216D01*
X320802Y1047590D01*
D02*
G37*
G36*
X665480Y1059904D02*
X662991Y1059576D01*
X660673Y1058616D01*
X658682Y1057088D01*
X657154Y1055097D01*
X656193Y1052778D01*
X655866Y1050290D01*
X656193Y1047802D01*
X657154Y1045483D01*
X658682Y1043492D01*
X660673Y1041964D01*
X662991Y1041003D01*
X665480Y1040676D01*
X667968Y1041003D01*
X670287Y1041964D01*
X672278Y1043492D01*
X673806Y1045483D01*
X674766Y1047802D01*
X675094Y1050290D01*
X674766Y1052778D01*
X673806Y1055097D01*
X672278Y1057088D01*
X670287Y1058616D01*
X667968Y1059576D01*
X665480Y1059904D01*
D02*
G37*
G36*
X575310Y1050904D02*
X574499Y1050742D01*
X572734Y1049564D01*
X571555Y1047799D01*
X571394Y1046988D01*
X575310D01*
Y1050904D01*
D02*
G37*
G36*
X454660Y1049634D02*
Y1045718D01*
X458576D01*
X458414Y1046529D01*
X457235Y1048294D01*
X455471Y1049472D01*
X454660Y1049634D01*
D02*
G37*
G36*
X577850Y1050904D02*
Y1046988D01*
X581766D01*
X581604Y1047799D01*
X580425Y1049564D01*
X578661Y1050742D01*
X577850Y1050904D01*
D02*
G37*
G36*
X349250Y1068672D02*
X347367Y1068298D01*
X345770Y1067231D01*
X344704Y1065635D01*
X344329Y1063752D01*
X344704Y1061869D01*
X345770Y1060273D01*
X347367Y1059206D01*
X349250Y1058831D01*
X351133Y1059206D01*
X352729Y1060273D01*
X353796Y1061869D01*
X354170Y1063752D01*
X353796Y1065635D01*
X352729Y1067231D01*
X351133Y1068298D01*
X349250Y1068672D01*
D02*
G37*
G36*
X474472Y1049368D02*
X472589Y1048994D01*
X470993Y1047927D01*
X470664Y1047435D01*
X469136D01*
X468807Y1047927D01*
X467211Y1048994D01*
X465328Y1049368D01*
X463445Y1048994D01*
X461848Y1047927D01*
X460782Y1046331D01*
X460407Y1044448D01*
X460782Y1042565D01*
X461848Y1040968D01*
X463445Y1039902D01*
X465328Y1039527D01*
X467211Y1039902D01*
X468807Y1040968D01*
X469136Y1041461D01*
X470664D01*
X470993Y1040968D01*
X472589Y1039902D01*
X474472Y1039527D01*
X476355Y1039902D01*
X477951Y1040968D01*
X479018Y1042565D01*
X479392Y1044448D01*
X479018Y1046331D01*
X477951Y1047927D01*
X476355Y1048994D01*
X474472Y1049368D01*
D02*
G37*
G36*
X561340Y1051654D02*
X559457Y1051280D01*
X557860Y1050213D01*
X556794Y1048617D01*
X556419Y1046734D01*
X556794Y1044851D01*
X557860Y1043254D01*
X559457Y1042188D01*
X561340Y1041813D01*
X563223Y1042188D01*
X564819Y1043254D01*
X565886Y1044851D01*
X566260Y1046734D01*
X565886Y1048617D01*
X564819Y1050213D01*
X563223Y1051280D01*
X561340Y1051654D01*
D02*
G37*
G36*
X690880Y1059904D02*
X688391Y1059576D01*
X686073Y1058616D01*
X684082Y1057088D01*
X682554Y1055097D01*
X681593Y1052778D01*
X681266Y1050290D01*
X681593Y1047802D01*
X682554Y1045483D01*
X684082Y1043492D01*
X686073Y1041964D01*
X688391Y1041003D01*
X690880Y1040676D01*
X693368Y1041003D01*
X695687Y1041964D01*
X697678Y1043492D01*
X699206Y1045483D01*
X700166Y1047802D01*
X700494Y1050290D01*
X700166Y1052778D01*
X699206Y1055097D01*
X697678Y1057088D01*
X695687Y1058616D01*
X693368Y1059576D01*
X690880Y1059904D01*
D02*
G37*
G36*
X812800Y1094845D02*
X809617Y1094426D01*
X806651Y1093198D01*
X804104Y1091243D01*
X802150Y1088697D01*
X800922Y1085731D01*
X800503Y1082548D01*
X800922Y1079365D01*
X802150Y1076399D01*
X804104Y1073852D01*
X806651Y1071898D01*
X809617Y1070670D01*
X812467Y1070294D01*
Y1069014D01*
X810633Y1068772D01*
X807667Y1067544D01*
X805120Y1065589D01*
X803166Y1063043D01*
X801938Y1060077D01*
X801519Y1056894D01*
X801938Y1053711D01*
X803166Y1050745D01*
X805120Y1048198D01*
X807667Y1046244D01*
X810633Y1045016D01*
X813816Y1044597D01*
X816999Y1045016D01*
X819965Y1046244D01*
X822511Y1048198D01*
X824466Y1050745D01*
X825694Y1053711D01*
X826113Y1056894D01*
X825694Y1060077D01*
X824466Y1063043D01*
X822511Y1065589D01*
X819965Y1067544D01*
X816999Y1068772D01*
X814149Y1069147D01*
Y1070428D01*
X815983Y1070670D01*
X818949Y1071898D01*
X821495Y1073852D01*
X823450Y1076399D01*
X824678Y1079365D01*
X825097Y1082548D01*
X824678Y1085731D01*
X823450Y1088697D01*
X821495Y1091243D01*
X818949Y1093198D01*
X815983Y1094426D01*
X812800Y1094845D01*
D02*
G37*
G36*
X452120Y1049634D02*
X451309Y1049472D01*
X449544Y1048294D01*
X448365Y1046529D01*
X448204Y1045718D01*
X452120D01*
Y1049634D01*
D02*
G37*
G36*
X392572Y1055068D02*
X390689Y1054694D01*
X389092Y1053627D01*
X388026Y1052031D01*
X387651Y1050148D01*
X388026Y1048265D01*
X389092Y1046668D01*
X390689Y1045602D01*
X392572Y1045227D01*
X394455Y1045602D01*
X396051Y1046668D01*
X397118Y1048265D01*
X397492Y1050148D01*
X397118Y1052031D01*
X396051Y1053627D01*
X394455Y1054694D01*
X392572Y1055068D01*
D02*
G37*
G36*
X399542Y1035906D02*
X397659Y1035532D01*
X396063Y1034465D01*
X394996Y1032869D01*
X394621Y1030986D01*
X394996Y1029103D01*
X396063Y1027506D01*
X397659Y1026440D01*
X399542Y1026065D01*
X401425Y1026440D01*
X403021Y1027506D01*
X404088Y1029103D01*
X404462Y1030986D01*
X404088Y1032869D01*
X403021Y1034465D01*
X401425Y1035532D01*
X399542Y1035906D01*
D02*
G37*
G36*
X485394Y1008380D02*
X481478D01*
X481639Y1007569D01*
X482818Y1005804D01*
X484583Y1004625D01*
X485394Y1004464D01*
Y1008380D01*
D02*
G37*
G36*
X535432Y1013554D02*
X533549Y1013180D01*
X531953Y1012113D01*
X530886Y1010517D01*
X530511Y1008634D01*
X530886Y1006751D01*
X531953Y1005154D01*
X533549Y1004088D01*
X535432Y1003713D01*
X537315Y1004088D01*
X538911Y1005154D01*
X539978Y1006751D01*
X540352Y1008634D01*
X539978Y1010517D01*
X538911Y1012113D01*
X537315Y1013180D01*
X535432Y1013554D01*
D02*
G37*
G36*
X491850Y1008380D02*
X487934D01*
Y1004464D01*
X488745Y1004625D01*
X490509Y1005804D01*
X491688Y1007569D01*
X491850Y1008380D01*
D02*
G37*
G36*
X597402Y1009030D02*
X593486D01*
Y1005114D01*
X594297Y1005275D01*
X596061Y1006454D01*
X597240Y1008219D01*
X597402Y1009030D01*
D02*
G37*
G36*
X590946D02*
X587030D01*
X587191Y1008219D01*
X588370Y1006454D01*
X590135Y1005275D01*
X590946Y1005114D01*
Y1009030D01*
D02*
G37*
G36*
X785270Y986798D02*
Y982882D01*
X789186D01*
X789024Y983693D01*
X787846Y985458D01*
X786081Y986636D01*
X785270Y986798D01*
D02*
G37*
G36*
X782730D02*
X781919Y986636D01*
X780154Y985458D01*
X778975Y983693D01*
X778814Y982882D01*
X782730D01*
Y986798D01*
D02*
G37*
G36*
X445516Y996790D02*
X443633Y996416D01*
X442037Y995349D01*
X440970Y993753D01*
X440595Y991870D01*
X440970Y989987D01*
X442037Y988391D01*
X443633Y987324D01*
X445516Y986949D01*
X447399Y987324D01*
X448995Y988391D01*
X450062Y989987D01*
X450436Y991870D01*
X450062Y993753D01*
X448995Y995349D01*
X447399Y996416D01*
X445516Y996790D01*
D02*
G37*
G36*
X445262Y1009490D02*
X443379Y1009116D01*
X441783Y1008049D01*
X440716Y1006453D01*
X440341Y1004570D01*
X440716Y1002687D01*
X441783Y1001091D01*
X443379Y1000024D01*
X445262Y999649D01*
X447145Y1000024D01*
X448741Y1001091D01*
X449808Y1002687D01*
X450182Y1004570D01*
X449808Y1006453D01*
X448741Y1008049D01*
X447145Y1009116D01*
X445262Y1009490D01*
D02*
G37*
G36*
X557276Y1014327D02*
X554093Y1013908D01*
X551127Y1012680D01*
X548580Y1010725D01*
X546626Y1008178D01*
X545398Y1005213D01*
X544979Y1002030D01*
X545398Y998847D01*
X546626Y995881D01*
X548580Y993334D01*
X551127Y991380D01*
X554093Y990152D01*
X557276Y989733D01*
X560459Y990152D01*
X563424Y991380D01*
X565971Y993334D01*
X567926Y995881D01*
X569154Y998847D01*
X569573Y1002030D01*
X569154Y1005213D01*
X567926Y1008178D01*
X565971Y1010725D01*
X563424Y1012680D01*
X560459Y1013908D01*
X557276Y1014327D01*
D02*
G37*
G36*
X510286Y1016348D02*
X508403Y1015974D01*
X506806Y1014907D01*
X505740Y1013311D01*
X505365Y1011428D01*
X505740Y1009545D01*
X505988Y1009174D01*
X505072Y1008258D01*
X504549Y1008608D01*
X502666Y1008982D01*
X500783Y1008608D01*
X499187Y1007541D01*
X498120Y1005945D01*
X497745Y1004062D01*
X498120Y1002179D01*
X499187Y1000583D01*
X500783Y999516D01*
X502666Y999141D01*
X504549Y999516D01*
X506145Y1000583D01*
X507212Y1002179D01*
X507586Y1004062D01*
X507212Y1005945D01*
X506964Y1006316D01*
X507880Y1007232D01*
X508403Y1006882D01*
X510286Y1006507D01*
X512169Y1006882D01*
X513765Y1007949D01*
X514832Y1009545D01*
X515206Y1011428D01*
X514832Y1013311D01*
X513765Y1014907D01*
X512169Y1015974D01*
X510286Y1016348D01*
D02*
G37*
G36*
X690880Y1034504D02*
X688391Y1034176D01*
X686073Y1033216D01*
X684082Y1031688D01*
X682554Y1029697D01*
X681593Y1027378D01*
X681266Y1024890D01*
X681593Y1022402D01*
X682554Y1020083D01*
X684082Y1018092D01*
X686073Y1016564D01*
X688391Y1015603D01*
X690880Y1015276D01*
X693368Y1015603D01*
X695687Y1016564D01*
X697678Y1018092D01*
X699206Y1020083D01*
X700166Y1022402D01*
X700494Y1024890D01*
X700166Y1027378D01*
X699206Y1029697D01*
X697678Y1031688D01*
X695687Y1033216D01*
X693368Y1034176D01*
X690880Y1034504D01*
D02*
G37*
G36*
X665480D02*
X662991Y1034176D01*
X660673Y1033216D01*
X658682Y1031688D01*
X657154Y1029697D01*
X656193Y1027378D01*
X655866Y1024890D01*
X656193Y1022402D01*
X657154Y1020083D01*
X658682Y1018092D01*
X660673Y1016564D01*
X662991Y1015603D01*
X665480Y1015276D01*
X667968Y1015603D01*
X670287Y1016564D01*
X672278Y1018092D01*
X673806Y1020083D01*
X674766Y1022402D01*
X675094Y1024890D01*
X674766Y1027378D01*
X673806Y1029697D01*
X672278Y1031688D01*
X670287Y1033216D01*
X667968Y1034176D01*
X665480Y1034504D01*
D02*
G37*
G36*
X759460Y1027270D02*
X757577Y1026896D01*
X755981Y1025829D01*
X754914Y1024233D01*
X754539Y1022350D01*
X754914Y1020467D01*
X755981Y1018870D01*
X757577Y1017804D01*
X759460Y1017429D01*
X761343Y1017804D01*
X762939Y1018870D01*
X764006Y1020467D01*
X764380Y1022350D01*
X764006Y1024233D01*
X762939Y1025829D01*
X761343Y1026896D01*
X759460Y1027270D01*
D02*
G37*
G36*
X314000Y1029810D02*
X312117Y1029436D01*
X310520Y1028369D01*
X309454Y1026773D01*
X309079Y1024890D01*
X309454Y1023007D01*
X310520Y1021411D01*
X312117Y1020344D01*
X314000Y1019969D01*
X315883Y1020344D01*
X317479Y1021411D01*
X318546Y1023007D01*
X318920Y1024890D01*
X318546Y1026773D01*
X317479Y1028369D01*
X315883Y1029436D01*
X314000Y1029810D01*
D02*
G37*
G36*
X289000D02*
X287117Y1029436D01*
X285520Y1028369D01*
X284454Y1026773D01*
X284079Y1024890D01*
X284454Y1023007D01*
X285520Y1021411D01*
X287117Y1020344D01*
X289000Y1019969D01*
X290883Y1020344D01*
X292479Y1021411D01*
X293546Y1023007D01*
X293920Y1024890D01*
X293546Y1026773D01*
X292479Y1028369D01*
X290883Y1029436D01*
X289000Y1029810D01*
D02*
G37*
G36*
X487934Y1014836D02*
Y1010920D01*
X491850D01*
X491688Y1011731D01*
X490509Y1013495D01*
X488745Y1014674D01*
X487934Y1014836D01*
D02*
G37*
G36*
X485394D02*
X484583Y1014674D01*
X482818Y1013495D01*
X481639Y1011731D01*
X481478Y1010920D01*
X485394D01*
Y1014836D01*
D02*
G37*
G36*
X590946Y1015486D02*
X590135Y1015324D01*
X588370Y1014145D01*
X587191Y1012381D01*
X587030Y1011570D01*
X590946D01*
Y1015486D01*
D02*
G37*
G36*
X364490Y1024222D02*
X362607Y1023848D01*
X361011Y1022781D01*
X359944Y1021185D01*
X359569Y1019302D01*
X359944Y1017419D01*
X361011Y1015823D01*
X362607Y1014756D01*
X364490Y1014381D01*
X366373Y1014756D01*
X367969Y1015823D01*
X369036Y1017419D01*
X369410Y1019302D01*
X369036Y1021185D01*
X367969Y1022781D01*
X366373Y1023848D01*
X364490Y1024222D01*
D02*
G37*
G36*
X593486Y1015486D02*
Y1011570D01*
X597402D01*
X597240Y1012381D01*
X596061Y1014145D01*
X594297Y1015324D01*
X593486Y1015486D01*
D02*
G37*
G36*
X690880Y1136104D02*
X688391Y1135777D01*
X686073Y1134816D01*
X684082Y1133288D01*
X682554Y1131297D01*
X681593Y1128978D01*
X681266Y1126490D01*
X681593Y1124001D01*
X682554Y1121683D01*
X684082Y1119692D01*
X686073Y1118164D01*
X688391Y1117203D01*
X690880Y1116876D01*
X693368Y1117203D01*
X695687Y1118164D01*
X697678Y1119692D01*
X699206Y1121683D01*
X700166Y1124001D01*
X700494Y1126490D01*
X700166Y1128978D01*
X699206Y1131297D01*
X697678Y1133288D01*
X695687Y1134816D01*
X693368Y1135777D01*
X690880Y1136104D01*
D02*
G37*
G36*
X665480D02*
X662991Y1135777D01*
X660673Y1134816D01*
X658682Y1133288D01*
X657154Y1131297D01*
X656193Y1128978D01*
X655866Y1126490D01*
X656193Y1124001D01*
X657154Y1121683D01*
X658682Y1119692D01*
X660673Y1118164D01*
X662991Y1117203D01*
X665480Y1116876D01*
X667968Y1117203D01*
X670287Y1118164D01*
X672278Y1119692D01*
X673806Y1121683D01*
X674766Y1124001D01*
X675094Y1126490D01*
X674766Y1128978D01*
X673806Y1131297D01*
X672278Y1133288D01*
X670287Y1134816D01*
X667968Y1135777D01*
X665480Y1136104D01*
D02*
G37*
G36*
X412242Y1128870D02*
X410359Y1128496D01*
X408763Y1127429D01*
X407696Y1125833D01*
X407321Y1123950D01*
X407696Y1122067D01*
X408763Y1120471D01*
X410359Y1119404D01*
X412242Y1119029D01*
X414125Y1119404D01*
X415721Y1120471D01*
X416788Y1122067D01*
X417162Y1123950D01*
X416788Y1125833D01*
X415721Y1127429D01*
X414125Y1128496D01*
X412242Y1128870D01*
D02*
G37*
G36*
X812800Y1146661D02*
X809617Y1146242D01*
X806651Y1145014D01*
X804104Y1143059D01*
X802150Y1140512D01*
X800922Y1137547D01*
X800503Y1134364D01*
X800922Y1131181D01*
X802150Y1128215D01*
X804104Y1125668D01*
X806651Y1123714D01*
X809617Y1122486D01*
X812800Y1122067D01*
X815983Y1122486D01*
X818949Y1123714D01*
X821495Y1125668D01*
X823450Y1128215D01*
X824678Y1131181D01*
X825097Y1134364D01*
X824678Y1137547D01*
X823450Y1140512D01*
X821495Y1143059D01*
X818949Y1145014D01*
X815983Y1146242D01*
X812800Y1146661D01*
D02*
G37*
G36*
X398272Y1129124D02*
X396389Y1128750D01*
X394793Y1127683D01*
X393726Y1126087D01*
X393351Y1124204D01*
X393726Y1122321D01*
X394793Y1120725D01*
X396389Y1119658D01*
X398272Y1119283D01*
X400155Y1119658D01*
X401751Y1120725D01*
X402818Y1122321D01*
X403192Y1124204D01*
X402818Y1126087D01*
X401751Y1127683D01*
X400155Y1128750D01*
X398272Y1129124D01*
D02*
G37*
G36*
X452592Y1114186D02*
Y1110270D01*
X456508D01*
X456346Y1111081D01*
X455167Y1112846D01*
X453403Y1114024D01*
X452592Y1114186D01*
D02*
G37*
G36*
X450052D02*
X449241Y1114024D01*
X447476Y1112846D01*
X446297Y1111081D01*
X446136Y1110270D01*
X450052D01*
Y1114186D01*
D02*
G37*
G36*
X603504Y1133442D02*
X601621Y1133068D01*
X600024Y1132001D01*
X598958Y1130405D01*
X598583Y1128522D01*
X598958Y1126639D01*
X600024Y1125042D01*
X601468Y1124078D01*
X601637Y1123328D01*
X601654Y1122674D01*
X600787Y1122095D01*
X599720Y1120499D01*
X599345Y1118616D01*
X599720Y1116733D01*
X600787Y1115136D01*
X602383Y1114070D01*
X604266Y1113695D01*
X606149Y1114070D01*
X607745Y1115136D01*
X608812Y1116733D01*
X609186Y1118616D01*
X608812Y1120499D01*
X607745Y1122095D01*
X606302Y1123060D01*
X606133Y1123810D01*
X606116Y1124463D01*
X606983Y1125042D01*
X608050Y1126639D01*
X608424Y1128522D01*
X608050Y1130405D01*
X606983Y1132001D01*
X605387Y1133068D01*
X603504Y1133442D01*
D02*
G37*
G36*
X480822Y1143348D02*
X478939Y1142974D01*
X477342Y1141907D01*
X476276Y1140311D01*
X475901Y1138428D01*
X476276Y1136545D01*
X477342Y1134949D01*
X478209Y1134369D01*
X478193Y1133716D01*
X478024Y1132966D01*
X476581Y1132001D01*
X475514Y1130405D01*
X475139Y1128522D01*
X475514Y1126639D01*
X476350Y1125387D01*
X476494Y1124813D01*
X476121Y1123822D01*
X475056Y1123111D01*
X473990Y1121515D01*
X473615Y1119632D01*
X473990Y1117749D01*
X475056Y1116152D01*
X476653Y1115086D01*
X478536Y1114711D01*
X480419Y1115086D01*
X482015Y1116152D01*
X483082Y1117749D01*
X483456Y1119632D01*
X483082Y1121515D01*
X482245Y1122767D01*
X482102Y1123341D01*
X482475Y1124331D01*
X483539Y1125042D01*
X484606Y1126639D01*
X484980Y1128522D01*
X484606Y1130405D01*
X483539Y1132001D01*
X482672Y1132580D01*
X482689Y1133234D01*
X482858Y1133984D01*
X484301Y1134949D01*
X485368Y1136545D01*
X485742Y1138428D01*
X485368Y1140311D01*
X484301Y1141907D01*
X482705Y1142974D01*
X480822Y1143348D01*
D02*
G37*
G36*
X465328Y1133442D02*
X463445Y1133068D01*
X461848Y1132001D01*
X460782Y1130405D01*
X460407Y1128522D01*
X460782Y1126639D01*
X461848Y1125042D01*
X462343Y1124712D01*
Y1123442D01*
X461848Y1123111D01*
X460782Y1121515D01*
X460407Y1119632D01*
X460782Y1117749D01*
X461848Y1116152D01*
X463445Y1115086D01*
X465328Y1114711D01*
X467211Y1115086D01*
X468807Y1116152D01*
X469874Y1117749D01*
X470248Y1119632D01*
X469874Y1121515D01*
X468807Y1123111D01*
X468312Y1123442D01*
Y1124712D01*
X468807Y1125042D01*
X469874Y1126639D01*
X470248Y1128522D01*
X469874Y1130405D01*
X468807Y1132001D01*
X467211Y1133068D01*
X465328Y1133442D01*
D02*
G37*
G36*
X647700Y1145634D02*
X645817Y1145260D01*
X644221Y1144193D01*
X643154Y1142597D01*
X642779Y1140714D01*
X643154Y1138831D01*
X644221Y1137234D01*
X645817Y1136168D01*
X645885Y1136154D01*
Y1134859D01*
X645817Y1134846D01*
X644221Y1133779D01*
X643154Y1132183D01*
X642779Y1130300D01*
X643154Y1128417D01*
X644221Y1126821D01*
X645817Y1125754D01*
X647700Y1125379D01*
X649583Y1125754D01*
X651179Y1126821D01*
X652246Y1128417D01*
X652620Y1130300D01*
X652246Y1132183D01*
X651179Y1133779D01*
X649583Y1134846D01*
X649515Y1134859D01*
Y1136154D01*
X649583Y1136168D01*
X651179Y1137234D01*
X652246Y1138831D01*
X652620Y1140714D01*
X652246Y1142597D01*
X651179Y1144193D01*
X649583Y1145260D01*
X647700Y1145634D01*
D02*
G37*
G36*
X711708Y1158588D02*
X709825Y1158214D01*
X708229Y1157147D01*
X707162Y1155551D01*
X706787Y1153668D01*
X707162Y1151785D01*
X708229Y1150189D01*
X709825Y1149122D01*
X711708Y1148747D01*
X713591Y1149122D01*
X715187Y1150189D01*
X716254Y1151785D01*
X716628Y1153668D01*
X716254Y1155551D01*
X715187Y1157147D01*
X713591Y1158214D01*
X711708Y1158588D01*
D02*
G37*
G36*
X456544Y1147826D02*
X452628D01*
Y1143910D01*
X453439Y1144071D01*
X455204Y1145250D01*
X456382Y1147015D01*
X456544Y1147826D01*
D02*
G37*
G36*
X451104Y1163414D02*
X449221Y1163040D01*
X447625Y1161973D01*
X446558Y1160377D01*
X446183Y1158494D01*
X446558Y1156611D01*
X447625Y1155014D01*
X448169Y1154650D01*
Y1153381D01*
X447512Y1152942D01*
X446333Y1151177D01*
X446172Y1150366D01*
X456544D01*
X456382Y1151177D01*
X455204Y1152942D01*
X454485Y1153421D01*
Y1154949D01*
X454583Y1155014D01*
X455650Y1156611D01*
X456024Y1158494D01*
X455650Y1160377D01*
X454583Y1161973D01*
X452987Y1163040D01*
X451104Y1163414D01*
D02*
G37*
G36*
X494792Y1185512D02*
X492909Y1185138D01*
X491312Y1184071D01*
X490246Y1182475D01*
X489871Y1180592D01*
X490246Y1178709D01*
X491312Y1177113D01*
X492652Y1176217D01*
X492761Y1175692D01*
Y1175332D01*
X492652Y1174806D01*
X491312Y1173911D01*
X490246Y1172315D01*
X489871Y1170432D01*
X490246Y1168549D01*
X491312Y1166953D01*
X492909Y1165886D01*
X494792Y1165511D01*
X496675Y1165886D01*
X498271Y1166953D01*
X499338Y1168549D01*
X499712Y1170432D01*
X499338Y1172315D01*
X498271Y1173911D01*
X496932Y1174806D01*
X496823Y1175332D01*
Y1175692D01*
X496932Y1176217D01*
X498271Y1177113D01*
X499338Y1178709D01*
X499712Y1180592D01*
X499338Y1182475D01*
X498271Y1184071D01*
X496675Y1185138D01*
X494792Y1185512D01*
D02*
G37*
G36*
X517398Y1162906D02*
X515515Y1162532D01*
X513918Y1161465D01*
X512852Y1159869D01*
X512477Y1157986D01*
X512852Y1156103D01*
X513918Y1154507D01*
X515515Y1153440D01*
X517398Y1153065D01*
X519281Y1153440D01*
X520877Y1154507D01*
X521944Y1156103D01*
X522318Y1157986D01*
X521944Y1159869D01*
X520877Y1161465D01*
X519281Y1162532D01*
X517398Y1162906D01*
D02*
G37*
G36*
X382430Y1151890D02*
X380547Y1151516D01*
X378951Y1150449D01*
X377884Y1148853D01*
X377509Y1146970D01*
X377884Y1145087D01*
X378951Y1143491D01*
X380547Y1142424D01*
X382430Y1142049D01*
X384313Y1142424D01*
X385909Y1143491D01*
X386976Y1145087D01*
X387350Y1146970D01*
X386976Y1148853D01*
X385909Y1150449D01*
X384313Y1151516D01*
X382430Y1151890D01*
D02*
G37*
G36*
X510286Y1144110D02*
X508403Y1143736D01*
X506806Y1142669D01*
X505740Y1141073D01*
X505365Y1139190D01*
X505740Y1137307D01*
X506806Y1135711D01*
X508403Y1134644D01*
X510286Y1134269D01*
X512169Y1134644D01*
X513765Y1135711D01*
X514832Y1137307D01*
X515206Y1139190D01*
X514832Y1141073D01*
X513765Y1142669D01*
X512169Y1143736D01*
X510286Y1144110D01*
D02*
G37*
G36*
X665480Y1161504D02*
X662991Y1161177D01*
X660673Y1160216D01*
X658682Y1158688D01*
X657154Y1156697D01*
X656193Y1154378D01*
X655866Y1151890D01*
X656193Y1149401D01*
X657154Y1147083D01*
X658682Y1145092D01*
X660673Y1143564D01*
X662991Y1142603D01*
X665480Y1142276D01*
X667968Y1142603D01*
X670287Y1143564D01*
X672278Y1145092D01*
X673806Y1147083D01*
X674766Y1149401D01*
X675094Y1151890D01*
X674766Y1154378D01*
X673806Y1156697D01*
X672278Y1158688D01*
X670287Y1160216D01*
X667968Y1161177D01*
X665480Y1161504D01*
D02*
G37*
G36*
X450088Y1147826D02*
X446172D01*
X446333Y1147015D01*
X447512Y1145250D01*
X449277Y1144071D01*
X450088Y1143910D01*
Y1147826D01*
D02*
G37*
G36*
X690880Y1161504D02*
X688391Y1161177D01*
X686073Y1160216D01*
X684082Y1158688D01*
X682554Y1156697D01*
X681593Y1154378D01*
X681266Y1151890D01*
X681593Y1149401D01*
X682554Y1147083D01*
X684082Y1145092D01*
X686073Y1143564D01*
X688391Y1142603D01*
X690880Y1142276D01*
X693368Y1142603D01*
X695687Y1143564D01*
X697678Y1145092D01*
X699206Y1147083D01*
X700166Y1149401D01*
X700494Y1151890D01*
X700166Y1154378D01*
X699206Y1156697D01*
X697678Y1158688D01*
X695687Y1160216D01*
X693368Y1161177D01*
X690880Y1161504D01*
D02*
G37*
G36*
X504000Y1123726D02*
X502117Y1123352D01*
X500521Y1122285D01*
X499454Y1120689D01*
X499079Y1118806D01*
X499454Y1116923D01*
X500521Y1115327D01*
X502117Y1114260D01*
X504000Y1113885D01*
X505412Y1114166D01*
X506201Y1113062D01*
X505740Y1112371D01*
X505365Y1110488D01*
X505740Y1108605D01*
X506806Y1107009D01*
X508403Y1105942D01*
X510286Y1105567D01*
X512169Y1105942D01*
X513765Y1107009D01*
X514832Y1108605D01*
X515206Y1110488D01*
X514832Y1112371D01*
X513765Y1113967D01*
X512169Y1115034D01*
X510286Y1115408D01*
X508874Y1115127D01*
X508084Y1116232D01*
X508546Y1116923D01*
X508920Y1118806D01*
X508546Y1120689D01*
X507479Y1122285D01*
X505883Y1123352D01*
X504000Y1123726D01*
D02*
G37*
G36*
X334772Y1116943D02*
X331589Y1116524D01*
X328623Y1115296D01*
X326076Y1113341D01*
X324122Y1110795D01*
X322894Y1107829D01*
X322475Y1104646D01*
X322894Y1101463D01*
X324122Y1098497D01*
X326076Y1095950D01*
X328623Y1093996D01*
X331589Y1092768D01*
X334772Y1092349D01*
X337955Y1092768D01*
X340737Y1093920D01*
X376109Y1058547D01*
Y1027176D01*
X376366Y1025888D01*
X377095Y1024795D01*
X416495Y985395D01*
Y909574D01*
X416752Y908286D01*
X417481Y907193D01*
X516614Y808061D01*
X516160Y807452D01*
X516026Y807273D01*
X515999Y807237D01*
X515919Y807129D01*
X515901Y807105D01*
X515847Y807032D01*
X515617D01*
X514839Y807032D01*
X514776D01*
X514776D01*
X493968D01*
Y790968D01*
X516032D01*
Y805776D01*
Y805776D01*
X516032Y805839D01*
X516032Y806617D01*
Y806847D01*
X516105Y806901D01*
X516129Y806919D01*
X516237Y806999D01*
X516273Y807026D01*
X516452Y807160D01*
X517061Y807614D01*
X548133Y776541D01*
Y735629D01*
X545432Y734510D01*
X542919Y732581D01*
X540990Y730068D01*
X539777Y727141D01*
X538532Y727330D01*
Y736032D01*
X514468D01*
Y711968D01*
X538532D01*
Y720670D01*
X539777Y720859D01*
X540990Y717932D01*
X542919Y715418D01*
X545432Y713490D01*
X548133Y712371D01*
Y565629D01*
X545432Y564510D01*
X542919Y562581D01*
X540990Y560068D01*
X539777Y557141D01*
X538532Y557330D01*
Y566032D01*
X514468D01*
Y541968D01*
X538532D01*
Y550670D01*
X539777Y550859D01*
X540990Y547932D01*
X542919Y545419D01*
X545432Y543490D01*
X548133Y542371D01*
Y534350D01*
X548390Y533061D01*
X549119Y531969D01*
X557823Y523266D01*
X557405Y521888D01*
X556409Y521690D01*
X554813Y520623D01*
X553746Y519027D01*
X553371Y517144D01*
X553746Y515261D01*
X554813Y513665D01*
X556409Y512598D01*
X558292Y512223D01*
X560175Y512598D01*
X561771Y513665D01*
X562838Y515261D01*
X563036Y516256D01*
X564414Y516675D01*
X605846Y475243D01*
X605220Y474072D01*
X604012Y474312D01*
X602129Y473938D01*
X600532Y472871D01*
X599466Y471275D01*
X599091Y469392D01*
X599466Y467509D01*
X600532Y465913D01*
X601164Y465490D01*
Y463963D01*
X600674Y463635D01*
X599495Y461871D01*
X599334Y461060D01*
X609706D01*
X609544Y461871D01*
X608366Y463635D01*
X607367Y464302D01*
X607367Y465830D01*
X607491Y465913D01*
X608558Y467509D01*
X608932Y469392D01*
X608692Y470600D01*
X609863Y471226D01*
X630992Y450097D01*
X630366Y448926D01*
X629158Y449166D01*
X627275Y448792D01*
X625678Y447725D01*
X624612Y446129D01*
X624237Y444246D01*
X624612Y442363D01*
X625678Y440766D01*
X627275Y439700D01*
X629158Y439325D01*
X631041Y439700D01*
X632637Y440766D01*
X633704Y442363D01*
X634078Y444246D01*
X633780Y445745D01*
X634812Y446583D01*
X634981Y446469D01*
X636270Y446213D01*
X639319D01*
X639394Y446101D01*
X640991Y445034D01*
X642874Y444659D01*
X644757Y445034D01*
X646353Y446101D01*
X647420Y447697D01*
X647794Y449580D01*
X647420Y451463D01*
X646353Y453059D01*
X644757Y454126D01*
X642874Y454500D01*
X640991Y454126D01*
X639394Y453059D01*
X639319Y452947D01*
X637664D01*
X554867Y535744D01*
Y542371D01*
X557568Y543490D01*
X560081Y545419D01*
X562010Y547932D01*
X563222Y550859D01*
X563359Y551901D01*
X564640D01*
X564777Y550859D01*
X565990Y547932D01*
X567919Y545419D01*
X570432Y543490D01*
X573359Y542278D01*
X576500Y541864D01*
X579641Y542278D01*
X582568Y543490D01*
X585081Y545419D01*
X587010Y547932D01*
X588222Y550859D01*
X588636Y554000D01*
X588222Y557141D01*
X587010Y560068D01*
X585081Y562581D01*
X582568Y564510D01*
X579641Y565722D01*
X576500Y566136D01*
X573359Y565722D01*
X570432Y564510D01*
X567919Y562581D01*
X565990Y560068D01*
X564777Y557141D01*
X564640Y556099D01*
X563359D01*
X563222Y557141D01*
X562010Y560068D01*
X560081Y562581D01*
X557568Y564510D01*
X554867Y565629D01*
Y712371D01*
X557568Y713490D01*
X560081Y715418D01*
X562010Y717932D01*
X563222Y720859D01*
X563359Y721901D01*
X564640D01*
X564777Y720859D01*
X565990Y717932D01*
X567919Y715418D01*
X570432Y713490D01*
X573359Y712278D01*
X576500Y711864D01*
X579641Y712278D01*
X582568Y713490D01*
X585081Y715418D01*
X587010Y717932D01*
X588222Y720859D01*
X588636Y724000D01*
X588222Y727141D01*
X587010Y730068D01*
X585081Y732581D01*
X582568Y734510D01*
X579641Y735722D01*
X576500Y736136D01*
X573359Y735722D01*
X570432Y734510D01*
X567919Y732581D01*
X565990Y730068D01*
X564777Y727141D01*
X564640Y726099D01*
X563359D01*
X563222Y727141D01*
X562010Y730068D01*
X560081Y732581D01*
X557568Y734510D01*
X554867Y735629D01*
Y777936D01*
X554610Y779224D01*
X553881Y780316D01*
X423229Y910968D01*
Y977693D01*
X431425D01*
X431856Y976423D01*
X430216Y975165D01*
X428262Y972618D01*
X427034Y969653D01*
X426615Y966470D01*
X427034Y963287D01*
X428262Y960321D01*
X430216Y957774D01*
X432763Y955820D01*
X435729Y954592D01*
X438912Y954173D01*
X442095Y954592D01*
X445061Y955820D01*
X447607Y957774D01*
X449562Y960321D01*
X450790Y963287D01*
X451209Y966470D01*
X450790Y969653D01*
X449562Y972618D01*
X447607Y975165D01*
X445968Y976423D01*
X446399Y977693D01*
X505318D01*
X506606Y977950D01*
X507699Y978679D01*
X509899Y980880D01*
X510032Y980853D01*
X511915Y981228D01*
X513511Y982294D01*
X514578Y983891D01*
X514952Y985774D01*
X514578Y987657D01*
X513511Y989253D01*
X511915Y990320D01*
X510032Y990694D01*
X508149Y990320D01*
X506553Y989253D01*
X505486Y987657D01*
X505111Y985774D01*
X505138Y985641D01*
X503923Y984427D01*
X423229D01*
Y986790D01*
X422972Y988078D01*
X422243Y989171D01*
X382843Y1028570D01*
Y1090551D01*
X387728Y1095437D01*
X447803D01*
X447878Y1095324D01*
X449475Y1094258D01*
X449994Y1092860D01*
X449454Y1092051D01*
X449079Y1090168D01*
X449454Y1088285D01*
X450521Y1086689D01*
X451203Y1086233D01*
Y1084705D01*
X450521Y1084249D01*
X449454Y1082653D01*
X449079Y1080770D01*
X449454Y1078887D01*
X450521Y1077290D01*
X452117Y1076224D01*
X454000Y1075849D01*
X455883Y1076224D01*
X457479Y1077290D01*
X458546Y1078887D01*
X458920Y1080770D01*
X458546Y1082653D01*
X457479Y1084249D01*
X456797Y1084705D01*
Y1086233D01*
X457479Y1086689D01*
X458546Y1088285D01*
X458920Y1090168D01*
X458546Y1092051D01*
X457479Y1093647D01*
X455883Y1094714D01*
X455363Y1096112D01*
X455904Y1096921D01*
X456278Y1098804D01*
X455904Y1100687D01*
X454837Y1102283D01*
X453936Y1102885D01*
X453997Y1104372D01*
X455167Y1105154D01*
X456346Y1106919D01*
X456508Y1107730D01*
X446136D01*
X446297Y1106919D01*
X447476Y1105154D01*
X448683Y1104348D01*
X448760Y1102927D01*
X448299Y1102564D01*
X447878Y1102283D01*
X447808Y1102178D01*
X447799Y1102171D01*
X386334D01*
X385046Y1101914D01*
X383953Y1101184D01*
X377095Y1094326D01*
X376366Y1093234D01*
X376109Y1091946D01*
Y1069729D01*
X374936Y1069243D01*
X345498Y1098681D01*
X346650Y1101463D01*
X347069Y1104646D01*
X346650Y1107829D01*
X345422Y1110795D01*
X343467Y1113341D01*
X340920Y1115296D01*
X337955Y1116524D01*
X334772Y1116943D01*
D02*
G37*
G36*
X647700Y1080610D02*
X645817Y1080236D01*
X644221Y1079169D01*
X643154Y1077573D01*
X642779Y1075690D01*
X643154Y1073807D01*
X644221Y1072210D01*
X645817Y1071144D01*
X647700Y1070769D01*
X649583Y1071144D01*
X651179Y1072210D01*
X652246Y1073807D01*
X652620Y1075690D01*
X652246Y1077573D01*
X651179Y1079169D01*
X649583Y1080236D01*
X647700Y1080610D01*
D02*
G37*
G36*
X465760Y1085690D02*
X463877Y1085316D01*
X462281Y1084249D01*
X461214Y1082653D01*
X460839Y1080770D01*
X461214Y1078887D01*
X462281Y1077290D01*
X463877Y1076224D01*
X465760Y1075849D01*
X467643Y1076224D01*
X469239Y1077290D01*
X470306Y1078887D01*
X470680Y1080770D01*
X470306Y1082653D01*
X469239Y1084249D01*
X467643Y1085316D01*
X465760Y1085690D01*
D02*
G37*
G36*
X290322Y1086706D02*
X288439Y1086332D01*
X286842Y1085265D01*
X285776Y1083669D01*
X285401Y1081786D01*
X285776Y1079903D01*
X286842Y1078307D01*
X288439Y1077240D01*
X290322Y1076865D01*
X292205Y1077240D01*
X293801Y1078307D01*
X294868Y1079903D01*
X295242Y1081786D01*
X294868Y1083669D01*
X293801Y1085265D01*
X292205Y1086332D01*
X290322Y1086706D01*
D02*
G37*
G36*
X477520Y1085690D02*
X475637Y1085316D01*
X474040Y1084249D01*
X472974Y1082653D01*
X472599Y1080770D01*
X472974Y1078887D01*
X474040Y1077290D01*
X475637Y1076224D01*
X477520Y1075849D01*
X479403Y1076224D01*
X480999Y1077290D01*
X482066Y1078887D01*
X482440Y1080770D01*
X482066Y1082653D01*
X480999Y1084249D01*
X479403Y1085316D01*
X477520Y1085690D01*
D02*
G37*
G36*
X665480Y1085304D02*
X662991Y1084977D01*
X660673Y1084016D01*
X658682Y1082488D01*
X657154Y1080497D01*
X656193Y1078178D01*
X655866Y1075690D01*
X656193Y1073202D01*
X657154Y1070883D01*
X658682Y1068892D01*
X660673Y1067364D01*
X662991Y1066403D01*
X665480Y1066076D01*
X667968Y1066403D01*
X670287Y1067364D01*
X672278Y1068892D01*
X673806Y1070883D01*
X674766Y1073202D01*
X675094Y1075690D01*
X674766Y1078178D01*
X673806Y1080497D01*
X672278Y1082488D01*
X670287Y1084016D01*
X667968Y1084977D01*
X665480Y1085304D01*
D02*
G37*
G36*
X601472Y1074910D02*
X599589Y1074536D01*
X597993Y1073469D01*
X596926Y1071873D01*
X596551Y1069990D01*
X596926Y1068107D01*
X597993Y1066510D01*
X599589Y1065444D01*
X601472Y1065069D01*
X603355Y1065444D01*
X604951Y1066510D01*
X606018Y1068107D01*
X606392Y1069990D01*
X606018Y1071873D01*
X604951Y1073469D01*
X603355Y1074536D01*
X601472Y1074910D01*
D02*
G37*
G36*
X690880Y1085304D02*
X688391Y1084977D01*
X686073Y1084016D01*
X684082Y1082488D01*
X682554Y1080497D01*
X681593Y1078178D01*
X681266Y1075690D01*
X681593Y1073202D01*
X682554Y1070883D01*
X684082Y1068892D01*
X686073Y1067364D01*
X688391Y1066403D01*
X690880Y1066076D01*
X693368Y1066403D01*
X695687Y1067364D01*
X697678Y1068892D01*
X699206Y1070883D01*
X700166Y1073202D01*
X700494Y1075690D01*
X700166Y1078178D01*
X699206Y1080497D01*
X697678Y1082488D01*
X695687Y1084016D01*
X693368Y1084977D01*
X690880Y1085304D01*
D02*
G37*
G36*
X415544Y1086706D02*
X413661Y1086332D01*
X412065Y1085265D01*
X410998Y1083669D01*
X410623Y1081786D01*
X410998Y1079903D01*
X412065Y1078307D01*
X412621Y1077935D01*
Y1076407D01*
X412573Y1076375D01*
X411506Y1074779D01*
X411131Y1072896D01*
X411506Y1071013D01*
X412573Y1069417D01*
X414169Y1068350D01*
X416052Y1067975D01*
X417935Y1068350D01*
X419531Y1069417D01*
X420598Y1071013D01*
X420972Y1072896D01*
X420598Y1074779D01*
X419531Y1076375D01*
X418975Y1076747D01*
Y1078274D01*
X419023Y1078307D01*
X420090Y1079903D01*
X420464Y1081786D01*
X420090Y1083669D01*
X419023Y1085265D01*
X417427Y1086332D01*
X415544Y1086706D01*
D02*
G37*
G36*
X313436Y1077816D02*
X311553Y1077442D01*
X309956Y1076375D01*
X308890Y1074779D01*
X308515Y1072896D01*
X308890Y1071013D01*
X309956Y1069417D01*
X311553Y1068350D01*
X313436Y1067975D01*
X315319Y1068350D01*
X316915Y1069417D01*
X317982Y1071013D01*
X318356Y1072896D01*
X317982Y1074779D01*
X316915Y1076375D01*
X315319Y1077442D01*
X313436Y1077816D01*
D02*
G37*
G36*
X633222Y1088992D02*
X631339Y1088618D01*
X629743Y1087551D01*
X628676Y1085955D01*
X628301Y1084072D01*
X628676Y1082189D01*
X629743Y1080592D01*
X631339Y1079526D01*
X633222Y1079151D01*
X635105Y1079526D01*
X636701Y1080592D01*
X637768Y1082189D01*
X638142Y1084072D01*
X637768Y1085955D01*
X636701Y1087551D01*
X635105Y1088618D01*
X633222Y1088992D01*
D02*
G37*
G36*
X665480Y1110704D02*
X662991Y1110377D01*
X660673Y1109416D01*
X658682Y1107888D01*
X657154Y1105897D01*
X656193Y1103578D01*
X655866Y1101090D01*
X656193Y1098602D01*
X657154Y1096283D01*
X658682Y1094292D01*
X660673Y1092764D01*
X662991Y1091803D01*
X665480Y1091476D01*
X667968Y1091803D01*
X670287Y1092764D01*
X672278Y1094292D01*
X673806Y1096283D01*
X674766Y1098602D01*
X675094Y1101090D01*
X674766Y1103578D01*
X673806Y1105897D01*
X672278Y1107888D01*
X670287Y1109416D01*
X667968Y1110377D01*
X665480Y1110704D01*
D02*
G37*
G36*
X495046Y1100676D02*
X493163Y1100302D01*
X491567Y1099235D01*
X490500Y1097639D01*
X490125Y1095756D01*
X490500Y1093873D01*
X491567Y1092277D01*
X493163Y1091210D01*
X495046Y1090835D01*
X496929Y1091210D01*
X498525Y1092277D01*
X499592Y1093873D01*
X499966Y1095756D01*
X499592Y1097639D01*
X498525Y1099235D01*
X496929Y1100302D01*
X495046Y1100676D01*
D02*
G37*
G36*
X690880Y1110704D02*
X688391Y1110377D01*
X686073Y1109416D01*
X684082Y1107888D01*
X682554Y1105897D01*
X681593Y1103578D01*
X681266Y1101090D01*
X681593Y1098602D01*
X682554Y1096283D01*
X684082Y1094292D01*
X686073Y1092764D01*
X688391Y1091803D01*
X690880Y1091476D01*
X693368Y1091803D01*
X695687Y1092764D01*
X697678Y1094292D01*
X699206Y1096283D01*
X700166Y1098602D01*
X700494Y1101090D01*
X700166Y1103578D01*
X699206Y1105897D01*
X697678Y1107888D01*
X695687Y1109416D01*
X693368Y1110377D01*
X690880Y1110704D01*
D02*
G37*
G36*
X517398Y1106010D02*
X515515Y1105636D01*
X513918Y1104569D01*
X512852Y1102973D01*
X512477Y1101090D01*
X512852Y1099207D01*
X513918Y1097610D01*
X515515Y1096544D01*
X517398Y1096169D01*
X519281Y1096544D01*
X520877Y1097610D01*
X521944Y1099207D01*
X522318Y1101090D01*
X521944Y1102973D01*
X520877Y1104569D01*
X519281Y1105636D01*
X517398Y1106010D01*
D02*
G37*
G36*
X812800Y1120753D02*
X809617Y1120334D01*
X806651Y1119106D01*
X804104Y1117151D01*
X802150Y1114604D01*
X800922Y1111639D01*
X800503Y1108456D01*
X800922Y1105273D01*
X802150Y1102307D01*
X804104Y1099760D01*
X806651Y1097806D01*
X809617Y1096578D01*
X812800Y1096159D01*
X815983Y1096578D01*
X818949Y1097806D01*
X821495Y1099760D01*
X823450Y1102307D01*
X824678Y1105273D01*
X825097Y1108456D01*
X824678Y1111639D01*
X823450Y1114604D01*
X821495Y1117151D01*
X818949Y1119106D01*
X815983Y1120334D01*
X812800Y1120753D01*
D02*
G37*
G36*
X487680Y1091278D02*
X485797Y1090904D01*
X484201Y1089837D01*
X483134Y1088241D01*
X482759Y1086358D01*
X483134Y1084475D01*
X484201Y1082878D01*
X485797Y1081812D01*
X487680Y1081437D01*
X489563Y1081812D01*
X491159Y1082878D01*
X492226Y1084475D01*
X492600Y1086358D01*
X492226Y1088241D01*
X491159Y1089837D01*
X489563Y1090904D01*
X487680Y1091278D01*
D02*
G37*
G36*
X545846Y1091024D02*
X543963Y1090650D01*
X542366Y1089583D01*
X541300Y1087987D01*
X540925Y1086104D01*
X541300Y1084221D01*
X542366Y1082625D01*
X543963Y1081558D01*
X545846Y1081183D01*
X547729Y1081558D01*
X549325Y1082625D01*
X550392Y1084221D01*
X550766Y1086104D01*
X550392Y1087987D01*
X549325Y1089583D01*
X547729Y1090650D01*
X545846Y1091024D01*
D02*
G37*
G36*
X406146Y1093564D02*
X404263Y1093190D01*
X402667Y1092123D01*
X401600Y1090527D01*
X401225Y1088644D01*
X401600Y1086761D01*
X402667Y1085164D01*
X404263Y1084098D01*
X406146Y1083723D01*
X408029Y1084098D01*
X409625Y1085164D01*
X410692Y1086761D01*
X411066Y1088644D01*
X410692Y1090527D01*
X409625Y1092123D01*
X408029Y1093190D01*
X406146Y1093564D01*
D02*
G37*
G36*
X610870Y1111090D02*
X608987Y1110716D01*
X607391Y1109649D01*
X606324Y1108053D01*
X605949Y1106170D01*
X606324Y1104287D01*
X607391Y1102691D01*
X608987Y1101624D01*
X610870Y1101249D01*
X612365Y1101547D01*
X613093Y1101271D01*
X613648Y1100695D01*
X613944Y1099207D01*
X615010Y1097610D01*
X616607Y1096544D01*
X618490Y1096169D01*
X620373Y1096544D01*
X620563Y1096671D01*
X621365Y1096039D01*
X621548Y1095801D01*
X621189Y1094000D01*
X621564Y1092117D01*
X622631Y1090521D01*
X624227Y1089454D01*
X626110Y1089079D01*
X627993Y1089454D01*
X629589Y1090521D01*
X630656Y1092117D01*
X631030Y1094000D01*
X630656Y1095883D01*
X629589Y1097479D01*
X627993Y1098546D01*
X626110Y1098920D01*
X624227Y1098546D01*
X624037Y1098419D01*
X623234Y1099051D01*
X623052Y1099288D01*
X623410Y1101090D01*
X623036Y1102973D01*
X621969Y1104569D01*
X620373Y1105636D01*
X618490Y1106010D01*
X616994Y1105713D01*
X616267Y1105989D01*
X615712Y1106565D01*
X615416Y1108053D01*
X614349Y1109649D01*
X612753Y1110716D01*
X610870Y1111090D01*
D02*
G37*
G36*
X300736Y1093818D02*
X298853Y1093444D01*
X297257Y1092377D01*
X296190Y1090781D01*
X295815Y1088898D01*
X296190Y1087015D01*
X297257Y1085418D01*
X298853Y1084352D01*
X300736Y1083977D01*
X302619Y1084352D01*
X304215Y1085418D01*
X305282Y1087015D01*
X305656Y1088898D01*
X305282Y1090781D01*
X304215Y1092377D01*
X302619Y1093444D01*
X300736Y1093818D01*
D02*
G37*
%LPD*%
D33*
X505318Y981060D02*
X510032Y985774D01*
X807156Y1160780D02*
X814070D01*
X807156D02*
X826770Y1180393D01*
Y1221740D01*
X800100Y1248410D02*
X826770Y1221740D01*
X551500Y554000D02*
Y724000D01*
X386334Y1098804D02*
X451358D01*
X379476Y1091946D02*
X386334Y1098804D01*
X334772Y1104646D02*
X379222Y1060196D01*
X419862Y909574D02*
X551500Y777936D01*
Y724000D02*
Y777936D01*
X379476Y1027176D02*
Y1091946D01*
Y1027176D02*
X419862Y986790D01*
Y909574D02*
Y986790D01*
X419974Y981060D02*
X505318D01*
X551500Y534350D02*
Y554000D01*
Y534350D02*
X636270Y449580D01*
X642874D01*
D34*
X579628Y328930D02*
X579770D01*
X614060Y363220D01*
X801370Y447040D02*
Y481370D01*
X641604Y602234D02*
X760984Y482854D01*
Y373888D02*
Y482854D01*
Y373888D02*
X783590Y351282D01*
X518668Y377190D02*
Y456438D01*
Y376936D02*
Y377190D01*
X662940Y384810D02*
Y535940D01*
X641350Y363220D02*
X662940Y384810D01*
X614060Y363220D02*
X641350D01*
X709930Y1272540D02*
X715264D01*
X690880Y1253490D02*
X709930Y1272540D01*
X665480Y1253490D02*
X690880D01*
X408926Y747000D02*
X433084D01*
X783590Y351282D02*
X826770D01*
X641604Y602234D02*
Y623570D01*
X377952Y716026D02*
X408926Y747000D01*
X377952Y580390D02*
Y716026D01*
Y513334D02*
Y580390D01*
D44*
X551500Y724000D02*
D03*
Y554000D02*
D03*
D45*
X660654Y536194D02*
D03*
X297942Y422148D02*
D03*
X334772Y1104646D02*
D03*
X801500Y481500D02*
D03*
X812800Y1160272D02*
D03*
D50*
X800100Y1248410D02*
D03*
X607060Y1289050D02*
D03*
X690880Y1253490D02*
D03*
D51*
X665480D02*
D03*
D54*
X453390Y1044448D02*
D03*
X579628Y328930D02*
D03*
X604520Y459790D02*
D03*
X510032Y985774D02*
D03*
X330454Y977646D02*
D03*
X342900Y977646D02*
D03*
X576580Y1045718D02*
D03*
X451358Y1098804D02*
D03*
X450088Y1173988D02*
D03*
X451322Y1109000D02*
D03*
X451358Y1149096D02*
D03*
X715264Y1272540D02*
D03*
X565150Y1196594D02*
D03*
X322580Y1246378D02*
D03*
X439024Y1207120D02*
D03*
X592216Y1010300D02*
D03*
X784000Y981612D02*
D03*
X644906Y893064D02*
D03*
X618490Y859790D02*
D03*
X486664Y1009650D02*
D03*
X642874Y449580D02*
D03*
X754750Y1290828D02*
D03*
D55*
X801370Y447040D02*
D03*
X518668Y377190D02*
D03*
X516636Y470662D02*
D03*
X532638D02*
D03*
X548640Y454152D02*
D03*
X532638D02*
D03*
X516636D02*
D03*
X548640Y470662D02*
D03*
X642556Y491490D02*
D03*
X377952Y513334D02*
D03*
X433084Y747000D02*
D03*
X826164Y351518D02*
D03*
X703834Y606410D02*
D03*
X641604Y623570D02*
D03*
X377952Y580390D02*
D03*
X330200Y513842D02*
D03*
Y486156D02*
D03*
Y499999D02*
D03*
X313436D02*
D03*
Y486156D02*
D03*
Y513842D02*
D03*
M02*
