G04*
G04 #@! TF.GenerationSoftware,Altium Limited,CircuitStudio,1.5.1 (13)*
G04*
G04 Layer_Color=7318015*
%FSLAX44Y44*%
%MOMM*%
G71*
G01*
G75*
%ADD10R,1.0000X1.0000*%
%ADD11R,0.8000X0.8000*%
%ADD12R,0.6000X1.1000*%
%ADD13O,0.6000X1.1000*%
%ADD14R,2.4000X3.1000*%
%ADD15R,2.1500X0.4500*%
%ADD16O,2.1500X0.4500*%
%ADD17R,1.1000X1.0000*%
%ADD18R,1.0000X1.1000*%
%ADD19R,1.8500X3.5500*%
%ADD20R,3.5500X1.8500*%
%ADD21R,1.0500X1.3000*%
%ADD22R,1.3000X1.0500*%
%ADD23R,1.1500X1.7500*%
%ADD24O,0.6000X2.2000*%
%ADD25R,1.3000X1.1000*%
%ADD26O,0.3000X1.8000*%
%ADD27O,1.8000X0.3000*%
%ADD28R,2.7000X4.8999*%
%ADD29R,1.7500X1.1500*%
%ADD30O,0.3000X1.7000*%
%ADD31R,1.5500X0.4500*%
%ADD32R,0.8000X0.9000*%
%ADD33R,1.9000X1.9000*%
%ADD34R,1.4000X1.6000*%
%ADD35R,1.3500X0.4000*%
%ADD36R,1.1999X0.5999*%
%ADD37R,0.9500X0.9000*%
%ADD38R,0.4318X1.4224*%
D10*
X821001Y617750D02*
D03*
Y542750D02*
D03*
D11*
X802000Y602750D02*
D03*
Y580250D02*
D03*
Y557750D02*
D03*
D12*
X752856Y479044D02*
D03*
D13*
X762356D02*
D03*
X771856D02*
D03*
X752856Y505044D02*
D03*
X771856D02*
D03*
D14*
X453710Y506140D02*
D03*
D15*
X424960Y525190D02*
D03*
D16*
Y512490D02*
D03*
Y499790D02*
D03*
Y487090D02*
D03*
X482460Y525190D02*
D03*
Y512490D02*
D03*
Y499790D02*
D03*
Y487090D02*
D03*
D17*
X674506Y502920D02*
D03*
X691506D02*
D03*
X443856Y1121410D02*
D03*
X426856D02*
D03*
X614036Y1011682D02*
D03*
X597036D02*
D03*
X646040Y276098D02*
D03*
X629040D02*
D03*
X689728Y402844D02*
D03*
X672728D02*
D03*
X689728Y293624D02*
D03*
X672728D02*
D03*
X689982Y276352D02*
D03*
X672982D02*
D03*
X629040Y292608D02*
D03*
X646040D02*
D03*
X707508Y386588D02*
D03*
X690508D02*
D03*
X627498Y334772D02*
D03*
X610498D02*
D03*
X655710Y386588D02*
D03*
X672710D02*
D03*
X497450Y1076452D02*
D03*
X480450D02*
D03*
X725306Y1127252D02*
D03*
X742306D02*
D03*
X485276Y469900D02*
D03*
X502276D02*
D03*
X503310Y485902D02*
D03*
X520310D02*
D03*
X503310Y501650D02*
D03*
X520310D02*
D03*
X313554Y455168D02*
D03*
X296554D02*
D03*
X402200Y527812D02*
D03*
X385200D02*
D03*
X675504Y1090168D02*
D03*
X658504D02*
D03*
X466734Y1243838D02*
D03*
X483734D02*
D03*
X626482Y1219454D02*
D03*
X609482D02*
D03*
X462416Y1092708D02*
D03*
X479416D02*
D03*
X426348Y1153414D02*
D03*
X443348D02*
D03*
X426602Y1137412D02*
D03*
X443602D02*
D03*
X706528Y1255760D02*
D03*
X723528D02*
D03*
X669172Y586486D02*
D03*
X686172D02*
D03*
X720462D02*
D03*
X703462D02*
D03*
X763406Y1077976D02*
D03*
X780406D02*
D03*
X675504Y1068832D02*
D03*
X658504D02*
D03*
X675504Y1106424D02*
D03*
X658504D02*
D03*
X311794Y1097534D02*
D03*
X328794D02*
D03*
X316602Y1043178D02*
D03*
X299602D02*
D03*
X299602Y1027430D02*
D03*
X316602D02*
D03*
X316602Y1011682D02*
D03*
X299602D02*
D03*
X672238Y1240012D02*
D03*
X689238D02*
D03*
X723528Y1271762D02*
D03*
X706528D02*
D03*
X706528Y1240012D02*
D03*
X723528D02*
D03*
X769992Y1220470D02*
D03*
X752992D02*
D03*
X679586Y1198372D02*
D03*
X696586D02*
D03*
X679586Y1182624D02*
D03*
X696586D02*
D03*
D18*
X662432Y538090D02*
D03*
Y521090D02*
D03*
X701802Y310778D02*
D03*
Y327778D02*
D03*
X628904Y369180D02*
D03*
Y352180D02*
D03*
X612902Y966198D02*
D03*
Y949198D02*
D03*
X701548Y1041772D02*
D03*
Y1024772D02*
D03*
X663956Y443874D02*
D03*
Y460874D02*
D03*
X647954Y443874D02*
D03*
Y460874D02*
D03*
X737362Y488070D02*
D03*
Y505070D02*
D03*
X717296Y1041772D02*
D03*
Y1024772D02*
D03*
X707136Y1065920D02*
D03*
Y1082920D02*
D03*
X708152Y1106306D02*
D03*
Y1123306D02*
D03*
X402336Y1168790D02*
D03*
Y1185790D02*
D03*
X733298Y1024772D02*
D03*
Y1041772D02*
D03*
X482600Y536330D02*
D03*
Y553330D02*
D03*
X586740Y1071254D02*
D03*
Y1088254D02*
D03*
X449580Y1235574D02*
D03*
Y1218574D02*
D03*
X528066Y935618D02*
D03*
Y952618D02*
D03*
X762508Y1111640D02*
D03*
Y1128640D02*
D03*
X779272Y1111640D02*
D03*
Y1128640D02*
D03*
X396240Y945074D02*
D03*
Y962074D02*
D03*
X703580Y945270D02*
D03*
Y962270D02*
D03*
X807974Y945270D02*
D03*
Y962270D02*
D03*
X290068Y945074D02*
D03*
Y962074D02*
D03*
X636016Y783726D02*
D03*
Y800726D02*
D03*
X635254Y627770D02*
D03*
Y644770D02*
D03*
X343916Y1078856D02*
D03*
Y1061856D02*
D03*
X359918Y1078856D02*
D03*
Y1061856D02*
D03*
X282956Y1029072D02*
D03*
Y1012072D02*
D03*
X282448Y1096382D02*
D03*
Y1079382D02*
D03*
X281940Y1162168D02*
D03*
Y1145168D02*
D03*
X343154Y1153532D02*
D03*
Y1136532D02*
D03*
X359156Y1153532D02*
D03*
Y1136532D02*
D03*
X617982Y434594D02*
D03*
Y451594D02*
D03*
X588772Y434594D02*
D03*
Y451594D02*
D03*
X690000Y1272250D02*
D03*
Y1289250D02*
D03*
D19*
X458724Y1005928D02*
D03*
Y953428D02*
D03*
D20*
X585812Y554736D02*
D03*
X533312D02*
D03*
D21*
X696820Y1164336D02*
D03*
X677320D02*
D03*
X629002Y1201674D02*
D03*
X609502D02*
D03*
X317852Y572262D02*
D03*
X298352D02*
D03*
X317852Y551688D02*
D03*
X298352D02*
D03*
X706500Y1290000D02*
D03*
X726000D02*
D03*
D22*
X568960Y1068988D02*
D03*
Y1088488D02*
D03*
X788416Y482756D02*
D03*
Y502256D02*
D03*
X504190Y518570D02*
D03*
Y538070D02*
D03*
X376870Y962084D02*
D03*
Y942584D02*
D03*
X309510Y962084D02*
D03*
Y942584D02*
D03*
X766963Y942838D02*
D03*
Y962338D02*
D03*
X354417Y942584D02*
D03*
Y962084D02*
D03*
X331963D02*
D03*
Y942584D02*
D03*
X722869Y942838D02*
D03*
Y962338D02*
D03*
X744916Y942838D02*
D03*
Y962338D02*
D03*
X788416Y942838D02*
D03*
Y962338D02*
D03*
X764540Y600046D02*
D03*
Y580546D02*
D03*
D23*
X597390Y314706D02*
D03*
X626890D02*
D03*
D24*
X646176Y315852D02*
D03*
X658876D02*
D03*
X671576D02*
D03*
X684276D02*
D03*
X646176Y363852D02*
D03*
X658876D02*
D03*
X671576D02*
D03*
X684276D02*
D03*
D25*
X444340Y1185794D02*
D03*
Y1169294D02*
D03*
X423340Y1185794D02*
D03*
Y1169294D02*
D03*
D26*
X491582Y1224154D02*
D03*
X496582D02*
D03*
X501582D02*
D03*
X506582D02*
D03*
X511582D02*
D03*
X516582D02*
D03*
X521582D02*
D03*
X526582D02*
D03*
X531582D02*
D03*
X536582D02*
D03*
X541582D02*
D03*
X546582D02*
D03*
X551582D02*
D03*
X556582D02*
D03*
X561582D02*
D03*
X566582D02*
D03*
Y1113154D02*
D03*
X561582D02*
D03*
X556582D02*
D03*
X551582D02*
D03*
X546582D02*
D03*
X541582D02*
D03*
X536582D02*
D03*
X531582D02*
D03*
X526582D02*
D03*
X521582D02*
D03*
X516582D02*
D03*
X511582D02*
D03*
X506582D02*
D03*
X501582D02*
D03*
X496582D02*
D03*
X491582D02*
D03*
D27*
X584582Y1206154D02*
D03*
Y1201154D02*
D03*
Y1196154D02*
D03*
Y1191154D02*
D03*
Y1186154D02*
D03*
Y1181154D02*
D03*
Y1176154D02*
D03*
Y1171154D02*
D03*
Y1166154D02*
D03*
Y1161154D02*
D03*
Y1156154D02*
D03*
Y1151154D02*
D03*
Y1146154D02*
D03*
Y1141154D02*
D03*
Y1136154D02*
D03*
Y1131154D02*
D03*
X473582D02*
D03*
Y1136154D02*
D03*
Y1141154D02*
D03*
Y1146154D02*
D03*
Y1151154D02*
D03*
Y1156154D02*
D03*
Y1161154D02*
D03*
Y1166154D02*
D03*
Y1171154D02*
D03*
Y1176154D02*
D03*
Y1181154D02*
D03*
Y1186154D02*
D03*
Y1191154D02*
D03*
Y1196154D02*
D03*
Y1201154D02*
D03*
Y1206154D02*
D03*
D28*
X295516Y499872D02*
D03*
X341516D02*
D03*
D29*
X400304Y510304D02*
D03*
Y480804D02*
D03*
X396240Y581424D02*
D03*
Y551924D02*
D03*
X606806Y1058654D02*
D03*
Y1088154D02*
D03*
X579628Y979188D02*
D03*
Y949688D02*
D03*
D30*
X725330Y1065858D02*
D03*
X730330D02*
D03*
X735330D02*
D03*
X740330D02*
D03*
X745330D02*
D03*
X725330Y1106858D02*
D03*
X730330D02*
D03*
X735330D02*
D03*
X740330D02*
D03*
X745330D02*
D03*
D31*
X324432Y1060098D02*
D03*
Y1066598D02*
D03*
Y1073098D02*
D03*
Y1079598D02*
D03*
X301932Y1060098D02*
D03*
Y1066598D02*
D03*
Y1073098D02*
D03*
Y1079598D02*
D03*
X300916Y1164688D02*
D03*
Y1158188D02*
D03*
Y1151688D02*
D03*
Y1145188D02*
D03*
X323416Y1164688D02*
D03*
Y1158188D02*
D03*
Y1151688D02*
D03*
Y1145188D02*
D03*
D32*
X352806Y1171882D02*
D03*
X343306Y1194382D02*
D03*
X362306D02*
D03*
D33*
X828040Y1208340D02*
D03*
Y1184340D02*
D03*
D34*
X803540Y1228340D02*
D03*
Y1164340D02*
D03*
D35*
X801290Y1209340D02*
D03*
Y1202840D02*
D03*
Y1196340D02*
D03*
Y1189840D02*
D03*
Y1183340D02*
D03*
D36*
X744675Y1184300D02*
D03*
Y1193800D02*
D03*
Y1203299D02*
D03*
X769673D02*
D03*
Y1193800D02*
D03*
Y1184300D02*
D03*
D37*
X435102Y753618D02*
D03*
Y722118D02*
D03*
X419100Y587244D02*
D03*
Y618744D02*
D03*
D38*
X685194Y521335D02*
D03*
X691694D02*
D03*
X698194D02*
D03*
X704694D02*
D03*
Y564769D02*
D03*
X698194D02*
D03*
X691694D02*
D03*
X685194D02*
D03*
M02*
