G04*
G04 #@! TF.GenerationSoftware,Altium Limited,CircuitStudio,1.5.1 (13)*
G04*
G04 Layer_Color=2752767*
%FSLAX44Y44*%
%MOMM*%
G71*
G01*
G75*
%ADD33C,0.2540*%
%ADD66C,0.1270*%
%ADD109C,0.1693*%
%ADD110C,0.1016*%
D33*
X254000Y254000D02*
Y1319000D01*
X254254D02*
X254762D01*
X254254Y254000D02*
X254762D01*
X254000D02*
X849000D01*
Y1319000D01*
X254000D02*
X849000D01*
D66*
X281920Y838920D02*
Y849080D01*
X292080D01*
Y838920D01*
X281920D01*
X395920D02*
Y849080D01*
X406080D01*
Y838920D01*
X395920D01*
X812800Y1103376D02*
X807720Y1113536D01*
X817880D01*
X812800Y1103376D01*
Y1181100D02*
X807720Y1191260D01*
X817880D01*
X812800Y1181100D01*
X673100Y321564D02*
X668020Y331724D01*
X678180D01*
X673100Y321564D01*
X769112Y583184D02*
X764032Y593344D01*
X774192D01*
X769112Y583184D01*
X660654Y531114D02*
X655574Y541274D01*
X665734D01*
X660654Y531114D01*
X590296Y383540D02*
X585216Y393700D01*
X595376D01*
X590296Y383540D01*
X673100Y357378D02*
X668020Y367538D01*
X678180D01*
X673100Y357378D01*
X505714Y274574D02*
X500634Y284734D01*
X510794D01*
X505714Y274574D01*
X336042Y293878D02*
X330962Y304038D01*
X341122D01*
X336042Y293878D01*
X425704Y331470D02*
X420624Y341630D01*
X430784D01*
X425704Y331470D01*
X676148Y772414D02*
X671068Y782574D01*
X681228D01*
X676148Y772414D01*
X444500Y838200D02*
X439420Y848360D01*
X449580D01*
X444500Y838200D01*
X425704Y369824D02*
X420624Y379984D01*
X430784D01*
X425704Y369824D01*
X351282Y408686D02*
X346202Y418846D01*
X356362D01*
X351282Y408686D01*
X387350Y1282700D02*
X382270Y1292860D01*
X392430D01*
X387350Y1282700D01*
X388366Y1206500D02*
X383286Y1216660D01*
X393446D01*
X388366Y1206500D01*
X387350Y1231900D02*
X382270Y1242060D01*
X392430D01*
X387350Y1231900D01*
Y1257300D02*
X382270Y1267460D01*
X392430D01*
X387350Y1257300D01*
X438912Y925576D02*
X433832Y935736D01*
X443992D01*
X438912Y925576D01*
Y961390D02*
X433832Y971550D01*
X443992D01*
X438912Y961390D01*
X557276Y996950D02*
X552196Y1007110D01*
X562356D01*
X557276Y996950D01*
X559562Y956310D02*
X554482Y966470D01*
X564642D01*
X559562Y956310D01*
X297942Y417068D02*
X292862Y427228D01*
X303022D01*
X297942Y417068D01*
X813816Y1051814D02*
X808736Y1061974D01*
X818896D01*
X813816Y1051814D01*
X334772Y1099566D02*
X329692Y1109726D01*
X339852D01*
X334772Y1099566D01*
X776500Y476420D02*
X771420Y486580D01*
X781580D01*
X776500Y476420D01*
X801500D02*
X796420Y486580D01*
X806580D01*
X801500Y476420D01*
X409000Y658920D02*
X411540Y661460D01*
X414080D01*
X411540Y664000D01*
X414080Y666540D01*
X411540D01*
X409000Y669080D01*
X406460Y666540D01*
X403920D01*
X406460Y664000D01*
X403920Y661460D01*
X406460D01*
X409000Y658920D01*
Y708920D02*
X411540Y711460D01*
X414080D01*
X411540Y714000D01*
X414080Y716540D01*
X411540D01*
X409000Y719080D01*
X406460Y716540D01*
X403920D01*
X406460Y714000D01*
X403920Y711460D01*
X406460D01*
X409000Y708920D01*
X284000Y658920D02*
X286540Y661460D01*
X289080D01*
X286540Y664000D01*
X289080Y666540D01*
X286540D01*
X284000Y669080D01*
X281460Y666540D01*
X278920D01*
X281460Y664000D01*
X278920Y661460D01*
X281460D01*
X284000Y658920D01*
Y708920D02*
X286540Y711460D01*
X289080D01*
X286540Y714000D01*
X289080Y716540D01*
X286540D01*
X284000Y719080D01*
X281460Y716540D01*
X278920D01*
X281460Y714000D01*
X278920Y711460D01*
X281460D01*
X284000Y708920D01*
X592920Y793920D02*
X595460Y799000D01*
X592920Y804080D01*
X598000Y801540D01*
X603080Y804080D01*
X600540Y799000D01*
X603080Y793920D01*
X598000Y796460D01*
X592920Y793920D01*
X499920D02*
X502460Y799000D01*
X499920Y804080D01*
X505000Y801540D01*
X510080Y804080D01*
X507540Y799000D01*
X510080Y793920D01*
X505000Y796460D01*
X499920Y793920D01*
X471460Y296460D02*
Y293920D01*
X476540D01*
Y296460D01*
X479080D01*
Y301540D01*
X476540D01*
Y304080D01*
X471460D01*
Y301540D01*
X468920D01*
Y296460D01*
X471460D01*
Y381461D02*
Y378921D01*
X476540D01*
Y381461D01*
X479080D01*
Y386541D01*
X476540D01*
Y389081D01*
X471460D01*
Y386541D01*
X468920D01*
Y381461D01*
X471460D01*
Y411461D02*
Y408921D01*
X476540D01*
Y411461D01*
X479080D01*
Y416541D01*
X476540D01*
Y419081D01*
X471460D01*
Y416541D01*
X468920D01*
Y411461D01*
X471460D01*
X376460Y296460D02*
Y293920D01*
X381540D01*
Y296460D01*
X384080D01*
Y301540D01*
X381540D01*
Y304080D01*
X376460D01*
Y301540D01*
X373920D01*
Y296460D01*
X376460D01*
Y381461D02*
Y378921D01*
X381540D01*
Y381461D01*
X384080D01*
Y386541D01*
X381540D01*
Y389081D01*
X376460D01*
Y386541D01*
X373920D01*
Y381461D01*
X376460D01*
Y411461D02*
Y408921D01*
X381540D01*
Y411461D01*
X384080D01*
Y416541D01*
X381540D01*
Y419081D01*
X376460D01*
Y416541D01*
X373920D01*
Y411461D01*
X376460D01*
X721460Y296460D02*
Y293920D01*
X726540D01*
Y296460D01*
X729080D01*
Y301540D01*
X726540D01*
Y304080D01*
X721460D01*
Y301540D01*
X718920D01*
Y296460D01*
X721460D01*
Y381461D02*
Y378921D01*
X726540D01*
Y381461D01*
X729080D01*
Y386541D01*
X726540D01*
Y389081D01*
X721460D01*
Y386541D01*
X718920D01*
Y381461D01*
X721460D01*
Y411461D02*
Y408921D01*
X726540D01*
Y411461D01*
X729080D01*
Y416541D01*
X726540D01*
Y419081D01*
X721460D01*
Y416541D01*
X718920D01*
Y411461D01*
X721460D01*
X812800Y1155192D02*
X807720Y1165352D01*
X817880D01*
X812800Y1155192D01*
Y1129284D02*
X807720Y1139444D01*
X817880D01*
X812800Y1129284D01*
X696920Y838920D02*
Y849080D01*
X707080D01*
Y838920D01*
X696920D01*
X810920D02*
Y849080D01*
X821080D01*
Y838920D01*
X810920D01*
X819000Y658920D02*
X821540Y661460D01*
X824080D01*
X821540Y664000D01*
X824080Y666540D01*
X821540D01*
X819000Y669080D01*
X816460Y666540D01*
X813920D01*
X816460Y664000D01*
X813920Y661460D01*
X816460D01*
X819000Y658920D01*
Y708920D02*
X821540Y711460D01*
X824080D01*
X821540Y714000D01*
X824080Y716540D01*
X821540D01*
X819000Y719080D01*
X816460Y716540D01*
X813920D01*
X816460Y714000D01*
X813920Y711460D01*
X816460D01*
X819000Y708920D01*
X694000Y658920D02*
X696540Y661460D01*
X699080D01*
X696540Y664000D01*
X699080Y666540D01*
X696540D01*
X694000Y669080D01*
X691460Y666540D01*
X688920D01*
X691460Y664000D01*
X688920Y661460D01*
X691460D01*
X694000Y658920D01*
Y708920D02*
X696540Y711460D01*
X699080D01*
X696540Y714000D01*
X699080Y716540D01*
X696540D01*
X694000Y719080D01*
X691460Y716540D01*
X688920D01*
X691460Y714000D01*
X688920Y711460D01*
X691460D01*
X694000Y708920D01*
X795020Y1268730D02*
X797560D01*
X800100Y1271270D01*
X802640Y1268730D01*
X805180D01*
Y1271270D01*
X802640Y1273810D01*
X805180Y1276350D01*
Y1278890D01*
X802640D01*
X800100Y1276350D01*
X797560Y1278890D01*
X795020D01*
Y1276350D01*
X797560Y1273810D01*
X795020Y1271270D01*
Y1268730D01*
Y1243330D02*
X797560D01*
X800100Y1245870D01*
X802640Y1243330D01*
X805180D01*
Y1245870D01*
X802640Y1248410D01*
X805180Y1250950D01*
Y1253490D01*
X802640D01*
X800100Y1250950D01*
X797560Y1253490D01*
X795020D01*
Y1250950D01*
X797560Y1248410D01*
X795020Y1245870D01*
Y1243330D01*
Y1217930D02*
X797560D01*
X800100Y1220470D01*
X802640Y1217930D01*
X805180D01*
Y1220470D01*
X802640Y1223010D01*
X805180Y1225550D01*
Y1228090D01*
X802640D01*
X800100Y1225550D01*
X797560Y1228090D01*
X795020D01*
Y1225550D01*
X797560Y1223010D01*
X795020Y1220470D01*
Y1217930D01*
X627380Y1283970D02*
X629920D01*
X632460Y1286510D01*
X635000Y1283970D01*
X637540D01*
Y1286510D01*
X635000Y1289050D01*
X637540Y1291590D01*
Y1294130D01*
X635000D01*
X632460Y1291590D01*
X629920Y1294130D01*
X627380D01*
Y1291590D01*
X629920Y1289050D01*
X627380Y1286510D01*
Y1283970D01*
X601980D02*
X604520D01*
X607060Y1286510D01*
X609600Y1283970D01*
X612140D01*
Y1286510D01*
X609600Y1289050D01*
X612140Y1291590D01*
Y1294130D01*
X609600D01*
X607060Y1291590D01*
X604520Y1294130D01*
X601980D01*
Y1291590D01*
X604520Y1289050D01*
X601980Y1286510D01*
Y1283970D01*
X576580D02*
X579120D01*
X581660Y1286510D01*
X584200Y1283970D01*
X586740D01*
Y1286510D01*
X584200Y1289050D01*
X586740Y1291590D01*
Y1294130D01*
X584200D01*
X581660Y1291590D01*
X579120Y1294130D01*
X576580D01*
Y1291590D01*
X579120Y1289050D01*
X576580Y1286510D01*
Y1283970D01*
X551180D02*
X553720D01*
X556260Y1286510D01*
X558800Y1283970D01*
X561340D01*
Y1286510D01*
X558800Y1289050D01*
X561340Y1291590D01*
Y1294130D01*
X558800D01*
X556260Y1291590D01*
X553720Y1294130D01*
X551180D01*
Y1291590D01*
X553720Y1289050D01*
X551180Y1286510D01*
Y1283970D01*
X525780D02*
X528320D01*
X530860Y1286510D01*
X533400Y1283970D01*
X535940D01*
Y1286510D01*
X533400Y1289050D01*
X535940Y1291590D01*
Y1294130D01*
X533400D01*
X530860Y1291590D01*
X528320Y1294130D01*
X525780D01*
Y1291590D01*
X528320Y1289050D01*
X525780Y1286510D01*
Y1283970D01*
X500380D02*
X502920D01*
X505460Y1286510D01*
X508000Y1283970D01*
X510540D01*
Y1286510D01*
X508000Y1289050D01*
X510540Y1291590D01*
Y1294130D01*
X508000D01*
X505460Y1291590D01*
X502920Y1294130D01*
X500380D01*
Y1291590D01*
X502920Y1289050D01*
X500380Y1286510D01*
Y1283970D01*
X474980D02*
X477520D01*
X480060Y1286510D01*
X482600Y1283970D01*
X485140D01*
Y1286510D01*
X482600Y1289050D01*
X485140Y1291590D01*
Y1294130D01*
X482600D01*
X480060Y1291590D01*
X477520Y1294130D01*
X474980D01*
Y1291590D01*
X477520Y1289050D01*
X474980Y1286510D01*
Y1283970D01*
X449580D02*
X452120D01*
X454660Y1286510D01*
X457200Y1283970D01*
X459740D01*
Y1286510D01*
X457200Y1289050D01*
X459740Y1291590D01*
Y1294130D01*
X457200D01*
X454660Y1291590D01*
X452120Y1294130D01*
X449580D01*
Y1291590D01*
X452120Y1289050D01*
X449580Y1286510D01*
Y1283970D01*
X685800Y1019810D02*
X688340D01*
X690880Y1022350D01*
X693420Y1019810D01*
X695960D01*
Y1022350D01*
X693420Y1024890D01*
X695960Y1027430D01*
Y1029970D01*
X693420D01*
X690880Y1027430D01*
X688340Y1029970D01*
X685800D01*
Y1027430D01*
X688340Y1024890D01*
X685800Y1022350D01*
Y1019810D01*
X660400D02*
X662940D01*
X665480Y1022350D01*
X668020Y1019810D01*
X670560D01*
Y1022350D01*
X668020Y1024890D01*
X670560Y1027430D01*
Y1029970D01*
X668020D01*
X665480Y1027430D01*
X662940Y1029970D01*
X660400D01*
Y1027430D01*
X662940Y1024890D01*
X660400Y1022350D01*
Y1019810D01*
X685800Y1045210D02*
X688340D01*
X690880Y1047750D01*
X693420Y1045210D01*
X695960D01*
Y1047750D01*
X693420Y1050290D01*
X695960Y1052830D01*
Y1055370D01*
X693420D01*
X690880Y1052830D01*
X688340Y1055370D01*
X685800D01*
Y1052830D01*
X688340Y1050290D01*
X685800Y1047750D01*
Y1045210D01*
X660400D02*
X662940D01*
X665480Y1047750D01*
X668020Y1045210D01*
X670560D01*
Y1047750D01*
X668020Y1050290D01*
X670560Y1052830D01*
Y1055370D01*
X668020D01*
X665480Y1052830D01*
X662940Y1055370D01*
X660400D01*
Y1052830D01*
X662940Y1050290D01*
X660400Y1047750D01*
Y1045210D01*
X685800Y1070610D02*
X688340D01*
X690880Y1073150D01*
X693420Y1070610D01*
X695960D01*
Y1073150D01*
X693420Y1075690D01*
X695960Y1078230D01*
Y1080770D01*
X693420D01*
X690880Y1078230D01*
X688340Y1080770D01*
X685800D01*
Y1078230D01*
X688340Y1075690D01*
X685800Y1073150D01*
Y1070610D01*
X660400D02*
X662940D01*
X665480Y1073150D01*
X668020Y1070610D01*
X670560D01*
Y1073150D01*
X668020Y1075690D01*
X670560Y1078230D01*
Y1080770D01*
X668020D01*
X665480Y1078230D01*
X662940Y1080770D01*
X660400D01*
Y1078230D01*
X662940Y1075690D01*
X660400Y1073150D01*
Y1070610D01*
X685800Y1096010D02*
X688340D01*
X690880Y1098550D01*
X693420Y1096010D01*
X695960D01*
Y1098550D01*
X693420Y1101090D01*
X695960Y1103630D01*
Y1106170D01*
X693420D01*
X690880Y1103630D01*
X688340Y1106170D01*
X685800D01*
Y1103630D01*
X688340Y1101090D01*
X685800Y1098550D01*
Y1096010D01*
X660400D02*
X662940D01*
X665480Y1098550D01*
X668020Y1096010D01*
X670560D01*
Y1098550D01*
X668020Y1101090D01*
X670560Y1103630D01*
Y1106170D01*
X668020D01*
X665480Y1103630D01*
X662940Y1106170D01*
X660400D01*
Y1103630D01*
X662940Y1101090D01*
X660400Y1098550D01*
Y1096010D01*
X685800Y1121410D02*
X688340D01*
X690880Y1123950D01*
X693420Y1121410D01*
X695960D01*
Y1123950D01*
X693420Y1126490D01*
X695960Y1129030D01*
Y1131570D01*
X693420D01*
X690880Y1129030D01*
X688340Y1131570D01*
X685800D01*
Y1129030D01*
X688340Y1126490D01*
X685800Y1123950D01*
Y1121410D01*
X660400D02*
X662940D01*
X665480Y1123950D01*
X668020Y1121410D01*
X670560D01*
Y1123950D01*
X668020Y1126490D01*
X670560Y1129030D01*
Y1131570D01*
X668020D01*
X665480Y1129030D01*
X662940Y1131570D01*
X660400D01*
Y1129030D01*
X662940Y1126490D01*
X660400Y1123950D01*
Y1121410D01*
X685800Y1146810D02*
X688340D01*
X690880Y1149350D01*
X693420Y1146810D01*
X695960D01*
Y1149350D01*
X693420Y1151890D01*
X695960Y1154430D01*
Y1156970D01*
X693420D01*
X690880Y1154430D01*
X688340Y1156970D01*
X685800D01*
Y1154430D01*
X688340Y1151890D01*
X685800Y1149350D01*
Y1146810D01*
X660400D02*
X662940D01*
X665480Y1149350D01*
X668020Y1146810D01*
X670560D01*
Y1149350D01*
X668020Y1151890D01*
X670560Y1154430D01*
Y1156970D01*
X668020D01*
X665480Y1154430D01*
X662940Y1156970D01*
X660400D01*
Y1154430D01*
X662940Y1151890D01*
X660400Y1149350D01*
Y1146810D01*
X685800Y1172210D02*
X688340D01*
X690880Y1174750D01*
X693420Y1172210D01*
X695960D01*
Y1174750D01*
X693420Y1177290D01*
X695960Y1179830D01*
Y1182370D01*
X693420D01*
X690880Y1179830D01*
X688340Y1182370D01*
X685800D01*
Y1179830D01*
X688340Y1177290D01*
X685800Y1174750D01*
Y1172210D01*
X660400D02*
X662940D01*
X665480Y1174750D01*
X668020Y1172210D01*
X670560D01*
Y1174750D01*
X668020Y1177290D01*
X670560Y1179830D01*
Y1182370D01*
X668020D01*
X665480Y1179830D01*
X662940Y1182370D01*
X660400D01*
Y1179830D01*
X662940Y1177290D01*
X660400Y1174750D01*
Y1172210D01*
X685800Y1197610D02*
X688340D01*
X690880Y1200150D01*
X693420Y1197610D01*
X695960D01*
Y1200150D01*
X693420Y1202690D01*
X695960Y1205230D01*
Y1207770D01*
X693420D01*
X690880Y1205230D01*
X688340Y1207770D01*
X685800D01*
Y1205230D01*
X688340Y1202690D01*
X685800Y1200150D01*
Y1197610D01*
X660400D02*
X662940D01*
X665480Y1200150D01*
X668020Y1197610D01*
X670560D01*
Y1200150D01*
X668020Y1202690D01*
X670560Y1205230D01*
Y1207770D01*
X668020D01*
X665480Y1205230D01*
X662940Y1207770D01*
X660400D01*
Y1205230D01*
X662940Y1202690D01*
X660400Y1200150D01*
Y1197610D01*
X685800Y1223010D02*
X688340D01*
X690880Y1225550D01*
X693420Y1223010D01*
X695960D01*
Y1225550D01*
X693420Y1228090D01*
X695960Y1230630D01*
Y1233170D01*
X693420D01*
X690880Y1230630D01*
X688340Y1233170D01*
X685800D01*
Y1230630D01*
X688340Y1228090D01*
X685800Y1225550D01*
Y1223010D01*
X660400D02*
X662940D01*
X665480Y1225550D01*
X668020Y1223010D01*
X670560D01*
Y1225550D01*
X668020Y1228090D01*
X670560Y1230630D01*
Y1233170D01*
X668020D01*
X665480Y1230630D01*
X662940Y1233170D01*
X660400D01*
Y1230630D01*
X662940Y1228090D01*
X660400Y1225550D01*
Y1223010D01*
X685800Y1248410D02*
X688340D01*
X690880Y1250950D01*
X693420Y1248410D01*
X695960D01*
Y1250950D01*
X693420Y1253490D01*
X695960Y1256030D01*
Y1258570D01*
X693420D01*
X690880Y1256030D01*
X688340Y1258570D01*
X685800D01*
Y1256030D01*
X688340Y1253490D01*
X685800Y1250950D01*
Y1248410D01*
X660400D02*
X662940D01*
X665480Y1250950D01*
X668020Y1248410D01*
X670560D01*
Y1250950D01*
X668020Y1253490D01*
X670560Y1256030D01*
Y1258570D01*
X668020D01*
X665480Y1256030D01*
X662940Y1258570D01*
X660400D01*
Y1256030D01*
X662940Y1253490D01*
X660400Y1250950D01*
Y1248410D01*
X441420Y566420D02*
X443960D01*
X446500Y568960D01*
X449040Y566420D01*
X451580D01*
Y568960D01*
X449040Y571500D01*
X451580Y574040D01*
Y576580D01*
X449040D01*
X446500Y574040D01*
X443960Y576580D01*
X441420D01*
Y574040D01*
X443960Y571500D01*
X441420Y568960D01*
Y566420D01*
X466820D02*
X469360D01*
X471900Y568960D01*
X474440Y566420D01*
X476980D01*
Y568960D01*
X474440Y571500D01*
X476980Y574040D01*
Y576580D01*
X474440D01*
X471900Y574040D01*
X469360Y576580D01*
X466820D01*
Y574040D01*
X469360Y571500D01*
X466820Y568960D01*
Y566420D01*
X441420Y591820D02*
X443960D01*
X446500Y594360D01*
X449040Y591820D01*
X451580D01*
Y594360D01*
X449040Y596900D01*
X451580Y599440D01*
Y601980D01*
X449040D01*
X446500Y599440D01*
X443960Y601980D01*
X441420D01*
Y599440D01*
X443960Y596900D01*
X441420Y594360D01*
Y591820D01*
X466820D02*
X469360D01*
X471900Y594360D01*
X474440Y591820D01*
X476980D01*
Y594360D01*
X474440Y596900D01*
X476980Y599440D01*
Y601980D01*
X474440D01*
X471900Y599440D01*
X469360Y601980D01*
X466820D01*
Y599440D01*
X469360Y596900D01*
X466820Y594360D01*
Y591820D01*
X441420Y617220D02*
X443960D01*
X446500Y619760D01*
X449040Y617220D01*
X451580D01*
Y619760D01*
X449040Y622300D01*
X451580Y624840D01*
Y627380D01*
X449040D01*
X446500Y624840D01*
X443960Y627380D01*
X441420D01*
Y624840D01*
X443960Y622300D01*
X441420Y619760D01*
Y617220D01*
X466820D02*
X469360D01*
X471900Y619760D01*
X474440Y617220D01*
X476980D01*
Y619760D01*
X474440Y622300D01*
X476980Y624840D01*
Y627380D01*
X474440D01*
X471900Y624840D01*
X469360Y627380D01*
X466820D01*
Y624840D01*
X469360Y622300D01*
X466820Y619760D01*
Y617220D01*
X441420Y642620D02*
X443960D01*
X446500Y645160D01*
X449040Y642620D01*
X451580D01*
Y645160D01*
X449040Y647700D01*
X451580Y650240D01*
Y652780D01*
X449040D01*
X446500Y650240D01*
X443960Y652780D01*
X441420D01*
Y650240D01*
X443960Y647700D01*
X441420Y645160D01*
Y642620D01*
X466820D02*
X469360D01*
X471900Y645160D01*
X474440Y642620D01*
X476980D01*
Y645160D01*
X474440Y647700D01*
X476980Y650240D01*
Y652780D01*
X474440D01*
X471900Y650240D01*
X469360Y652780D01*
X466820D01*
Y650240D01*
X469360Y647700D01*
X466820Y645160D01*
Y642620D01*
X441420Y668020D02*
X443960D01*
X446500Y670560D01*
X449040Y668020D01*
X451580D01*
Y670560D01*
X449040Y673100D01*
X451580Y675640D01*
Y678180D01*
X449040D01*
X446500Y675640D01*
X443960Y678180D01*
X441420D01*
Y675640D01*
X443960Y673100D01*
X441420Y670560D01*
Y668020D01*
X466820D02*
X469360D01*
X471900Y670560D01*
X474440Y668020D01*
X476980D01*
Y670560D01*
X474440Y673100D01*
X476980Y675640D01*
Y678180D01*
X474440D01*
X471900Y675640D01*
X469360Y678180D01*
X466820D01*
Y675640D01*
X469360Y673100D01*
X466820Y670560D01*
Y668020D01*
X546420Y899400D02*
X551500Y904480D01*
X556580Y899400D01*
X551500Y894320D01*
X546420Y899400D01*
Y874000D02*
X551500Y879080D01*
X556580Y874000D01*
X551500Y868920D01*
X546420Y874000D01*
Y924800D02*
X551500Y929880D01*
X556580Y924800D01*
X551500Y919720D01*
X546420Y924800D01*
X592920Y623920D02*
X595460Y629000D01*
X592920Y634080D01*
X598000Y631540D01*
X603080Y634080D01*
X600540Y629000D01*
X603080Y623920D01*
X598000Y626460D01*
X592920Y623920D01*
X499920D02*
X502460Y629000D01*
X499920Y634080D01*
X505000Y631540D01*
X510080Y634080D01*
X507540Y629000D01*
X510080Y623920D01*
X505000Y626460D01*
X499920Y623920D01*
X812800Y1077468D02*
X807720Y1087628D01*
X817880D01*
X812800Y1077468D01*
X626618Y296460D02*
Y293920D01*
X631698D01*
Y296460D01*
X634238D01*
Y301540D01*
X631698D01*
Y304080D01*
X626618D01*
Y301540D01*
X624078D01*
Y296460D01*
X626618D01*
Y381461D02*
Y378921D01*
X631698D01*
Y381461D01*
X634238D01*
Y386541D01*
X631698D01*
Y389081D01*
X626618D01*
Y386541D01*
X624078D01*
Y381461D01*
X626618D01*
Y411461D02*
Y408921D01*
X631698D01*
Y411461D01*
X634238D01*
Y416541D01*
X631698D01*
Y419081D01*
X626618D01*
Y416541D01*
X624078D01*
Y411461D01*
X626618D01*
X460248Y1114552D02*
Y1124712D01*
X470408D01*
Y1114552D01*
X460248D01*
X462280Y1116584D02*
Y1122680D01*
X468376D01*
Y1116584D01*
X462280D01*
X473456Y1114552D02*
Y1124712D01*
X483616D01*
Y1114552D01*
X473456D01*
X475488Y1116584D02*
Y1122680D01*
X481584D01*
Y1116584D01*
X475488D01*
X472440Y1075690D02*
Y1085850D01*
X482600D01*
Y1075690D01*
X472440D01*
X474472Y1077722D02*
Y1083818D01*
X480568D01*
Y1077722D01*
X474472D01*
X460680Y1075690D02*
Y1085850D01*
X470840D01*
Y1075690D01*
X460680D01*
X462712Y1077722D02*
Y1083818D01*
X468808D01*
Y1077722D01*
X462712D01*
X448920Y1085088D02*
Y1095248D01*
X459080D01*
Y1085088D01*
X448920D01*
X450952Y1087120D02*
Y1093216D01*
X457048D01*
Y1087120D01*
X450952D01*
X448920Y1075690D02*
Y1085850D01*
X459080D01*
Y1075690D01*
X448920D01*
X450952Y1077722D02*
Y1083818D01*
X457048D01*
Y1077722D01*
X450952D01*
X713232Y1244600D02*
Y1254760D01*
X723392D01*
Y1244600D01*
X713232D01*
X715264Y1246632D02*
Y1252728D01*
X721360D01*
Y1246632D01*
X715264D01*
X722488Y1224534D02*
Y1234694D01*
X732648D01*
Y1224534D01*
X722488D01*
X724520Y1226566D02*
Y1232662D01*
X730616D01*
Y1226566D01*
X724520D01*
X475742Y1133348D02*
Y1143508D01*
X485902D01*
Y1133348D01*
X475742D01*
X477774Y1135380D02*
Y1141476D01*
X483870D01*
Y1135380D01*
X477774D01*
X423672Y1039368D02*
Y1049528D01*
X433832D01*
Y1039368D01*
X423672D01*
X425704Y1041400D02*
Y1047496D01*
X431800D01*
Y1041400D01*
X425704D01*
X448310Y1039368D02*
Y1049528D01*
X458470D01*
Y1039368D01*
X448310D01*
X450342Y1041400D02*
Y1047496D01*
X456438D01*
Y1041400D01*
X450342D01*
X556260Y1041654D02*
Y1051814D01*
X566420D01*
Y1041654D01*
X556260D01*
X558292Y1043686D02*
Y1049782D01*
X564388D01*
Y1043686D01*
X558292D01*
X574548Y323850D02*
Y334010D01*
X584708D01*
Y323850D01*
X574548D01*
X576580Y325882D02*
Y331978D01*
X582676D01*
Y325882D01*
X576580D01*
X474980Y1123442D02*
Y1133602D01*
X485140D01*
Y1123442D01*
X474980D01*
X477012Y1125474D02*
Y1131570D01*
X483108D01*
Y1125474D01*
X477012D01*
X420624Y312674D02*
Y322834D01*
X430784D01*
Y312674D01*
X420624D01*
X422656Y314706D02*
Y320802D01*
X428752D01*
Y314706D01*
X422656D01*
X498094Y377444D02*
Y387604D01*
X508254D01*
Y377444D01*
X498094D01*
X500126Y379476D02*
Y385572D01*
X506222D01*
Y379476D01*
X500126D01*
X570738Y409194D02*
Y419354D01*
X580898D01*
Y409194D01*
X570738D01*
X572770Y411226D02*
Y417322D01*
X578866D01*
Y411226D01*
X572770D01*
X779018Y453644D02*
Y463804D01*
X789178D01*
Y453644D01*
X779018D01*
X781050Y455676D02*
Y461772D01*
X787146D01*
Y455676D01*
X781050D01*
X778920Y435258D02*
Y445418D01*
X789080D01*
Y435258D01*
X778920D01*
X780952Y437290D02*
Y443386D01*
X787048D01*
Y437290D01*
X780952D01*
X261874Y359918D02*
Y370078D01*
X272034D01*
Y359918D01*
X261874D01*
X263906Y361950D02*
Y368046D01*
X270002D01*
Y361950D01*
X263906D01*
X564642Y356108D02*
Y366268D01*
X574802D01*
Y356108D01*
X564642D01*
X566674Y358140D02*
Y364236D01*
X572770D01*
Y358140D01*
X566674D01*
X587375Y399796D02*
Y409956D01*
X597535D01*
Y399796D01*
X587375D01*
X589407Y401828D02*
Y407924D01*
X595503D01*
Y401828D01*
X589407D01*
X732536Y310642D02*
Y320802D01*
X742696D01*
Y310642D01*
X732536D01*
X734568Y312674D02*
Y318770D01*
X740664D01*
Y312674D01*
X734568D01*
X763524Y322326D02*
Y332486D01*
X773684D01*
Y322326D01*
X763524D01*
X765556Y324358D02*
Y330454D01*
X771652D01*
Y324358D01*
X765556D01*
X763524Y395478D02*
Y405638D01*
X773684D01*
Y395478D01*
X763524D01*
X765556Y397510D02*
Y403606D01*
X771652D01*
Y397510D01*
X765556D01*
X624078Y439166D02*
Y449326D01*
X634238D01*
Y439166D01*
X624078D01*
X626110Y441198D02*
Y447294D01*
X632206D01*
Y441198D01*
X626110D01*
X553212Y403098D02*
Y413258D01*
X563372D01*
Y403098D01*
X553212D01*
X555244Y405130D02*
Y411226D01*
X561340D01*
Y405130D01*
X555244D01*
X427990Y408940D02*
Y419100D01*
X438150D01*
Y408940D01*
X427990D01*
X430022Y410972D02*
Y417068D01*
X436118D01*
Y410972D01*
X430022D01*
X527558Y409194D02*
Y419354D01*
X537718D01*
Y409194D01*
X527558D01*
X529590Y411226D02*
Y417322D01*
X535686D01*
Y411226D01*
X529590D01*
X553212Y512064D02*
Y522224D01*
X563372D01*
Y512064D01*
X553212D01*
X555244Y514096D02*
Y520192D01*
X561340D01*
Y514096D01*
X555244D01*
X613410Y512064D02*
Y522224D01*
X623570D01*
Y512064D01*
X613410D01*
X615442Y514096D02*
Y520192D01*
X621538D01*
Y514096D01*
X615442D01*
X571500Y817880D02*
Y828040D01*
X581660D01*
Y817880D01*
X571500D01*
X573532Y819912D02*
Y826008D01*
X579628D01*
Y819912D01*
X573532D01*
X623570Y757682D02*
Y767842D01*
X633730D01*
Y757682D01*
X623570D01*
X625602Y759714D02*
Y765810D01*
X631698D01*
Y759714D01*
X625602D01*
X573024Y667004D02*
Y677164D01*
X583184D01*
Y667004D01*
X573024D01*
X575056Y669036D02*
Y675132D01*
X581152D01*
Y669036D01*
X575056D01*
X471170Y702056D02*
Y712216D01*
X481330D01*
Y702056D01*
X471170D01*
X473202Y704088D02*
Y710184D01*
X479298D01*
Y704088D01*
X473202D01*
X462026Y722884D02*
Y733044D01*
X472186D01*
Y722884D01*
X462026D01*
X464058Y724916D02*
Y731012D01*
X470154D01*
Y724916D01*
X464058D01*
X732536Y730250D02*
Y740410D01*
X742696D01*
Y730250D01*
X732536D01*
X734568Y732282D02*
Y738378D01*
X740664D01*
Y732282D01*
X734568D01*
X521970Y744982D02*
Y755142D01*
X532130D01*
Y744982D01*
X521970D01*
X524002Y747014D02*
Y753110D01*
X530098D01*
Y747014D01*
X524002D01*
X599440Y454710D02*
Y464870D01*
X609600D01*
Y454710D01*
X599440D01*
X601472Y456742D02*
Y462838D01*
X607568D01*
Y456742D01*
X601472D01*
X521970Y902970D02*
Y913130D01*
X532130D01*
Y902970D01*
X521970D01*
X524002Y905002D02*
Y911098D01*
X530098D01*
Y905002D01*
X524002D01*
X623570Y628904D02*
Y639064D01*
X633730D01*
Y628904D01*
X623570D01*
X625602Y630936D02*
Y637032D01*
X631698D01*
Y630936D01*
X625602D01*
X613410Y796290D02*
Y806450D01*
X623570D01*
Y796290D01*
X613410D01*
X615442Y798322D02*
Y804418D01*
X621538D01*
Y798322D01*
X615442D01*
X479552Y962914D02*
Y973074D01*
X489712D01*
Y962914D01*
X479552D01*
X481584Y964946D02*
Y971042D01*
X487680D01*
Y964946D01*
X481584D01*
X479552Y939038D02*
Y949198D01*
X489712D01*
Y939038D01*
X479552D01*
X481584Y941070D02*
Y947166D01*
X487680D01*
Y941070D01*
X481584D01*
X463296Y938530D02*
Y948690D01*
X473456D01*
Y938530D01*
X463296D01*
X465328Y940562D02*
Y946658D01*
X471424D01*
Y940562D01*
X465328D01*
X469392Y1039368D02*
Y1049528D01*
X479552D01*
Y1039368D01*
X469392D01*
X471424Y1041400D02*
Y1047496D01*
X477520D01*
Y1041400D01*
X471424D01*
X504952Y980694D02*
Y990854D01*
X515112D01*
Y980694D01*
X504952D01*
X506984Y982726D02*
Y988822D01*
X513080D01*
Y982726D01*
X506984D01*
X325374Y972566D02*
Y982726D01*
X335534D01*
Y972566D01*
X325374D01*
X327406Y974598D02*
Y980694D01*
X333502D01*
Y974598D01*
X327406D01*
X337820Y972566D02*
Y982726D01*
X347980D01*
Y972566D01*
X337820D01*
X339852Y974598D02*
Y980694D01*
X345948D01*
Y974598D01*
X339852D01*
X359410Y1014222D02*
Y1024382D01*
X369570D01*
Y1014222D01*
X359410D01*
X361442Y1016254D02*
Y1022350D01*
X367538D01*
Y1016254D01*
X361442D01*
X359410Y980420D02*
Y990580D01*
X369570D01*
Y980420D01*
X359410D01*
X361442Y982452D02*
Y988548D01*
X367538D01*
Y982452D01*
X361442D01*
X541909Y1033145D02*
Y1043305D01*
X552069D01*
Y1033145D01*
X541909D01*
X543941Y1035177D02*
Y1041273D01*
X550037D01*
Y1035177D01*
X543941D01*
X540766Y1186688D02*
Y1196848D01*
X550926D01*
Y1186688D01*
X540766D01*
X542798Y1188720D02*
Y1194816D01*
X548894D01*
Y1188720D01*
X542798D01*
X354076Y1183132D02*
Y1193292D01*
X364236D01*
Y1183132D01*
X354076D01*
X356108Y1185164D02*
Y1191260D01*
X362204D01*
Y1185164D01*
X356108D01*
X344170Y1183386D02*
Y1193546D01*
X354330D01*
Y1183386D01*
X344170D01*
X346202Y1185418D02*
Y1191514D01*
X352298D01*
Y1185418D01*
X346202D01*
X489966Y1090676D02*
Y1100836D01*
X500126D01*
Y1090676D01*
X489966D01*
X491998Y1092708D02*
Y1098804D01*
X498094D01*
Y1092708D01*
X491998D01*
X482600Y1081278D02*
Y1091438D01*
X492760D01*
Y1081278D01*
X482600D01*
X484632Y1083310D02*
Y1089406D01*
X490728D01*
Y1083310D01*
X484632D01*
X512318Y1096010D02*
Y1106170D01*
X522478D01*
Y1096010D01*
X512318D01*
X514350Y1098042D02*
Y1104138D01*
X520446D01*
Y1098042D01*
X514350D01*
X505206Y1105408D02*
Y1115568D01*
X515366D01*
Y1105408D01*
X505206D01*
X507238Y1107440D02*
Y1113536D01*
X513334D01*
Y1107440D01*
X507238D01*
X512318Y1152906D02*
Y1163066D01*
X522478D01*
Y1152906D01*
X512318D01*
X514350Y1154938D02*
Y1161034D01*
X520446D01*
Y1154938D01*
X514350D01*
X505206Y1134110D02*
Y1144270D01*
X515366D01*
Y1134110D01*
X505206D01*
X507238Y1136142D02*
Y1142238D01*
X513334D01*
Y1136142D01*
X507238D01*
X489712Y1175512D02*
Y1185672D01*
X499872D01*
Y1175512D01*
X489712D01*
X491744Y1177544D02*
Y1183640D01*
X497840D01*
Y1177544D01*
X491744D01*
X489712Y1165352D02*
Y1175512D01*
X499872D01*
Y1165352D01*
X489712D01*
X491744Y1167384D02*
Y1173480D01*
X497840D01*
Y1167384D01*
X491744D01*
X466598Y1193038D02*
Y1203198D01*
X476758D01*
Y1193038D01*
X466598D01*
X468630Y1195070D02*
Y1201166D01*
X474726D01*
Y1195070D01*
X468630D01*
X757682Y1168908D02*
Y1179068D01*
X767842D01*
Y1168908D01*
X757682D01*
X759714Y1170940D02*
Y1177036D01*
X765810D01*
Y1170940D01*
X759714D01*
X642620Y1135634D02*
Y1145794D01*
X652780D01*
Y1135634D01*
X642620D01*
X644652Y1137666D02*
Y1143762D01*
X650748D01*
Y1137666D01*
X644652D01*
X700278Y1235202D02*
Y1245362D01*
X710438D01*
Y1235202D01*
X700278D01*
X702310Y1237234D02*
Y1243330D01*
X708406D01*
Y1237234D01*
X702310D01*
X706628Y1250950D02*
Y1261110D01*
X716788D01*
Y1250950D01*
X706628D01*
X708660Y1252982D02*
Y1259078D01*
X714756D01*
Y1252982D01*
X708660D01*
X736670Y1224534D02*
Y1234694D01*
X746830D01*
Y1224534D01*
X736670D01*
X738702Y1226566D02*
Y1232662D01*
X744798D01*
Y1226566D01*
X738702D01*
X706628Y1148588D02*
Y1158748D01*
X716788D01*
Y1148588D01*
X706628D01*
X708660Y1150620D02*
Y1156716D01*
X714756D01*
Y1150620D01*
X708660D01*
X700278Y1168908D02*
Y1179068D01*
X710438D01*
Y1168908D01*
X700278D01*
X702310Y1170940D02*
Y1177036D01*
X708406D01*
Y1170940D01*
X702310D01*
X557784Y1245616D02*
Y1255776D01*
X567944D01*
Y1245616D01*
X557784D01*
X559816Y1247648D02*
Y1253744D01*
X565912D01*
Y1247648D01*
X559816D01*
X640080Y1298194D02*
Y1308354D01*
X650240D01*
Y1298194D01*
X640080D01*
X642112Y1300226D02*
Y1306322D01*
X648208D01*
Y1300226D01*
X642112D01*
X512572Y1226820D02*
Y1236980D01*
X522732D01*
Y1226820D01*
X512572D01*
X514604Y1228852D02*
Y1234948D01*
X520700D01*
Y1228852D01*
X514604D01*
X434482Y1216040D02*
Y1226200D01*
X444642D01*
Y1216040D01*
X434482D01*
X436514Y1218072D02*
Y1224168D01*
X442610D01*
Y1218072D01*
X436514D01*
X455930Y1225550D02*
Y1235710D01*
X466090D01*
Y1225550D01*
X455930D01*
X457962Y1227582D02*
Y1233678D01*
X464058D01*
Y1227582D01*
X457962D01*
X493920Y1239266D02*
Y1249426D01*
X504080D01*
Y1239266D01*
X493920D01*
X495952Y1241298D02*
Y1247394D01*
X502048D01*
Y1241298D01*
X495952D01*
X493920Y1226820D02*
Y1236980D01*
X504080D01*
Y1226820D01*
X493920D01*
X495952Y1228852D02*
Y1234948D01*
X502048D01*
Y1228852D01*
X495952D01*
X621030Y1252220D02*
Y1262380D01*
X631190D01*
Y1252220D01*
X621030D01*
X623062Y1254252D02*
Y1260348D01*
X629158D01*
Y1254252D01*
X623062D01*
X621030Y1088920D02*
Y1099080D01*
X631190D01*
Y1088920D01*
X621030D01*
X623062Y1090952D02*
Y1097048D01*
X629158D01*
Y1090952D01*
X623062D01*
X613410Y1096010D02*
Y1106170D01*
X623570D01*
Y1096010D01*
X613410D01*
X615442Y1098042D02*
Y1104138D01*
X621538D01*
Y1098042D01*
X615442D01*
X613410Y1261110D02*
Y1271270D01*
X623570D01*
Y1261110D01*
X613410D01*
X615442Y1263142D02*
Y1269238D01*
X621538D01*
Y1263142D01*
X615442D01*
X605790Y1101090D02*
Y1111250D01*
X615950D01*
Y1101090D01*
X605790D01*
X607822Y1103122D02*
Y1109218D01*
X613918D01*
Y1103122D01*
X607822D01*
X643890Y1220470D02*
Y1230630D01*
X654050D01*
Y1220470D01*
X643890D01*
X645922Y1222502D02*
Y1228598D01*
X652018D01*
Y1222502D01*
X645922D01*
X642620Y1125220D02*
Y1135380D01*
X652780D01*
Y1125220D01*
X642620D01*
X644652Y1127252D02*
Y1133348D01*
X650748D01*
Y1127252D01*
X644652D01*
X598424Y1123442D02*
Y1133602D01*
X608584D01*
Y1123442D01*
X598424D01*
X600456Y1125474D02*
Y1131570D01*
X606552D01*
Y1125474D01*
X600456D01*
X642620Y1070610D02*
Y1080770D01*
X652780D01*
Y1070610D01*
X642620D01*
X644652Y1072642D02*
Y1078738D01*
X650748D01*
Y1072642D01*
X644652D01*
X643890Y1209420D02*
Y1219580D01*
X654050D01*
Y1209420D01*
X643890D01*
X645922Y1211452D02*
Y1217548D01*
X652018D01*
Y1211452D01*
X645922D01*
X317500Y1280160D02*
Y1290320D01*
X327660D01*
Y1280160D01*
X317500D01*
X319532Y1282192D02*
Y1288288D01*
X325628D01*
Y1282192D01*
X319532D01*
X532130Y396240D02*
Y406400D01*
X542290D01*
Y396240D01*
X532130D01*
X534162Y398272D02*
Y404368D01*
X540258D01*
Y398272D01*
X534162D01*
X308920Y1019810D02*
Y1029970D01*
X319080D01*
Y1019810D01*
X308920D01*
X310952Y1021842D02*
Y1027938D01*
X317048D01*
Y1021842D01*
X310952D01*
X283920Y1019810D02*
Y1029970D01*
X294080D01*
Y1019810D01*
X283920D01*
X285952Y1021842D02*
Y1027938D01*
X292048D01*
Y1021842D01*
X285952D01*
X822970Y389880D02*
Y400040D01*
X833130D01*
Y389880D01*
X822970D01*
X825002Y391912D02*
Y398008D01*
X831098D01*
Y391912D01*
X825002D01*
X819150Y275590D02*
Y285750D01*
X829310D01*
Y275590D01*
X819150D01*
X821182Y277622D02*
Y283718D01*
X827278D01*
Y277622D01*
X821182D01*
X754380Y1017270D02*
Y1027430D01*
X764540D01*
Y1017270D01*
X754380D01*
X756412Y1019302D02*
Y1025398D01*
X762508D01*
Y1019302D01*
X756412D01*
X538114Y289194D02*
Y299354D01*
X548274D01*
Y289194D01*
X538114D01*
X540146Y291226D02*
Y297322D01*
X546242D01*
Y291226D01*
X540146D01*
X669290Y486918D02*
Y497078D01*
X679450D01*
Y486918D01*
X669290D01*
X671322Y488950D02*
Y495046D01*
X677418D01*
Y488950D01*
X671322D01*
X666050Y442722D02*
Y452882D01*
X676210D01*
Y442722D01*
X666050D01*
X668082Y444754D02*
Y450850D01*
X674178D01*
Y444754D01*
X668082D01*
X598932Y464312D02*
Y474472D01*
X609092D01*
Y464312D01*
X598932D01*
X600964Y466344D02*
Y472440D01*
X607060D01*
Y466344D01*
X600964D01*
X571500Y1040638D02*
Y1050798D01*
X581660D01*
Y1040638D01*
X571500D01*
X573532Y1042670D02*
Y1048766D01*
X579628D01*
Y1042670D01*
X573532D01*
X446278Y1093724D02*
Y1103884D01*
X456438D01*
Y1093724D01*
X446278D01*
X448310Y1095756D02*
Y1101852D01*
X454406D01*
Y1095756D01*
X448310D01*
X435610Y1039368D02*
Y1049528D01*
X445770D01*
Y1039368D01*
X435610D01*
X437642Y1041400D02*
Y1047496D01*
X443738D01*
Y1041400D01*
X437642D01*
X460248Y1039368D02*
Y1049528D01*
X470408D01*
Y1039368D01*
X460248D01*
X462280Y1041400D02*
Y1047496D01*
X468376D01*
Y1041400D01*
X462280D01*
X410464Y1076706D02*
Y1086866D01*
X420624D01*
Y1076706D01*
X410464D01*
X412496Y1078738D02*
Y1084834D01*
X418592D01*
Y1078738D01*
X412496D01*
X410972Y1067816D02*
Y1077976D01*
X421132D01*
Y1067816D01*
X410972D01*
X413004Y1069848D02*
Y1075944D01*
X419100D01*
Y1069848D01*
X413004D01*
X377350Y1141890D02*
Y1152050D01*
X387510D01*
Y1141890D01*
X377350D01*
X379382Y1143922D02*
Y1150018D01*
X385478D01*
Y1143922D01*
X379382D01*
X381508Y1178052D02*
Y1188212D01*
X391668D01*
Y1178052D01*
X381508D01*
X383540Y1180084D02*
Y1186180D01*
X389636D01*
Y1180084D01*
X383540D01*
X446024Y1153414D02*
Y1163574D01*
X456184D01*
Y1153414D01*
X446024D01*
X448056Y1155446D02*
Y1161542D01*
X454152D01*
Y1155446D01*
X448056D01*
X445008Y1168908D02*
Y1179068D01*
X455168D01*
Y1168908D01*
X445008D01*
X447040Y1170940D02*
Y1177036D01*
X453136D01*
Y1170940D01*
X447040D01*
X446242Y1103920D02*
Y1114080D01*
X456402D01*
Y1103920D01*
X446242D01*
X448274Y1105952D02*
Y1112048D01*
X454370D01*
Y1105952D01*
X448274D01*
X446278Y1144016D02*
Y1154176D01*
X456438D01*
Y1144016D01*
X446278D01*
X448310Y1146048D02*
Y1152144D01*
X454406D01*
Y1146048D01*
X448310D01*
X444500Y514350D02*
X439420Y524510D01*
X449580D01*
X444500Y514350D01*
Y516382D02*
X441452Y522478D01*
X447548D01*
X444500Y516382D01*
X462280Y514350D02*
X457200Y524510D01*
X467360D01*
X462280Y514350D01*
Y516382D02*
X459232Y522478D01*
X465328D01*
X462280Y516382D01*
Y505629D02*
X457200Y515789D01*
X467360D01*
X462280Y505629D01*
Y507661D02*
X459232Y513757D01*
X465328D01*
X462280Y507661D01*
Y496908D02*
X457200Y507068D01*
X467360D01*
X462280Y496908D01*
Y498941D02*
X459232Y505037D01*
X465328D01*
X462280Y498941D01*
Y488188D02*
X457200Y498348D01*
X467360D01*
X462280Y488188D01*
Y490220D02*
X459232Y496316D01*
X465328D01*
X462280Y490220D01*
X453390Y514350D02*
X448310Y524510D01*
X458470D01*
X453390Y514350D01*
Y516382D02*
X450342Y522478D01*
X456438D01*
X453390Y516382D01*
Y505629D02*
X448310Y515789D01*
X458470D01*
X453390Y505629D01*
Y507661D02*
X450342Y513757D01*
X456438D01*
X453390Y507661D01*
Y496908D02*
X448310Y507068D01*
X458470D01*
X453390Y496908D01*
Y498941D02*
X450342Y505037D01*
X456438D01*
X453390Y498941D01*
Y488188D02*
X448310Y498348D01*
X458470D01*
X453390Y488188D01*
Y490220D02*
X450342Y496316D01*
X456438D01*
X453390Y490220D01*
X596392Y1064910D02*
Y1075070D01*
X606552D01*
Y1064910D01*
X596392D01*
X598424Y1066942D02*
Y1073038D01*
X604520D01*
Y1066942D01*
X598424D01*
X540766Y1081024D02*
Y1091184D01*
X550926D01*
Y1081024D01*
X540766D01*
X542798Y1083056D02*
Y1089152D01*
X548894D01*
Y1083056D01*
X542798D01*
X756170Y1191018D02*
Y1201178D01*
X766330D01*
Y1191018D01*
X756170D01*
X758202Y1193050D02*
Y1199146D01*
X764298D01*
Y1193050D01*
X758202D01*
X753110Y1225804D02*
Y1235964D01*
X763270D01*
Y1225804D01*
X753110D01*
X755142Y1227836D02*
Y1233932D01*
X761238D01*
Y1227836D01*
X755142D01*
X736670Y1285748D02*
Y1295908D01*
X746830D01*
Y1285748D01*
X736670D01*
X738702Y1287780D02*
Y1293876D01*
X744798D01*
Y1287780D01*
X738702D01*
X699262D02*
Y1297940D01*
X709422D01*
Y1287780D01*
X699262D01*
X701294Y1289812D02*
Y1295908D01*
X707390D01*
Y1289812D01*
X701294D01*
X710184Y1267460D02*
Y1277620D01*
X720344D01*
Y1267460D01*
X710184D01*
X712216Y1269492D02*
Y1275588D01*
X718312D01*
Y1269492D01*
X712216D01*
X783224Y1199896D02*
Y1210056D01*
X793384D01*
Y1199896D01*
X783224D01*
X785256Y1201928D02*
Y1208024D01*
X791352D01*
Y1201928D01*
X785256D01*
X560070Y1191514D02*
Y1201674D01*
X570230D01*
Y1191514D01*
X560070D01*
X562102Y1193546D02*
Y1199642D01*
X568198D01*
Y1193546D01*
X562102D01*
X596900Y1191514D02*
Y1201674D01*
X607060D01*
Y1191514D01*
X596900D01*
X598932Y1193546D02*
Y1199642D01*
X605028D01*
Y1193546D01*
X598932D01*
X562610Y330962D02*
Y341122D01*
X572770D01*
Y330962D01*
X562610D01*
X564642Y332994D02*
Y339090D01*
X570738D01*
Y332994D01*
X564642D01*
X653034Y854710D02*
Y864870D01*
X663194D01*
Y854710D01*
X653034D01*
X655066Y856742D02*
Y862838D01*
X661162D01*
Y856742D01*
X655066D01*
X603430Y806630D02*
Y816790D01*
X613590D01*
Y806630D01*
X603430D01*
X605462Y808662D02*
Y814758D01*
X611558D01*
Y808662D01*
X605462D01*
X551180Y1184402D02*
Y1194562D01*
X561340D01*
Y1184402D01*
X551180D01*
X553212Y1186434D02*
Y1192530D01*
X559308D01*
Y1186434D01*
X553212D01*
X605790Y1267460D02*
Y1277620D01*
X615950D01*
Y1267460D01*
X605790D01*
X607822Y1269492D02*
Y1275588D01*
X613918D01*
Y1269492D01*
X607822D01*
X353822Y1241044D02*
Y1251204D01*
X363982D01*
Y1241044D01*
X353822D01*
X355854Y1243076D02*
Y1249172D01*
X361950D01*
Y1243076D01*
X355854D01*
X317500Y1241298D02*
Y1251458D01*
X327660D01*
Y1241298D01*
X317500D01*
X319532Y1243330D02*
Y1249426D01*
X325628D01*
Y1243330D01*
X319532D01*
X628142Y1078992D02*
Y1089152D01*
X638302D01*
Y1078992D01*
X628142D01*
X630174Y1081024D02*
Y1087120D01*
X636270D01*
Y1081024D01*
X630174D01*
X599186Y1113536D02*
Y1123696D01*
X609346D01*
Y1113536D01*
X599186D01*
X601218Y1115568D02*
Y1121664D01*
X607314D01*
Y1115568D01*
X601218D01*
X498920Y1113726D02*
Y1123886D01*
X509080D01*
Y1113726D01*
X498920D01*
X500952Y1115758D02*
Y1121854D01*
X507048D01*
Y1115758D01*
X500952D01*
X433944Y1202040D02*
Y1212200D01*
X444104D01*
Y1202040D01*
X433944D01*
X435976Y1204072D02*
Y1210168D01*
X442072D01*
Y1204072D01*
X435976D01*
X295656Y1230884D02*
Y1241044D01*
X305816D01*
Y1230884D01*
X295656D01*
X297688Y1232916D02*
Y1239012D01*
X303784D01*
Y1232916D01*
X297688D01*
X295656Y1083818D02*
Y1093978D01*
X305816D01*
Y1083818D01*
X295656D01*
X297688Y1085850D02*
Y1091946D01*
X303784D01*
Y1085850D01*
X297688D01*
X285242Y1076706D02*
Y1086866D01*
X295402D01*
Y1076706D01*
X285242D01*
X287274Y1078738D02*
Y1084834D01*
X293370D01*
Y1078738D01*
X287274D01*
X285242Y1262560D02*
Y1272720D01*
X295402D01*
Y1262560D01*
X285242D01*
X287274Y1264592D02*
Y1270688D01*
X293370D01*
Y1264592D01*
X287274D01*
X308356Y1067816D02*
Y1077976D01*
X318516D01*
Y1067816D01*
X308356D01*
X310388Y1069848D02*
Y1075944D01*
X316484D01*
Y1069848D01*
X310388D01*
X307500Y1195578D02*
Y1205738D01*
X317660D01*
Y1195578D01*
X307500D01*
X309532Y1197610D02*
Y1203706D01*
X315628D01*
Y1197610D01*
X309532D01*
X315722Y1037590D02*
Y1047750D01*
X325882D01*
Y1037590D01*
X315722D01*
X317754Y1039622D02*
Y1045718D01*
X323850D01*
Y1039622D01*
X317754D01*
X500380Y1260856D02*
Y1271016D01*
X510540D01*
Y1260856D01*
X500380D01*
X502412Y1262888D02*
Y1268984D01*
X508508D01*
Y1262888D01*
X502412D01*
X512572Y1268476D02*
Y1278636D01*
X522732D01*
Y1268476D01*
X512572D01*
X514604Y1270508D02*
Y1276604D01*
X520700D01*
Y1270508D01*
X514604D01*
X449580Y1252220D02*
Y1262380D01*
X459740D01*
Y1252220D01*
X449580D01*
X451612Y1254252D02*
Y1260348D01*
X457708D01*
Y1254252D01*
X451612D01*
X557784Y1230376D02*
Y1240536D01*
X567944D01*
Y1230376D01*
X557784D01*
X559816Y1232408D02*
Y1238504D01*
X565912D01*
Y1232408D01*
X559816D01*
X734860Y977100D02*
Y987260D01*
X745020D01*
Y977100D01*
X734860D01*
X736892Y979132D02*
Y985228D01*
X742988D01*
Y979132D01*
X736892D01*
X315722Y1186688D02*
Y1196848D01*
X325882D01*
Y1186688D01*
X315722D01*
X317754Y1188720D02*
Y1194816D01*
X323850D01*
Y1188720D01*
X317754D01*
X531114Y964946D02*
Y975106D01*
X541274D01*
Y964946D01*
X531114D01*
X533146Y966978D02*
Y973074D01*
X539242D01*
Y966978D01*
X533146D01*
X530352Y1003554D02*
Y1013714D01*
X540512D01*
Y1003554D01*
X530352D01*
X532384Y1005586D02*
Y1011682D01*
X538480D01*
Y1005586D01*
X532384D01*
X587136Y1005220D02*
Y1015380D01*
X597296D01*
Y1005220D01*
X587136D01*
X589168Y1007252D02*
Y1013348D01*
X595264D01*
Y1007252D01*
X589168D01*
X440436Y986790D02*
Y996950D01*
X450596D01*
Y986790D01*
X440436D01*
X442468Y988822D02*
Y994918D01*
X448564D01*
Y988822D01*
X442468D01*
X676512Y926482D02*
Y936642D01*
X686672D01*
Y926482D01*
X676512D01*
X678544Y928514D02*
Y934610D01*
X684640D01*
Y928514D01*
X678544D01*
X778920Y976532D02*
Y986692D01*
X789080D01*
Y976532D01*
X778920D01*
X780952Y978564D02*
Y984660D01*
X787048D01*
Y978564D01*
X780952D01*
X639826Y887984D02*
Y898144D01*
X649986D01*
Y887984D01*
X639826D01*
X641858Y890016D02*
Y896112D01*
X647954D01*
Y890016D01*
X641858D01*
X613410Y854710D02*
Y864870D01*
X623570D01*
Y854710D01*
X613410D01*
X615442Y856742D02*
Y862838D01*
X621538D01*
Y856742D01*
X615442D01*
X440182Y999490D02*
Y1009650D01*
X450342D01*
Y999490D01*
X440182D01*
X442214Y1001522D02*
Y1007618D01*
X448310D01*
Y1001522D01*
X442214D01*
X512318Y1030224D02*
Y1040384D01*
X522478D01*
Y1030224D01*
X512318D01*
X514350Y1032256D02*
Y1038352D01*
X520446D01*
Y1032256D01*
X514350D01*
X497586Y998982D02*
Y1009142D01*
X507746D01*
Y998982D01*
X497586D01*
X499618Y1001014D02*
Y1007110D01*
X505714D01*
Y1001014D01*
X499618D01*
X497586Y1030224D02*
Y1040384D01*
X507746D01*
Y1030224D01*
X497586D01*
X499618Y1032256D02*
Y1038352D01*
X505714D01*
Y1032256D01*
X499618D01*
X505206Y1006348D02*
Y1016508D01*
X515366D01*
Y1006348D01*
X505206D01*
X507238Y1008380D02*
Y1014476D01*
X513334D01*
Y1008380D01*
X507238D01*
X481584Y1004570D02*
Y1014730D01*
X491744D01*
Y1004570D01*
X481584D01*
X483616Y1006602D02*
Y1012698D01*
X489712D01*
Y1006602D01*
X483616D01*
X375882Y945680D02*
Y955840D01*
X386042D01*
Y945680D01*
X375882D01*
X377914Y947712D02*
Y953808D01*
X384010D01*
Y947712D01*
X377914D01*
X387492Y882284D02*
Y892444D01*
X397652D01*
Y882284D01*
X387492D01*
X389524Y884316D02*
Y890412D01*
X395620D01*
Y884316D01*
X389524D01*
X344170Y1058672D02*
Y1068832D01*
X354330D01*
Y1058672D01*
X344170D01*
X346202Y1060704D02*
Y1066800D01*
X352298D01*
Y1060704D01*
X346202D01*
X387492Y1045068D02*
Y1055228D01*
X397652D01*
Y1045068D01*
X387492D01*
X389524Y1047100D02*
Y1053196D01*
X395620D01*
Y1047100D01*
X389524D01*
X401066Y1083564D02*
Y1093724D01*
X411226D01*
Y1083564D01*
X401066D01*
X403098Y1085596D02*
Y1091692D01*
X409194D01*
Y1085596D01*
X403098D01*
X407162Y1118870D02*
Y1129030D01*
X417322D01*
Y1118870D01*
X407162D01*
X409194Y1120902D02*
Y1126998D01*
X415290D01*
Y1120902D01*
X409194D01*
X393192Y1119124D02*
Y1129284D01*
X403352D01*
Y1119124D01*
X393192D01*
X395224Y1121156D02*
Y1127252D01*
X401320D01*
Y1121156D01*
X395224D01*
X401066Y858266D02*
Y868426D01*
X411226D01*
Y858266D01*
X401066D01*
X403098Y860298D02*
Y866394D01*
X409194D01*
Y860298D01*
X403098D01*
X695979Y408921D02*
Y419081D01*
X706139D01*
Y408921D01*
X695979D01*
X698011Y410953D02*
Y417049D01*
X704107D01*
Y410953D01*
X698011D01*
X699516Y516382D02*
Y526542D01*
X709676D01*
Y516382D01*
X699516D01*
X701548Y518414D02*
Y524510D01*
X707644D01*
Y518414D01*
X701548D01*
X394462Y1025906D02*
Y1036066D01*
X404622D01*
Y1025906D01*
X394462D01*
X396494Y1027938D02*
Y1034034D01*
X402590D01*
Y1027938D01*
X396494D01*
X394462Y865632D02*
Y875792D01*
X404622D01*
Y865632D01*
X394462D01*
X396494Y867664D02*
Y873760D01*
X402590D01*
Y867664D01*
X396494D01*
X439420Y864870D02*
Y875030D01*
X449580D01*
Y864870D01*
X439420D01*
X441452Y866902D02*
Y872998D01*
X447548D01*
Y866902D01*
X441452D01*
X497586Y874776D02*
Y884936D01*
X507746D01*
Y874776D01*
X497586D01*
X499618Y876808D02*
Y882904D01*
X505714D01*
Y876808D01*
X499618D01*
X313920Y874776D02*
Y884936D01*
X324080D01*
Y874776D01*
X313920D01*
X315952Y876808D02*
Y882904D01*
X322048D01*
Y876808D01*
X315952D01*
X657860Y810006D02*
Y820166D01*
X668020D01*
Y810006D01*
X657860D01*
X659892Y812038D02*
Y818134D01*
X665988D01*
Y812038D01*
X659892D01*
X485140Y708914D02*
Y719074D01*
X495300D01*
Y708914D01*
X485140D01*
X487172Y710946D02*
Y717042D01*
X493268D01*
Y710946D01*
X487172D01*
X687832Y502412D02*
Y512572D01*
X697992D01*
Y502412D01*
X687832D01*
X689864Y504444D02*
Y510540D01*
X695960D01*
Y504444D01*
X689864D01*
X660146Y752094D02*
Y762254D01*
X670306D01*
Y752094D01*
X660146D01*
X662178Y754126D02*
Y760222D01*
X668274D01*
Y754126D01*
X662178D01*
X642874Y558800D02*
Y568960D01*
X653034D01*
Y558800D01*
X642874D01*
X644906Y560832D02*
Y566928D01*
X651002D01*
Y560832D01*
X644906D01*
X606806Y596646D02*
Y606806D01*
X616966D01*
Y596646D01*
X606806D01*
X608838Y598678D02*
Y604774D01*
X614934D01*
Y598678D01*
X608838D01*
X660146Y597662D02*
Y607822D01*
X670306D01*
Y597662D01*
X660146D01*
X662178Y599694D02*
Y605790D01*
X668274D01*
Y599694D01*
X662178D01*
X660146Y551942D02*
Y562102D01*
X670306D01*
Y551942D01*
X660146D01*
X662178Y553974D02*
Y560070D01*
X668274D01*
Y553974D01*
X662178D01*
X444500Y505629D02*
X439420Y515789D01*
X449580D01*
X444500Y505629D01*
Y507661D02*
X441452Y513757D01*
X447548D01*
X444500Y507661D01*
Y496908D02*
X439420Y507068D01*
X449580D01*
X444500Y496908D01*
Y498941D02*
X441452Y505037D01*
X447548D01*
X444500Y498941D01*
Y488188D02*
X439420Y498348D01*
X449580D01*
X444500Y488188D01*
Y490220D02*
X441452Y496316D01*
X447548D01*
X444500Y490220D01*
X626110Y977100D02*
Y987260D01*
X636270D01*
Y977100D01*
X626110D01*
X628142Y979132D02*
Y985228D01*
X634238D01*
Y979132D01*
X628142D01*
X599186Y909320D02*
Y919480D01*
X609346D01*
Y909320D01*
X599186D01*
X601218Y911352D02*
Y917448D01*
X607314D01*
Y911352D01*
X601218D01*
X637794Y444500D02*
Y454660D01*
X647954D01*
Y444500D01*
X637794D01*
X639826Y446532D02*
Y452628D01*
X645922D01*
Y446532D01*
X639826D01*
X523748Y495046D02*
Y505206D01*
X533908D01*
Y495046D01*
X523748D01*
X525780Y497078D02*
Y503174D01*
X531876D01*
Y497078D01*
X525780D01*
X697484Y616712D02*
Y626872D01*
X707644D01*
Y616712D01*
X697484D01*
X699516Y618744D02*
Y624840D01*
X705612D01*
Y618744D01*
X699516D01*
X749670Y1285748D02*
Y1295908D01*
X759830D01*
Y1285748D01*
X749670D01*
X751702Y1287780D02*
Y1293876D01*
X757798D01*
Y1287780D01*
X751702D01*
X410972Y766572D02*
Y776732D01*
X421132D01*
Y766572D01*
X410972D01*
X413004Y768604D02*
Y774700D01*
X419100D01*
Y768604D01*
X413004D01*
D109*
X324080Y774000D02*
G03*
X324080Y774000I-5080J0D01*
G01*
X374080D02*
G03*
X374080Y774000I-5080J0D01*
G01*
X324080Y919000D02*
G03*
X324080Y919000I-5080J0D01*
G01*
X349080D02*
G03*
X349080Y919000I-5080J0D01*
G01*
X374080D02*
G03*
X374080Y919000I-5080J0D01*
G01*
X556580Y724000D02*
G03*
X556580Y724000I-5080J0D01*
G01*
X581580D02*
G03*
X581580Y724000I-5080J0D01*
G01*
X531580D02*
G03*
X531580Y724000I-5080J0D01*
G01*
X739080Y774000D02*
G03*
X739080Y774000I-5080J0D01*
G01*
X789080D02*
G03*
X789080Y774000I-5080J0D01*
G01*
X739080Y919000D02*
G03*
X739080Y919000I-5080J0D01*
G01*
X764080D02*
G03*
X764080Y919000I-5080J0D01*
G01*
X789080D02*
G03*
X789080Y919000I-5080J0D01*
G01*
X556580Y554000D02*
G03*
X556580Y554000I-5080J0D01*
G01*
X581580D02*
G03*
X581580Y554000I-5080J0D01*
G01*
X531580D02*
G03*
X531580Y554000I-5080J0D01*
G01*
X469900Y453390D02*
G03*
X469900Y453390I-5080J0D01*
G01*
Y469900D02*
G03*
X469900Y469900I-5080J0D01*
G01*
X452120Y550926D02*
G03*
X452120Y550926I-5080J0D01*
G01*
X468630Y536956D02*
G03*
X468630Y536956I-5080J0D01*
G01*
X452374D02*
G03*
X452374Y536956I-5080J0D01*
G01*
X806450Y447040D02*
G03*
X806450Y447040I-5080J0D01*
G01*
X752094Y395986D02*
G03*
X752094Y395986I-5080J0D01*
G01*
Y459994D02*
G03*
X752094Y459994I-5080J0D01*
G01*
X523748Y377190D02*
G03*
X523748Y377190I-5080J0D01*
G01*
X521716Y470662D02*
G03*
X521716Y470662I-5080J0D01*
G01*
X537718D02*
G03*
X537718Y470662I-5080J0D01*
G01*
X553720Y454152D02*
G03*
X553720Y454152I-5080J0D01*
G01*
X537718D02*
G03*
X537718Y454152I-5080J0D01*
G01*
X521716D02*
G03*
X521716Y454152I-5080J0D01*
G01*
X553720Y470662D02*
G03*
X553720Y470662I-5080J0D01*
G01*
X608838Y558292D02*
G03*
X608838Y558292I-5080J0D01*
G01*
X647636Y491490D02*
G03*
X647636Y491490I-5080J0D01*
G01*
X383032Y513334D02*
G03*
X383032Y513334I-5080J0D01*
G01*
X416560Y453390D02*
G03*
X416560Y453390I-5080J0D01*
G01*
X434340D02*
G03*
X434340Y453390I-5080J0D01*
G01*
Y469900D02*
G03*
X434340Y469900I-5080J0D01*
G01*
X416560D02*
G03*
X416560Y469900I-5080J0D01*
G01*
X452120D02*
G03*
X452120Y469900I-5080J0D01*
G01*
Y453390D02*
G03*
X452120Y453390I-5080J0D01*
G01*
X347980Y571500D02*
G03*
X347980Y571500I-5080J0D01*
G01*
X364490D02*
G03*
X364490Y571500I-5080J0D01*
G01*
X347980Y554990D02*
G03*
X347980Y554990I-5080J0D01*
G01*
X364490D02*
G03*
X364490Y554990I-5080J0D01*
G01*
X436118Y550672D02*
G03*
X436118Y550672I-5080J0D01*
G01*
X398780Y469900D02*
G03*
X398780Y469900I-5080J0D01*
G01*
Y453390D02*
G03*
X398780Y453390I-5080J0D01*
G01*
X345440D02*
G03*
X345440Y453390I-5080J0D01*
G01*
X363220D02*
G03*
X363220Y453390I-5080J0D01*
G01*
X381000D02*
G03*
X381000Y453390I-5080J0D01*
G01*
X596930Y649000D02*
G03*
X596930Y649000I-5080J0D01*
G01*
X459080Y817270D02*
G03*
X459080Y817270I-5080J0D01*
G01*
X646580Y751736D02*
G03*
X646580Y751736I-5080J0D01*
G01*
X438164Y747000D02*
G03*
X438164Y747000I-5080J0D01*
G01*
X831244Y351518D02*
G03*
X831244Y351518I-5080J0D01*
G01*
X708914Y606410D02*
G03*
X708914Y606410I-5080J0D01*
G01*
X646684Y623570D02*
G03*
X646684Y623570I-5080J0D01*
G01*
X383032Y580390D02*
G03*
X383032Y580390I-5080J0D01*
G01*
X468630Y550672D02*
G03*
X468630Y550672I-5080J0D01*
G01*
X419862D02*
G03*
X419862Y550672I-5080J0D01*
G01*
X335280Y513842D02*
G03*
X335280Y513842I-5080J0D01*
G01*
Y486156D02*
G03*
X335280Y486156I-5080J0D01*
G01*
Y499999D02*
G03*
X335280Y499999I-5080J0D01*
G01*
X318516D02*
G03*
X318516Y499999I-5080J0D01*
G01*
Y486156D02*
G03*
X318516Y486156I-5080J0D01*
G01*
Y513842D02*
G03*
X318516Y513842I-5080J0D01*
G01*
D110*
X467868Y453390D02*
G03*
X467868Y453390I-3048J0D01*
G01*
Y469900D02*
G03*
X467868Y469900I-3048J0D01*
G01*
X450088Y550926D02*
G03*
X450088Y550926I-3048J0D01*
G01*
X466598Y536956D02*
G03*
X466598Y536956I-3048J0D01*
G01*
X450342D02*
G03*
X450342Y536956I-3048J0D01*
G01*
X804418Y447040D02*
G03*
X804418Y447040I-3048J0D01*
G01*
X750062Y395986D02*
G03*
X750062Y395986I-3048J0D01*
G01*
Y459994D02*
G03*
X750062Y459994I-3048J0D01*
G01*
X521716Y377190D02*
G03*
X521716Y377190I-3048J0D01*
G01*
X519684Y470662D02*
G03*
X519684Y470662I-3048J0D01*
G01*
X535686D02*
G03*
X535686Y470662I-3048J0D01*
G01*
X551688Y454152D02*
G03*
X551688Y454152I-3048J0D01*
G01*
X535686D02*
G03*
X535686Y454152I-3048J0D01*
G01*
X519684D02*
G03*
X519684Y454152I-3048J0D01*
G01*
X551688Y470662D02*
G03*
X551688Y470662I-3048J0D01*
G01*
X606806Y558292D02*
G03*
X606806Y558292I-3048J0D01*
G01*
X645604Y491490D02*
G03*
X645604Y491490I-3048J0D01*
G01*
X381000Y513334D02*
G03*
X381000Y513334I-3048J0D01*
G01*
X414528Y453390D02*
G03*
X414528Y453390I-3048J0D01*
G01*
X432308D02*
G03*
X432308Y453390I-3048J0D01*
G01*
Y469900D02*
G03*
X432308Y469900I-3048J0D01*
G01*
X414528D02*
G03*
X414528Y469900I-3048J0D01*
G01*
X450088D02*
G03*
X450088Y469900I-3048J0D01*
G01*
Y453390D02*
G03*
X450088Y453390I-3048J0D01*
G01*
X345948Y571500D02*
G03*
X345948Y571500I-3048J0D01*
G01*
X362458D02*
G03*
X362458Y571500I-3048J0D01*
G01*
X345948Y554990D02*
G03*
X345948Y554990I-3048J0D01*
G01*
X362458D02*
G03*
X362458Y554990I-3048J0D01*
G01*
X434086Y550672D02*
G03*
X434086Y550672I-3048J0D01*
G01*
X396748Y469900D02*
G03*
X396748Y469900I-3048J0D01*
G01*
Y453390D02*
G03*
X396748Y453390I-3048J0D01*
G01*
X343408D02*
G03*
X343408Y453390I-3048J0D01*
G01*
X361188D02*
G03*
X361188Y453390I-3048J0D01*
G01*
X378968D02*
G03*
X378968Y453390I-3048J0D01*
G01*
X594898Y649000D02*
G03*
X594898Y649000I-3048J0D01*
G01*
X457048Y817270D02*
G03*
X457048Y817270I-3048J0D01*
G01*
X644548Y751736D02*
G03*
X644548Y751736I-3048J0D01*
G01*
X436132Y747000D02*
G03*
X436132Y747000I-3048J0D01*
G01*
X829212Y351518D02*
G03*
X829212Y351518I-3048J0D01*
G01*
X706882Y606410D02*
G03*
X706882Y606410I-3048J0D01*
G01*
X644652Y623570D02*
G03*
X644652Y623570I-3048J0D01*
G01*
X381000Y580390D02*
G03*
X381000Y580390I-3048J0D01*
G01*
X466598Y550672D02*
G03*
X466598Y550672I-3048J0D01*
G01*
X417830D02*
G03*
X417830Y550672I-3048J0D01*
G01*
X333248Y513842D02*
G03*
X333248Y513842I-3048J0D01*
G01*
Y486156D02*
G03*
X333248Y486156I-3048J0D01*
G01*
Y499999D02*
G03*
X333248Y499999I-3048J0D01*
G01*
X316484D02*
G03*
X316484Y499999I-3048J0D01*
G01*
Y486156D02*
G03*
X316484Y486156I-3048J0D01*
G01*
Y513842D02*
G03*
X316484Y513842I-3048J0D01*
G01*
M02*
