G04*
G04 #@! TF.GenerationSoftware,Altium Limited,CircuitStudio,1.5.1 (13)*
G04*
G04 Layer_Color=8150272*
%FSLAX44Y44*%
%MOMM*%
G71*
G01*
G75*
%ADD71R,1.1032X1.0032*%
%ADD72R,1.0032X1.1032*%
%ADD75R,1.4032X1.6032*%
%ADD76R,1.6032X1.4032*%
%ADD79R,1.9032X1.3032*%
%ADD91R,2.0032X2.8032*%
%ADD92R,2.2032X2.2032*%
%ADD93C,2.2032*%
%ADD94C,2.2352*%
%ADD95C,2.7032*%
%ADD96R,2.7032X2.7032*%
%ADD97R,2.0032X1.4032*%
%ADD98C,1.8533*%
%ADD99C,1.7032*%
%ADD100R,1.7032X1.7032*%
%ADD101R,1.7032X1.7032*%
%ADD102C,1.4032*%
%ADD103C,0.7620*%
%ADD104C,1.4732*%
%ADD105C,0.7112*%
%ADD106R,0.8532X2.8032*%
%ADD107R,1.1032X1.1532*%
D71*
X290576Y1057260D02*
D03*
Y1071260D02*
D03*
X758190Y1220612D02*
D03*
Y1206612D02*
D03*
X590550Y1055990D02*
D03*
Y1069990D02*
D03*
X450850Y1207120D02*
D03*
Y1221120D02*
D03*
X577850Y1055990D02*
D03*
Y1069990D02*
D03*
X453390Y1054834D02*
D03*
Y1068834D02*
D03*
X452374Y1119236D02*
D03*
Y1133236D02*
D03*
X440944Y1068832D02*
D03*
Y1054832D02*
D03*
X428244Y1054720D02*
D03*
Y1068720D02*
D03*
X466852Y1068832D02*
D03*
Y1054832D02*
D03*
D72*
X741568Y1240790D02*
D03*
X727568D02*
D03*
X460360Y1181100D02*
D03*
X474360D02*
D03*
X577708Y1196594D02*
D03*
X591708D02*
D03*
X461630Y1149350D02*
D03*
X475630D02*
D03*
X464424Y1096010D02*
D03*
X478424D02*
D03*
X464424Y1108710D02*
D03*
X478424D02*
D03*
X460360Y1168400D02*
D03*
X474360D02*
D03*
X333106Y1246124D02*
D03*
X347106D02*
D03*
X440070Y1080770D02*
D03*
X426070D02*
D03*
X440070Y1093216D02*
D03*
X426070D02*
D03*
D75*
X498492Y414274D02*
D03*
X516492D02*
D03*
X401210Y414020D02*
D03*
X419210D02*
D03*
X669180Y1002030D02*
D03*
X687180D02*
D03*
X404258Y298958D02*
D03*
X422258D02*
D03*
X653432D02*
D03*
X671432D02*
D03*
D76*
X474726Y1208168D02*
D03*
Y1226168D02*
D03*
D79*
X561340Y1085380D02*
D03*
Y1058380D02*
D03*
D91*
X287000Y844000D02*
D03*
X401000D02*
D03*
X702000D02*
D03*
X816000D02*
D03*
D92*
X319000Y774000D02*
D03*
X526500Y724000D02*
D03*
X734000Y774000D02*
D03*
X526500Y554000D02*
D03*
D93*
X369000Y774000D02*
D03*
X319000Y919000D02*
D03*
X344000D02*
D03*
X369000D02*
D03*
X551500Y724000D02*
D03*
X576500D02*
D03*
X784000Y774000D02*
D03*
X734000Y919000D02*
D03*
X759000D02*
D03*
X784000D02*
D03*
X551500Y554000D02*
D03*
X576500D02*
D03*
D94*
X812800Y1108456D02*
D03*
Y1186180D02*
D03*
X673100Y326644D02*
D03*
X769112Y588264D02*
D03*
X660654Y536194D02*
D03*
X590296Y388620D02*
D03*
X673100Y362458D02*
D03*
X505714Y279654D02*
D03*
X336042Y298958D02*
D03*
X425704Y336550D02*
D03*
X676148Y777494D02*
D03*
X444500Y843280D02*
D03*
X425704Y374904D02*
D03*
X351282Y413766D02*
D03*
X387350Y1287780D02*
D03*
X388366Y1211580D02*
D03*
X387350Y1236980D02*
D03*
Y1262380D02*
D03*
X438912Y930656D02*
D03*
Y966470D02*
D03*
X557276Y1002030D02*
D03*
X559562Y961390D02*
D03*
X297942Y422148D02*
D03*
X813816Y1056894D02*
D03*
X334772Y1104646D02*
D03*
X776500Y481500D02*
D03*
X801500D02*
D03*
X812800Y1160272D02*
D03*
Y1134364D02*
D03*
Y1082548D02*
D03*
D95*
X409000Y664000D02*
D03*
Y714000D02*
D03*
X284000Y664000D02*
D03*
X819000D02*
D03*
Y714000D02*
D03*
X694000Y664000D02*
D03*
D96*
X284000Y714000D02*
D03*
X694000D02*
D03*
D97*
X598000Y799000D02*
D03*
X505000D02*
D03*
X598000Y629000D02*
D03*
X505000D02*
D03*
D98*
X474000Y299000D02*
D03*
Y384001D02*
D03*
Y414001D02*
D03*
X379000Y299000D02*
D03*
Y384001D02*
D03*
Y414001D02*
D03*
X724000Y299000D02*
D03*
Y384001D02*
D03*
Y414001D02*
D03*
X629158Y299000D02*
D03*
Y384001D02*
D03*
Y414001D02*
D03*
D99*
X800100Y1273810D02*
D03*
Y1248410D02*
D03*
X632460Y1289050D02*
D03*
X607060D02*
D03*
X581660D02*
D03*
X556260D02*
D03*
X530860D02*
D03*
X505460D02*
D03*
X480060D02*
D03*
X690880Y1024890D02*
D03*
X665480D02*
D03*
X690880Y1050290D02*
D03*
X665480D02*
D03*
X690880Y1075690D02*
D03*
X665480D02*
D03*
X690880Y1101090D02*
D03*
X665480D02*
D03*
X690880Y1126490D02*
D03*
X665480D02*
D03*
X690880Y1151890D02*
D03*
X665480D02*
D03*
X690880Y1177290D02*
D03*
X665480D02*
D03*
X690880Y1202690D02*
D03*
X665480D02*
D03*
X690880Y1228090D02*
D03*
X665480D02*
D03*
X690880Y1253490D02*
D03*
X471900Y571500D02*
D03*
X446500Y596900D02*
D03*
X471900D02*
D03*
X446500Y622300D02*
D03*
X471900D02*
D03*
X446500Y647700D02*
D03*
X471900D02*
D03*
X446500Y673100D02*
D03*
X471900D02*
D03*
D100*
X800100Y1223010D02*
D03*
X665480Y1253490D02*
D03*
X446500Y571500D02*
D03*
D101*
X454660Y1289050D02*
D03*
D102*
X551500Y899400D02*
D03*
Y874000D02*
D03*
Y924800D02*
D03*
D103*
X465328Y1119632D02*
D03*
X478536D02*
D03*
X477520Y1080770D02*
D03*
X465760D02*
D03*
X454000Y1090168D02*
D03*
Y1080770D02*
D03*
X718312Y1249680D02*
D03*
X727568Y1229614D02*
D03*
X480822Y1138428D02*
D03*
X428752Y1044448D02*
D03*
X453390D02*
D03*
X561340Y1046734D02*
D03*
X579628Y328930D02*
D03*
X480060Y1128522D02*
D03*
X425704Y317754D02*
D03*
X503174Y382524D02*
D03*
X575818Y414274D02*
D03*
X784098Y458724D02*
D03*
X784000Y440338D02*
D03*
X266954Y364998D02*
D03*
X569722Y361188D02*
D03*
X592455Y404876D02*
D03*
X737616Y315722D02*
D03*
X768604Y327406D02*
D03*
Y400558D02*
D03*
X629158Y444246D02*
D03*
X558292Y408178D02*
D03*
X433070Y414020D02*
D03*
X532638Y414274D02*
D03*
X558292Y517144D02*
D03*
X618490D02*
D03*
X576580Y822960D02*
D03*
X628650Y762762D02*
D03*
X578104Y672084D02*
D03*
X476250Y707136D02*
D03*
X467106Y727964D02*
D03*
X737616Y735330D02*
D03*
X527050Y750062D02*
D03*
X604520Y459790D02*
D03*
X527050Y908050D02*
D03*
X628650Y633984D02*
D03*
X618490Y801370D02*
D03*
X484632Y967994D02*
D03*
Y944118D02*
D03*
X468376Y943610D02*
D03*
X474472Y1044448D02*
D03*
X510032Y985774D02*
D03*
X330454Y977646D02*
D03*
X342900Y977646D02*
D03*
X364490Y1019302D02*
D03*
Y985500D02*
D03*
X546989Y1038225D02*
D03*
X545846Y1191768D02*
D03*
X359156Y1188212D02*
D03*
X349250Y1188466D02*
D03*
X495046Y1095756D02*
D03*
X487680Y1086358D02*
D03*
X517398Y1101090D02*
D03*
X510286Y1110488D02*
D03*
X517398Y1157986D02*
D03*
X510286Y1139190D02*
D03*
X494792Y1180592D02*
D03*
Y1170432D02*
D03*
X471678Y1198118D02*
D03*
X762762Y1173988D02*
D03*
X647700Y1140714D02*
D03*
X705358Y1240282D02*
D03*
X711708Y1256030D02*
D03*
X741750Y1229614D02*
D03*
X711708Y1153668D02*
D03*
X705358Y1173988D02*
D03*
X562864Y1250696D02*
D03*
X645160Y1303274D02*
D03*
X517652Y1231900D02*
D03*
X439562Y1221120D02*
D03*
X461010Y1230630D02*
D03*
X499000Y1244346D02*
D03*
Y1231900D02*
D03*
X626110Y1257300D02*
D03*
Y1094000D02*
D03*
X618490Y1101090D02*
D03*
Y1266190D02*
D03*
X610870Y1106170D02*
D03*
X648970Y1225550D02*
D03*
X647700Y1130300D02*
D03*
X603504Y1128522D02*
D03*
X647700Y1075690D02*
D03*
X648970Y1214500D02*
D03*
X322580Y1285240D02*
D03*
X537210Y401320D02*
D03*
X314000Y1024890D02*
D03*
X289000D02*
D03*
X828050Y394960D02*
D03*
X824230Y280670D02*
D03*
X759460Y1022350D02*
D03*
X543194Y294274D02*
D03*
X674370Y491998D02*
D03*
X671130Y447802D02*
D03*
X604012Y469392D02*
D03*
X576580Y1045718D02*
D03*
X451358Y1098804D02*
D03*
X440690Y1044448D02*
D03*
X465328D02*
D03*
X415544Y1081786D02*
D03*
X416052Y1072896D02*
D03*
X382430Y1146970D02*
D03*
X386588Y1183132D02*
D03*
X451104Y1158494D02*
D03*
X450088Y1173988D02*
D03*
X451322Y1109000D02*
D03*
X451358Y1149096D02*
D03*
X601472Y1069990D02*
D03*
X545846Y1086104D02*
D03*
X761250Y1196098D02*
D03*
X758190Y1230884D02*
D03*
X741750Y1290828D02*
D03*
X704342Y1292860D02*
D03*
X715264Y1272540D02*
D03*
X788304Y1204976D02*
D03*
X565150Y1196594D02*
D03*
X601980D02*
D03*
X567690Y336042D02*
D03*
X658114Y859790D02*
D03*
X608510Y811710D02*
D03*
X556260Y1189482D02*
D03*
X610870Y1272540D02*
D03*
X358902Y1246124D02*
D03*
X322580Y1246378D02*
D03*
X633222Y1084072D02*
D03*
X604266Y1118616D02*
D03*
X504000Y1118806D02*
D03*
X439024Y1207120D02*
D03*
X300736Y1235964D02*
D03*
Y1088898D02*
D03*
X290322Y1081786D02*
D03*
Y1267640D02*
D03*
X313436Y1072896D02*
D03*
X312580Y1200658D02*
D03*
X320802Y1042670D02*
D03*
X505460Y1265936D02*
D03*
X517652Y1273556D02*
D03*
X454660Y1257300D02*
D03*
X562864Y1235456D02*
D03*
X739940Y982180D02*
D03*
X320802Y1191768D02*
D03*
X536194Y970026D02*
D03*
X535432Y1008634D02*
D03*
X592216Y1010300D02*
D03*
X445516Y991870D02*
D03*
X681592Y931562D02*
D03*
X784000Y981612D02*
D03*
X644906Y893064D02*
D03*
X618490Y859790D02*
D03*
X445262Y1004570D02*
D03*
X517398Y1035304D02*
D03*
X502666Y1004062D02*
D03*
Y1035304D02*
D03*
X510286Y1011428D02*
D03*
X486664Y1009650D02*
D03*
X380962Y950760D02*
D03*
X392572Y887364D02*
D03*
X349250Y1063752D02*
D03*
X392572Y1050148D02*
D03*
X406146Y1088644D02*
D03*
X412242Y1123950D02*
D03*
X398272Y1124204D02*
D03*
X406146Y863346D02*
D03*
X701059Y414001D02*
D03*
X704596Y521462D02*
D03*
X399542Y1030986D02*
D03*
Y870712D02*
D03*
X444500Y869950D02*
D03*
X502666Y879856D02*
D03*
X319000D02*
D03*
X662940Y815086D02*
D03*
X490220Y713994D02*
D03*
X692912Y507492D02*
D03*
X665226Y757174D02*
D03*
X647954Y563880D02*
D03*
X611886Y601726D02*
D03*
X665226Y602742D02*
D03*
Y557022D02*
D03*
X631190Y982180D02*
D03*
X604266Y914400D02*
D03*
X642874Y449580D02*
D03*
X528828Y500126D02*
D03*
X702564Y621792D02*
D03*
X754750Y1290828D02*
D03*
X416052Y771652D02*
D03*
D104*
X464820Y453390D02*
D03*
Y469900D02*
D03*
X447040Y550926D02*
D03*
X463550Y536956D02*
D03*
X447294D02*
D03*
X801370Y447040D02*
D03*
X747014Y395986D02*
D03*
Y459994D02*
D03*
X518668Y377190D02*
D03*
X516636Y470662D02*
D03*
X532638D02*
D03*
X548640Y454152D02*
D03*
X532638D02*
D03*
X516636D02*
D03*
X548640Y470662D02*
D03*
X603758Y558292D02*
D03*
X642556Y491490D02*
D03*
X377952Y513334D02*
D03*
X411480Y453390D02*
D03*
X429260D02*
D03*
Y469900D02*
D03*
X411480D02*
D03*
X447040D02*
D03*
Y453390D02*
D03*
X342900Y571500D02*
D03*
X359410D02*
D03*
X342900Y554990D02*
D03*
X359410D02*
D03*
X431038Y550672D02*
D03*
X393700Y469900D02*
D03*
Y453390D02*
D03*
X340360D02*
D03*
X358140D02*
D03*
X375920D02*
D03*
X591850Y649000D02*
D03*
X454000Y817270D02*
D03*
X641500Y751736D02*
D03*
X433084Y747000D02*
D03*
X826164Y351518D02*
D03*
X703834Y606410D02*
D03*
X641604Y623570D02*
D03*
X377952Y580390D02*
D03*
X463550Y550672D02*
D03*
X414782D02*
D03*
X330200Y513842D02*
D03*
Y486156D02*
D03*
Y499999D02*
D03*
X313436D02*
D03*
Y486156D02*
D03*
Y513842D02*
D03*
D105*
X444500Y519430D02*
D03*
X462280D02*
D03*
Y510709D02*
D03*
Y501988D02*
D03*
Y493268D02*
D03*
X453390Y519430D02*
D03*
Y510709D02*
D03*
Y501988D02*
D03*
Y493268D02*
D03*
X444500Y510709D02*
D03*
Y501988D02*
D03*
Y493268D02*
D03*
D106*
X454000Y791000D02*
D03*
Y747000D02*
D03*
X641500Y682000D02*
D03*
Y726000D02*
D03*
D107*
X610000Y649000D02*
D03*
X641500D02*
D03*
M02*
