G04*
G04 #@! TF.GenerationSoftware,Altium Limited,CircuitStudio,1.5.1 (13)*
G04*
G04 Layer_Physical_Order=4*
G04 Layer_Color=12500520*
%FSLAX44Y44*%
%MOMM*%
G71*
G01*
G75*
%ADD10R,0.9000X0.8000*%
%ADD11R,0.8000X0.9000*%
%ADD14R,1.2000X1.4000*%
%ADD15R,1.4000X1.2000*%
%ADD18R,1.7000X1.1000*%
%ADD33C,0.2540*%
%ADD34C,0.5080*%
%ADD35C,0.2032*%
%ADD42R,1.8000X2.6000*%
%ADD43R,2.0000X2.0000*%
%ADD44C,2.0000*%
%ADD45C,2.0320*%
%ADD46C,2.5000*%
%ADD47R,2.5000X2.5000*%
%ADD48R,1.8000X1.2000*%
%ADD49C,1.6501*%
%ADD50C,1.5000*%
%ADD51R,1.5000X1.5000*%
%ADD52R,1.5000X1.5000*%
%ADD53C,1.2000*%
%ADD54C,0.5588*%
%ADD55C,1.2700*%
%ADD56C,0.5080*%
%ADD58R,0.6500X2.6000*%
%ADD59R,0.9000X0.9500*%
G36*
X458216Y1088898D02*
X482162D01*
X483012Y1087628D01*
X482759Y1086358D01*
X483134Y1084475D01*
X484201Y1082878D01*
X484313Y1082803D01*
Y1075436D01*
X472440D01*
Y1075372D01*
X468122D01*
Y1068832D01*
X465582D01*
Y1075372D01*
X460430D01*
Y1075374D01*
X454660D01*
Y1068834D01*
X452120D01*
Y1075374D01*
X446610D01*
Y1079500D01*
X440070D01*
Y1082040D01*
X446610D01*
Y1086176D01*
Y1091946D01*
X440070D01*
Y1094486D01*
X446610D01*
Y1094796D01*
X446814Y1095000D01*
X447879Y1095324D01*
X449475Y1094258D01*
X451358Y1093883D01*
X453241Y1094258D01*
X454837Y1095324D01*
X454912Y1095437D01*
X458216D01*
Y1088898D01*
D02*
G37*
G36*
X490982Y1183576D02*
X490246Y1182475D01*
X489871Y1180592D01*
X490246Y1178709D01*
X490982Y1177607D01*
X490982Y1173416D01*
X490246Y1172315D01*
X489871Y1170432D01*
X490246Y1168549D01*
X490982Y1167448D01*
X490982Y1132528D01*
X490084Y1131630D01*
X484082D01*
X483345Y1132488D01*
X483515Y1133812D01*
X484668Y1134582D01*
X485846Y1136347D01*
X486008Y1137158D01*
X475636D01*
X475797Y1136347D01*
X476976Y1134582D01*
X477619Y1134153D01*
X477567Y1132660D01*
X476581Y1132001D01*
X475514Y1130405D01*
X475139Y1128522D01*
X475514Y1126639D01*
X476581Y1125042D01*
X478177Y1123976D01*
X480060Y1123601D01*
X481943Y1123976D01*
X483539Y1125042D01*
X483787Y1125414D01*
X490982D01*
X490982Y1105290D01*
X490084Y1104392D01*
X484964D01*
Y1107440D01*
X478424D01*
Y1108710D01*
X477154D01*
Y1115750D01*
X471884D01*
Y1115314D01*
X458906D01*
Y1125268D01*
X458470D01*
Y1126696D01*
X459414D01*
Y1131966D01*
X452374D01*
Y1133236D01*
X451104D01*
Y1139776D01*
X447271D01*
X446375Y1140676D01*
X446395Y1145551D01*
X447666Y1145934D01*
X447878Y1145617D01*
X449475Y1144550D01*
X451358Y1144175D01*
X453241Y1144550D01*
X454328Y1145276D01*
X455598Y1144643D01*
Y1142818D01*
X467662D01*
Y1155882D01*
X457185D01*
X456275Y1157152D01*
X456290Y1157224D01*
X451104D01*
Y1159764D01*
X456290D01*
X456128Y1160575D01*
X456013Y1160748D01*
X456612Y1161868D01*
X466392D01*
Y1174568D01*
Y1186428D01*
X467662Y1187229D01*
X467820Y1187153D01*
Y1187131D01*
Y1182370D01*
X474360D01*
X480900D01*
Y1187131D01*
X480900Y1188140D01*
X482062Y1188401D01*
X490982D01*
Y1183576D01*
D02*
G37*
%LPC*%
G36*
X482170Y1148080D02*
X475630D01*
X469090D01*
Y1142310D01*
X475473D01*
X476152Y1141040D01*
X475797Y1140509D01*
X475636Y1139698D01*
X486008D01*
X485846Y1140509D01*
X484668Y1142273D01*
X482903Y1143452D01*
X482170Y1143598D01*
Y1148080D01*
D02*
G37*
G36*
X459414Y1139776D02*
X453644D01*
Y1134506D01*
X459414D01*
Y1139776D01*
D02*
G37*
G36*
X484964Y1115750D02*
X479694D01*
Y1109980D01*
X484964D01*
Y1115750D01*
D02*
G37*
G36*
X474360Y1156390D02*
X469090D01*
Y1150620D01*
X474360D01*
Y1156390D01*
D02*
G37*
G36*
X480900Y1167130D02*
X475630D01*
Y1161360D01*
X480900D01*
Y1167130D01*
D02*
G37*
G36*
Y1179830D02*
X474360D01*
X467820D01*
Y1174060D01*
Y1169670D01*
X474360D01*
X480900D01*
Y1174060D01*
Y1179830D01*
D02*
G37*
G36*
X482170Y1156390D02*
X476900D01*
Y1150620D01*
X482170D01*
Y1156390D01*
D02*
G37*
G36*
X473090Y1167130D02*
X467820D01*
Y1161360D01*
X473090D01*
Y1167130D01*
D02*
G37*
%LPD*%
D10*
X290576Y1057260D02*
D03*
Y1071260D02*
D03*
X758190Y1220612D02*
D03*
Y1206612D02*
D03*
X590550Y1055990D02*
D03*
Y1069990D02*
D03*
X450850Y1207120D02*
D03*
Y1221120D02*
D03*
X577850Y1055990D02*
D03*
Y1069990D02*
D03*
X453390Y1054834D02*
D03*
Y1068834D02*
D03*
X452374Y1119236D02*
D03*
Y1133236D02*
D03*
X440944Y1068832D02*
D03*
Y1054832D02*
D03*
X428244Y1054720D02*
D03*
Y1068720D02*
D03*
X466852Y1068832D02*
D03*
Y1054832D02*
D03*
D11*
X741568Y1240790D02*
D03*
X727568D02*
D03*
X460360Y1181100D02*
D03*
X474360D02*
D03*
X577708Y1196594D02*
D03*
X591708D02*
D03*
X461630Y1149350D02*
D03*
X475630D02*
D03*
X464424Y1096010D02*
D03*
X478424D02*
D03*
X464424Y1108710D02*
D03*
X478424D02*
D03*
X460360Y1168400D02*
D03*
X474360D02*
D03*
X333106Y1246124D02*
D03*
X347106D02*
D03*
X440070Y1080770D02*
D03*
X426070D02*
D03*
X440070Y1093216D02*
D03*
X426070D02*
D03*
D14*
X498492Y414274D02*
D03*
X516492D02*
D03*
X401210Y414020D02*
D03*
X419210D02*
D03*
X669180Y1002030D02*
D03*
X687180D02*
D03*
X404258Y298958D02*
D03*
X422258D02*
D03*
X653432D02*
D03*
X671432D02*
D03*
D15*
X474726Y1208168D02*
D03*
Y1226168D02*
D03*
D18*
X561340Y1085380D02*
D03*
Y1058380D02*
D03*
D33*
X478424Y1085230D02*
Y1096010D01*
X440944Y1068832D02*
Y1079896D01*
Y1068832D02*
X453388D01*
X711454Y1140714D02*
X769620Y1082548D01*
X711454Y1140714D02*
X718312Y1147572D01*
X769620Y1082548D02*
X812800D01*
X718312Y1147572D02*
Y1249680D01*
X727568Y1229614D02*
Y1240790D01*
X480822Y1138428D02*
Y1143904D01*
X475376Y1149350D02*
X480822Y1143904D01*
X474360Y1162954D02*
Y1168400D01*
X453248Y1173988D02*
X454772D01*
X460360Y1168400D01*
X453248Y1173988D02*
X460360Y1181100D01*
X450088Y1173988D02*
X453248D01*
X453390Y1044448D02*
Y1054834D01*
X428752Y1044448D02*
Y1054720D01*
X440690Y1044448D02*
Y1054578D01*
X464424Y1096010D02*
Y1108710D01*
X451358Y1098804D02*
X461630D01*
X478424Y1096010D02*
Y1108710D01*
X577850Y1046988D02*
Y1055990D01*
X561340Y1046734D02*
Y1058380D01*
X406146Y863346D02*
Y1088644D01*
Y1088898D01*
X425704Y317754D02*
Y336550D01*
X503174Y351028D02*
Y382524D01*
X451104Y298958D02*
X503174Y351028D01*
X422258Y298958D02*
X451104D01*
X659638Y326644D02*
X673100D01*
X653432Y320438D02*
X659638Y326644D01*
X653432Y298958D02*
Y320438D01*
X671432Y298958D02*
X692912Y320438D01*
X575818Y334830D02*
Y414274D01*
X571246Y330258D02*
X575818Y334830D01*
X784098Y440436D02*
Y458724D01*
X784000Y440338D02*
X784098Y440436D01*
X768350Y473350D02*
X776500Y481500D01*
X768350Y402844D02*
Y473350D01*
Y402844D02*
X768604Y400558D01*
X266954Y1018540D02*
X290576Y1042162D01*
X266954Y364744D02*
Y1018540D01*
X571246Y304800D02*
Y330258D01*
X560720Y294274D02*
X571246Y304800D01*
X543194Y294274D02*
X560720D01*
X569722Y361188D02*
Y427736D01*
X576500Y434514D01*
X768604Y327406D02*
Y400558D01*
X419210Y414020D02*
X433070D01*
X516492Y414274D02*
X532638D01*
X474000Y414001D02*
X498219D01*
X558292Y408178D02*
Y517144D01*
X655574Y784352D02*
X662940Y791718D01*
Y815086D01*
X576500Y724000D02*
Y822960D01*
X476250Y1011174D02*
X487680Y1022604D01*
X476250Y707136D02*
Y1011174D01*
X576500Y434514D02*
Y554000D01*
X618490Y517144D02*
Y801370D01*
X364490Y985500D02*
Y1019302D01*
X438150Y1191768D02*
X545846D01*
X418338Y1211580D02*
X438150Y1191768D01*
X388366Y1211580D02*
X418338D01*
X487680Y1022604D02*
Y1086358D01*
X471678Y1198118D02*
Y1198372D01*
X474726Y1201420D01*
Y1208168D01*
X762762Y1158494D02*
X812800Y1108456D01*
X762762Y1158494D02*
Y1173988D01*
X812800Y1160272D02*
X829310Y1176782D01*
X647700Y1140714D02*
X711454D01*
X711708Y1153668D02*
Y1256030D01*
X741750Y1230884D02*
Y1240608D01*
X705358Y1173988D02*
Y1240282D01*
X829310Y1176782D02*
Y1219200D01*
X800100Y1248410D02*
X829310Y1219200D01*
X562864Y1235456D02*
Y1250696D01*
X645160Y1278382D02*
Y1303274D01*
X633222Y1266444D02*
X645160Y1278382D01*
X517652Y1231900D02*
Y1273556D01*
X439562Y1221120D02*
X450850D01*
X499000Y1231900D02*
Y1244346D01*
X626110Y1094000D02*
Y1257300D01*
X618490Y1101090D02*
Y1266190D01*
X648970Y1225550D02*
X665480Y1209040D01*
X647700Y1075690D02*
Y1130300D01*
X665480Y1202690D02*
Y1209040D01*
X577850Y1069990D02*
X590550D01*
X577850Y1055990D02*
X590550D01*
X451358Y1149096D02*
X461630D01*
X451322Y1109000D02*
Y1117422D01*
X474360Y1168400D02*
Y1181100D01*
X590550Y1069990D02*
X601472D01*
X560616Y1086104D02*
X561340Y1085380D01*
X545846Y1086104D02*
X560616D01*
X758190Y1199158D02*
X761250Y1196098D01*
X758190Y1199158D02*
Y1206612D01*
Y1220612D02*
Y1230884D01*
X565150Y1196594D02*
X577708D01*
X379000Y414001D02*
X401191D01*
X556260Y1189482D02*
Y1289050D01*
X610870Y1106170D02*
Y1272540D01*
X347106Y1246124D02*
X358902D01*
X633222Y1084072D02*
Y1266444D01*
X300736Y1088898D02*
Y1235964D01*
X290576Y1071260D02*
Y1081532D01*
X290322Y1081786D02*
Y1267640D01*
X312580Y1073752D02*
Y1200658D01*
X505460Y1265936D02*
Y1289050D01*
X454660Y1257300D02*
Y1289050D01*
X320802Y1042670D02*
Y1191768D01*
X681592Y931562D02*
X721438D01*
X734000Y919000D01*
X629000Y299000D02*
X653390D01*
X701059Y414001D02*
Y517925D01*
X704596Y521462D01*
X399542Y870712D02*
Y1030986D01*
X444500Y843280D02*
Y869950D01*
X290576Y1042162D02*
Y1057260D01*
X490220Y713994D02*
Y810006D01*
X495046Y814832D01*
Y1095756D01*
X629158Y444246D02*
Y581152D01*
X655574Y607568D01*
Y784352D01*
X692912Y320438D02*
Y507492D01*
X665226Y602742D02*
Y757174D01*
Y557022D02*
Y602742D01*
X631190Y982180D02*
X739940D01*
X471949Y1226168D02*
X474726D01*
X467614Y1230503D02*
X471949Y1226168D01*
X460883Y1230503D02*
X467614D01*
X416052Y1072896D02*
X420228Y1068720D01*
X428244D01*
X416052Y771652D02*
Y1072896D01*
X406146Y1088898D02*
X411988D01*
X415798Y1092708D01*
X425562D01*
X415544Y1081786D02*
X425054D01*
D34*
X747014Y395986D02*
Y459994D01*
X641500Y649000D02*
Y682000D01*
X665480Y1005730D02*
Y1024890D01*
X690880Y1005730D02*
Y1024890D01*
X591850Y649000D02*
X610000D01*
X454000Y791000D02*
Y817270D01*
X641500Y726000D02*
Y751736D01*
X433084Y747000D02*
X454000D01*
X641500Y623674D02*
Y649000D01*
D35*
X466852Y1045972D02*
Y1054832D01*
X474472Y1020572D02*
Y1044448D01*
X465328Y1022858D02*
Y1044448D01*
X591708Y1196594D02*
X601980D01*
X578104Y599440D02*
X592328Y585216D01*
Y404495D02*
Y585216D01*
X480060Y1128522D02*
X603504D01*
X578104Y599440D02*
Y672084D01*
X467106Y727964D02*
Y820420D01*
X459740Y827786D02*
X467106Y820420D01*
X379000Y299000D02*
X404216D01*
X737616Y315722D02*
Y735330D01*
X527050Y750062D02*
Y908050D01*
X628650Y633984D02*
Y762762D01*
X484632Y944118D02*
Y967994D01*
X468376Y943610D02*
Y1014476D01*
X474472Y1020572D01*
X452374Y1118474D02*
X455026D01*
X546989Y1034415D02*
Y1038225D01*
X359156Y1062736D02*
Y1188212D01*
X349250Y1063752D02*
Y1188466D01*
X510286Y1011428D02*
Y1110488D01*
X494792Y1170432D02*
X510286Y1154938D01*
Y1139190D02*
Y1154938D01*
X494792Y1180592D02*
X517398Y1157986D01*
X648970Y1168400D02*
X665480Y1151890D01*
X648970Y1168400D02*
Y1214500D01*
X322580Y1246378D02*
X332852D01*
X504000Y1118806D02*
X604076D01*
X439024Y1207120D02*
X450850D01*
X517398Y1035304D02*
Y1101090D01*
X502666Y1004062D02*
Y1035304D01*
Y990092D02*
X546989Y1034415D01*
X502666Y879856D02*
Y990092D01*
X380962Y950760D02*
Y1040930D01*
X359156Y1062736D02*
X380962Y1040930D01*
X392572Y887364D02*
Y1050148D01*
X319000Y774000D02*
Y879856D01*
X459740Y827786D02*
Y1017270D01*
X465328Y1022858D01*
D42*
X287000Y844000D02*
D03*
X401000D02*
D03*
X702000D02*
D03*
X816000D02*
D03*
D43*
X319000Y774000D02*
D03*
X526500Y724000D02*
D03*
X734000Y774000D02*
D03*
X526500Y554000D02*
D03*
D44*
X369000Y774000D02*
D03*
X319000Y919000D02*
D03*
X344000D02*
D03*
X369000D02*
D03*
X551500Y724000D02*
D03*
X576500D02*
D03*
X784000Y774000D02*
D03*
X734000Y919000D02*
D03*
X759000D02*
D03*
X784000D02*
D03*
X551500Y554000D02*
D03*
X576500D02*
D03*
D45*
X812800Y1108456D02*
D03*
Y1186180D02*
D03*
X673100Y326644D02*
D03*
X769112Y588264D02*
D03*
X660654Y536194D02*
D03*
X590296Y388620D02*
D03*
X673100Y362458D02*
D03*
X505714Y279654D02*
D03*
X336042Y298958D02*
D03*
X425704Y336550D02*
D03*
X676148Y777494D02*
D03*
X444500Y843280D02*
D03*
X425704Y374904D02*
D03*
X351282Y413766D02*
D03*
X387350Y1287780D02*
D03*
X388366Y1211580D02*
D03*
X387350Y1236980D02*
D03*
Y1262380D02*
D03*
X438912Y930656D02*
D03*
Y966470D02*
D03*
X557276Y1002030D02*
D03*
X559562Y961390D02*
D03*
X297942Y422148D02*
D03*
X813816Y1056894D02*
D03*
X334772Y1104646D02*
D03*
X776500Y481500D02*
D03*
X801500D02*
D03*
X812800Y1160272D02*
D03*
Y1134364D02*
D03*
Y1082548D02*
D03*
D46*
X409000Y664000D02*
D03*
Y714000D02*
D03*
X284000Y664000D02*
D03*
X819000D02*
D03*
Y714000D02*
D03*
X694000Y664000D02*
D03*
D47*
X284000Y714000D02*
D03*
X694000D02*
D03*
D48*
X598000Y799000D02*
D03*
X505000D02*
D03*
X598000Y629000D02*
D03*
X505000D02*
D03*
D49*
X474000Y299000D02*
D03*
Y384001D02*
D03*
Y414001D02*
D03*
X379000Y299000D02*
D03*
Y384001D02*
D03*
Y414001D02*
D03*
X724000Y299000D02*
D03*
Y384001D02*
D03*
Y414001D02*
D03*
X629158Y299000D02*
D03*
Y384001D02*
D03*
Y414001D02*
D03*
D50*
X800100Y1273810D02*
D03*
Y1248410D02*
D03*
X632460Y1289050D02*
D03*
X607060D02*
D03*
X581660D02*
D03*
X556260D02*
D03*
X530860D02*
D03*
X505460D02*
D03*
X480060D02*
D03*
X690880Y1024890D02*
D03*
X665480D02*
D03*
X690880Y1050290D02*
D03*
X665480D02*
D03*
X690880Y1075690D02*
D03*
X665480D02*
D03*
X690880Y1101090D02*
D03*
X665480D02*
D03*
X690880Y1126490D02*
D03*
X665480D02*
D03*
X690880Y1151890D02*
D03*
X665480D02*
D03*
X690880Y1177290D02*
D03*
X665480D02*
D03*
X690880Y1202690D02*
D03*
X665480D02*
D03*
X690880Y1228090D02*
D03*
X665480D02*
D03*
X690880Y1253490D02*
D03*
X471900Y571500D02*
D03*
X446500Y596900D02*
D03*
X471900D02*
D03*
X446500Y622300D02*
D03*
X471900D02*
D03*
X446500Y647700D02*
D03*
X471900D02*
D03*
X446500Y673100D02*
D03*
X471900D02*
D03*
D51*
X800100Y1223010D02*
D03*
X665480Y1253490D02*
D03*
X446500Y571500D02*
D03*
D52*
X454660Y1289050D02*
D03*
D53*
X551500Y899400D02*
D03*
Y874000D02*
D03*
Y924800D02*
D03*
D54*
X465328Y1119632D02*
D03*
X478536D02*
D03*
X477520Y1080770D02*
D03*
X465760D02*
D03*
X454000Y1090168D02*
D03*
Y1080770D02*
D03*
X718312Y1249680D02*
D03*
X727568Y1229614D02*
D03*
X480822Y1138428D02*
D03*
X428752Y1044448D02*
D03*
X453390D02*
D03*
X561340Y1046734D02*
D03*
X579628Y328930D02*
D03*
X480060Y1128522D02*
D03*
X425704Y317754D02*
D03*
X503174Y382524D02*
D03*
X575818Y414274D02*
D03*
X784098Y458724D02*
D03*
X784000Y440338D02*
D03*
X266954Y364998D02*
D03*
X569722Y361188D02*
D03*
X592455Y404876D02*
D03*
X737616Y315722D02*
D03*
X768604Y327406D02*
D03*
Y400558D02*
D03*
X629158Y444246D02*
D03*
X558292Y408178D02*
D03*
X433070Y414020D02*
D03*
X532638Y414274D02*
D03*
X558292Y517144D02*
D03*
X618490D02*
D03*
X576580Y822960D02*
D03*
X628650Y762762D02*
D03*
X578104Y672084D02*
D03*
X476250Y707136D02*
D03*
X467106Y727964D02*
D03*
X737616Y735330D02*
D03*
X527050Y750062D02*
D03*
X604520Y459790D02*
D03*
X527050Y908050D02*
D03*
X628650Y633984D02*
D03*
X618490Y801370D02*
D03*
X484632Y967994D02*
D03*
Y944118D02*
D03*
X468376Y943610D02*
D03*
X474472Y1044448D02*
D03*
X510032Y985774D02*
D03*
X330454Y977646D02*
D03*
X342900Y977646D02*
D03*
X364490Y1019302D02*
D03*
Y985500D02*
D03*
X546989Y1038225D02*
D03*
X545846Y1191768D02*
D03*
X359156Y1188212D02*
D03*
X349250Y1188466D02*
D03*
X495046Y1095756D02*
D03*
X487680Y1086358D02*
D03*
X517398Y1101090D02*
D03*
X510286Y1110488D02*
D03*
X517398Y1157986D02*
D03*
X510286Y1139190D02*
D03*
X494792Y1180592D02*
D03*
Y1170432D02*
D03*
X471678Y1198118D02*
D03*
X762762Y1173988D02*
D03*
X647700Y1140714D02*
D03*
X705358Y1240282D02*
D03*
X711708Y1256030D02*
D03*
X741750Y1229614D02*
D03*
X711708Y1153668D02*
D03*
X705358Y1173988D02*
D03*
X562864Y1250696D02*
D03*
X645160Y1303274D02*
D03*
X517652Y1231900D02*
D03*
X439562Y1221120D02*
D03*
X461010Y1230630D02*
D03*
X499000Y1244346D02*
D03*
Y1231900D02*
D03*
X626110Y1257300D02*
D03*
Y1094000D02*
D03*
X618490Y1101090D02*
D03*
Y1266190D02*
D03*
X610870Y1106170D02*
D03*
X648970Y1225550D02*
D03*
X647700Y1130300D02*
D03*
X603504Y1128522D02*
D03*
X647700Y1075690D02*
D03*
X648970Y1214500D02*
D03*
X322580Y1285240D02*
D03*
X537210Y401320D02*
D03*
X314000Y1024890D02*
D03*
X289000D02*
D03*
X828050Y394960D02*
D03*
X824230Y280670D02*
D03*
X759460Y1022350D02*
D03*
X543194Y294274D02*
D03*
X674370Y491998D02*
D03*
X671130Y447802D02*
D03*
X604012Y469392D02*
D03*
X576580Y1045718D02*
D03*
X451358Y1098804D02*
D03*
X440690Y1044448D02*
D03*
X465328D02*
D03*
X415544Y1081786D02*
D03*
X416052Y1072896D02*
D03*
X382430Y1146970D02*
D03*
X386588Y1183132D02*
D03*
X451104Y1158494D02*
D03*
X450088Y1173988D02*
D03*
X451322Y1109000D02*
D03*
X451358Y1149096D02*
D03*
X601472Y1069990D02*
D03*
X545846Y1086104D02*
D03*
X761250Y1196098D02*
D03*
X758190Y1230884D02*
D03*
X741750Y1290828D02*
D03*
X704342Y1292860D02*
D03*
X715264Y1272540D02*
D03*
X788304Y1204976D02*
D03*
X565150Y1196594D02*
D03*
X601980D02*
D03*
X567690Y336042D02*
D03*
X658114Y859790D02*
D03*
X608510Y811710D02*
D03*
X556260Y1189482D02*
D03*
X610870Y1272540D02*
D03*
X358902Y1246124D02*
D03*
X322580Y1246378D02*
D03*
X633222Y1084072D02*
D03*
X604266Y1118616D02*
D03*
X504000Y1118806D02*
D03*
X439024Y1207120D02*
D03*
X300736Y1235964D02*
D03*
Y1088898D02*
D03*
X290322Y1081786D02*
D03*
Y1267640D02*
D03*
X313436Y1072896D02*
D03*
X312580Y1200658D02*
D03*
X320802Y1042670D02*
D03*
X505460Y1265936D02*
D03*
X517652Y1273556D02*
D03*
X454660Y1257300D02*
D03*
X562864Y1235456D02*
D03*
X739940Y982180D02*
D03*
X320802Y1191768D02*
D03*
X536194Y970026D02*
D03*
X535432Y1008634D02*
D03*
X592216Y1010300D02*
D03*
X445516Y991870D02*
D03*
X681592Y931562D02*
D03*
X784000Y981612D02*
D03*
X644906Y893064D02*
D03*
X618490Y859790D02*
D03*
X445262Y1004570D02*
D03*
X517398Y1035304D02*
D03*
X502666Y1004062D02*
D03*
Y1035304D02*
D03*
X510286Y1011428D02*
D03*
X486664Y1009650D02*
D03*
X380962Y950760D02*
D03*
X392572Y887364D02*
D03*
X349250Y1063752D02*
D03*
X392572Y1050148D02*
D03*
X406146Y1088644D02*
D03*
X412242Y1123950D02*
D03*
X398272Y1124204D02*
D03*
X406146Y863346D02*
D03*
X701059Y414001D02*
D03*
X704596Y521462D02*
D03*
X399542Y1030986D02*
D03*
Y870712D02*
D03*
X444500Y869950D02*
D03*
X502666Y879856D02*
D03*
X319000D02*
D03*
X662940Y815086D02*
D03*
X490220Y713994D02*
D03*
X692912Y507492D02*
D03*
X665226Y757174D02*
D03*
X647954Y563880D02*
D03*
X611886Y601726D02*
D03*
X665226Y602742D02*
D03*
Y557022D02*
D03*
X631190Y982180D02*
D03*
X604266Y914400D02*
D03*
X642874Y449580D02*
D03*
X528828Y500126D02*
D03*
X702564Y621792D02*
D03*
X754750Y1290828D02*
D03*
X416052Y771652D02*
D03*
D55*
X464820Y453390D02*
D03*
Y469900D02*
D03*
X447040Y550926D02*
D03*
X463550Y536956D02*
D03*
X447294D02*
D03*
X801370Y447040D02*
D03*
X747014Y395986D02*
D03*
Y459994D02*
D03*
X518668Y377190D02*
D03*
X516636Y470662D02*
D03*
X532638D02*
D03*
X548640Y454152D02*
D03*
X532638D02*
D03*
X516636D02*
D03*
X548640Y470662D02*
D03*
X603758Y558292D02*
D03*
X642556Y491490D02*
D03*
X377952Y513334D02*
D03*
X411480Y453390D02*
D03*
X429260D02*
D03*
Y469900D02*
D03*
X411480D02*
D03*
X447040D02*
D03*
Y453390D02*
D03*
X342900Y571500D02*
D03*
X359410D02*
D03*
X342900Y554990D02*
D03*
X359410D02*
D03*
X431038Y550672D02*
D03*
X393700Y469900D02*
D03*
Y453390D02*
D03*
X340360D02*
D03*
X358140D02*
D03*
X375920D02*
D03*
X591850Y649000D02*
D03*
X454000Y817270D02*
D03*
X641500Y751736D02*
D03*
X433084Y747000D02*
D03*
X826164Y351518D02*
D03*
X703834Y606410D02*
D03*
X641604Y623570D02*
D03*
X377952Y580390D02*
D03*
X463550Y550672D02*
D03*
X414782D02*
D03*
X330200Y513842D02*
D03*
Y486156D02*
D03*
Y499999D02*
D03*
X313436D02*
D03*
Y486156D02*
D03*
Y513842D02*
D03*
D56*
X444500Y519430D02*
D03*
X462280D02*
D03*
Y510709D02*
D03*
Y501988D02*
D03*
Y493268D02*
D03*
X453390Y519430D02*
D03*
Y510709D02*
D03*
Y501988D02*
D03*
Y493268D02*
D03*
X444500Y510709D02*
D03*
Y501988D02*
D03*
Y493268D02*
D03*
D58*
X454000Y791000D02*
D03*
Y747000D02*
D03*
X641500Y682000D02*
D03*
Y726000D02*
D03*
D59*
X610000Y649000D02*
D03*
X641500D02*
D03*
M02*
