G04*
G04 #@! TF.GenerationSoftware,Altium Limited,CircuitStudio,1.5.1 (13)*
G04*
G04 Layer_Color=13948096*
%FSLAX44Y44*%
%MOMM*%
G71*
G01*
G75*
%ADD85C,0.2000*%
%ADD95C,0.1700*%
%ADD96C,0.1700*%
%ADD145C,0.2032*%
D85*
X431292Y562356D02*
Y689356D01*
X482092Y562356D02*
Y689356D01*
X431292Y562356D02*
X482092D01*
X431292Y689356D02*
X482092D01*
X341376Y1233932D02*
X420116D01*
X341376D02*
Y1305052D01*
X420116Y1233932D02*
Y1305052D01*
X341376D02*
X420116D01*
D95*
X358140Y1220978D02*
Y1230975D01*
X353142D01*
X351475Y1229308D01*
Y1225976D01*
X353142Y1224310D01*
X358140D01*
X348143Y1229308D02*
X346477Y1230975D01*
X343145D01*
X341479Y1229308D01*
Y1227642D01*
X343145Y1225976D01*
X344811D01*
X343145D01*
X341479Y1224310D01*
Y1222644D01*
X343145Y1220978D01*
X346477D01*
X348143Y1222644D01*
X457647Y453847D02*
X459314Y455513D01*
X462646D01*
X464312Y453847D01*
Y452180D01*
X462646Y450514D01*
X459314D01*
X457647Y448848D01*
Y447182D01*
X459314Y445516D01*
X462646D01*
X464312Y447182D01*
X449317Y445516D02*
X452649D01*
X454315Y447182D01*
Y450514D01*
X452649Y452180D01*
X449317D01*
X447651Y450514D01*
Y448848D01*
X454315D01*
X444318Y452180D02*
Y445516D01*
Y448848D01*
X442652Y450514D01*
X440986Y452180D01*
X439320D01*
X434322Y445516D02*
X430989D01*
X432655D01*
Y452180D01*
X434322D01*
X424325D02*
X420993D01*
X419327Y450514D01*
Y445516D01*
X424325D01*
X425991Y447182D01*
X424325Y448848D01*
X419327D01*
X415994Y445516D02*
X412662D01*
X414328D01*
Y455513D01*
X415994D01*
X405998Y445516D02*
Y455513D01*
X402665D02*
Y445516D01*
X407664Y452180D02*
X402665D01*
X400999D01*
X407664Y448848D02*
X400999D01*
X397667Y452180D02*
X396001D01*
Y450514D01*
X397667D01*
Y452180D01*
Y447182D02*
X396001D01*
Y445516D01*
X397667D01*
Y447182D01*
X463804Y471880D02*
X462138Y473547D01*
X458806D01*
X457139Y471880D01*
Y465216D01*
X458806Y463550D01*
X462138D01*
X463804Y465216D01*
Y471880D01*
X453807D02*
X452141Y473547D01*
X448809D01*
X447143Y471880D01*
Y465216D01*
X448809Y463550D01*
X452141D01*
X453807Y465216D01*
Y471880D01*
X443810Y463550D02*
X440478D01*
X442144D01*
Y473547D01*
X443810Y471880D01*
X435480Y468548D02*
X428815D01*
X425483Y471880D02*
X423817Y473547D01*
X420485D01*
X418819Y471880D01*
Y465216D01*
X420485Y463550D01*
X423817D01*
X425483Y465216D01*
Y471880D01*
X415486D02*
X413820Y473547D01*
X410488D01*
X408822Y471880D01*
Y465216D01*
X410488Y463550D01*
X413820D01*
X415486Y465216D01*
Y471880D01*
X405490Y463550D02*
X402157D01*
X403823D01*
Y473547D01*
X405490Y471880D01*
X397159Y468548D02*
X390494D01*
X387162Y473547D02*
Y466882D01*
X383830Y463550D01*
X380498Y466882D01*
Y473547D01*
X377165Y471880D02*
X375499Y473547D01*
X372167D01*
X370501Y471880D01*
Y470214D01*
X372167Y468548D01*
X373833D01*
X372167D01*
X370501Y466882D01*
Y465216D01*
X372167Y463550D01*
X375499D01*
X377165Y465216D01*
X367169Y463550D02*
Y465216D01*
X365503D01*
Y463550D01*
X367169D01*
X358838Y471880D02*
X357172Y473547D01*
X353840D01*
X352174Y471880D01*
Y465216D01*
X353840Y463550D01*
X357172D01*
X358838Y465216D01*
Y471880D01*
X463804Y492343D02*
Y482346D01*
X458806D01*
X457139Y484012D01*
Y490676D01*
X458806Y492343D01*
X463804D01*
X448809Y482346D02*
X452141D01*
X453807Y484012D01*
Y487344D01*
X452141Y489010D01*
X448809D01*
X447143Y487344D01*
Y485678D01*
X453807D01*
X443810Y482346D02*
X438812D01*
X437146Y484012D01*
X438812Y485678D01*
X442144D01*
X443810Y487344D01*
X442144Y489010D01*
X437146D01*
X433814Y482346D02*
X430481D01*
X432147D01*
Y489010D01*
X433814D01*
X422151Y479014D02*
X420485D01*
X418819Y480680D01*
Y489010D01*
X423817D01*
X425483Y487344D01*
Y484012D01*
X423817Y482346D01*
X418819D01*
X415486D02*
Y489010D01*
X410488D01*
X408822Y487344D01*
Y482346D01*
X400491D02*
X403823D01*
X405490Y484012D01*
Y487344D01*
X403823Y489010D01*
X400491D01*
X398825Y487344D01*
Y485678D01*
X405490D01*
X395493Y489010D02*
Y482346D01*
Y485678D01*
X393827Y487344D01*
X392160Y489010D01*
X390494D01*
X385496D02*
X383830D01*
Y487344D01*
X385496D01*
Y489010D01*
Y484012D02*
X383830D01*
Y482346D01*
X385496D01*
Y484012D01*
X367169Y492343D02*
Y482346D01*
X362170D01*
X360504Y484012D01*
Y485678D01*
X362170Y487344D01*
X367169D01*
X362170D01*
X360504Y489010D01*
Y490676D01*
X362170Y492343D01*
X367169D01*
X352174Y482346D02*
X355506D01*
X357172Y484012D01*
Y487344D01*
X355506Y489010D01*
X352174D01*
X350507Y487344D01*
Y485678D01*
X357172D01*
X347175Y482346D02*
Y489010D01*
X342177D01*
X340511Y487344D01*
Y482346D01*
X327182D02*
Y492343D01*
X322183D01*
X320517Y490676D01*
Y487344D01*
X322183Y485678D01*
X327182D01*
X315519Y489010D02*
X312187D01*
X310520Y487344D01*
Y482346D01*
X315519D01*
X317185Y484012D01*
X315519Y485678D01*
X310520D01*
X307188Y482346D02*
X303856D01*
X305522D01*
Y489010D01*
X307188D01*
X298857Y482346D02*
Y492343D01*
Y485678D02*
X293859Y489010D01*
X298857Y485678D02*
X293859Y482346D01*
D96*
X426974Y679704D02*
Y689701D01*
X421976D01*
X420309Y688035D01*
Y684702D01*
X421976Y683036D01*
X426974D01*
X416977Y679704D02*
X413645D01*
X415311D01*
Y689701D01*
X416977Y688035D01*
D145*
X464312Y691896D02*
Y696128D01*
Y694012D01*
X477008D01*
X474892Y691896D01*
Y702476D02*
X477008Y704592D01*
Y708824D01*
X474892Y710940D01*
X466428D01*
X464312Y708824D01*
Y704592D01*
X466428Y702476D01*
X474892D01*
X441028Y691896D02*
X438912Y694012D01*
Y698244D01*
X441028Y700360D01*
X449492D01*
X451608Y698244D01*
Y694012D01*
X449492Y691896D01*
X447376D01*
X445260Y694012D01*
Y700360D01*
X438912Y554736D02*
Y558968D01*
Y556852D01*
X451608D01*
X449492Y554736D01*
X464312Y558120D02*
Y549656D01*
X472776Y558120D01*
X474892D01*
X477008Y556004D01*
Y551772D01*
X474892Y549656D01*
M02*
