G04*
G04 #@! TF.GenerationSoftware,Altium Limited,CircuitStudio,1.5.1 (13)*
G04*
G04 Layer_Physical_Order=4*
G04 Layer_Color=12500520*
%FSLAX44Y44*%
%MOMM*%
G71*
G01*
G75*
%ADD39C,0.2540*%
%ADD40C,0.5080*%
%ADD43C,1.1000*%
%ADD44C,1.2000*%
%ADD45C,2.0320*%
%ADD46C,1.6501*%
%ADD47C,3.3000*%
%ADD48C,3.6619*%
%ADD49C,1.8001*%
%ADD50C,1.5000*%
%ADD51R,1.5000X1.5000*%
%ADD52C,2.3368*%
%ADD53C,0.8636*%
%ADD54R,1.5000X1.5000*%
%ADD55C,2.0000*%
%ADD56R,2.0000X2.0000*%
%ADD57R,2.0000X2.0000*%
%ADD58O,1.6000X0.9000*%
%ADD59C,4.3000*%
%ADD60C,0.5588*%
%ADD61C,1.2700*%
%ADD62C,0.5080*%
%ADD83C,0.7874*%
D39*
X660264Y1210446D02*
Y1272264D01*
X689238Y1199270D02*
Y1228262D01*
X666115Y1176147D02*
X689238Y1199270D01*
X575564Y1228598D02*
Y1260000D01*
X548250Y1246558D02*
Y1267750D01*
X513400Y1244750D02*
Y1289050D01*
X462600Y1267750D02*
Y1289050D01*
X538800Y1246500D02*
Y1289050D01*
X488000Y1274072D02*
Y1289050D01*
X564200D02*
X565912Y1287338D01*
Y1239520D02*
Y1287338D01*
X480314Y1037844D02*
X495046Y1023112D01*
X497840Y1064260D02*
X502158Y1059942D01*
Y976122D02*
Y1059942D01*
X491582Y1068924D02*
Y1098642D01*
X489204Y1066546D02*
X491582Y1068924D01*
X480314Y1037844D02*
Y1114298D01*
X692268Y1011682D02*
Y1065920D01*
X489204Y1041772D02*
Y1066546D01*
X715518Y1074674D02*
X719328Y1078484D01*
X764540Y613664D02*
Y878840D01*
X626110D02*
Y1165860D01*
X616458Y1175512D02*
X626110Y1165860D01*
X616458Y1175512D02*
Y1240790D01*
X272542Y1119378D02*
X286056Y1105864D01*
Y1066598D02*
Y1105864D01*
X569468Y1159002D02*
X600964D01*
X558546Y1148080D02*
X569468Y1159002D01*
X558546Y1130046D02*
Y1148080D01*
X617728Y875538D02*
Y1163828D01*
Y875538D02*
X623062Y870204D01*
Y811276D02*
Y870204D01*
X686172Y599050D02*
Y807974D01*
X703462Y598306D02*
Y807838D01*
X632714Y962152D02*
Y1166114D01*
X562356Y950468D02*
Y965454D01*
X551502Y976307D02*
X562356Y965454D01*
X551502Y976307D02*
Y986282D01*
X681972Y973836D02*
Y1002538D01*
X552958D02*
Y1091184D01*
X543814Y996188D02*
Y1092200D01*
X519938Y1203198D02*
X526982Y1196154D01*
X704694Y461108D02*
Y502314D01*
X537464Y1129030D02*
X549656D01*
X689102Y1090168D02*
Y1124204D01*
X470154Y790194D02*
Y1116076D01*
X376870Y975802D02*
Y1104646D01*
X580136Y1105916D02*
X584708Y1110488D01*
X580136Y1014984D02*
Y1105916D01*
X647954Y473964D02*
Y1048004D01*
X405638Y984250D02*
Y1110742D01*
X470154Y1116076D02*
X509016Y1154938D01*
Y1196086D01*
X462534Y1104646D02*
Y1121410D01*
X500888Y1159764D01*
Y1191260D01*
X454660Y1110742D02*
Y1125728D01*
X493014Y1164082D01*
Y1186942D01*
X509270Y1048004D02*
Y1088898D01*
X477774Y798424D02*
Y898144D01*
X508000Y723900D02*
Y827786D01*
X528066Y847852D01*
Y869696D01*
X524002Y873760D02*
X528066Y869696D01*
X524002Y873760D02*
Y1081532D01*
X530606Y964184D02*
Y1086612D01*
X562864Y989838D02*
Y1115822D01*
X549656Y1129030D02*
X562864Y1115822D01*
X516582Y898144D02*
Y1085034D01*
X675386Y800726D02*
Y1024772D01*
X780406Y1090304D02*
Y1144524D01*
X556582Y1239334D02*
Y1274072D01*
X365252Y1264158D02*
X374396Y1273302D01*
X339852Y1256792D02*
X347218Y1264158D01*
X339852Y1240536D02*
Y1256792D01*
X352552Y1046734D02*
Y1089914D01*
X359664Y1050290D02*
Y1115822D01*
X443484Y781304D02*
X443738Y1018032D01*
X464566Y707390D02*
Y781304D01*
Y707390D02*
X496824Y675132D01*
Y597154D02*
Y675132D01*
X489204Y591058D02*
Y672338D01*
X457708Y703834D02*
X489204Y672338D01*
X457708Y703834D02*
Y1052068D01*
X779000Y664996D02*
Y729996D01*
X364000D02*
X385420Y751416D01*
X364000Y664996D02*
Y729996D01*
X621030Y688848D02*
Y743712D01*
X272796D02*
Y822960D01*
X264922Y830834D02*
X272796Y822960D01*
X264922Y830834D02*
Y856996D01*
X271018Y863092D01*
Y1000134D01*
X286056Y1043178D02*
Y1066598D01*
X642874Y393954D02*
Y430022D01*
X635254Y386296D02*
Y597154D01*
X628904Y403860D02*
Y591058D01*
X617728Y376682D02*
Y465328D01*
X588772D02*
Y538226D01*
X475793Y301295D02*
Y423672D01*
X596392Y276098D02*
Y393954D01*
X388874Y1239774D02*
Y1258824D01*
X387096Y1260602D02*
X388874Y1258824D01*
X400558Y1296162D02*
X411734D01*
X390398Y1286002D02*
X400558Y1296162D01*
X387096Y1286002D02*
X390398D01*
X387096Y1273302D02*
X396494Y1263904D01*
X792988Y1128522D02*
Y1150620D01*
X385420Y751416D02*
Y798424D01*
X347218Y1264158D02*
X365252D01*
X417391Y889323D02*
Y1006416D01*
X371856Y1258062D02*
X374396Y1260602D01*
X371856Y1241298D02*
Y1258062D01*
X374396Y1286002D02*
Y1287780D01*
X381254Y1294638D01*
X560578Y496824D02*
Y572262D01*
X576501Y588185D01*
Y622799D01*
X551502Y807482D02*
Y889323D01*
Y807482D02*
X576501Y782483D01*
Y622799D02*
Y679275D01*
X570484Y685292D02*
X576501Y679275D01*
X570484Y685292D02*
Y714248D01*
X576501Y720265D01*
Y782483D01*
X537210Y821436D02*
Y1098042D01*
X734000Y774000D02*
Y821436D01*
X456826Y1176154D02*
Y1196340D01*
X339852Y1240536D02*
X376682Y1203706D01*
X411734Y1296162D02*
X421894Y1286002D01*
Y1256792D02*
Y1286002D01*
X425450Y1203198D02*
X519938D01*
X388874Y1239774D02*
X425450Y1203198D01*
X370078Y1028954D02*
Y1125220D01*
X337820Y1026668D02*
X346456Y1018032D01*
X337820Y1026668D02*
Y1128014D01*
X331470Y1134364D02*
X337820Y1128014D01*
X728590Y1193800D02*
Y1210446D01*
X567182Y1141154D02*
X584132Y1124204D01*
X658504Y1031494D02*
Y1079872D01*
X646430Y1068832D02*
Y1137412D01*
X599186Y416306D02*
Y667004D01*
X621030Y688848D01*
X712978Y664464D02*
Y753618D01*
Y664464D02*
X724272Y653170D01*
Y310778D02*
Y653170D01*
X691896Y869696D02*
Y962152D01*
X680212Y831088D02*
X703462Y807838D01*
X680212Y831088D02*
Y858012D01*
X691896Y869696D01*
X658504Y944998D02*
Y1031494D01*
Y944998D02*
X661670Y941832D01*
X632714Y657860D02*
Y949198D01*
X639826Y903732D02*
Y1110488D01*
X692150Y1074674D02*
X715518D01*
X667004Y986028D02*
Y1053338D01*
X756158Y986028D02*
Y1018032D01*
X675386Y786130D02*
Y800726D01*
X671068Y781812D02*
X675386Y786130D01*
X372415Y301295D02*
Y427025D01*
D40*
X414784Y591564D02*
Y722118D01*
Y591564D02*
X431292Y575056D01*
X443992D01*
X377444Y512572D02*
Y580390D01*
X432562Y778002D02*
Y953008D01*
D43*
X822800Y600250D02*
D03*
D44*
Y560250D02*
D03*
X551502Y960882D02*
D03*
Y935482D02*
D03*
Y986282D02*
D03*
D45*
X668782Y645160D02*
D03*
X272542Y1119378D02*
D03*
X388620Y1121410D02*
D03*
X634492Y1255776D02*
D03*
X795782Y1018032D02*
D03*
Y1045464D02*
D03*
X829056Y1108964D02*
D03*
Y1134618D02*
D03*
X753618Y542036D02*
D03*
X559562Y452374D02*
D03*
X811530Y412496D02*
D03*
Y448818D02*
D03*
X742188Y611378D02*
D03*
X661670Y941832D02*
D03*
X613918Y481838D02*
D03*
X742188Y637032D02*
D03*
X661670Y903732D02*
D03*
X671068Y781812D02*
D03*
X310134Y1198880D02*
D03*
X308610Y1226820D02*
D03*
D46*
X780420Y386296D02*
D03*
Y301295D02*
D03*
Y271295D02*
D03*
X322580D02*
D03*
Y301295D02*
D03*
Y386296D02*
D03*
X424180D02*
D03*
Y301295D02*
D03*
Y271295D02*
D03*
X525780D02*
D03*
Y301295D02*
D03*
Y386296D02*
D03*
D47*
X780420Y336296D02*
D03*
X322580D02*
D03*
X424180D02*
D03*
X525780D02*
D03*
D48*
X598002Y697800D02*
D03*
X505000D02*
D03*
Y857485D02*
D03*
X598002D02*
D03*
X702000Y844000D02*
D03*
X816000D02*
D03*
X401000D02*
D03*
X287000D02*
D03*
D49*
X576501Y622799D02*
D03*
X551502D02*
D03*
X526501D02*
D03*
Y782483D02*
D03*
X551502D02*
D03*
X576501D02*
D03*
D50*
X469392Y676656D02*
D03*
X443992D02*
D03*
X469392Y651256D02*
D03*
X443992D02*
D03*
X469392Y625856D02*
D03*
X443992D02*
D03*
X469392Y600456D02*
D03*
X443992D02*
D03*
X469392Y575056D02*
D03*
X488000Y1289050D02*
D03*
X513400D02*
D03*
X538800D02*
D03*
X564200D02*
D03*
X589600D02*
D03*
X615000D02*
D03*
X640400D02*
D03*
D51*
X443992Y575056D02*
D03*
D52*
X355346Y1279652D02*
D03*
X406146D02*
D03*
Y1247902D02*
D03*
X355346D02*
D03*
D53*
X370586Y1298702D02*
D03*
X390906D02*
D03*
X380746Y1247902D02*
D03*
D54*
X462600Y1289050D02*
D03*
D55*
X784000Y919000D02*
D03*
X759000D02*
D03*
X734000D02*
D03*
X784000Y774000D02*
D03*
X369000D02*
D03*
X319000Y919000D02*
D03*
X344000D02*
D03*
X369000D02*
D03*
X734000Y664996D02*
D03*
X779000Y729996D02*
D03*
Y664996D02*
D03*
X364000D02*
D03*
Y729996D02*
D03*
X319000Y664996D02*
D03*
D56*
X734000Y774000D02*
D03*
X319000D02*
D03*
D57*
X734000Y729996D02*
D03*
X319000D02*
D03*
D58*
X828040Y1229340D02*
D03*
Y1163340D02*
D03*
D59*
X304800Y1268200D02*
D03*
X798200D02*
D03*
X348996Y616712D02*
D03*
X771906Y425196D02*
D03*
D60*
X785750Y557750D02*
D03*
Y602750D02*
D03*
X693760Y1255760D02*
D03*
X660264Y1272264D02*
D03*
X706500Y1302750D02*
D03*
X690000D02*
D03*
X689238Y1228262D02*
D03*
X672238Y1228762D02*
D03*
X575564Y1260000D02*
D03*
X548250Y1267750D02*
D03*
Y1246558D02*
D03*
X462600Y1267750D02*
D03*
X513400Y1244750D02*
D03*
X538808Y1246558D02*
D03*
X488000Y1274072D02*
D03*
X556582D02*
D03*
X789690Y1164340D02*
D03*
Y1228340D02*
D03*
X785876Y1213612D02*
D03*
X493268Y1130300D02*
D03*
X505460D02*
D03*
X495046Y1023112D02*
D03*
X370078Y1028954D02*
D03*
X497840Y1064260D02*
D03*
X480314Y1114298D02*
D03*
X489204Y1041772D02*
D03*
X675386Y1024772D02*
D03*
X692268Y1011682D02*
D03*
X491582Y1098642D02*
D03*
X719328Y1078484D02*
D03*
X735330Y1091946D02*
D03*
X696350Y1082920D02*
D03*
X692268Y1065920D02*
D03*
X733298Y1012952D02*
D03*
X717296Y1013206D02*
D03*
X626110Y878840D02*
D03*
X764540D02*
D03*
X616458Y1240790D02*
D03*
X764540Y613664D02*
D03*
X737362Y475234D02*
D03*
X788416Y514350D02*
D03*
Y469900D02*
D03*
X762356Y491846D02*
D03*
X600964Y1159002D02*
D03*
X617728Y1163828D02*
D03*
X709168Y1164336D02*
D03*
X681990Y973836D02*
D03*
X632714Y962152D02*
D03*
X623062Y811276D02*
D03*
X686172Y807974D02*
D03*
X632714Y1166114D02*
D03*
X703462Y598306D02*
D03*
X686172Y599050D02*
D03*
X632714Y949198D02*
D03*
X502158Y976122D02*
D03*
X562356Y950468D02*
D03*
X552958Y1002538D02*
D03*
X543814Y996188D02*
D03*
Y1092200D02*
D03*
X552958Y1091184D02*
D03*
X526982Y1196154D02*
D03*
X558546Y1130046D02*
D03*
X657860Y586486D02*
D03*
X733552D02*
D03*
X675513Y521335D02*
D03*
X715137Y564769D02*
D03*
X675259D02*
D03*
X674506Y538090D02*
D03*
X664210Y502920D02*
D03*
X704694Y461108D02*
D03*
Y502314D02*
D03*
X537464Y1129030D02*
D03*
X689102Y1090168D02*
D03*
Y1124204D02*
D03*
X708152Y1132840D02*
D03*
X462788Y1076452D02*
D03*
X470154Y790194D02*
D03*
X449834Y1092708D02*
D03*
X376870Y1104646D02*
D03*
X647954Y1048004D02*
D03*
X509270D02*
D03*
X580136Y1014984D02*
D03*
X647954Y473964D02*
D03*
X462534Y1104646D02*
D03*
X405638Y1110742D02*
D03*
X454660D02*
D03*
X509016Y1196086D02*
D03*
X516636Y898144D02*
D03*
X477774D02*
D03*
X508000Y723900D02*
D03*
X524002Y1081532D02*
D03*
X530606Y964184D02*
D03*
Y1086612D02*
D03*
X516582Y1085034D02*
D03*
X568960Y1055624D02*
D03*
X586740Y1057910D02*
D03*
X609482Y1233052D02*
D03*
X642620Y1201674D02*
D03*
X641350Y1219454D02*
D03*
X675386Y800726D02*
D03*
X622436Y783726D02*
D03*
X456692Y1153414D02*
D03*
X412750Y1121410D02*
D03*
X412496Y1137412D02*
D03*
X412750Y1153414D02*
D03*
X436254Y1218574D02*
D03*
X496582Y1242072D02*
D03*
X780406Y1144524D02*
D03*
X565912Y1239520D02*
D03*
X556582Y1239334D02*
D03*
X352552Y1046734D02*
D03*
Y1089914D02*
D03*
X359664Y1050290D02*
D03*
Y1115822D02*
D03*
X346456Y1018032D02*
D03*
X443738D02*
D03*
X443484Y781304D02*
D03*
X464566D02*
D03*
X496824Y597154D02*
D03*
X635254D02*
D03*
X562864Y989838D02*
D03*
X457708Y1052068D02*
D03*
X489204Y591058D02*
D03*
X628904D02*
D03*
X323416Y1176856D02*
D03*
X329110Y1194382D02*
D03*
X281940Y1132078D02*
D03*
Y1173988D02*
D03*
X621030Y743712D02*
D03*
X272796D02*
D03*
X271018Y1000134D02*
D03*
X279048Y1060098D02*
D03*
X286056Y1043178D02*
D03*
Y1066598D02*
D03*
X311794Y1109726D02*
D03*
X330708Y1027430D02*
D03*
Y1043178D02*
D03*
X405638Y984250D02*
D03*
X675230Y461108D02*
D03*
X712978Y753618D02*
D03*
X642874Y430022D02*
D03*
X635254Y386296D02*
D03*
X617728Y376682D02*
D03*
X628904Y403860D02*
D03*
X617728Y465328D02*
D03*
X642874Y393954D02*
D03*
X596392D02*
D03*
X588772Y538226D02*
D03*
Y465328D02*
D03*
X614054Y352180D02*
D03*
X475793Y423672D02*
D03*
Y301295D02*
D03*
X372415D02*
D03*
X596392Y276098D02*
D03*
X724272Y310778D02*
D03*
X695836Y363852D02*
D03*
X701802Y340360D02*
D03*
X704088Y293624D02*
D03*
X792988Y1150620D02*
D03*
X747150Y1041772D02*
D03*
X538226Y501650D02*
D03*
X477774Y798424D02*
D03*
X385420D02*
D03*
X780406Y1090304D02*
D03*
X792988Y1128522D02*
D03*
X376870Y975802D02*
D03*
X396494Y1263904D02*
D03*
X681972Y1002538D02*
D03*
X551502Y889323D02*
D03*
X417391D02*
D03*
Y1006416D02*
D03*
X331963Y977377D02*
D03*
X354417Y977813D02*
D03*
X766963Y975751D02*
D03*
X744916Y975802D02*
D03*
X371856Y1241298D02*
D03*
X381254Y1294638D02*
D03*
X807974Y930910D02*
D03*
X703580Y931926D02*
D03*
X396240Y931418D02*
D03*
X290068D02*
D03*
X635254Y612902D02*
D03*
X537210Y1098042D02*
D03*
Y821436D02*
D03*
X734000D02*
D03*
X389518Y1168790D02*
D03*
X780542Y1193800D02*
D03*
X738632Y1220470D02*
D03*
X658504Y1079872D02*
D03*
X456826Y1176154D02*
D03*
X456946Y1165606D02*
D03*
X388484Y1185790D02*
D03*
X456826Y1196340D02*
D03*
X362306Y1185824D02*
D03*
X575564Y1228598D02*
D03*
X483734Y1232272D02*
D03*
X421894Y1256792D02*
D03*
X466734Y1233288D02*
D03*
X493014Y1186942D02*
D03*
X500888Y1191260D02*
D03*
X376682Y1203706D02*
D03*
X606806Y1101598D02*
D03*
X509270Y1088898D02*
D03*
X370078Y1125220D02*
D03*
X331470Y1134364D02*
D03*
X328794Y1109472D02*
D03*
X370958Y1136532D02*
D03*
X660264Y1210446D02*
D03*
X728590D02*
D03*
Y1193800D02*
D03*
X666108Y1176154D02*
D03*
X567182Y1141154D02*
D03*
X584132Y1124204D02*
D03*
X658504Y1031494D02*
D03*
X646430Y1068832D02*
D03*
Y1137412D02*
D03*
X639826Y1110488D02*
D03*
X599186Y416306D02*
D03*
X584708Y1110488D02*
D03*
X691896Y962152D02*
D03*
X632714Y657860D02*
D03*
X639826Y903732D02*
D03*
X692150Y1074674D02*
D03*
X667004Y1053338D02*
D03*
Y986028D02*
D03*
X756158D02*
D03*
Y1018032D02*
D03*
X560578Y496824D02*
D03*
X372415Y427025D02*
D03*
D61*
X414782Y722118D02*
D03*
X377444Y580390D02*
D03*
Y512572D02*
D03*
X536194Y469646D02*
D03*
X337566Y548640D02*
D03*
X359410D02*
D03*
X375920Y469900D02*
D03*
X414782Y550926D02*
D03*
X463550D02*
D03*
X375920Y453390D02*
D03*
X358140D02*
D03*
X340360D02*
D03*
X393700D02*
D03*
X431038Y550926D02*
D03*
X359410Y571500D02*
D03*
X337566D02*
D03*
X447040Y453390D02*
D03*
Y469900D02*
D03*
X429260D02*
D03*
Y453390D02*
D03*
X411480D02*
D03*
X518414Y452120D02*
D03*
X536194D02*
D03*
X518414Y469646D02*
D03*
X447294Y536956D02*
D03*
X463550D02*
D03*
X447040Y550926D02*
D03*
X464820Y469900D02*
D03*
Y453390D02*
D03*
X432562Y953008D02*
D03*
Y778002D02*
D03*
X271272Y499872D02*
D03*
X282702Y572262D02*
D03*
X283210Y551688D02*
D03*
X585812Y576414D02*
D03*
X431546Y1005840D02*
D03*
X277622Y455168D02*
D03*
D62*
X462280Y493268D02*
D03*
Y519430D02*
D03*
X444500D02*
D03*
Y493268D02*
D03*
D83*
X374396Y1260602D02*
D03*
X387096D02*
D03*
X374396Y1273302D02*
D03*
X387096Y1286002D02*
D03*
X374396D02*
D03*
X387096Y1273302D02*
D03*
M02*
