G04*
G04 #@! TF.GenerationSoftware,Altium Limited,CircuitStudio,1.5.1 (13)*
G04*
G04 Layer_Color=16770453*
%FSLAX44Y44*%
%MOMM*%
G71*
G01*
G75*
%ADD10R,0.9000X0.8000*%
%ADD11R,0.8000X0.9000*%
%ADD14R,1.2000X1.4000*%
%ADD15R,1.4000X1.2000*%
%ADD18R,1.7000X1.1000*%
%ADD58R,0.6500X2.6000*%
%ADD59R,0.9000X0.9500*%
D10*
X290576Y1057260D02*
D03*
Y1071260D02*
D03*
X758190Y1220612D02*
D03*
Y1206612D02*
D03*
X590550Y1055990D02*
D03*
Y1069990D02*
D03*
X450850Y1207120D02*
D03*
Y1221120D02*
D03*
X577850Y1055990D02*
D03*
Y1069990D02*
D03*
X453390Y1054834D02*
D03*
Y1068834D02*
D03*
X452374Y1119236D02*
D03*
Y1133236D02*
D03*
X440944Y1068832D02*
D03*
Y1054832D02*
D03*
X428244Y1054720D02*
D03*
Y1068720D02*
D03*
X466852Y1068832D02*
D03*
Y1054832D02*
D03*
D11*
X741568Y1240790D02*
D03*
X727568D02*
D03*
X460360Y1181100D02*
D03*
X474360D02*
D03*
X577708Y1196594D02*
D03*
X591708D02*
D03*
X461630Y1149350D02*
D03*
X475630D02*
D03*
X464424Y1096010D02*
D03*
X478424D02*
D03*
X464424Y1108710D02*
D03*
X478424D02*
D03*
X460360Y1168400D02*
D03*
X474360D02*
D03*
X333106Y1246124D02*
D03*
X347106D02*
D03*
X440070Y1080770D02*
D03*
X426070D02*
D03*
X440070Y1093216D02*
D03*
X426070D02*
D03*
D14*
X498492Y414274D02*
D03*
X516492D02*
D03*
X401210Y414020D02*
D03*
X419210D02*
D03*
X669180Y1002030D02*
D03*
X687180D02*
D03*
X404258Y298958D02*
D03*
X422258D02*
D03*
X653432D02*
D03*
X671432D02*
D03*
D15*
X474726Y1208168D02*
D03*
Y1226168D02*
D03*
D18*
X561340Y1085380D02*
D03*
Y1058380D02*
D03*
D58*
X454000Y791000D02*
D03*
Y747000D02*
D03*
X641500Y682000D02*
D03*
Y726000D02*
D03*
D59*
X610000Y649000D02*
D03*
X641500D02*
D03*
M02*
